<?xml version="1.0" standalone="no"?>
<!DOCTYPE svg PUBLIC "-//W3C//DTD SVG 1.1//EN" "http://www.w3.org/Graphics/SVG/1.1/DTD/svg11.dtd" >
<svg xmlns="http://www.w3.org/2000/svg" xmlns:xlink="http://www.w3.org/1999/xlink" version="1.1">
<metadata>
Created by FontForge 20170731 at Fri Mar 31 06:32:59 2023
 By Aleksey,,,
Copyright 2022 Black Foundry
</metadata>
<defs>
<font id="TRYGrtsk-SemiBoldTeraSlant" horiz-adv-x="835" >
  <font-face 
    font-family="TRY Grtsk SemiBold Tera Slant"
    font-weight="600"
    font-style="italic"
    font-stretch="expanded"
    units-per-em="1000"
    panose-1="0 0 0 0 0 0 0 0 0 0"
    ascent="800"
    descent="-200"
    x-height="548"
    cap-height="700"
    bbox="-238 -214 1520 979"
    underline-thickness="20"
    underline-position="-130"
    slope="-15"
    unicode-range="U+000D-F6C3"
  />
<missing-glyph horiz-adv-x="1020" 
d="M32 0l188 700h810l-188 -700h-810zM353 567l-117 -434h473l117 434h-473z" />
    <glyph glyph-name=".notdef" horiz-adv-x="1020" 
d="M32 0l188 700h810l-188 -700h-810zM353 567l-117 -434h473l117 434h-473z" />
    <glyph glyph-name=".null" horiz-adv-x="0" 
 />
    <glyph glyph-name=".null" horiz-adv-x="0" 
 />
    <glyph glyph-name="nonmarkingreturn" horiz-adv-x="333" 
 />
    <glyph glyph-name="CR" unicode="&#xd;" horiz-adv-x="0" 
 />
    <glyph glyph-name="space" unicode=" " horiz-adv-x="276" 
 />
    <glyph glyph-name="exclam" unicode="!" horiz-adv-x="375" 
d="M244 209h-146l121 491h168zM31 0l38 143h168l-38 -143h-168z" />
    <glyph glyph-name="quotedbl" unicode="&#x22;" horiz-adv-x="576" 
d="M118 377l78 323h156l-95 -323h-139zM376 377l78 323h155l-95 -323h-138z" />
    <glyph glyph-name="numbersign" unicode="#" horiz-adv-x="1015" 
d="M46 0l93 157h-146l32 120h184l86 145h-169l32 121h208l92 157h158l-92 -157h230l93 157h158l-92 -157h150l-32 -121h-189l-86 -145h175l-33 -120h-213l-92 -157h-158l92 157h-230l-92 -157h-159zM368 277h230l85 145h-230z" />
    <glyph glyph-name="dollar" unicode="$" horiz-adv-x="903" 
d="M391 -80h-81l20 72q-46 3 -86 10q-72 14 -120.5 41t-73 69t-24.5 101l180 24q-2 -41 20.5 -69t69.5 -42q29 -8 67 -11l47 176l-76 6q-56 8 -97 22.5t-68 36t-40.5 51t-13.5 66.5q0 53 26 96.5t78 75t129 49.5q76 17 174 17l18 69h81l-20 -72q71 -5 124 -20
q81 -24 121 -70.5t36 -116.5l-165 -25q2 56 -44 83q-34 21 -105 26l-44 -166l83 -6q77 -10 128 -32t76 -58t25 -90q0 -53 -24.5 -97.5t-76 -77.5t-131.5 -51t-191 -18h-4zM442 113q49 1 86 5q46 6 76 17.5t44 28t14 38.5q0 23 -10.5 37t-40.5 24t-89 18l-34 3zM446 425
l43 162q-46 -1 -80 -6q-43 -5 -69.5 -16.5t-38.5 -27t-12 -35.5q0 -21 11.5 -35t40.5 -23t81 -17z" />
    <glyph glyph-name="percent" unicode="%" horiz-adv-x="1107" 
d="M945 700h181l-924 -700h-182zM368 710q62 0 104 -18t63.5 -51t21.5 -77q0 -50 -30.5 -96t-87.5 -75t-137 -29q-61 0 -103 18t-64 51t-22 76q0 56 32 101.5t89 72.5t134 27zM319 464q36 0 61 12.5t38 33t13 43.5q0 18 -8.5 31t-26 19.5t-44.5 6.5q-36 0 -61.5 -12.5
t-38 -32.5t-12.5 -44q0 -18 8 -31t25.5 -19.5t45.5 -6.5zM847 335q62 0 104 -18t63.5 -51t21.5 -77q0 -49 -30.5 -95t-87.5 -75t-137 -29q-61 0 -103 18t-64 50.5t-22 76.5q0 56 31.5 101.5t89 72t134.5 26.5zM798 90q36 0 61 12.5t38 32.5t13 44q0 18 -8.5 30.5t-26 19.5
t-44.5 7q-37 0 -61.5 -12.5t-37.5 -33t-13 -43.5q0 -18 8.5 -31t25.5 -19.5t45 -6.5z" />
    <glyph glyph-name="ampersand" unicode="&#x26;" horiz-adv-x="965" 
d="M317 -11q-76 0 -131 13t-91 36.5t-53 55.5t-17 72t15 73t49 61t89 52q35 14 80 28q-2 2 -4 5q-21 23 -33.5 44t-18.5 41t-6 39q0 59 35 104.5t101 71.5t162 26q77 0 133.5 -19t88 -54.5t31.5 -85.5q0 -35 -15 -64t-47 -54t-83 -47q-36 -16 -83 -31l139 -123q9 8 18 18
q42 45 71 106l154 -21q-31 -79 -89 -142q-25 -27 -53 -51l161 -143h-220l-70 59q-58 -28 -123 -45q-92 -25 -190 -25zM349 299q-40 -11 -68 -22q-32 -13 -50 -26t-25.5 -28t-7.5 -33q0 -17 8 -31.5t25 -24.5t43 -16t62 -6q67 0 128 16q32 8 62 20zM425 434v0
q53 15 85.5 27.5t49 24t22.5 24t6 26.5q0 19 -11 32t-33.5 19.5t-55.5 6.5q-41 0 -69.5 -9.5t-42.5 -26.5t-14 -41q0 -11 4 -21.5t14.5 -22.5t30.5 -28q6 -5 14 -11z" />
    <glyph glyph-name="quotesingle" unicode="'" horiz-adv-x="318" 
d="M118 377l78 323h156l-95 -323h-139z" />
    <glyph glyph-name="parenleft" unicode="(" horiz-adv-x="430" 
d="M147 -150q-26 46 -43.5 94.5t-26.5 97t-9 94.5q0 99 30.5 192.5t95 186t168.5 185.5h160q-80 -80 -136 -152.5t-91 -140.5t-51.5 -133.5t-16.5 -133.5q0 -33 4 -68t12 -71.5t21 -74t30 -76.5h-147z" />
    <glyph glyph-name="parenright" unicode=")" horiz-adv-x="431" 
d="M285 700q27 -46 44 -95.5t26 -98.5t9 -96q0 -95 -30.5 -188t-95 -185.5t-167.5 -186.5h-161q80 81 136 153t91 139t51.5 132.5t16.5 133.5q0 33 -4 68.5t-12 72.5t-20.5 74.5t-30.5 76.5h147z" />
    <glyph glyph-name="asterisk" unicode="*" horiz-adv-x="523" 
d="M241 468l-145 30l36 117l142 -57l-15 145h126l-15 -145l141 57l37 -117l-146 -30l101 -106l-97 -75l-84 131l-84 -131l-98 75z" />
    <glyph glyph-name="plus" unicode="+" horiz-adv-x="618" 
d="M453 567l-41 -154h188l-31 -117h-189l-41 -154h-130l41 154h-188l32 117h187l42 154h130z" />
    <glyph glyph-name="comma" unicode="," horiz-adv-x="340" 
d="M53 150h168l-38 -142q-19 -72 -46 -111t-69.5 -54t-110.5 -14l16 88q36 0 57 7t33 26q12 18 21 50h-71z" />
    <glyph glyph-name="hyphen" unicode="-" horiz-adv-x="497" 
d="M35 224l38 139h400l-37 -139h-401z" />
    <glyph glyph-name="period" unicode="." horiz-adv-x="340" 
d="M13 0l40 150h168l-40 -150h-168z" />
    <glyph glyph-name="slash" unicode="/" horiz-adv-x="482" 
d="M-113 -150l511 850h170l-511 -850h-170z" />
    <glyph glyph-name="zero" unicode="0" horiz-adv-x="932" 
d="M401 -11q-66 0 -119.5 11.5t-94.5 34t-68.5 54.5t-41.5 74t-14 91q0 70 21.5 136.5t63.5 124.5t103.5 102t140.5 69t175 25q66 0 120.5 -12t96 -34.5t69.5 -55.5t42.5 -75.5t14.5 -94.5q0 -68 -22 -133t-65 -122.5t-105 -101t-141.5 -68.5t-175.5 -25zM424 122
q59 0 108 17t87.5 47t65 69.5t40.5 84.5t14 92q0 29 -7 52t-20.5 40.5t-36 29.5t-54 18t-72.5 6q-58 0 -107.5 -17t-88 -47t-65 -69.5t-40.5 -85t-14 -92.5q0 -29 6.5 -52t20.5 -40.5t36.5 -29t54 -17.5t72.5 -6z" />
    <glyph glyph-name="one" unicode="1" horiz-adv-x="771" 
d="M-25 0l35 133h287l114 425l-278 -48l37 137l301 53h147l-152 -567h244l-35 -133h-700z" />
    <glyph glyph-name="two" unicode="2" horiz-adv-x="805" 
d="M21 132l394 189q58 27 97.5 48.5t65 39t39 33t19 30t5.5 28.5q0 26 -16 43.5t-49.5 27t-85.5 9.5q-62 0 -108 -14t-76.5 -42t-46.5 -71l-162 28q30 73 85.5 124.5t136.5 78.5t189 27q102 0 170.5 -23.5t102.5 -66.5t34 -102q0 -31 -9 -59t-31.5 -55.5t-61.5 -56.5
t-99 -61.5t-145 -70.5l-167 -83h426l-35 -133h-707z" />
    <glyph glyph-name="three" unicode="3" horiz-adv-x="843" 
d="M655 355h1q38 -10 64 -29.5t39 -47t13 -64.5q0 -48 -25.5 -89t-77 -71.5t-128.5 -47.5t-179 -17q-87 0 -152.5 12.5t-109.5 38t-65 65.5t-18 95l168 31q-2 -29 7.5 -51t31.5 -36.5t58.5 -22t87.5 -7.5q62 0 105 8t69 22t38 33t12 40q0 24 -11 40.5t-36 24.5t-66 8h-182
l34 126h181q38 0 66.5 6.5t48 19t29 30t9.5 38.5q0 18 -8 32.5t-27 24t-50.5 14.5t-78.5 5q-52 0 -91.5 -7t-67.5 -21t-47.5 -35t-31.5 -50l-155 32q23 52 58.5 90.5t86 64.5t117 38.5t149.5 12.5q80 0 139 -11t99.5 -33t60.5 -54.5t20 -75.5q0 -41 -17.5 -74.5t-53 -59
t-87.5 -41.5q-13 -4 -27 -7z" />
    <glyph glyph-name="four" unicode="4" horiz-adv-x="856" 
d="M631 0h-162l34 128h-518l33 122l633 450h168l-120 -446h132l-34 -126h-132zM537 254l74 277l-394 -277h320z" />
    <glyph glyph-name="five" unicode="5" horiz-adv-x="830" 
d="M365 -11q-74 0 -134 11.5t-104.5 34t-71 56t-33.5 77.5l171 36q1 -29 22 -48t61 -28t97 -9q60 0 103 10.5t71 28.5t41.5 42t13.5 51q0 23 -8.5 40t-28 29t-52 18t-80.5 6q-36 0 -67.5 -3.5t-58 -10t-47 -17t-36.5 -24.5l-142 16l149 395h612l-34 -125h-472l-62 -163
q29 16 63 27t73.5 16t85.5 5q71 0 122.5 -12.5t85.5 -36.5t50.5 -59.5t16.5 -82.5q0 -62 -25.5 -113t-76.5 -88.5t-127 -58t-178 -20.5z" />
    <glyph glyph-name="six" unicode="6" horiz-adv-x="878" 
d="M62 245q0 60 14.5 117t43.5 109t71 96t98 76t125 50t150 18q98 0 167 -19.5t108 -59t44 -98.5l-166 -34q-2 28 -22 46t-56.5 27.5t-92.5 9.5q-52 0 -95.5 -10.5t-78.5 -31.5t-61.5 -52t-44.5 -71q-12 -27 -21 -58l10 8q49 35 118.5 54.5t152.5 19.5q73 0 128 -12
t92 -35.5t55 -57.5t18 -79q0 -53 -24.5 -101t-75.5 -86t-129.5 -60t-186.5 -22q-71 0 -126.5 11t-96 31.5t-66.5 51.5t-39 72t-13 90zM416 117q59 0 101.5 9.5t70.5 26.5t41.5 39t13.5 46q0 21 -8.5 36.5t-27.5 26.5t-52 16.5t-81 5.5q-60 0 -104.5 -9.5t-73.5 -26
t-43.5 -38t-14.5 -46.5q0 -21 9 -37t30 -27t55 -16.5t84 -5.5z" />
    <glyph glyph-name="seven" unicode="7" horiz-adv-x="730" 
d="M786 569l-522 -569h-200l533 567h-493l37 133h681z" />
    <glyph glyph-name="eight" unicode="8" horiz-adv-x="877" 
d="M374 -11q-89 0 -154.5 12.5t-108.5 35.5t-64.5 56.5t-21.5 75.5q0 50 29 89.5t84 67.5q44 23 103 37q-10 4 -18 8q-42 20 -63.5 51t-21.5 71q0 46 26 85.5t77.5 69.5t127 46.5t174.5 16.5q78 0 138 -11t101 -32.5t62 -54t21 -75.5q0 -37 -17.5 -68.5t-51.5 -57.5t-83 -44
q-16 -6 -32 -11q20 -6 38 -14q45 -21 67.5 -52.5t22.5 -73.5q0 -49 -26 -90.5t-79.5 -72.5t-135.5 -48t-194 -17zM396 110q64 0 109 8t73 22t41.5 33.5t13.5 41.5q0 20 -10 34.5t-32 24.5t-58.5 15t-89.5 5q-66 0 -112 -7.5t-74.5 -22t-41.5 -34t-13 -43.5q0 -19 11 -33.5
t34.5 -24t60.5 -14.5t88 -5zM689 517q0 18 -9.5 31.5t-30 22.5t-52 14t-75.5 5q-57 0 -98 -7.5t-66.5 -21t-38 -31.5t-12.5 -39q0 -18 10 -31t30.5 -22t52 -13.5t75.5 -4.5q58 0 98.5 7.5t66.5 21t37.5 30.5t11.5 38z" />
    <glyph glyph-name="nine" unicode="9" horiz-adv-x="877" 
d="M856 457q0 -61 -15 -119.5t-44 -111t-72 -96t-98.5 -75t-123.5 -49t-148 -17.5q-99 0 -168.5 19.5t-107 59.5t-41.5 98l166 33q3 -27 22.5 -45t54.5 -27.5t82 -9.5q53 0 98.5 11t82.5 32.5t64.5 52.5t46.5 72q13 26 21 56q-29 -23 -68 -40q-46 -21 -103 -32t-121 -11
q-70 0 -123 11.5t-88.5 35t-53.5 58t-18 80.5q0 52 25 100t76 86t130 60t187 22q70 0 124.5 -10.5t95 -31.5t66.5 -51.5t38.5 -71t12.5 -89.5zM504 583q-59 0 -102 -9.5t-71 -26.5t-41 -39t-13 -47q0 -21 8.5 -36.5t28 -26.5t52.5 -16.5t82 -5.5q57 0 100 9.5t72.5 26
t45 38.5t15.5 48q0 20 -10 36t-31.5 27t-55 16.5t-80.5 5.5z" />
    <glyph glyph-name="colon" unicode=":" horiz-adv-x="345" 
d="M13 0l40 150h168l-40 -150h-168zM124 397l40 150h168l-40 -150h-168z" />
    <glyph glyph-name="semicolon" unicode=";" horiz-adv-x="344" 
d="M53 150h168l-38 -142q-19 -72 -46 -111t-69.5 -54t-110.5 -14l16 88q36 0 57 7t33 26q12 18 21 50h-71zM123 397l40 150h168l-40 -150h-168z" />
    <glyph glyph-name="less" unicode="&#x3c;" horiz-adv-x="618" 
d="M59 292l31 116l562 207l-40 -148l-365 -122l300 -125l-37 -135z" />
    <glyph glyph-name="equal" unicode="=" horiz-adv-x="618" 
d="M599 410h-506l31 116h506zM538 183h-506l31 116h506z" />
    <glyph glyph-name="greater" unicode="&#x3e;" horiz-adv-x="618" 
d="M601 408l-31 -116l-562 -207l41 152l362 122l-298 123l37 133z" />
    <glyph glyph-name="question" unicode="?" horiz-adv-x="785" 
d="M487 579q-45 0 -83.5 -7.5t-69 -23.5t-52 -40.5t-33.5 -58.5l-160 30q25 74 80.5 125.5t140 79t194.5 27.5q76 0 132 -13.5t92.5 -37t55 -56t18.5 -72.5q0 -44 -17.5 -74.5t-47 -52t-65.5 -37.5t-73 -31t-70 -31.5t-57 -39.5t-32 -57h-165q12 49 37.5 84t58.5 58.5
t68.5 40.5t69 29.5t61 25t43.5 28t16 37.5q0 15 -7.5 27.5t-23.5 21.5t-43.5 13.5t-67.5 4.5zM217 0l39 143h167l-38 -143h-168z" />
    <glyph glyph-name="at" unicode="@" horiz-adv-x="1227" 
d="M860 -9q-56 0 -94 15.5t-53 45.5q-6 14 -8 30q-21 -20 -46 -37q-42 -27 -90.5 -42t-101.5 -15q-55 0 -93 15.5t-57 43t-19 61.5q0 38 14.5 67.5t46 51.5t82 36.5t121.5 20.5l192 15v1q9 33 0.5 55.5t-32 33.5t-60.5 11q-40 0 -69.5 -9t-48.5 -27t-29 -47l-147 18
q24 54 64.5 91t101.5 55.5t143 18.5q69 0 116.5 -14.5t74.5 -42t34 -65.5t-5 -84l-44 -164q-9 -33 3 -48.5t45 -15.5q32 0 67 19t65 55t49 86t19 112q0 53 -15.5 98.5t-47 82t-79.5 63t-112 40.5t-145 14q-109 0 -200.5 -25.5t-163.5 -72t-122 -109t-76.5 -136.5t-26.5 -155
q0 -52 15 -96.5t44.5 -79t73 -59t101.5 -37.5t129 -13q78 0 157.5 14t147.5 38l12 -61q-73 -28 -157.5 -41.5t-163.5 -13.5q-89 0 -159 16t-122 46t-86 72.5t-50.5 96t-16.5 115.5q0 92 30 176t86.5 154.5t137.5 123.5t184.5 82t226.5 29q92 0 167.5 -16.5t132 -48t95 -75.5
t58 -99.5t19.5 -120.5q0 -75 -24.5 -138.5t-68 -111t-100.5 -73.5t-122 -26zM732 212l2 4l-194 -18q-44 -4 -66.5 -19t-25.5 -40q-2 -23 14.5 -36.5t54.5 -13.5q40 0 76.5 10t65.5 27.5t48 40.5q18 21 25 45z" />
    <glyph glyph-name="A" unicode="A" horiz-adv-x="935" 
d="M689 0l-39 150h-412l-119 -150h-186l563 700h172l189 -700h-168zM617 276l-68 265l-210 -265h278z" />
    <glyph glyph-name="B" unicode="B" horiz-adv-x="944" 
d="M32 0l188 700h489q49 0 87 -11t65.5 -32t41.5 -51t14 -69q0 -36 -13.5 -67.5t-39.5 -56.5t-65 -42q-21 -9 -47 -16q26 -6 45 -18q34 -20 50 -52t16 -71q0 -62 -33.5 -110.5t-97 -76t-156.5 -27.5h-544zM276 293l-46 -172h331q42 0 70.5 11.5t44 32.5t15.5 50
q0 26 -10.5 43t-31 26t-52.5 9h-321zM353 579l-45 -165h317q27 0 50 6t39.5 18t26 30t9.5 41q0 22 -9.5 38t-28.5 24t-48 8h-311z" />
    <glyph glyph-name="C" unicode="C" horiz-adv-x="951" 
d="M65 266q0 73 24.5 139.5t70.5 122t111 97t147.5 64t178.5 22.5q112 0 192 -28t123.5 -82t43.5 -133l-172 -34q0 47 -22 79t-67.5 48.5t-115.5 16.5q-64 0 -117.5 -16t-95 -44t-70 -65t-43 -79.5t-14.5 -88.5q0 -30 8 -55t24 -45t41 -34t60.5 -21.5t81.5 -7.5
q69 0 123.5 16.5t94 49.5t63.5 83l164 -34q-39 -84 -101.5 -139t-152 -82t-211.5 -27q-61 0 -111.5 8.5t-91.5 25t-72 40t-52 54.5t-31.5 68.5t-10.5 80.5z" />
    <glyph glyph-name="D" unicode="D" horiz-adv-x="992" 
d="M32 0l188 700h404q64 0 116.5 -12t92.5 -36t68 -59t42 -80t14 -100q0 -71 -21.5 -133.5t-62 -114t-98 -88.5t-129.5 -57t-156 -20h-458zM489 133q53 0 99 14t82 39t61 58.5t38.5 73.5t13.5 83q0 33 -7 59t-21 46t-35.5 33.5t-50 20.5t-64.5 7h-252l-117 -434h253z" />
    <glyph glyph-name="E" unicode="E" horiz-adv-x="845" 
d="M32 0l188 700h679l-35 -128h-513l-40 -152h455l-34 -126h-455l-45 -166h521l-34 -128h-687z" />
    <glyph glyph-name="F" unicode="F" horiz-adv-x="826" 
d="M32 0l188 700h679l-37 -133h-509l-48 -179h452l-36 -133h-452l-68 -255h-169z" />
    <glyph glyph-name="G" unicode="G" horiz-adv-x="1012" 
d="M497 254l32 121h435l-100 -375h-123l18 116q-35 -34 -76 -59q-56 -33 -122 -50.5t-142 -17.5q-72 0 -128.5 12.5t-98.5 35.5t-70 57.5t-42 77.5t-14 96q0 73 24 139t70.5 121.5t111.5 96.5t147.5 63.5t179.5 22.5q111 0 191.5 -26t124 -77.5t44.5 -127.5l-172 -34
q1 43 -22 72.5t-68.5 44.5t-116.5 15q-65 0 -118 -16t-94.5 -43.5t-70 -64.5t-43 -80t-14.5 -88q0 -30 8.5 -55.5t26 -45.5t44 -34t62.5 -21.5t81 -7.5q80 0 143 17.5t108 53.5q32 26 53 61h-269z" />
    <glyph glyph-name="H" unicode="H" horiz-adv-x="1021" 
d="M32 0l188 700h169l-74 -273h474l74 273h168l-188 -700h-168l79 293h-475l-78 -293h-169z" />
    <glyph glyph-name="I" unicode="I" horiz-adv-x="379" 
d="M32 0l188 700h169l-188 -700h-169z" />
    <glyph glyph-name="J" unicode="J" horiz-adv-x="563" 
d="M456 230q-17 -64 -45 -109.5t-68.5 -74.5t-96 -43t-126.5 -14q-37 0 -76.5 3t-80.5 11l30 134q20 -3 38.5 -5.5t37 -3.5t36.5 -1q56 0 94 14t61 43.5t35 74.5l119 441h168z" />
    <glyph glyph-name="K" unicode="K" horiz-adv-x="914" 
d="M32 0l188 700h166l-80 -298l458 298h242l-495 -322l335 -378h-216l-259 286l-116 -75l-57 -211h-166z" />
    <glyph glyph-name="L" unicode="L" horiz-adv-x="765" 
d="M32 0l188 700h169l-153 -567h456l-36 -133h-624z" />
    <glyph glyph-name="M" unicode="M" horiz-adv-x="1184" 
d="M32 0l188 700h180l187 -438l412 438h195l-188 -700h-157l129 480l-346 -365h-140l-167 390l-135 -505h-158z" />
    <glyph glyph-name="N" unicode="N" horiz-adv-x="1003" 
d="M32 0l188 700h165l333 -524l140 524h155l-188 -700h-165l-332 523l-141 -523h-155z" />
    <glyph glyph-name="O" unicode="O" horiz-adv-x="1003" 
d="M441 -11q-73 0 -132.5 12.5t-104.5 36.5t-75.5 58t-46 77.5t-15.5 94.5q0 72 23.5 138t68.5 121.5t110.5 97t149.5 64t184 22.5q73 0 132 -13t104.5 -37t76 -58.5t46.5 -77.5t16 -94q0 -71 -23 -136.5t-68 -121t-110 -97t-149.5 -64.5t-186.5 -23zM461 122q64 0 117.5 16
t95.5 44t71 65.5t44 80t15 88.5q0 29 -7.5 54t-24 45t-42.5 34t-63 21.5t-86 7.5q-64 0 -117 -16.5t-94.5 -45t-70.5 -66t-44 -81t-15 -88.5q0 -29 7.5 -54t23.5 -44t41.5 -32.5t62.5 -21t86 -7.5z" />
    <glyph glyph-name="P" unicode="P" horiz-adv-x="894" 
d="M32 0l188 700h425q61 0 108.5 -15t79.5 -43.5t49 -68t17 -89.5q0 -85 -44 -148.5t-123.5 -98t-185.5 -34.5h-291l-54 -203h-169zM353 569l-63 -235h266q52 0 90 16t58.5 46.5t20.5 72.5q0 32 -12.5 54t-38.5 34t-65 12h-256z" />
    <glyph glyph-name="Q" unicode="Q" horiz-adv-x="1014" 
d="M441 -11q-73 0 -132.5 12.5t-104.5 36.5t-75.5 58t-46 77.5t-15.5 94.5q0 72 23.5 138t68.5 121.5t110.5 97t149.5 64t184 22.5q73 0 132 -13t104.5 -37t76 -58.5t46.5 -77.5t16 -94q0 -72 -23 -137.5t-68 -121t-110 -96.5q-15 -10 -31 -18l80 -139h-182l-50 85
q-71 -15 -153 -15zM456 260h173l45 -78v0q42 28 71 65t44 80t15 89q0 29 -7.5 54t-24 45t-42.5 34t-63 21.5t-86 7.5q-65 0 -118 -16.5t-94.5 -45t-70 -66t-43.5 -81t-15 -88.5q0 -29 7.5 -54t23.5 -44t41.5 -33t62.5 -21t86 -7q37 0 71 5z" />
    <glyph glyph-name="R" unicode="R" horiz-adv-x="909" 
d="M32 0l188 700h450q56 0 99.5 -13.5t73.5 -39.5t45.5 -63.5t15.5 -85.5q0 -75 -41.5 -130t-113.5 -85q-55 -23 -123 -29l168 -254h-190l-162 247h-175l-66 -247h-169zM354 572l-53 -197h289q33 0 60 7.5t45.5 22t28.5 34.5t10 45q0 22 -6.5 38t-19.5 27.5t-32.5 17
t-45.5 5.5h-276z" />
    <glyph glyph-name="S" unicode="S" horiz-adv-x="902" 
d="M26 213l179 24q-2 -41 21 -69t71.5 -41t120.5 -13q65 0 111.5 5.5t76 17t43.5 28t14 37.5q0 22 -11 36t-41.5 24t-88.5 18l-188 18q-56 8 -97.5 23t-68.5 37t-40 51.5t-13 67.5q0 52 26.5 95.5t78 74.5t128 47.5t176.5 16.5q122 0 204.5 -23.5t123 -70t36.5 -116.5
l-171 -25q1 56 -45 83t-160 27q-61 0 -104 -5.5t-69.5 -16.5t-38 -26.5t-11.5 -35.5q0 -21 11.5 -34.5t41 -22.5t80.5 -17l184 -16q77 -11 128 -32.5t76.5 -57t25.5 -88.5t-25 -98t-77 -78t-131.5 -51t-189.5 -18q-96 0 -168.5 13.5t-121.5 40.5t-73 69t-24 101z" />
    <glyph glyph-name="T" unicode="T" 
d="M260 0l152 567h-307l37 133h782l-36 -133h-308l-152 -567h-168z" />
    <glyph glyph-name="U" unicode="U" horiz-adv-x="958" 
d="M881 313q-23 -83 -61.5 -144t-94 -101t-130 -59.5t-168.5 -19.5q-102 0 -173 25t-111 70t-50 106.5t9 134.5l101 375h168l-101 -378q-17 -63 -2.5 -108t59.5 -68.5t118 -23.5q52 0 95 12t77 36t58.5 59.5t37.5 84.5l104 386h168z" />
    <glyph glyph-name="V" unicode="V" horiz-adv-x="897" 
d="M297 700l119 -515l397 515h190l-541 -700h-172l-166 700h173z" />
    <glyph glyph-name="W" unicode="W" horiz-adv-x="1286" 
d="M201 0l-76 700h165l50 -494l324 494h165l66 -500l313 500h184l-452 -700h-165l-72 514l-342 -514h-160z" />
    <glyph glyph-name="X" unicode="X" horiz-adv-x="839" 
d="M568 0l-155 251l-267 -251h-210l397 370l-204 330h191l145 -238l262 238h212l-395 -354l214 -346h-190z" />
    <glyph glyph-name="Y" unicode="Y" 
d="M260 0l73 272l-218 428h187l145 -291l295 291h208l-453 -444l-69 -256h-168z" />
    <glyph glyph-name="Z" unicode="Z" horiz-adv-x="826" 
d="M131 569l35 131h728l-33 -122l-623 -448h503l-35 -130h-731l33 125l617 444h-494z" />
    <glyph glyph-name="bracketleft" unicode="[" horiz-adv-x="453" 
d="M-8 -150l228 850h333l-32 -117h-177l-165 -616h177l-32 -117h-332z" />
    <glyph glyph-name="backslash" unicode="\" horiz-adv-x="491" 
d="M378 -150l-75 850h-159l75 -850h159z" />
    <glyph glyph-name="bracketright" unicode="]" horiz-adv-x="453" 
d="M235 -150l228 850h-332l-32 -117h177l-165 -616h-177l-31 -117h332z" />
    <glyph glyph-name="asciicircum" unicode="^" horiz-adv-x="627" 
d="M342 700h172l81 -420h-143l-49 300l-207 -300h-160z" />
    <glyph glyph-name="underscore" unicode="_" horiz-adv-x="611" 
d="M-80 -139l37 139h551l-37 -139h-551z" />
    <glyph glyph-name="grave" unicode="`" horiz-adv-x="500" 
d="M412 608h-134l-157 161h188z" />
    <glyph glyph-name="a" unicode="a" horiz-adv-x="782" 
d="M92 384q21 44 51 76.5t72 54.5t99 33t131 11q82 0 139.5 -16t90.5 -46t42 -71t-4 -91l-51 -189q-3 -14 -1 -22.5t10 -13t20 -4.5q5 0 11 0.5t10 1.5l-31 -107q-17 -5 -35.5 -8t-34.5 -3q-45 0 -71.5 16t-33.5 45q-5 17 -3 38l-14 -12q-35 -28 -77.5 -47.5t-91 -30
t-103.5 -10.5q-66 0 -112 17t-70 49t-24 77q0 53 30 92.5t96.5 65t175.5 33.5l252 18q6 23 2 41q-5 20 -21.5 34t-45 21.5t-70.5 7.5q-53 0 -90.5 -9t-61 -27.5t-35.5 -49.5zM543 248l-260 -21q-37 -4 -62.5 -13t-38.5 -23.5t-13 -35.5q0 -18 10 -30.5t31 -18.5t53 -6
q41 0 79 7t71 19t59 28.5t43.5 37.5t23.5 44v0z" />
    <glyph glyph-name="b" unicode="b" horiz-adv-x="864" 
d="M159 0h-142l201 750h159l-76 -286q11 10 22 19q49 36 110 56t132 20q50 0 90.5 -10t71.5 -28.5t51.5 -45t31.5 -60t11 -73.5q0 -59 -18.5 -112t-53 -97.5t-82 -76.5t-105 -49.5t-122.5 -17.5q-80 0 -135.5 21t-86.5 60q-12 15 -21 32zM413 113q45 0 83.5 11t68 30.5
t50.5 46t32 57.5t11 65q0 22 -6.5 40t-19 31.5t-32 22.5t-45.5 13.5t-60 4.5q-64 0 -114 -19.5t-83.5 -55t-46.5 -84.5q-10 -38 -4.5 -68t26.5 -51t56.5 -32.5t83.5 -11.5z" />
    <glyph glyph-name="c" unicode="c" horiz-adv-x="788" 
d="M775 356l-156 -29q2 37 -14.5 61.5t-53 36.5t-93.5 12q-48 0 -87.5 -12t-70 -32.5t-52 -48t-32 -59.5t-10.5 -66q0 -21 6 -38t18.5 -30t31.5 -22t46 -13.5t61 -4.5q51 0 94 12t74.5 37.5t49.5 64.5l149 -30q-26 -69 -82 -115t-135 -68.5t-175 -22.5q-59 0 -107 10
t-84.5 28.5t-61 45t-37 60t-12.5 72.5q0 57 19.5 109t57 96.5t91 78t122 52t150.5 18.5q101 0 166.5 -26.5t97 -72.5t29.5 -104z" />
    <glyph glyph-name="d" unicode="d" horiz-adv-x="862" 
d="M741 750h159l-201 -750h-143l15 86q-14 -12 -29 -23q-48 -36 -109 -55t-132 -19q-50 0 -91.5 9.5t-72.5 28t-51.5 45t-31.5 59.5t-11 73q0 60 19.5 113t55 97.5t84 77t108.5 50t127 17.5q75 0 127.5 -22.5t82.5 -62.5q8 -11 14 -22zM367 113q65 0 115 19.5t83.5 55.5
t46.5 85q10 37 4.5 67t-26 51t-55.5 32.5t-84 11.5q-45 0 -83 -11t-68 -30.5t-51 -46t-31.5 -58.5t-10.5 -67q0 -21 6 -38.5t18.5 -30.5t32 -22t45.5 -13.5t58 -4.5z" />
    <glyph glyph-name="e" unicode="e" horiz-adv-x="812" 
d="M346 -11q-60 0 -108.5 10t-85 28.5t-61 44.5t-36.5 59.5t-12 71.5q0 56 18.5 108.5t54.5 97.5t88.5 78.5t120.5 52.5t150 19q75 0 131.5 -16.5t94.5 -45.5t57.5 -67.5t19.5 -82.5q0 -31 -6.5 -57t-19.5 -53h-551q-1 -8 -1 -16q0 -21 6.5 -39t19.5 -32.5t33.5 -23.5
t49 -14t64.5 -5q55 0 97 8.5t71 26.5t43 43l148 -27q-30 -56 -81.5 -93.5t-127 -56.5t-177.5 -19zM227 332h400q1 3 1 5q0 28 -10 47.5t-30.5 33t-52.5 20t-76 6.5q-51 0 -92 -10.5t-72 -30.5t-52 -47q-9 -11 -16 -24z" />
    <glyph glyph-name="f" unicode="f" horiz-adv-x="532" 
d="M204 549q21 76 60.5 122.5t101.5 68t149 21.5q34 0 70.5 -3.5t65.5 -9.5l-37 -117q-16 3 -32.5 5t-34.5 3.5t-36 1.5q-43 0 -72.5 -9.5t-48.5 -30.5q-17 -20 -27 -53h232l-32 -120h-232l-114 -428h-160l114 428h-115l32 120h115z" />
    <glyph glyph-name="g" unicode="g" horiz-adv-x="788" 
d="M439 559q68 0 120.5 -10t88.5 -29q13 -6 24 -14q33 36 76 54q49 22 103 16l-40 -129q-31 6 -59 4q-18 -1 -34 -6q4 -15 4 -33q0 -44 -24 -81.5t-69.5 -64.5t-111 -42t-148.5 -15q-69 0 -121 10h-2q-28 -3 -43 -13q-20 -13 -20 -34q0 -11 6.5 -19.5t21.5 -13t40 -5.5
l250 -5q64 -1 106.5 -15.5t63 -41.5t20.5 -66q0 -50 -28 -90t-84 -68.5t-139 -43.5t-193 -15q-84 0 -144.5 8t-98.5 23.5t-56.5 39t-18.5 53.5q0 41 26 69t74 45q27 10 61 16q-6 1 -11 3q-28 12 -42 33t-14 50q0 36 27.5 65.5t80.5 47.5q13 4 28 8q-33 19 -49 45
q-18 27 -18 60q0 46 23.5 83t68 64.5t109 42t146.5 14.5zM201 14q-30 -1 -52 -8q-24 -8 -37 -22.5t-13 -33.5q0 -15 9 -26.5t29.5 -18.5t53 -10.5t79.5 -3.5q68 0 117 6t79.5 17t44.5 25.5t14 31.5q0 19 -16 30t-53 11zM562 399q0 15 -8 27t-24.5 20t-42.5 12t-61 4
q-43 0 -75.5 -7t-54 -19t-32.5 -29.5t-11 -38.5q0 -20 14 -33.5t44.5 -20.5t78.5 -7q57 0 95.5 11t57.5 31.5t19 49.5z" />
    <glyph glyph-name="h" unicode="h" 
d="M17 0l201 750h159l-79 -297q35 34 76.5 57.5t88.5 36t98 12.5q82 0 133.5 -33t69.5 -89.5t-1 -128.5l-83 -308h-160l78 290q12 44 2.5 75t-39 47t-79.5 16q-41 0 -78.5 -11.5t-68.5 -33t-53.5 -52t-34.5 -67.5l-71 -264h-159z" />
    <glyph glyph-name="i" unicode="i" horiz-adv-x="339" 
d="M17 0l147 548h159l-146 -548h-160zM181 615l36 135h162l-36 -135h-162z" />
    <glyph glyph-name="j" unicode="j" horiz-adv-x="339" 
d="M16 -2l147 550h160l-146 -547q-21 -79 -57 -126t-86.5 -66.5t-117.5 -19.5q-28 0 -54 2.5t-50 6.5l27 119q17 -2 33 -3.5t29 -1.5q31 0 53.5 9t38 27.5t23.5 49.5zM181 615l36 135h162l-36 -135h-162z" />
    <glyph glyph-name="k" unicode="k" horiz-adv-x="759" 
d="M17 0l201 750h158l-109 -408l320 206h225l-377 -241l253 -307h-196l-183 225l-89 -60l-45 -165h-158z" />
    <glyph glyph-name="l" unicode="l" horiz-adv-x="339" 
d="M176 0h-159l201 750h159z" />
    <glyph glyph-name="m" unicode="m" horiz-adv-x="1248" 
d="M17 0l147 548h143l-16 -96q31 33 67.5 57t80 37t91.5 13q53 0 93 -15.5t65.5 -43.5t35.5 -64q24 28 52.5 51t61.5 39t70.5 24.5t79.5 8.5q59 0 101.5 -18.5t66.5 -50.5t30.5 -73.5t-5.5 -88.5l-88 -328h-160l80 298q10 40 1.5 69t-35.5 44.5t-72 15.5q-37 0 -69.5 -11
t-58 -32.5t-44 -51.5t-29.5 -68l-71 -264h-160l80 299q11 40 2 68.5t-36.5 44t-71.5 15.5q-38 0 -70 -11.5t-58 -33t-44.5 -51.5t-29.5 -68l-71 -263h-159z" />
    <glyph glyph-name="n" unicode="n" 
d="M17 0l147 548h142l-17 -105q35 37 77.5 62.5t92 39.5t101.5 14q82 0 133.5 -33t70 -89.5t-0.5 -128.5l-83 -308h-160l78 290q12 44 2.5 75t-39 47t-79.5 16q-41 0 -79 -11.5t-69 -33t-53.5 -52.5t-33.5 -69l-71 -262h-159z" />
    <glyph glyph-name="o" unicode="o" horiz-adv-x="827" 
d="M347 -11q-60 0 -109 10t-85.5 28t-61 44.5t-37 59.5t-12.5 72q0 56 19 108.5t56.5 97.5t90.5 78.5t121.5 52.5t150.5 19q61 0 110 -10t85.5 -28t61.5 -44.5t37 -59t12 -71.5q0 -57 -19 -109.5t-55.5 -97.5t-90 -78.5t-122 -52.5t-152.5 -19zM370 111q48 0 88 12.5
t70.5 34.5t52 50.5t32 60t10.5 63.5q0 20 -6 36.5t-19 29t-32 21.5t-46 13.5t-62 4.5q-48 0 -87.5 -12.5t-70 -34.5t-52 -50t-32 -60t-10.5 -64q0 -19 5.5 -36t18.5 -29.5t32.5 -21.5t46.5 -13.5t61 -4.5z" />
    <glyph glyph-name="p" unicode="p" horiz-adv-x="862" 
d="M307 548l-16 -93q15 15 32 28q49 36 110 56t132 20q50 0 90.5 -10t71.5 -28.5t51.5 -45t31.5 -60t11 -73.5q0 -59 -18.5 -112t-53 -97.5t-82 -76.5t-105 -49.5t-122.5 -17.5q-80 0 -135.5 21t-86.5 60q-9 12 -16 24l-80 -294h-159l201 748h143zM413 113q45 0 83.5 11
t68 30.5t50.5 46t32 57.5t11 65q0 22 -6.5 40t-19 31.5t-32 22.5t-45.5 13.5t-60 4.5q-64 0 -114 -19.5t-83.5 -55t-46.5 -84.5q-10 -38 -4.5 -68t26.5 -51t56.5 -32.5t83.5 -11.5z" />
    <glyph glyph-name="q" unicode="q" horiz-adv-x="862" 
d="M703 548h143l-200 -748h-160l75 277q-9 -7 -19 -14q-48 -36 -109 -55t-132 -19q-50 0 -91.5 9.5t-72.5 28t-51.5 45t-31.5 59.5t-11 73q0 60 19.5 113t55 97.5t84 77t108.5 50t127 17.5q75 0 128 -22.5t82 -62.5q11 -14 18 -30zM367 113q49 0 89.5 11t72 32t53 50.5
t30.5 66.5q14 50 -0.5 86t-55 56t-105.5 20q-45 0 -83 -11t-68 -30.5t-51 -46t-31.5 -58.5t-10.5 -67q0 -21 6 -38.5t18.5 -30.5t32 -22t45.5 -13.5t58 -4.5z" />
    <glyph glyph-name="r" unicode="r" horiz-adv-x="557" 
d="M17 0l147 548h143l-22 -124q27 30 57 55q48 38 104.5 59t119.5 21q12 0 25.5 -1t21.5 -3l-48 -160q-13 4 -31.5 6t-37.5 2q-38 0 -72 -7.5t-63.5 -22t-54.5 -37t-43 -52.5q-16 -26 -26 -58l-61 -226h-159z" />
    <glyph glyph-name="s" unicode="s" horiz-adv-x="745" 
d="M404 451q-60 0 -97.5 -7.5t-54.5 -21t-17 -32.5q0 -15 9 -24.5t31 -15t60 -9.5l134 -12q72 -8 118 -24.5t67.5 -44.5t21.5 -70q0 -58 -39.5 -103.5t-119.5 -71.5t-204 -26q-113 0 -180.5 21.5t-97 61t-29.5 91.5l159 23q-3 -45 36 -67t120 -22q54 0 91 5t59 14t31.5 21
t9.5 27t-8 24.5t-28 15t-56 8.5l-134 11q-72 8 -118.5 26t-68.5 47.5t-22 72.5q0 55 39.5 98t117 67.5t189.5 24.5q100 0 164.5 -19t96.5 -56t32 -90l-153 -22q1 26 -15 43.5t-50.5 26.5t-93.5 9z" />
    <glyph glyph-name="t" unicode="t" horiz-adv-x="572" 
d="M107 213l57 215h-111l32 120h65q24 0 40 4t27.5 17.5t23.5 41.5t29 77h124l-38 -140h248l-32 -120h-248l-54 -200q-11 -41 -5 -66.5t31 -37t69 -11.5q18 0 40.5 2t47 5t46.5 7l-37 -121q-25 -5 -52 -9t-55 -6t-55 -2q-64 0 -107.5 15.5t-67 45t-28 70.5t9.5 93z" />
    <glyph glyph-name="u" unicode="u" horiz-adv-x="816" 
d="M800 548l-147 -548h-142l16 97q-24 -26 -52.5 -46t-61 -34t-68.5 -21t-76 -7q-63 0 -107.5 17t-69.5 48.5t-31 75.5t9 97l86 321h159l-81 -302q-7 -28 -4 -51.5t17 -40t39 -25.5t60 -9q31 0 59 7t53.5 20.5t47 33t38 45t25.5 56.5l71 266h160z" />
    <glyph glyph-name="v" unicode="v" horiz-adv-x="716" 
d="M222 0l-142 548h160l90 -368l277 368h176l-430 -548h-131z" />
    <glyph glyph-name="w" unicode="w" horiz-adv-x="1071" 
d="M167 0l-85 548h152l53 -359l246 359h135l62 -358l240 358h166l-375 -548h-131l-63 383l-269 -383h-131z" />
    <glyph glyph-name="x" unicode="x" horiz-adv-x="743" 
d="M477 0l-127 187l-216 -187h-196l336 289l-179 259h181l118 -170l203 170h199l-328 -273l191 -275h-182z" />
    <glyph glyph-name="y" unicode="y" horiz-adv-x="711" 
d="M603 548h175l-410 -560q-43 -57 -81 -95.5t-75.5 -61t-78.5 -32.5t-88 -10q-29 0 -56.5 3t-49.5 10l26 119q17 -3 35 -5t34 -2q34 0 59 6t47.5 20.5t46.5 41.5q15 17 34 41l-140 525h161l94 -380z" />
    <glyph glyph-name="z" unicode="z" horiz-adv-x="697" 
d="M95 430l31 118h598l-31 -117l-478 -314h396l-32 -117h-604l31 117l478 313h-389z" />
    <glyph glyph-name="braceleft" unicode="{" horiz-adv-x="488" 
d="M181 275q44 -10 66.5 -33t27 -57t-7.5 -77l-12 -48q-13 -48 1 -70t61 -22q18 0 35.5 1.5t34.5 3.5l-27 -117q-24 -4 -49 -6t-46 -2q-71 0 -114.5 20t-57 60.5t2.5 102.5l23 86q6 28 4 47.5t-15 32t-36.5 19.5t-58.5 10l30 113q41 1 69 7.5t46 19t29 31.5t18 44l26 98
q17 61 48.5 96.5t81 51t120.5 15.5q22 0 48 -1.5t56 -6.5l-36 -117q-15 2 -33.5 3.5t-36.5 1.5q-30 0 -50.5 -8.5t-35 -29t-24.5 -56.5l-15 -57q-13 -50 -34.5 -82.5t-55 -50t-83.5 -23.5z" />
    <glyph glyph-name="bar" unicode="|" horiz-adv-x="369" 
d="M145 -170h-158l250 930h158z" />
    <glyph glyph-name="braceright" unicode="}" horiz-adv-x="488" 
d="M477 325q-43 4 -67.5 12.5t-35 21t-10.5 30.5t7 43l21 77q16 60 4 103t-53 66.5t-112 23.5q-22 0 -46 -1.5t-56 -6.5l-26 -117q18 2 37 3.5t38 1.5q42 0 56 -21.5t2 -67.5l-15 -54q-12 -46 -7 -79t28.5 -54t67.5 -30q-54 -4 -88 -23.5t-55 -55.5t-36 -92l-13 -52
q-9 -32 -22 -50.5t-33.5 -26.5t-50.5 -8q-19 0 -37 1.5t-34 3.5l-36 -117q21 -3 39.5 -4.5t34.5 -2.5t32 -1q67 0 117 17t83 55.5t50 103.5l23 85q8 27 17.5 44.5t26.5 29t45.5 18t72.5 11.5z" />
    <glyph glyph-name="asciitilde" unicode="~" horiz-adv-x="618" 
d="M204 333q-27 0 -63.5 -9.5t-78.5 -31.5l32 122q46 21 82.5 30t65.5 9q35 0 63.5 -9.5t53.5 -22.5t50 -22.5t54 -9.5q26 0 61.5 10t80.5 31l-32 -122q-46 -22 -82 -30.5t-64 -8.5q-35 0 -63 9.5t-52.5 22.5t-50.5 22.5t-57 9.5z" />
    <glyph glyph-name="uni00A0" unicode="&#xa0;" horiz-adv-x="276" 
 />
    <glyph glyph-name="exclamdown" unicode="&#xa1;" horiz-adv-x="375" 
d="M132 339h146l-119 -491h-169zM345 548l-38 -143h-168l39 143h167z" />
    <glyph glyph-name="cent" unicode="&#xa2;" horiz-adv-x="785" 
d="M143 -80l55 89q-25 7 -46 18q-36 18 -60.5 44t-37 59.5t-12.5 71.5q0 57 19.5 109.5t56.5 97.5t90.5 78.5t122.5 52.5t150 19q31 0 59 -3l40 64h82l-48 -76q18 -5 34 -12q65 -26 96.5 -72t30.5 -104l-156 -29q2 37 -15 61.5t-53 36.5q-4 1 -9 3l-197 -316q11 -1 23 -1
q51 0 94 12t75 37.5t50 64.5l148 -30q-26 -69 -82 -115t-134.5 -68.5t-174.5 -22.5q-39 0 -73 4l-46 -73h-82zM271 125l195 312h-8q-48 0 -87.5 -12t-70.5 -32.5t-52 -48t-32 -59.5t-11 -66q0 -21 6 -38t19 -30t32 -22q4 -2 9 -4z" />
    <glyph glyph-name="sterling" unicode="&#xa3;" horiz-adv-x="825" 
d="M740 128l-34 -128h-731l34 128h29q50 0 89 16t61.5 47.5t22.5 78.5q0 8 -1 16h-158l21 81h121q-5 14 -9 29q-6 20 -10.5 41.5t-4.5 47.5q0 69 42 120t121 78.5t189 27.5q77 0 136.5 -12.5t100 -37t61 -61.5t21.5 -87l-182 -29q3 34 -12.5 56t-48.5 33t-84 11
q-54 0 -91 -13t-55 -37.5t-18 -56.5q0 -20 4 -37t10 -33.5t12 -33.5l2 -6h311l-21 -81h-277q-2 -55 -33 -97q-28 -38 -75 -61h457z" />
    <glyph glyph-name="currency" unicode="&#xa4;" horiz-adv-x="657" 
d="M350 167q-55 0 -98 20l-85 -85l-78 77l83 83q-20 38 -20 88t20 88l-83 82l78 78l86 -87q42 19 97 19q54 0 96 -19l87 87l77 -78l-83 -82q21 -38 21 -88t-21 -88l83 -83l-77 -77l-86 85q-42 -20 -97 -20zM350 267q43 0 67 22.5t24 60.5t-24.5 59.5t-66.5 21.5t-67 -21.5
t-25 -59.5t24.5 -60.5t67.5 -22.5z" />
    <glyph glyph-name="yen" unicode="&#xa5;" horiz-adv-x="846" 
d="M82 364l20 76h152l-133 260h188l144 -286l294 286h209l-267 -260h144l-21 -76h-201l-84 -82h258l-20 -75h-276l-55 -207h-168l55 207h-276l20 75h269l-42 82h-210z" />
    <glyph glyph-name="brokenbar" unicode="&#xa6;" horiz-adv-x="369" 
d="M286 355h-159l109 405h159zM145 -170h-158l114 425h158z" />
    <glyph glyph-name="section" unicode="&#xa7;" horiz-adv-x="853" 
d="M325 -211q-122 0 -200 22.5t-115.5 68.5t-39.5 117l170 20q-3 -37 15.5 -61t61.5 -35.5t113 -11.5q61 0 102 6t65.5 17.5t35 27t10.5 33.5q0 14 -5.5 24.5t-21.5 18.5t-45 15t-74 14l-130 21q-51 8 -88.5 21t-62.5 32t-36.5 44.5t-11.5 58.5q0 42 24 78t71 63
q26 15 58 26q-11 7 -20 14q-27 20 -41 47.5t-14 64.5q0 49 24.5 90.5t72.5 72t120.5 47t166.5 16.5q92 0 156.5 -13t105 -38.5t59.5 -62.5t21 -86l-170 -20q2 36 -17 58t-62.5 32t-114.5 10q-50 0 -85.5 -6t-57.5 -16.5t-31.5 -24.5t-9.5 -31q0 -12 5 -22t19.5 -18
t40.5 -15.5t69 -14.5l125 -20q56 -10 95.5 -24.5t64.5 -34.5t36 -45.5t11 -57.5q0 -44 -23 -81.5t-66 -64.5q-22 -14 -48 -25q9 -5 17 -12q27 -20 40 -46.5t13 -60.5q0 -49 -25.5 -91.5t-76 -74t-124.5 -49t-172 -17.5zM321 375q-23 -9 -38 -18q-24 -15 -34.5 -32t-10.5 -38
q0 -16 7.5 -28t24 -21.5t44 -17t66.5 -13.5l127 -20q22 -3 42 -8q29 15 46 30q25 23 25 56q0 17 -6.5 30.5t-22.5 23.5t-44 18t-73 14l-130 20q-12 2 -23 4z" />
    <glyph glyph-name="dieresis" unicode="&#xa8;" horiz-adv-x="500" 
d="M389 615l38 141h166l-38 -141h-166zM129 615l37 141h166l-37 -141h-166z" />
    <glyph glyph-name="copyright" unicode="&#xa9;" horiz-adv-x="1028" 
d="M757 401l-96 -14q1 23 -9 38t-29 23t-50 8q-33 0 -61 -11t-48.5 -30t-31.5 -43.5t-11 -51.5q0 -17 6 -30t17 -22.5t28.5 -14.5t40.5 -5q48 0 80.5 17.5t47.5 53.5l95 -14q-16 -41 -47.5 -70.5t-77.5 -45t-106 -15.5q-46 0 -80 9.5t-56 27.5t-33 43.5t-11 56.5
q0 44 18.5 83t52.5 69t80 48t101 18q86 0 132 -32.5t48 -95.5zM454 -51q-77 0 -139.5 15t-110 42t-79 66t-47.5 87t-16 105q0 78 25 150.5t72.5 134t115 106.5t152.5 70.5t185 25.5q76 0 139 -15t110.5 -43t80 -67.5t49 -88.5t16.5 -106q0 -78 -25 -149.5t-72 -132
t-115 -105.5t-153.5 -70t-187.5 -25zM459 13q83 0 155.5 20t131 57t100.5 88.5t64.5 114.5t22.5 135q0 48 -13 88.5t-39.5 72t-66 53.5t-91 33.5t-115.5 11.5q-88 0 -161 -21t-130.5 -59.5t-98 -91t-61.5 -116t-21 -134.5q0 -45 12.5 -84t39 -70t65 -53t90 -33.5
t116.5 -11.5z" />
    <glyph glyph-name="ordfeminine" unicode="&#xaa;" horiz-adv-x="519" 
d="M150 600q15 37 42.5 61t71.5 36t106 12q46 0 79.5 -9.5t53.5 -27t26.5 -44t-3.5 -60.5l-28 -105q-3 -10 1 -15q4 -6 16 -6q4 0 8 0.5t8 1.5l-21 -69q-11 -3 -24 -5t-27 -2q-31 0 -50 10t-25 28q-3 9 -3 18q-14 -12 -29 -21q-30 -18 -64 -26.5t-71 -8.5q-41 0 -67 11
t-38 29.5t-12 41.5q0 22 9 41.5t29 34.5t54.5 25.5t84.5 14.5l138 10l1 3q6 19 -0.5 31t-22.5 18t-42 6q-24 0 -42.5 -5t-30.5 -15t-19 -25zM400 511l2 6l-131 -12q-29 -2 -42.5 -11t-13.5 -25q0 -13 11 -21t34 -8t46 5t43 15t34 25q12 11 17 26z" />
    <glyph glyph-name="guillemotleft" unicode="&#xab;" horiz-adv-x="834" 
d="M149 268l206 -98l-39 -142l-291 164l44 165l380 165l-42 -156zM542 268l206 -98l-39 -142l-291 164l44 165l380 165l-42 -156z" />
    <glyph glyph-name="logicalnot" unicode="&#xac;" horiz-adv-x="618" 
d="M94 413h506l-74 -273h-130l43 156h-377z" />
    <glyph glyph-name="uni00AD" unicode="&#xad;" horiz-adv-x="0" 
 />
    <glyph glyph-name="registered" unicode="&#xae;" horiz-adv-x="986" 
d="M435 -11q-74 0 -133.5 13.5t-104.5 38t-75 59.5t-45 78.5t-15 94.5q0 70 23.5 135t68.5 120t109.5 96t147 64t180.5 23q73 0 132.5 -13.5t104.5 -39t75.5 -61t46 -80t15.5 -95.5q0 -68 -23 -132.5t-68 -119t-109.5 -95t-147.5 -63.5t-182 -23zM439 53q82 0 151.5 18
t125 51t95 78.5t60 100.5t20.5 116q0 43 -12 78.5t-37 63.5t-61.5 48t-85 30t-108.5 10q-86 0 -157 -19t-125.5 -53t-92.5 -80.5t-57 -101.5t-19 -117q0 -40 12 -74.5t36.5 -62t60.5 -47t84.5 -29.5t109.5 -10zM298 179l92 345h226q37 0 63 -12.5t39.5 -35t13.5 -52.5
q0 -34 -20 -62t-56 -44q-18 -8 -40 -12l71 -127h-96l-64 118h-111l-31 -118h-87zM459 455l-24 -90h140q35 0 52 15.5t17 36.5q0 18 -12 28t-36 10h-137z" />
    <glyph glyph-name="macron" unicode="&#xaf;" horiz-adv-x="500" 
d="M140 619l29 107h405l-28 -107h-406z" />
    <glyph glyph-name="degree" unicode="&#xb0;" horiz-adv-x="588" 
d="M397 710q63 0 105 -18t63.5 -50.5t21.5 -76.5q0 -50 -30.5 -96t-87.5 -75.5t-137 -29.5q-61 0 -103 18t-64 50t-22 75q0 57 31.5 103t89 73t133.5 27zM348 464q36 0 61.5 12.5t38 33t12.5 43.5q0 18 -8 31t-25.5 19.5t-43.5 6.5q-37 0 -62.5 -12t-38.5 -32.5t-13 -43.5
q0 -19 8.5 -31.5t26 -19.5t44.5 -7z" />
    <glyph glyph-name="plusminus" unicode="&#xb1;" horiz-adv-x="618" 
d="M481 615l-41 -154h188l-31 -117h-189l-41 -154h-130l41 154h-188l32 117h187l42 154h130zM507 5h-507l32 117h506z" />
    <glyph glyph-name="twosuperior" unicode="&#xb2;" horiz-adv-x="466" 
d="M106 539l243 93q31 14 48 24t24 19.5t7 19.5q0 12 -7.5 20t-23 12.5t-41.5 4.5q-31 0 -53 -6t-35 -18t-21 -31l-106 16q17 39 46 65.5t72.5 40.5t103.5 14q59 0 98.5 -12.5t60.5 -35t21 -53.5q0 -19 -7 -37t-26.5 -36t-56.5 -37t-98 -40l-63 -22h206l-21 -82h-392z" />
    <glyph glyph-name="threesuperior" unicode="&#xb3;" horiz-adv-x="467" 
d="M455 637q17 -5 28 -13q29 -21 29 -53q0 -34 -23.5 -60.5t-72.5 -42t-125 -15.5q-63 0 -106 11.5t-64.5 35t-19.5 58.5l103 16q-2 -15 8.5 -25t32 -15t54.5 -5q39 0 61 5.5t31.5 15t9.5 20.5q0 14 -11 21t-33 7h-105l20 73h105q18 0 30.5 4.5t19.5 12t7 17.5t-7.5 17
t-24 11t-45.5 4q-31 0 -53.5 -4.5t-37 -14t-21.5 -25.5l-99 16q14 34 44 56.5t74.5 34.5t104.5 12q59 0 98.5 -10.5t58.5 -30.5t19 -48q0 -25 -16.5 -45.5t-48.5 -33.5q-11 -4 -25 -7z" />
    <glyph glyph-name="acute" unicode="&#xb4;" horiz-adv-x="500" 
d="M274 608l172 161h205l-239 -161h-138z" />
    <glyph glyph-name="paragraph" unicode="&#xb6;" horiz-adv-x="926" 
d="M378 -150h-162l122 456h-63q-55 0 -92.5 20.5t-57 56.5t-19.5 81q0 71 34.5 123.5t95 82.5t138.5 30h232zM708 -150h-163l228 850h163z" />
    <glyph glyph-name="periodcentered" unicode="&#xb7;" horiz-adv-x="500" 
d="M166 281l41 156h174l-42 -156h-173z" />
    <glyph glyph-name="cedilla" unicode="&#xb8;" horiz-adv-x="500" 
d="M215 -45v1q27 5 54 5q53 0 78 -18.5t25 -52.5q0 -30 -21.5 -54t-68 -37t-121.5 -13q-36 0 -74 4t-74 12l22 69q39 -8 68 -11.5t54 -3.5q35 0 54 4t26 10.5t7 13.5q0 10 -7 15t-23 5q-13 0 -23.5 -2.5t-20.5 -7.5l-78 8l44 106h101z" />
    <glyph glyph-name="onesuperior" unicode="&#xb9;" horiz-adv-x="423" 
d="M83 458l22 85h136l48 178l-132 -21l22 83l152 25h93l-72 -265h118l-23 -85h-364z" />
    <glyph glyph-name="ordmasculine" unicode="&#xba;" horiz-adv-x="555" 
d="M314 368q-48 0 -83 10t-57.5 29t-34 44.5t-11.5 56.5q0 39 16.5 74.5t49 64t81 45.5t112.5 17q47 0 81.5 -10t57 -28.5t34 -43.5t11.5 -56q0 -38 -16 -74.5t-48.5 -65.5t-80.5 -46t-112 -17zM327 448q31 0 55 10.5t40.5 27.5t25 38t8.5 42q0 14 -5.5 25.5t-16 20
t-25.5 12.5t-36 4q-31 0 -55 -10t-40.5 -27t-25 -38t-8.5 -42q0 -15 5.5 -26.5t15.5 -19.5t25.5 -12.5t36.5 -4.5z" />
    <glyph glyph-name="guillemotright" unicode="&#xbb;" horiz-adv-x="834" 
d="M288 284l-201 94l39 144l292 -165l-44 -165l-380 -164l43 160zM681 284l-201 94l39 144l292 -165l-44 -165l-380 -164l43 160z" />
    <glyph glyph-name="onequarter" unicode="&#xbc;" horiz-adv-x="1168" 
d="M55 350l22 85h136l48 178l-132 -21l22 83l152 25h93l-72 -265h118l-23 -85h-364zM262 0h-146l879 700h146zM1004 0h-104l16 59h-265l18 68l334 224h95l-58 -216h66l-20 -76h-66zM936 135l31 114l-168 -114h137z" />
    <glyph glyph-name="onehalf" unicode="&#xbd;" horiz-adv-x="1193" 
d="M55 350l22 85h136l48 178l-132 -21l22 83l152 25h93l-72 -265h118l-23 -85h-364zM262 0h-146l879 700h146zM712 81l243 93q31 14 48 24t24 19.5t7 19.5q0 12 -7.5 20t-23 12.5t-41.5 4.5q-31 0 -53 -6t-35 -18t-21 -31l-106 16q17 39 46 65.5t72.5 40.5t103.5 14
q59 0 98.5 -12.5t60.5 -35t21 -53.5q0 -19 -7 -37t-26.5 -36t-56.5 -37t-98 -40l-63 -22h206l-21 -82h-392z" />
    <glyph glyph-name="threequarters" unicode="&#xbe;" horiz-adv-x="1160" 
d="M427 529q17 -5 28 -13q29 -21 29 -53q0 -34 -23.5 -60.5t-72.5 -42t-125 -15.5q-63 0 -106 11.5t-64.5 35t-19.5 58.5l103 16q-2 -15 8.5 -25t32 -15t54.5 -5q39 0 61 5.5t31.5 15t9.5 20.5q0 14 -11 21t-33 7h-105l20 73h105q18 0 30.5 4.5t19.5 12t7 17.5t-7.5 17
t-24 11t-45.5 4q-31 0 -53.5 -4.5t-37 -14t-21.5 -25.5l-99 16q14 34 44 56.5t74.5 34.5t104.5 12q59 0 98.5 -10.5t58.5 -30.5t19 -48q0 -25 -16.5 -45.5t-48.5 -33.5q-11 -4 -25 -7zM254 0h-146l879 700h146zM997 0h-104l16 59h-265l18 68l334 224h95l-58 -216h66l-20 -76
h-66zM929 135l31 114l-168 -114h137z" />
    <glyph glyph-name="questiondown" unicode="&#xbf;" horiz-adv-x="784" 
d="M299 -31q46 0 84 7.5t68.5 23.5t52 40.5t32.5 57.5l160 -30q-24 -72 -80 -124t-140.5 -79.5t-194.5 -27.5q-76 0 -131.5 13.5t-92.5 37t-55 56.5t-18 72q0 44 17.5 74.5t47 52t65.5 37t73 30.5t70 31.5t56.5 40t32.5 57.5h165q-12 -50 -37.5 -84.5t-58 -58.5t-68.5 -40.5
t-69.5 -29.5t-61 -25.5t-44 -27.5t-16.5 -38q0 -15 7.5 -27.5t24 -21t44 -13t67.5 -4.5zM568 548l-38 -143h-168l38 143h168z" />
    <glyph glyph-name="Agrave" unicode="&#xc0;" horiz-adv-x="935" 
d="M689 0l-39 150h-412l-119 -150h-186l563 700h172l189 -700h-168zM617 276l-68 265l-210 -265h278zM668 760h-134l-157 161h188z" />
    <glyph glyph-name="Aacute" unicode="&#xc1;" horiz-adv-x="935" 
d="M689 0l-39 150h-412l-119 -150h-186l563 700h172l189 -700h-168zM617 276l-68 265l-210 -265h278zM520 760l172 161h205l-239 -161h-138z" />
    <glyph glyph-name="Acircumflex" unicode="&#xc2;" horiz-adv-x="935" 
d="M689 0l-39 150h-412l-119 -150h-186l563 700h172l189 -700h-168zM617 276l-68 265l-210 -265h278zM630 847l-143 -87h-128l190 161h186l102 -161h-118z" />
    <glyph glyph-name="Atilde" unicode="&#xc3;" horiz-adv-x="935" 
d="M689 0l-39 150h-412l-119 -150h-186l563 700h172l189 -700h-168zM617 276l-68 265l-210 -265h278zM844 921q-8 -59 -28 -96t-49 -54t-65 -17q-24 0 -43 7.5t-34 18t-28.5 21t-26.5 17.5t-28 7q-14 0 -24 -6.5t-17 -20.5t-10 -36h-102q10 61 31 98.5t50.5 55t64.5 17.5
q23 0 41.5 -8t34 -18.5t29 -21.5t26.5 -19t26 -8q11 0 19 4t14.5 11.5t10.5 19.5t6 28h102z" />
    <glyph glyph-name="Adieresis" unicode="&#xc4;" horiz-adv-x="935" 
d="M689 0l-39 150h-412l-119 -150h-186l563 700h172l189 -700h-168zM617 276l-68 265l-210 -265h278zM647 767l38 141h166l-38 -141h-166zM387 767l37 141h166l-37 -141h-166z" />
    <glyph glyph-name="Aring" unicode="&#xc5;" horiz-adv-x="935" 
d="M689 0l-39 150h-412l-119 -150h-186l563 700h172l189 -700h-168zM617 276l-68 265l-210 -265h278zM602 746q-42 0 -71 11.5t-44 33.5t-15 53q0 38 23 68.5t64 48.5t95 18q42 0 71 -11.5t44.5 -32.5t15.5 -51q0 -38 -23.5 -69.5t-64.5 -50t-95 -18.5zM613 812
q42 0 64.5 17.5t22.5 43.5q0 19 -14 29.5t-43 10.5q-41 0 -64 -18t-23 -42q0 -20 14.5 -30.5t42.5 -10.5z" />
    <glyph glyph-name="AE" unicode="&#xc6;" horiz-adv-x="1406" 
d="M621 0l41 155h-385l-155 -155h-195l696 700h837l-35 -128h-485l-41 -153h428l-34 -125h-428l-44 -166h493l-34 -128h-659zM696 282l78 290h-82l-290 -290h294z" />
    <glyph glyph-name="Ccedilla" unicode="&#xc7;" horiz-adv-x="951" 
d="M65 266q0 73 24.5 139.5t70.5 122t111 97t147.5 64t178.5 22.5q112 0 192 -28t123.5 -82t43.5 -133l-172 -34q0 47 -22 79t-67.5 48.5t-115.5 16.5q-64 0 -117.5 -16t-95 -44t-70 -65t-43 -79.5t-14.5 -88.5q0 -30 8 -55t24 -45t41 -34t60.5 -21.5t81.5 -7.5
q69 0 123.5 16.5t94 49.5t63.5 83l164 -34q-39 -84 -101.5 -139t-152.5 -82q-86 -26 -202 -27l-14 -33q27 5 54 5q53 0 78 -18.5t25 -52.5q0 -30 -21.5 -54t-68 -37t-121.5 -13q-36 0 -74 4t-74 12l22 69q39 -8 68 -11.5t54 -3.5q35 0 54 4t26 10.5t7 13.5q0 10 -7 15t-23 5
q-13 0 -23.5 -2.5t-20.5 -7.5l-78 8l38 92q-11 2 -21 3q-51 9 -92 25.5t-72 40t-52 54.5t-31.5 68.5t-10.5 80.5z" />
    <glyph glyph-name="Egrave" unicode="&#xc8;" horiz-adv-x="845" 
d="M32 0l188 700h679l-35 -128h-513l-40 -152h455l-34 -126h-455l-45 -166h521l-34 -128h-687zM658 760h-134l-157 161h188z" />
    <glyph glyph-name="Eacute" unicode="&#xc9;" horiz-adv-x="845" 
d="M32 0l188 700h679l-35 -128h-513l-40 -152h455l-34 -126h-455l-45 -166h521l-34 -128h-687zM487 760l172 161h205l-239 -161h-138z" />
    <glyph glyph-name="Ecircumflex" unicode="&#xca;" horiz-adv-x="845" 
d="M32 0l188 700h679l-35 -128h-513l-40 -152h455l-34 -126h-455l-45 -166h521l-34 -128h-687zM609 847l-143 -87h-128l190 161h186l102 -161h-118z" />
    <glyph glyph-name="Edieresis" unicode="&#xcb;" horiz-adv-x="845" 
d="M32 0l188 700h679l-35 -128h-513l-40 -152h455l-34 -126h-455l-45 -166h521l-34 -128h-687zM625 767l38 141h166l-38 -141h-166zM365 767l37 141h166l-37 -141h-166z" />
    <glyph glyph-name="Igrave" unicode="&#xcc;" horiz-adv-x="379" 
d="M32 0l188 700h169l-188 -700h-169zM393 760h-134l-157 161h188z" />
    <glyph glyph-name="Iacute" unicode="&#xcd;" horiz-adv-x="379" 
d="M32 0l188 700h169l-188 -700h-169zM250 760l172 161h205l-239 -161h-138z" />
    <glyph glyph-name="Icircumflex" unicode="&#xce;" horiz-adv-x="379" 
d="M32 0l188 700h169l-188 -700h-169zM352 847l-143 -87h-128l190 161h186l102 -161h-118z" />
    <glyph glyph-name="Idieresis" unicode="&#xcf;" horiz-adv-x="379" 
d="M32 0l188 700h169l-188 -700h-169zM369 767l38 141h166l-38 -141h-166zM109 767l37 141h166l-37 -141h-166z" />
    <glyph glyph-name="Eth" unicode="&#xd0;" horiz-adv-x="1004" 
d="M19 310l22 85h109l82 305h406q64 0 116 -12t92.5 -35.5t68 -57.5t41.5 -78t14 -98q0 -72 -21.5 -135.5t-62.5 -115.5t-98.5 -89.5t-129.5 -58t-157 -20.5h-457l83 310h-108zM500 133q54 0 100 14t82.5 39.5t61.5 59.5t38.5 74.5t13.5 83.5q0 32 -7 57.5t-21 45.5
t-35.5 33.5t-49.5 20t-65 6.5h-254l-46 -172h192l-23 -85h-192l-47 -177h252z" />
    <glyph glyph-name="Ntilde" unicode="&#xd1;" horiz-adv-x="1003" 
d="M32 0l188 700h165l333 -524l140 524h155l-188 -700h-165l-332 523l-141 -523h-155zM883 921q-8 -59 -28 -96t-49 -54t-65 -17q-24 0 -43 7.5t-34 18t-28.5 21t-26.5 17.5t-28 7q-14 0 -24 -6.5t-17 -20.5t-10 -36h-102q10 61 31 98.5t50.5 55t64.5 17.5q23 0 41.5 -8
t34 -18.5t29 -21.5t26.5 -19t26 -8q11 0 19 4t14.5 11.5t10.5 19.5t6 28h102z" />
    <glyph glyph-name="Ograve" unicode="&#xd2;" horiz-adv-x="1002" 
d="M441 -11q-73 0 -132.5 12.5t-104.5 36.5t-75.5 58t-46 77.5t-15.5 94.5q0 72 23.5 138t68.5 121.5t110.5 97t149.5 64t184 22.5q73 0 132 -13t104.5 -37t76 -58.5t46.5 -77.5t16 -94q0 -71 -23 -136.5t-68 -121t-110 -97t-149.5 -64.5t-186.5 -23zM461 122q64 0 117.5 16
t95.5 44t71 65.5t44 80t15 88.5q0 29 -7.5 54t-24 45t-42.5 34t-63 21.5t-86 7.5q-64 0 -117 -16.5t-94.5 -45t-70.5 -66t-44 -81t-15 -88.5q0 -29 7.5 -54t23.5 -44t41.5 -32.5t62.5 -21t86 -7.5zM702 760h-134l-157 161h188z" />
    <glyph glyph-name="Oacute" unicode="&#xd3;" horiz-adv-x="1003" 
d="M441 -11q-73 0 -132.5 12.5t-104.5 36.5t-75.5 58t-46 77.5t-15.5 94.5q0 72 23.5 138t68.5 121.5t110.5 97t149.5 64t184 22.5q73 0 132 -13t104.5 -37t76 -58.5t46.5 -77.5t16 -94q0 -71 -23 -136.5t-68 -121t-110 -97t-149.5 -64.5t-186.5 -23zM461 122q64 0 117.5 16
t95.5 44t71 65.5t44 80t15 88.5q0 29 -7.5 54t-24 45t-42.5 34t-63 21.5t-86 7.5q-64 0 -117 -16.5t-94.5 -45t-70.5 -66t-44 -81t-15 -88.5q0 -29 7.5 -54t23.5 -44t41.5 -32.5t62.5 -21t86 -7.5zM564 760l172 161h205l-239 -161h-138z" />
    <glyph glyph-name="Ocircumflex" unicode="&#xd4;" horiz-adv-x="1003" 
d="M441 -11q-73 0 -132.5 12.5t-104.5 36.5t-75.5 58t-46 77.5t-15.5 94.5q0 72 23.5 138t68.5 121.5t110.5 97t149.5 64t184 22.5q73 0 132 -13t104.5 -37t76 -58.5t46.5 -77.5t16 -94q0 -71 -23 -136.5t-68 -121t-110 -97t-149.5 -64.5t-186.5 -23zM461 122q64 0 117.5 16
t95.5 44t71 65.5t44 80t15 88.5q0 29 -7.5 54t-24 45t-42.5 34t-63 21.5t-86 7.5q-64 0 -117 -16.5t-94.5 -45t-70.5 -66t-44 -81t-15 -88.5q0 -29 7.5 -54t23.5 -44t41.5 -32.5t62.5 -21t86 -7.5zM662 847l-143 -87h-128l190 161h186l102 -161h-118z" />
    <glyph glyph-name="Otilde" unicode="&#xd5;" horiz-adv-x="1003" 
d="M441 -11q-73 0 -132.5 12.5t-104.5 36.5t-75.5 58t-46 77.5t-15.5 94.5q0 72 23.5 138t68.5 121.5t110.5 97t149.5 64t184 22.5q73 0 132 -13t104.5 -37t76 -58.5t46.5 -77.5t16 -94q0 -71 -23 -136.5t-68 -121t-110 -97t-149.5 -64.5t-186.5 -23zM461 122q64 0 117.5 16
t95.5 44t71 65.5t44 80t15 88.5q0 29 -7.5 54t-24 45t-42.5 34t-63 21.5t-86 7.5q-64 0 -117 -16.5t-94.5 -45t-70.5 -66t-44 -81t-15 -88.5q0 -29 7.5 -54t23.5 -44t41.5 -32.5t62.5 -21t86 -7.5zM879 921q-8 -59 -28 -96t-49 -54t-65 -17q-24 0 -43 7.5t-34 18t-28.5 21
t-26.5 17.5t-28 7q-14 0 -24 -6.5t-17 -20.5t-10 -36h-102q10 61 31 98.5t50.5 55t64.5 17.5q23 0 41.5 -8t34 -18.5t29 -21.5t26.5 -19t26 -8q11 0 19 4t14.5 11.5t10.5 19.5t6 28h102z" />
    <glyph glyph-name="Odieresis" unicode="&#xd6;" horiz-adv-x="1003" 
d="M441 -11q-73 0 -132.5 12.5t-104.5 36.5t-75.5 58t-46 77.5t-15.5 94.5q0 72 23.5 138t68.5 121.5t110.5 97t149.5 64t184 22.5q73 0 132 -13t104.5 -37t76 -58.5t46.5 -77.5t16 -94q0 -71 -23 -136.5t-68 -121t-110 -97t-149.5 -64.5t-186.5 -23zM461 122q64 0 117.5 16
t95.5 44t71 65.5t44 80t15 88.5q0 29 -7.5 54t-24 45t-42.5 34t-63 21.5t-86 7.5q-64 0 -117 -16.5t-94.5 -45t-70.5 -66t-44 -81t-15 -88.5q0 -29 7.5 -54t23.5 -44t41.5 -32.5t62.5 -21t86 -7.5zM679 767l38 141h166l-38 -141h-166zM419 767l37 141h166l-37 -141h-166z
" />
    <glyph glyph-name="multiply" unicode="&#xd7;" horiz-adv-x="618" 
d="M608 486l-188 -133l114 -130l-95 -80l-121 138l-203 -144l-63 91l193 137l-112 129l94 80l120 -137l199 141z" />
    <glyph glyph-name="Oslash" unicode="&#xd8;" horiz-adv-x="1003" 
d="M17 0l115 92l-4 4q-30 34 -45.5 77.5t-15.5 94.5q0 72 23.5 138t68.5 121.5t110.5 97t149.5 64t184 22.5q73 0 132 -13t104 -37q3 -1 6 -3l53 42h131l-118 -93l5 -5q30 -34 46 -77t16 -94q0 -71 -23 -136.5t-68 -121t-110 -97t-149.5 -64.5t-186.5 -23q-73 0 -132.5 12.5
t-104.5 36.5l-4 2l-51 -40h-132zM262 195l454 361q-21 9 -49 15q-37 7 -86 7q-64 0 -117.5 -16t-95 -45t-70.5 -66.5t-43.5 -81t-14.5 -88.5q0 -29 7 -54q5 -17 15 -32zM461 122q64 0 117.5 16t95.5 44t71 65t44.5 80t15.5 89q0 29 -8 54q-5 18 -15 33l-453 -360
q20 -9 46 -14q37 -7 86 -7z" />
    <glyph glyph-name="Ugrave" unicode="&#xd9;" horiz-adv-x="958" 
d="M881 313q-23 -83 -61.5 -144t-94 -101t-130 -59.5t-168.5 -19.5q-102 0 -173 25t-111 70t-50 106.5t9 134.5l101 375h168l-101 -378q-17 -63 -2.5 -108t59.5 -68.5t118 -23.5q52 0 95 12t77 36t58.5 59.5t37.5 84.5l104 386h168zM683 760h-134l-157 161h188z" />
    <glyph glyph-name="Uacute" unicode="&#xda;" horiz-adv-x="958" 
d="M881 313q-23 -83 -61.5 -144t-94 -101t-130 -59.5t-168.5 -19.5q-102 0 -173 25t-111 70t-50 106.5t9 134.5l101 375h168l-101 -378q-17 -63 -2.5 -108t59.5 -68.5t118 -23.5q52 0 95 12t77 36t58.5 59.5t37.5 84.5l104 386h168zM525 760l172 161h205l-239 -161h-138z
" />
    <glyph glyph-name="Ucircumflex" unicode="&#xdb;" horiz-adv-x="958" 
d="M881 313q-23 -83 -61.5 -144t-94 -101t-130 -59.5t-168.5 -19.5q-102 0 -173 25t-111 70t-50 106.5t9 134.5l101 375h168l-101 -378q-17 -63 -2.5 -108t59.5 -68.5t118 -23.5q52 0 95 12t77 36t58.5 59.5t37.5 84.5l104 386h168zM641 847l-143 -87h-128l190 161h186
l102 -161h-118z" />
    <glyph glyph-name="Udieresis" unicode="&#xdc;" horiz-adv-x="958" 
d="M881 313q-23 -83 -61.5 -144t-94 -101t-130 -59.5t-168.5 -19.5q-102 0 -173 25t-111 70t-50 106.5t9 134.5l101 375h168l-101 -378q-17 -63 -2.5 -108t59.5 -68.5t118 -23.5q52 0 95 12t77 36t58.5 59.5t37.5 84.5l104 386h168zM658 767l38 141h166l-38 -141h-166z
M398 767l37 141h166l-37 -141h-166z" />
    <glyph glyph-name="Yacute" unicode="&#xdd;" 
d="M260 0l73 272l-218 428h187l145 -291l295 291h208l-453 -444l-69 -256h-168zM460 760l172 161h205l-239 -161h-138z" />
    <glyph glyph-name="Thorn" unicode="&#xde;" horiz-adv-x="889" 
d="M32 0l188 700h169l-27 -99h253q60 0 107 -14.5t79.5 -43t49.5 -68t17 -89.5q0 -85 -43.5 -148.5t-123 -98t-186.5 -34.5h-286l-28 -105h-169zM327 470l-63 -234h260q53 0 91 16t59 47t21 72q0 32 -13 54t-38.5 33.5t-64.5 11.5h-252z" />
    <glyph glyph-name="germandbls" unicode="&#xdf;" horiz-adv-x="905" 
d="M7 0l130 484q18 69 52 121t84.5 87t118.5 52t155 17q75 0 131 -12t93 -34.5t56 -55.5t19 -74q0 -43 -18 -77t-53 -59.5t-85 -41.5q-7 -2 -13 -4q8 -1 16 -3q40 -8 69 -23t48 -35.5t28 -45.5t9 -54q0 -62 -28.5 -109t-80 -79t-122.5 -48.5t-155 -16.5q-39 0 -79 4
t-76.5 12.5t-66.5 21.5l60 118q23 -11 47.5 -18.5t51 -11t54.5 -3.5q57 0 99.5 8.5t71.5 24t43.5 37.5t14.5 50q0 18 -5 32.5t-15.5 25.5t-27 18.5t-40 11.5t-54.5 4h-163l32 120h86q37 0 67.5 5t54 14t39.5 22.5t24.5 31t8.5 38.5q0 19 -8.5 35t-26 27.5t-46.5 17.5t-72 6
q-50 0 -89.5 -9t-68.5 -27.5t-48.5 -46t-29.5 -65.5l-132 -493h-160z" />
    <glyph glyph-name="agrave" unicode="&#xe0;" horiz-adv-x="782" 
d="M92 384q21 44 51 76.5t72 54.5t99 33t131 11q82 0 139.5 -16t90.5 -46t42 -71t-4 -91l-51 -189q-3 -14 -1 -22.5t10 -13t20 -4.5q5 0 11 0.5t10 1.5l-31 -107q-17 -5 -35.5 -8t-34.5 -3q-45 0 -71.5 16t-33.5 45q-5 17 -3 38l-14 -12q-35 -28 -77.5 -47.5t-91 -30
t-103.5 -10.5q-66 0 -112 17t-70 49t-24 77q0 53 30 92.5t96.5 65t175.5 33.5l252 18q6 23 2 41q-5 20 -21.5 34t-45 21.5t-70.5 7.5q-53 0 -90.5 -9t-61 -27.5t-35.5 -49.5zM543 248l-260 -21q-37 -4 -62.5 -13t-38.5 -23.5t-13 -35.5q0 -18 10 -30.5t31 -18.5t53 -6
q41 0 79 7t71 19t59 28.5t43.5 37.5t23.5 44v0zM552 608h-134l-157 161h188z" />
    <glyph glyph-name="aacute" unicode="&#xe1;" horiz-adv-x="782" 
d="M92 384q21 44 51 76.5t72 54.5t99 33t131 11q82 0 139.5 -16t90.5 -46t42 -71t-4 -91l-51 -189q-3 -14 -1 -22.5t10 -13t20 -4.5q5 0 11 0.5t10 1.5l-31 -107q-17 -5 -35.5 -8t-34.5 -3q-45 0 -71.5 16t-33.5 45q-5 17 -3 38l-14 -12q-35 -28 -77.5 -47.5t-91 -30
t-103.5 -10.5q-66 0 -112 17t-70 49t-24 77q0 53 30 92.5t96.5 65t175.5 33.5l252 18q6 23 2 41q-5 20 -21.5 34t-45 21.5t-70.5 7.5q-53 0 -90.5 -9t-61 -27.5t-35.5 -49.5zM543 248l-260 -21q-37 -4 -62.5 -13t-38.5 -23.5t-13 -35.5q0 -18 10 -30.5t31 -18.5t53 -6
q41 0 79 7t71 19t59 28.5t43.5 37.5t23.5 44v0zM413 608l172 161h205l-239 -161h-138z" />
    <glyph glyph-name="acircumflex" unicode="&#xe2;" horiz-adv-x="782" 
d="M92 384q21 44 51 76.5t72 54.5t99 33t131 11q82 0 139.5 -16t90.5 -46t42 -71t-4 -91l-51 -189q-3 -14 -1 -22.5t10 -13t20 -4.5q5 0 11 0.5t10 1.5l-31 -107q-17 -5 -35.5 -8t-34.5 -3q-45 0 -71.5 16t-33.5 45q-5 17 -3 38l-14 -12q-35 -28 -77.5 -47.5t-91 -30
t-103.5 -10.5q-66 0 -112 17t-70 49t-24 77q0 53 30 92.5t96.5 65t175.5 33.5l252 18q6 23 2 41q-5 20 -21.5 34t-45 21.5t-70.5 7.5q-53 0 -90.5 -9t-61 -27.5t-35.5 -49.5zM543 248l-260 -21q-37 -4 -62.5 -13t-38.5 -23.5t-13 -35.5q0 -18 10 -30.5t31 -18.5t53 -6
q41 0 79 7t71 19t59 28.5t43.5 37.5t23.5 44v0zM511 695l-143 -87h-128l190 161h186l102 -161h-118z" />
    <glyph glyph-name="atilde" unicode="&#xe3;" horiz-adv-x="782" 
d="M92 384q21 44 51 76.5t72 54.5t99 33t131 11q82 0 139.5 -16t90.5 -46t42 -71t-4 -91l-51 -189q-3 -14 -1 -22.5t10 -13t20 -4.5q5 0 11 0.5t10 1.5l-31 -107q-17 -5 -35.5 -8t-34.5 -3q-45 0 -71.5 16t-33.5 45q-5 17 -3 38l-14 -12q-35 -28 -77.5 -47.5t-91 -30
t-103.5 -10.5q-66 0 -112 17t-70 49t-24 77q0 53 30 92.5t96.5 65t175.5 33.5l252 18q6 23 2 41q-5 20 -21.5 34t-45 21.5t-70.5 7.5q-53 0 -90.5 -9t-61 -27.5t-35.5 -49.5zM543 248l-260 -21q-37 -4 -62.5 -13t-38.5 -23.5t-13 -35.5q0 -18 10 -30.5t31 -18.5t53 -6
q41 0 79 7t71 19t59 28.5t43.5 37.5t23.5 44v0zM726 769q-8 -59 -28 -96t-49 -54t-65 -17q-24 0 -43 7.5t-34 18t-28.5 21t-26.5 17.5t-28 7q-14 0 -24 -6.5t-17 -20.5t-10 -36h-102q10 61 31 98.5t50.5 55t64.5 17.5q23 0 41.5 -8t34 -18.5t29 -21.5t26.5 -19t26 -8
q11 0 19 4t14.5 11.5t10.5 19.5t6 28h102z" />
    <glyph glyph-name="adieresis" unicode="&#xe4;" horiz-adv-x="782" 
d="M92 384q21 44 51 76.5t72 54.5t99 33t131 11q82 0 139.5 -16t90.5 -46t42 -71t-4 -91l-51 -189q-3 -14 -1 -22.5t10 -13t20 -4.5q5 0 11 0.5t10 1.5l-31 -107q-17 -5 -35.5 -8t-34.5 -3q-45 0 -71.5 16t-33.5 45q-5 17 -3 38l-14 -12q-35 -28 -77.5 -47.5t-91 -30
t-103.5 -10.5q-66 0 -112 17t-70 49t-24 77q0 53 30 92.5t96.5 65t175.5 33.5l252 18q6 23 2 41q-5 20 -21.5 34t-45 21.5t-70.5 7.5q-53 0 -90.5 -9t-61 -27.5t-35.5 -49.5zM543 248l-260 -21q-37 -4 -62.5 -13t-38.5 -23.5t-13 -35.5q0 -18 10 -30.5t31 -18.5t53 -6
q41 0 79 7t71 19t59 28.5t43.5 37.5t23.5 44v0zM528 615l38 141h166l-38 -141h-166zM268 615l37 141h166l-37 -141h-166z" />
    <glyph glyph-name="aring" unicode="&#xe5;" horiz-adv-x="782" 
d="M92 384q21 44 51 76.5t72 54.5t99 33t131 11q82 0 139.5 -16t90.5 -46t42 -71t-4 -91l-51 -189q-3 -14 -1 -22.5t10 -13t20 -4.5q5 0 11 0.5t10 1.5l-31 -107q-17 -5 -35.5 -8t-34.5 -3q-45 0 -71.5 16t-33.5 45q-5 17 -3 38l-14 -12q-35 -28 -77.5 -47.5t-91 -30
t-103.5 -10.5q-66 0 -112 17t-70 49t-24 77q0 53 30 92.5t96.5 65t175.5 33.5l252 18q6 23 2 41q-5 20 -21.5 34t-45 21.5t-70.5 7.5q-53 0 -90.5 -9t-61 -27.5t-35.5 -49.5zM543 248l-260 -21q-37 -4 -62.5 -13t-38.5 -23.5t-13 -35.5q0 -18 10 -30.5t31 -18.5t53 -6
q41 0 79 7t71 19t59 28.5t43.5 37.5t23.5 44v0zM481 594q-42 0 -71 11.5t-44 33.5t-15 53q0 38 23 68.5t64 48.5t95 18q42 0 71 -11.5t44.5 -32.5t15.5 -51q0 -38 -23.5 -69.5t-64.5 -50t-95 -18.5zM492 660q42 0 64.5 17.5t22.5 43.5q0 19 -14 29.5t-43 10.5q-41 0 -64 -18
t-23 -42q0 -20 14.5 -30.5t42.5 -10.5z" />
    <glyph glyph-name="ae" unicode="&#xe6;" horiz-adv-x="1279" 
d="M231 -11q-53 0 -94 10t-69 28.5t-42.5 45t-14.5 60.5q0 53 30 92t96.5 64.5t175.5 33.5l251 17q5 24 1 42q-5 20 -21.5 34t-45 21.5t-70.5 7.5q-53 0 -90 -9t-60 -27.5t-35 -49.5l-150 25q20 44 50 76.5t72 54.5t98.5 33t129.5 11q48 0 87 -6.5t69 -20t52 -35.5
q12 -11 21 -26q19 16 40 29q34 20 72.5 33t80.5 19.5t87 6.5q70 0 124.5 -16t92 -44t56.5 -67t19 -85q0 -31 -6.5 -57t-19.5 -53h-536v-19q0 -21 6 -38.5t19.5 -31t33 -23t46 -14t60.5 -4.5q52 0 92.5 8.5t68.5 26.5t43 43l147 -27q-29 -56 -79 -93.5t-121.5 -56.5
t-169.5 -19q-50 0 -93.5 9t-77.5 28t-58 47q-15 17 -26 39q-22 -24 -48 -43q-39 -28 -85 -45.5t-98.5 -26t-110.5 -8.5zM541 247l-258 -20q-37 -4 -62.5 -12.5t-38.5 -23.5t-13 -35q0 -19 10.5 -31.5t31.5 -18.5t54 -6q54 0 100.5 10.5t82.5 29t59.5 44t30.5 55.5zM707 332
h387v5q0 29 -11 49t-32 33t-51 19t-69 6q-49 0 -89 -10.5t-70 -30t-50 -47.5q-8 -11 -15 -24z" />
    <glyph glyph-name="ccedilla" unicode="&#xe7;" horiz-adv-x="789" 
d="M776 356l-156 -29q2 37 -15 61.5t-53 36.5t-93 12q-48 0 -87.5 -12t-70.5 -32.5t-52 -48t-32 -59.5t-11 -66q0 -21 6 -38t18.5 -30t32 -22t46 -13.5t60.5 -4.5q51 0 94 12t75 37.5t49 64.5l149 -30q-26 -69 -82 -115t-135 -69q-75 -21 -166 -22l-13 -33q27 5 53 5
q53 0 78 -18.5t25 -52.5q0 -30 -21.5 -54t-68 -37t-121.5 -13q-36 0 -74 4t-74 12l22 69q39 -8 68 -11.5t54 -3.5q35 0 54 4t26 10.5t7 13.5q0 10 -7 15t-23 5q-13 0 -23.5 -2.5t-20.5 -7.5l-78 8l39 94q-9 1 -18 3q-48 10 -84 28.5t-60.5 45t-37 60t-12.5 72.5
q0 57 19.5 109t56.5 96.5t90.5 78t122 52t150.5 18.5q101 0 166.5 -26.5t97 -72.5t30.5 -104z" />
    <glyph glyph-name="egrave" unicode="&#xe8;" horiz-adv-x="812" 
d="M346 -11q-60 0 -108.5 10t-85 28.5t-61 44.5t-36.5 59.5t-12 71.5q0 56 18.5 108.5t54.5 97.5t88.5 78.5t120.5 52.5t150 19q75 0 131.5 -16.5t94.5 -45.5t57.5 -67.5t19.5 -82.5q0 -31 -6.5 -57t-19.5 -53h-551q-1 -8 -1 -16q0 -21 6.5 -39t19.5 -32.5t33.5 -23.5
t49 -14t64.5 -5q55 0 97 8.5t71 26.5t43 43l148 -27q-30 -56 -81.5 -93.5t-127 -56.5t-177.5 -19zM227 332h400q1 3 1 5q0 28 -10 47.5t-30.5 33t-52.5 20t-76 6.5q-51 0 -92 -10.5t-72 -30.5t-52 -47q-9 -11 -16 -24zM565 608h-134l-157 161h188z" />
    <glyph glyph-name="eacute" unicode="&#xe9;" horiz-adv-x="812" 
d="M346 -11q-60 0 -108.5 10t-85 28.5t-61 44.5t-36.5 59.5t-12 71.5q0 56 18.5 108.5t54.5 97.5t88.5 78.5t120.5 52.5t150 19q75 0 131.5 -16.5t94.5 -45.5t57.5 -67.5t19.5 -82.5q0 -31 -6.5 -57t-19.5 -53h-551q-1 -8 -1 -16q0 -21 6.5 -39t19.5 -32.5t33.5 -23.5
t49 -14t64.5 -5q55 0 97 8.5t71 26.5t43 43l148 -27q-30 -56 -81.5 -93.5t-127 -56.5t-177.5 -19zM227 332h400q1 3 1 5q0 28 -10 47.5t-30.5 33t-52.5 20t-76 6.5q-51 0 -92 -10.5t-72 -30.5t-52 -47q-9 -11 -16 -24zM427 608l172 161h205l-239 -161h-138z" />
    <glyph glyph-name="ecircumflex" unicode="&#xea;" horiz-adv-x="812" 
d="M346 -11q-60 0 -108.5 10t-85 28.5t-61 44.5t-36.5 59.5t-12 71.5q0 56 18.5 108.5t54.5 97.5t88.5 78.5t120.5 52.5t150 19q75 0 131.5 -16.5t94.5 -45.5t57.5 -67.5t19.5 -82.5q0 -31 -6.5 -57t-19.5 -53h-551q-1 -8 -1 -16q0 -21 6.5 -39t19.5 -32.5t33.5 -23.5
t49 -14t64.5 -5q55 0 97 8.5t71 26.5t43 43l148 -27q-30 -56 -81.5 -93.5t-127 -56.5t-177.5 -19zM227 332h400q1 3 1 5q0 28 -10 47.5t-30.5 33t-52.5 20t-76 6.5q-51 0 -92 -10.5t-72 -30.5t-52 -47q-9 -11 -16 -24zM525 695l-143 -87h-128l190 161h186l102 -161h-118z
" />
    <glyph glyph-name="edieresis" unicode="&#xeb;" horiz-adv-x="812" 
d="M346 -11q-60 0 -108.5 10t-85 28.5t-61 44.5t-36.5 59.5t-12 71.5q0 56 18.5 108.5t54.5 97.5t88.5 78.5t120.5 52.5t150 19q75 0 131.5 -16.5t94.5 -45.5t57.5 -67.5t19.5 -82.5q0 -31 -6.5 -57t-19.5 -53h-551q-1 -8 -1 -16q0 -21 6.5 -39t19.5 -32.5t33.5 -23.5
t49 -14t64.5 -5q55 0 97 8.5t71 26.5t43 43l148 -27q-30 -56 -81.5 -93.5t-127 -56.5t-177.5 -19zM227 332h400q1 3 1 5q0 28 -10 47.5t-30.5 33t-52.5 20t-76 6.5q-51 0 -92 -10.5t-72 -30.5t-52 -47q-9 -11 -16 -24zM542 615l38 141h166l-38 -141h-166zM282 615l37 141
h166l-37 -141h-166z" />
    <glyph glyph-name="igrave" unicode="&#xec;" horiz-adv-x="339" 
d="M17 0l147 548h159l-147 -548h-159zM332 608h-134l-157 161h188z" />
    <glyph glyph-name="iacute" unicode="&#xed;" horiz-adv-x="339" 
d="M17 0l147 548h159l-147 -548h-159zM194 608l172 161h205l-239 -161h-138z" />
    <glyph glyph-name="icircumflex" unicode="&#xee;" horiz-adv-x="339" 
d="M17 0l147 548h159l-147 -548h-159zM292 695l-143 -87h-128l190 161h186l102 -161h-118z" />
    <glyph glyph-name="idieresis" unicode="&#xef;" horiz-adv-x="339" 
d="M17 0l147 548h159l-147 -548h-159zM309 615l38 141h166l-38 -141h-166zM49 615l37 141h166l-37 -141h-166z" />
    <glyph glyph-name="eth" unicode="&#xf0;" horiz-adv-x="823" 
d="M337 -11q-59 0 -106 8.5t-83 25.5t-60 42t-36 56t-12 69q0 48 16.5 91.5t48 79.5t77.5 62.5t105.5 41t131.5 14.5q50 0 94 -11t79 -34q26 -17 43 -42q1 25 -2 50q-4 30 -18 61.5t-40 66.5q-5 7 -11 14l-193 -53l21 82l117 32q-39 41 -95 88l176 27q43 -37 75 -72l175 48
l-22 -83l-103 -28q4 -6 7 -11q23 -36 37 -71t20 -69.5t6 -68.5q0 -69 -17 -131.5t-51.5 -114.5t-87.5 -90t-126 -59t-166 -21zM365 111q46 0 82.5 8t63.5 22.5t45 33.5t27.5 41.5t10.5 45.5q2 19 -4 34.5t-18.5 27t-32.5 20t-47 13t-62 4.5q-57 0 -100.5 -13t-72 -35.5
t-42.5 -51.5t-14 -60q0 -21 9.5 -38t29 -28.5t51 -17.5t74.5 -6z" />
    <glyph glyph-name="ntilde" unicode="&#xf1;" 
d="M17 0l147 548h142l-17 -105q35 37 77.5 62.5t92 39.5t101.5 14q82 0 133.5 -33t70 -89.5t-0.5 -128.5l-83 -308h-160l78 290q12 44 2.5 75t-39 47t-79.5 16q-41 0 -79 -11.5t-69 -33t-53.5 -52.5t-33.5 -69l-71 -262h-159zM755 769q-8 -59 -28 -96t-49 -54t-65 -17
q-24 0 -43 7.5t-34 18t-28.5 21t-26.5 17.5t-28 7q-14 0 -24 -6.5t-17 -20.5t-10 -36h-102q10 61 31 98.5t50.5 55t64.5 17.5q23 0 41.5 -8t34 -18.5t29 -21.5t26.5 -19t26 -8q11 0 19 4t14.5 11.5t10.5 19.5t6 28h102z" />
    <glyph glyph-name="ograve" unicode="&#xf2;" horiz-adv-x="828" 
d="M347 -11q-60 0 -109 10t-85.5 28t-61 44.5t-37 59.5t-12.5 72q0 56 19 108.5t56.5 97.5t90.5 78.5t121.5 52.5t150.5 19q61 0 110 -10t85.5 -28t61.5 -44.5t37 -59t12 -71.5q0 -57 -19 -109.5t-55.5 -97.5t-90 -78.5t-122 -52.5t-152.5 -19zM370 111q48 0 88 12.5
t70.5 34.5t52 50.5t32 60t10.5 63.5q0 20 -6 36.5t-19 29t-32 21.5t-46 13.5t-62 4.5q-48 0 -87.5 -12.5t-70 -34.5t-52 -50t-32 -60t-10.5 -64q0 -19 5.5 -36t18.5 -29.5t32.5 -21.5t46.5 -13.5t61 -4.5zM573 608h-134l-157 161h188z" />
    <glyph glyph-name="oacute" unicode="&#xf3;" horiz-adv-x="827" 
d="M347 -11q-60 0 -109 10t-85.5 28t-61 44.5t-37 59.5t-12.5 72q0 56 19 108.5t56.5 97.5t90.5 78.5t121.5 52.5t150.5 19q61 0 110 -10t85.5 -28t61.5 -44.5t37 -59t12 -71.5q0 -57 -19 -109.5t-55.5 -97.5t-90 -78.5t-122 -52.5t-152.5 -19zM370 111q48 0 88 12.5
t70.5 34.5t52 50.5t32 60t10.5 63.5q0 20 -6 36.5t-19 29t-32 21.5t-46 13.5t-62 4.5q-48 0 -87.5 -12.5t-70 -34.5t-52 -50t-32 -60t-10.5 -64q0 -19 5.5 -36t18.5 -29.5t32.5 -21.5t46.5 -13.5t61 -4.5zM435 608l172 161h205l-239 -161h-138z" />
    <glyph glyph-name="ocircumflex" unicode="&#xf4;" horiz-adv-x="827" 
d="M347 -11q-60 0 -109 10t-85.5 28t-61 44.5t-37 59.5t-12.5 72q0 56 19 108.5t56.5 97.5t90.5 78.5t121.5 52.5t150.5 19q61 0 110 -10t85.5 -28t61.5 -44.5t37 -59t12 -71.5q0 -57 -19 -109.5t-55.5 -97.5t-90 -78.5t-122 -52.5t-152.5 -19zM370 111q48 0 88 12.5
t70.5 34.5t52 50.5t32 60t10.5 63.5q0 20 -6 36.5t-19 29t-32 21.5t-46 13.5t-62 4.5q-48 0 -87.5 -12.5t-70 -34.5t-52 -50t-32 -60t-10.5 -64q0 -19 5.5 -36t18.5 -29.5t32.5 -21.5t46.5 -13.5t61 -4.5zM533 695l-143 -87h-128l190 161h186l102 -161h-118z" />
    <glyph glyph-name="otilde" unicode="&#xf5;" horiz-adv-x="828" 
d="M347 -11q-60 0 -109 10t-85.5 28t-61 44.5t-37 59.5t-12.5 72q0 56 19 108.5t56.5 97.5t90.5 78.5t121.5 52.5t150.5 19q61 0 110 -10t85.5 -28t61.5 -44.5t37 -59t12 -71.5q0 -57 -19 -109.5t-55.5 -97.5t-90 -78.5t-122 -52.5t-152.5 -19zM370 111q48 0 88 12.5
t70.5 34.5t52 50.5t32 60t10.5 63.5q0 20 -6 36.5t-19 29t-32 21.5t-46 13.5t-62 4.5q-48 0 -87.5 -12.5t-70 -34.5t-52 -50t-32 -60t-10.5 -64q0 -19 5.5 -36t18.5 -29.5t32.5 -21.5t46.5 -13.5t61 -4.5zM748 769q-8 -59 -28 -96t-49 -54t-65 -17q-24 0 -43 7.5t-34 18
t-28.5 21t-26.5 17.5t-28 7q-14 0 -24 -6.5t-17 -20.5t-10 -36h-102q10 61 31 98.5t50.5 55t64.5 17.5q23 0 41.5 -8t34 -18.5t29 -21.5t26.5 -19t26 -8q11 0 19 4t14.5 11.5t10.5 19.5t6 28h102z" />
    <glyph glyph-name="odieresis" unicode="&#xf6;" horiz-adv-x="828" 
d="M347 -11q-60 0 -109 10t-85.5 28t-61 44.5t-37 59.5t-12.5 72q0 56 19 108.5t56.5 97.5t90.5 78.5t121.5 52.5t150.5 19q61 0 110 -10t85.5 -28t61.5 -44.5t37 -59t12 -71.5q0 -57 -19 -109.5t-55.5 -97.5t-90 -78.5t-122 -52.5t-152.5 -19zM370 111q48 0 88 12.5
t70.5 34.5t52 50.5t32 60t10.5 63.5q0 20 -6 36.5t-19 29t-32 21.5t-46 13.5t-62 4.5q-48 0 -87.5 -12.5t-70 -34.5t-52 -50t-32 -60t-10.5 -64q0 -19 5.5 -36t18.5 -29.5t32.5 -21.5t46.5 -13.5t61 -4.5zM550 615l38 141h166l-38 -141h-166zM290 615l37 141h166l-37 -141
h-166z" />
    <glyph glyph-name="divide" unicode="&#xf7;" horiz-adv-x="618" 
d="M289 493l36 133h158l-36 -133h-158zM179 82l36 134h158l-36 -134h-158zM569 296h-507l32 117h506z" />
    <glyph glyph-name="oslash" unicode="&#xf8;" horiz-adv-x="826" 
d="M-19 0l104 77q-20 24 -31 54q-12 33 -12 72q0 56 19.5 108.5t57 97.5t91.5 78.5t123 52.5t151 19q60 0 108.5 -10t84.5 -28l4 -2l40 29h121l-101 -75q21 -25 33 -55q12 -33 12 -72q0 -56 -19.5 -109t-57 -98t-91.5 -78.5t-123 -52.5t-152 -19q-60 0 -108 10t-84 28
q-4 2 -7 4l-41 -31h-122zM369 111q49 0 89 12.5t70.5 34.5t51.5 50.5t32 60t11 63.5q0 20 -6 37q-2 5 -4 9l-342 -253q16 -6 37 -9q27 -5 61 -5zM213 172l341 252q-16 5 -35 8q-27 5 -61 5q-49 0 -88.5 -12.5t-70.5 -34.5t-52 -50t-32 -60t-11 -64q0 -20 6 -36q1 -4 3 -8z
" />
    <glyph glyph-name="ugrave" unicode="&#xf9;" horiz-adv-x="816" 
d="M800 548l-147 -548h-142l16 97q-24 -26 -52.5 -46t-61 -34t-68.5 -21t-76 -7q-63 0 -107.5 17t-69.5 48.5t-31 75.5t9 97l86 321h159l-81 -302q-7 -28 -4 -51.5t17 -40t39 -25.5t60 -9q31 0 59 7t53.5 20.5t47 33t38 45t25.5 56.5l71 266h160zM570 608h-134l-157 161h188
z" />
    <glyph glyph-name="uacute" unicode="&#xfa;" horiz-adv-x="816" 
d="M800 548l-147 -548h-142l16 97q-24 -26 -52.5 -46t-61 -34t-68.5 -21t-76 -7q-63 0 -107.5 17t-69.5 48.5t-31 75.5t9 97l86 321h159l-81 -302q-7 -28 -4 -51.5t17 -40t39 -25.5t60 -9q31 0 59 7t53.5 20.5t47 33t38 45t25.5 56.5l71 266h160zM420 608l172 161h205
l-239 -161h-138z" />
    <glyph glyph-name="ucircumflex" unicode="&#xfb;" horiz-adv-x="816" 
d="M800 548l-147 -548h-142l16 97q-24 -26 -52.5 -46t-61 -34t-68.5 -21t-76 -7q-63 0 -107.5 17t-69.5 48.5t-31 75.5t9 97l86 321h159l-81 -302q-7 -28 -4 -51.5t17 -40t39 -25.5t60 -9q31 0 59 7t53.5 20.5t47 33t38 45t25.5 56.5l71 266h160zM528 695l-143 -87h-128
l190 161h186l102 -161h-118z" />
    <glyph glyph-name="udieresis" unicode="&#xfc;" horiz-adv-x="816" 
d="M800 548l-147 -548h-142l16 97q-24 -26 -52.5 -46t-61 -34t-68.5 -21t-76 -7q-63 0 -107.5 17t-69.5 48.5t-31 75.5t9 97l86 321h159l-81 -302q-7 -28 -4 -51.5t17 -40t39 -25.5t60 -9q31 0 59 7t53.5 20.5t47 33t38 45t25.5 56.5l71 266h160zM546 615l38 141h166
l-38 -141h-166zM286 615l37 141h166l-37 -141h-166z" />
    <glyph glyph-name="yacute" unicode="&#xfd;" horiz-adv-x="711" 
d="M603 548h175l-410 -560q-43 -57 -81 -95.5t-75.5 -61t-78.5 -32.5t-88 -10q-29 0 -56.5 3t-49.5 10l26 119q17 -3 35 -5t34 -2q34 0 59 6t47.5 20.5t46.5 41.5q15 17 34 41l-140 525h161l94 -380zM367 608l172 161h205l-239 -161h-138z" />
    <glyph glyph-name="thorn" unicode="&#xfe;" horiz-adv-x="863" 
d="M377 750l-76 -286q11 10 22 19q49 36 109.5 56t132.5 20q49 0 90 -10t72 -28.5t51.5 -45t31.5 -60t11 -73.5q0 -59 -18.5 -112t-53 -97.5t-82 -76.5t-105 -49.5t-123.5 -17.5q-79 0 -134.5 21t-86.5 60q-9 12 -17 24l-79 -294h-159l255 950h159zM413 113q45 0 83 11
t68 30.5t51 46t31.5 57.5t10.5 65q0 22 -6 40t-18.5 31.5t-32 22.5t-46 13.5t-59.5 4.5q-64 0 -114 -19.5t-83.5 -55t-46.5 -84.5q-10 -38 -4.5 -68t26.5 -51t56.5 -32.5t83.5 -11.5z" />
    <glyph glyph-name="ydieresis" unicode="&#xff;" horiz-adv-x="711" 
d="M603 548h175l-410 -560q-43 -57 -81 -95.5t-75.5 -61t-78.5 -32.5t-88 -10q-29 0 -56.5 3t-49.5 10l26 119q17 -3 35 -5t34 -2q34 0 59 6t47.5 20.5t46.5 41.5q15 17 34 41l-140 525h161l94 -380zM495 615l38 141h166l-38 -141h-166zM235 615l37 141h166l-37 -141h-166z
" />
    <glyph glyph-name="Amacron" unicode="&#x100;" horiz-adv-x="935" 
d="M689 0l-39 150h-412l-119 -150h-186l563 700h172l189 -700h-168zM617 276l-68 265l-210 -265h278zM398 771l29 107h405l-28 -107h-406z" />
    <glyph glyph-name="amacron" unicode="&#x101;" horiz-adv-x="782" 
d="M92 384q21 44 51 76.5t72 54.5t99 33t131 11q82 0 139.5 -16t90.5 -46t42 -71t-4 -91l-51 -189q-3 -14 -1 -22.5t10 -13t20 -4.5q5 0 11 0.5t10 1.5l-31 -107q-17 -5 -35.5 -8t-34.5 -3q-45 0 -71.5 16t-33.5 45q-5 17 -3 38l-14 -12q-35 -28 -77.5 -47.5t-91 -30
t-103.5 -10.5q-66 0 -112 17t-70 49t-24 77q0 53 30 92.5t96.5 65t175.5 33.5l252 18q6 23 2 41q-5 20 -21.5 34t-45 21.5t-70.5 7.5q-53 0 -90.5 -9t-61 -27.5t-35.5 -49.5zM543 248l-260 -21q-37 -4 -62.5 -13t-38.5 -23.5t-13 -35.5q0 -18 10 -30.5t31 -18.5t53 -6
q41 0 79 7t71 19t59 28.5t43.5 37.5t23.5 44v0zM279 619l29 107h405l-28 -107h-406z" />
    <glyph glyph-name="Abreve" unicode="&#x102;" horiz-adv-x="935" 
d="M689 0l-39 150h-412l-119 -150h-186l563 700h172l189 -700h-168zM617 276l-68 265l-210 -265h278zM724 918h125q-11 -55 -41.5 -91.5t-79.5 -54.5t-117 -18q-71 0 -115.5 19.5t-60.5 56t-6 88.5h125q-10 -38 7.5 -57t58.5 -19q42 0 67.5 18.5t36.5 57.5z" />
    <glyph glyph-name="abreve" unicode="&#x103;" horiz-adv-x="782" 
d="M92 384q21 44 51 76.5t72 54.5t99 33t131 11q82 0 139.5 -16t90.5 -46t42 -71t-4 -91l-51 -189q-3 -14 -1 -22.5t10 -13t20 -4.5q5 0 11 0.5t10 1.5l-31 -107q-17 -5 -35.5 -8t-34.5 -3q-45 0 -71.5 16t-33.5 45q-5 17 -3 38l-14 -12q-35 -28 -77.5 -47.5t-91 -30
t-103.5 -10.5q-66 0 -112 17t-70 49t-24 77q0 53 30 92.5t96.5 65t175.5 33.5l252 18q6 23 2 41q-5 20 -21.5 34t-45 21.5t-70.5 7.5q-53 0 -90.5 -9t-61 -27.5t-35.5 -49.5zM543 248l-260 -21q-37 -4 -62.5 -13t-38.5 -23.5t-13 -35.5q0 -18 10 -30.5t31 -18.5t53 -6
q41 0 79 7t71 19t59 28.5t43.5 37.5t23.5 44v0zM606 766h125q-11 -55 -41.5 -91.5t-79.5 -54.5t-117 -18q-71 0 -115.5 19.5t-60.5 56t-6 88.5h125q-10 -38 7.5 -57t58.5 -19q42 0 67.5 18.5t36.5 57.5z" />
    <glyph glyph-name="Aogonek" unicode="&#x104;" horiz-adv-x="935" 
d="M551 -123q0 32 16.5 58t49.5 46q27 18 66 31l-36 138h-411l-120 -150h-183l563 700h172l189 -700h-2q-46 -6 -77.5 -14t-50.5 -17.5t-27.5 -19.5t-8.5 -20q0 -14 11 -21.5t38 -7.5q22 0 45 4t50 12l-34 -112q-26 -8 -54.5 -13t-58.5 -5q-67 0 -102 25t-35 66zM615 276
l-68 264l-211 -264h279z" />
    <glyph glyph-name="aogonek" unicode="&#x105;" horiz-adv-x="782" 
d="M529 17l-2 2q-19 18 -23 44q-1 13 0 27l-14 -12q-35 -28 -77 -48t-91 -30.5t-103 -10.5q-67 0 -113.5 17t-70.5 49t-24 77q0 53 30 92t96.5 64.5t175.5 33.5l252 18q6 23 2 42q-5 21 -21.5 35t-45 21.5t-70.5 7.5q-53 0 -90.5 -9t-61 -28t-35.5 -50l-151 25
q21 44 51 76.5t72 54.5t99 33t131 11q82 0 139.5 -16t90.5 -46t42 -71t-4 -91l-51 -189q-3 -14 -1 -22.5t10 -13t20 -4.5q5 0 11 0.5t10 1.5l-31 -107q-40 -8 -70.5 -15.5t-51.5 -15.5t-31.5 -18t-10.5 -23q0 -15 11.5 -22t37.5 -7q21 0 44.5 4t49.5 12l-34 -112
q-27 -8 -55.5 -13t-59.5 -5q-67 0 -101 23t-34 67q0 29 15.5 54t47.5 46.5t83 38.5q4 1 7 2zM540 237l3 11l-260 -21q-37 -3 -62.5 -12t-38.5 -23.5t-13 -36.5q0 -19 10.5 -31.5t31.5 -18.5t53 -6q42 0 80 6.5t70.5 19t58.5 29.5t43 38t24 45v0z" />
    <glyph glyph-name="Cacute" unicode="&#x106;" horiz-adv-x="951" 
d="M65 266q0 73 24.5 139.5t70.5 122t111 97t147.5 64t178.5 22.5q112 0 192 -28t123.5 -82t43.5 -133l-172 -34q0 47 -22 79t-67.5 48.5t-115.5 16.5q-64 0 -117.5 -16t-95 -44t-70 -65t-43 -79.5t-14.5 -88.5q0 -30 8 -55t24 -45t41 -34t60.5 -21.5t81.5 -7.5
q69 0 123.5 16.5t94 49.5t63.5 83l164 -34q-39 -84 -101.5 -139t-152 -82t-211.5 -27q-61 0 -111.5 8.5t-91.5 25t-72 40t-52 54.5t-31.5 68.5t-10.5 80.5zM538 760l172 161h205l-239 -161h-138z" />
    <glyph glyph-name="cacute" unicode="&#x107;" horiz-adv-x="789" 
d="M775 356l-156 -29q2 37 -14.5 61.5t-53 36.5t-93.5 12q-48 0 -87.5 -12t-70 -32.5t-52 -48t-32 -59.5t-10.5 -66q0 -21 6 -38t18.5 -30t31.5 -22t46 -13.5t61 -4.5q51 0 94 12t74.5 37.5t49.5 64.5l149 -30q-26 -69 -82 -115t-135 -68.5t-175 -22.5q-59 0 -107 10
t-84.5 28.5t-61 45t-37 60t-12.5 72.5q0 57 19.5 109t57 96.5t91 78t122 52t150.5 18.5q101 0 166.5 -26.5t97 -72.5t29.5 -104zM416 608l172 161h205l-239 -161h-138z" />
    <glyph glyph-name="Ccircumflex" unicode="&#x108;" horiz-adv-x="951" 
d="M65 266q0 73 24.5 139.5t70.5 122t111 97t147.5 64t178.5 22.5q112 0 192 -28t123.5 -82t43.5 -133l-172 -34q0 47 -22 79t-67.5 48.5t-115.5 16.5q-64 0 -117.5 -16t-95 -44t-70 -65t-43 -79.5t-14.5 -88.5q0 -30 8 -55t24 -45t41 -34t60.5 -21.5t81.5 -7.5
q69 0 123.5 16.5t94 49.5t63.5 83l164 -34q-39 -84 -101.5 -139t-152 -82t-211.5 -27q-61 0 -111.5 8.5t-91.5 25t-72 40t-52 54.5t-31.5 68.5t-10.5 80.5zM653 847l-143 -87h-128l190 161h186l102 -161h-118z" />
    <glyph glyph-name="ccircumflex" unicode="&#x109;" horiz-adv-x="789" 
d="M775 356l-156 -29q2 37 -14.5 61.5t-53 36.5t-93.5 12q-48 0 -87.5 -12t-70 -32.5t-52 -48t-32 -59.5t-10.5 -66q0 -21 6 -38t18.5 -30t31.5 -22t46 -13.5t61 -4.5q51 0 94 12t74.5 37.5t49.5 64.5l149 -30q-26 -69 -82 -115t-135 -68.5t-175 -22.5q-59 0 -107 10
t-84.5 28.5t-61 45t-37 60t-12.5 72.5q0 57 19.5 109t57 96.5t91 78t122 52t150.5 18.5q101 0 166.5 -26.5t97 -72.5t29.5 -104zM515 695l-143 -87h-128l190 161h186l102 -161h-118z" />
    <glyph glyph-name="Cdotaccent" unicode="&#x10a;" horiz-adv-x="951" 
d="M65 266q0 73 24.5 139.5t70.5 122t111 97t147.5 64t178.5 22.5q112 0 192 -28t123.5 -82t43.5 -133l-172 -34q0 47 -22 79t-67.5 48.5t-115.5 16.5q-64 0 -117.5 -16t-95 -44t-70 -65t-43 -79.5t-14.5 -88.5q0 -30 8 -55t24 -45t41 -34t60.5 -21.5t81.5 -7.5
q69 0 123.5 16.5t94 49.5t63.5 83l164 -34q-39 -84 -101.5 -139t-152 -82t-211.5 -27q-61 0 -111.5 8.5t-91.5 25t-72 40t-52 54.5t-31.5 68.5t-10.5 80.5zM541 767l40 150h162l-40 -150h-162z" />
    <glyph glyph-name="cdotaccent" unicode="&#x10b;" horiz-adv-x="789" 
d="M775 356l-156 -29q2 37 -14.5 61.5t-53 36.5t-93.5 12q-48 0 -87.5 -12t-70 -32.5t-52 -48t-32 -59.5t-10.5 -66q0 -21 6 -38t18.5 -30t31.5 -22t46 -13.5t61 -4.5q51 0 94 12t74.5 37.5t49.5 64.5l149 -30q-26 -69 -82 -115t-135 -68.5t-175 -22.5q-59 0 -107 10
t-84.5 28.5t-61 45t-37 60t-12.5 72.5q0 57 19.5 109t57 96.5t91 78t122 52t150.5 18.5q101 0 166.5 -26.5t97 -72.5t29.5 -104zM405 615l40 150h162l-40 -150h-162z" />
    <glyph glyph-name="Ccaron" unicode="&#x10c;" horiz-adv-x="951" 
d="M65 266q0 73 24.5 139.5t70.5 122t111 97t147.5 64t178.5 22.5q112 0 192 -28t123.5 -82t43.5 -133l-172 -34q0 47 -22 79t-67.5 48.5t-115.5 16.5q-64 0 -117.5 -16t-95 -44t-70 -65t-43 -79.5t-14.5 -88.5q0 -30 8 -55t24 -45t41 -34t60.5 -21.5t81.5 -7.5
q69 0 123.5 16.5t94 49.5t63.5 83l164 -34q-39 -84 -101.5 -139t-152 -82t-211.5 -27q-61 0 -111.5 8.5t-91.5 25t-72 40t-52 54.5t-31.5 68.5t-10.5 80.5zM629 835l139 86h129l-189 -161h-186l-102 161h116z" />
    <glyph glyph-name="ccaron" unicode="&#x10d;" horiz-adv-x="789" 
d="M775 356l-156 -29q2 37 -14.5 61.5t-53 36.5t-93.5 12q-48 0 -87.5 -12t-70 -32.5t-52 -48t-32 -59.5t-10.5 -66q0 -21 6 -38t18.5 -30t31.5 -22t46 -13.5t61 -4.5q51 0 94 12t74.5 37.5t49.5 64.5l149 -30q-26 -69 -82 -115t-135 -68.5t-175 -22.5q-59 0 -107 10
t-84.5 28.5t-61 45t-37 60t-12.5 72.5q0 57 19.5 109t57 96.5t91 78t122 52t150.5 18.5q101 0 166.5 -26.5t97 -72.5t29.5 -104zM496 683l139 86h129l-189 -161h-186l-102 161h116z" />
    <glyph glyph-name="Dcaron" unicode="&#x10e;" horiz-adv-x="992" 
d="M32 0l188 700h404q64 0 116.5 -12t92.5 -36t68 -59t42 -80t14 -100q0 -71 -21.5 -133.5t-62 -114t-98 -88.5t-129.5 -57t-156 -20h-458zM489 133q53 0 99 14t82 39t61 58.5t38.5 73.5t13.5 83q0 33 -7 59t-21 46t-35.5 33.5t-50 20.5t-64.5 7h-252l-117 -434h253z
M629 835l139 86h129l-189 -161h-186l-102 161h116z" />
    <glyph glyph-name="dcaron" unicode="&#x10f;" horiz-adv-x="966" 
d="M741 750h159l-201 -750h-143l15 86q-14 -12 -29 -23q-48 -36 -109 -55t-132 -19q-50 0 -91.5 9.5t-72.5 28t-51.5 45t-31.5 59.5t-11 73q0 60 19.5 113t55 97.5t84 77t108.5 50t127 17.5q75 0 127.5 -22.5t82.5 -62.5q8 -11 14 -22zM367 113q65 0 115 19.5t83.5 55.5
t46.5 85q10 37 4.5 67t-26 51t-55.5 32.5t-84 11.5q-45 0 -83 -11t-68 -30.5t-51 -46t-31.5 -58.5t-10.5 -67q0 -21 6 -38.5t18.5 -30.5t32 -22t45.5 -13.5t58 -4.5zM929 531l59 219h159l-112 -219h-106z" />
    <glyph glyph-name="Dcroat" unicode="&#x110;" horiz-adv-x="1004" 
d="M19 310l22 85h109l82 305h406q64 0 116 -12t92.5 -35.5t68 -57.5t41.5 -78t14 -98q0 -72 -21.5 -135.5t-62.5 -115.5t-98.5 -89.5t-129.5 -58t-157 -20.5h-457l83 310h-108zM500 133q54 0 100 14t82.5 39.5t61.5 59.5t38.5 74.5t13.5 83.5q0 32 -7 57.5t-21 45.5
t-35.5 33.5t-49.5 20t-65 6.5h-254l-46 -172h192l-23 -85h-192l-47 -177h252z" />
    <glyph glyph-name="dcroat" unicode="&#x111;" horiz-adv-x="861" 
d="M512 607l20 71h188l19 72h161l-19 -72h86l-19 -71h-86l-163 -607h-144l14 88q-14 -14 -30 -26q-48 -35 -108 -54t-130 -19q-51 0 -92 9.5t-72 28t-52 45t-31.5 59.5t-10.5 73q0 57 19 109t54.5 95.5t84 74.5t108 48t126.5 17q74 0 126.5 -22t81.5 -61q8 -11 14 -23
l44 165h-189zM368 113q63 0 113 18.5t83 53.5t46 82q10 36 4.5 65t-26 50t-54 31.5t-80.5 10.5q-46 0 -85 -10.5t-69 -29t-51 -43.5t-32 -55.5t-11 -63.5q0 -21 6.5 -38.5t19 -30.5t31.5 -22t45 -13.5t60 -4.5z" />
    <glyph glyph-name="Emacron" unicode="&#x112;" horiz-adv-x="845" 
d="M32 0l188 700h679l-35 -128h-513l-40 -152h455l-34 -126h-455l-45 -166h521l-34 -128h-687zM375 771l29 107h405l-28 -107h-406z" />
    <glyph glyph-name="emacron" unicode="&#x113;" horiz-adv-x="812" 
d="M346 -11q-60 0 -108.5 10t-85 28.5t-61 44.5t-36.5 59.5t-12 71.5q0 56 18.5 108.5t54.5 97.5t88.5 78.5t120.5 52.5t150 19q75 0 131.5 -16.5t94.5 -45.5t57.5 -67.5t19.5 -82.5q0 -31 -6.5 -57t-19.5 -53h-551q-1 -8 -1 -16q0 -21 6.5 -39t19.5 -32.5t33.5 -23.5
t49 -14t64.5 -5q55 0 97 8.5t71 26.5t43 43l148 -27q-30 -56 -81.5 -93.5t-127 -56.5t-177.5 -19zM227 332h400q1 3 1 5q0 28 -10 47.5t-30.5 33t-52.5 20t-76 6.5q-51 0 -92 -10.5t-72 -30.5t-52 -47q-9 -11 -16 -24zM293 619l29 107h405l-28 -107h-406z" />
    <glyph glyph-name="Ebreve" unicode="&#x114;" horiz-adv-x="845" 
d="M32 0l188 700h679l-35 -128h-513l-40 -152h455l-34 -126h-455l-45 -166h521l-34 -128h-687zM699 918h125q-11 -55 -41.5 -91.5t-79.5 -54.5t-117 -18q-71 0 -115.5 19.5t-60.5 56t-6 88.5h125q-10 -38 7.5 -57t58.5 -19q42 0 67.5 18.5t36.5 57.5z" />
    <glyph glyph-name="ebreve" unicode="&#x115;" horiz-adv-x="812" 
d="M346 -11q-60 0 -108.5 10t-85 28.5t-61 44.5t-36.5 59.5t-12 71.5q0 56 18.5 108.5t54.5 97.5t88.5 78.5t120.5 52.5t150 19q75 0 131.5 -16.5t94.5 -45.5t57.5 -67.5t19.5 -82.5q0 -31 -6.5 -57t-19.5 -53h-551q-1 -8 -1 -16q0 -21 6.5 -39t19.5 -32.5t33.5 -23.5
t49 -14t64.5 -5q55 0 97 8.5t71 26.5t43 43l148 -27q-30 -56 -81.5 -93.5t-127 -56.5t-177.5 -19zM227 332h400q1 3 1 5q0 28 -10 47.5t-30.5 33t-52.5 20t-76 6.5q-51 0 -92 -10.5t-72 -30.5t-52 -47q-9 -11 -16 -24zM620 766h125q-11 -55 -41.5 -91.5t-79.5 -54.5
t-117 -18q-71 0 -115.5 19.5t-60.5 56t-6 88.5h125q-10 -38 7.5 -57t58.5 -19q42 0 67.5 18.5t36.5 57.5z" />
    <glyph glyph-name="Edotaccent" unicode="&#x116;" horiz-adv-x="845" 
d="M32 0l188 700h679l-35 -128h-513l-40 -152h455l-34 -126h-455l-45 -166h521l-34 -128h-687zM497 767l40 150h162l-40 -150h-162z" />
    <glyph glyph-name="edotaccent" unicode="&#x117;" horiz-adv-x="812" 
d="M346 -11q-60 0 -108.5 10t-85 28.5t-61 44.5t-36.5 59.5t-12 71.5q0 56 18.5 108.5t54.5 97.5t88.5 78.5t120.5 52.5t150 19q75 0 131.5 -16.5t94.5 -45.5t57.5 -67.5t19.5 -82.5q0 -31 -6.5 -57t-19.5 -53h-551q-1 -8 -1 -16q0 -21 6.5 -39t19.5 -32.5t33.5 -23.5
t49 -14t64.5 -5q55 0 97 8.5t71 26.5t43 43l148 -27q-30 -56 -81.5 -93.5t-127 -56.5t-177.5 -19zM227 332h400q1 3 1 5q0 28 -10 47.5t-30.5 33t-52.5 20t-76 6.5q-51 0 -92 -10.5t-72 -30.5t-52 -47q-9 -11 -16 -24zM414 615l40 150h162l-40 -150h-162z" />
    <glyph glyph-name="Eogonek" unicode="&#x118;" horiz-adv-x="846" 
d="M32 0l188 700h679l-35 -128h-513l-40 -152h455l-34 -126h-455l-45 -166h521l-34 -128v0q-53 -7 -85.5 -16t-50 -18.5t-24.5 -19t-7 -18.5q0 -14 12 -21t38 -7q22 0 45 4t50 12l-34 -112q-26 -8 -56 -13t-60 -5q-68 0 -102 23t-34 67q0 26 14 50.5t45 47.5q19 14 46 26
h-484z" />
    <glyph glyph-name="eogonek" unicode="&#x119;" horiz-adv-x="813" 
d="M489 3q-16 -3 -32 -5q-29 -5 -57 -7t-54 -2q-60 0 -108 10t-85 28.5t-61.5 44.5t-36.5 59.5t-12 71.5q0 56 18.5 108.5t54.5 97.5t88.5 78.5t120.5 52.5t150 19q75 0 131.5 -16.5t94.5 -45.5t57.5 -67.5t19.5 -82.5q0 -31 -6.5 -57t-19.5 -52h-551v-17q0 -22 6 -40
t19 -32t33.5 -23.5t49 -14.5t64.5 -5q55 0 97 8.5t71 26.5t43 44l147 -27q-18 -36 -44.5 -64.5t-55 -51t-53.5 -42t-40.5 -36.5t-15.5 -34q0 -15 12 -22.5t39 -7.5q21 0 44 4t49 12l-34 -112q-26 -8 -57 -13t-61 -5q-66 0 -99.5 23.5t-33.5 67.5q0 27 12.5 49t36 40.5
t56.5 35.5q1 1 3 1zM226 330h401v4q1 29 -8.5 49.5t-30.5 34t-53 20.5t-76 7q-51 0 -92.5 -11t-72.5 -31t-51 -47q-10 -12 -17 -26z" />
    <glyph glyph-name="Ecaron" unicode="&#x11a;" horiz-adv-x="845" 
d="M32 0l188 700h679l-35 -128h-513l-40 -152h455l-34 -126h-455l-45 -166h521l-34 -128h-687zM590 835l139 86h129l-189 -161h-186l-102 161h116z" />
    <glyph glyph-name="ecaron" unicode="&#x11b;" horiz-adv-x="812" 
d="M346 -11q-60 0 -108.5 10t-85 28.5t-61 44.5t-36.5 59.5t-12 71.5q0 56 18.5 108.5t54.5 97.5t88.5 78.5t120.5 52.5t150 19q75 0 131.5 -16.5t94.5 -45.5t57.5 -67.5t19.5 -82.5q0 -31 -6.5 -57t-19.5 -53h-551q-1 -8 -1 -16q0 -21 6.5 -39t19.5 -32.5t33.5 -23.5
t49 -14t64.5 -5q55 0 97 8.5t71 26.5t43 43l148 -27q-30 -56 -81.5 -93.5t-127 -56.5t-177.5 -19zM227 332h400q1 3 1 5q0 28 -10 47.5t-30.5 33t-52.5 20t-76 6.5q-51 0 -92 -10.5t-72 -30.5t-52 -47q-9 -11 -16 -24zM506 683l139 86h129l-189 -161h-186l-102 161h116z" />
    <glyph glyph-name="Gcircumflex" unicode="&#x11c;" horiz-adv-x="1006" 
d="M497 254l32 121h435l-100 -375h-123l18 116q-35 -34 -76 -59q-56 -33 -122 -50.5t-142 -17.5q-72 0 -128.5 12.5t-98.5 35.5t-70 57.5t-42 77.5t-14 96q0 73 24 139t70.5 121.5t111.5 96.5t147.5 63.5t179.5 22.5q111 0 191.5 -26t124 -77.5t44.5 -127.5l-172 -34
q1 43 -22 72.5t-68.5 44.5t-116.5 15q-65 0 -118 -16t-94.5 -43.5t-70 -64.5t-43 -80t-14.5 -88q0 -30 8.5 -55.5t26 -45.5t44 -34t62.5 -21.5t81 -7.5q80 0 143 17.5t108 53.5q32 26 53 61h-269zM654 847l-143 -87h-128l190 161h186l102 -161h-118z" />
    <glyph glyph-name="gcircumflex" unicode="&#x11d;" horiz-adv-x="788" 
d="M439 559q68 0 120.5 -10t88.5 -29q13 -6 24 -14q33 36 76 54q49 22 103 16l-40 -129q-31 6 -59 4q-18 -1 -34 -6q4 -15 4 -33q0 -44 -24 -81.5t-69.5 -64.5t-111 -42t-148.5 -15q-69 0 -121 10h-2q-28 -3 -43 -13q-20 -13 -20 -34q0 -11 6.5 -19.5t21.5 -13t40 -5.5
l250 -5q64 -1 106.5 -15.5t63 -41.5t20.5 -66q0 -50 -28 -90t-84 -68.5t-139 -43.5t-193 -15q-84 0 -144.5 8t-98.5 23.5t-56.5 39t-18.5 53.5q0 41 26 69t74 45q27 10 61 16q-6 1 -11 3q-28 12 -42 33t-14 50q0 36 27.5 65.5t80.5 47.5q13 4 28 8q-33 19 -49 45
q-18 27 -18 60q0 46 23.5 83t68 64.5t109 42t146.5 14.5zM201 14q-30 -1 -52 -8q-24 -8 -37 -22.5t-13 -33.5q0 -15 9 -26.5t29.5 -18.5t53 -10.5t79.5 -3.5q68 0 117 6t79.5 17t44.5 25.5t14 31.5q0 19 -16 30t-53 11zM562 399q0 15 -8 27t-24.5 20t-42.5 12t-61 4
q-43 0 -75.5 -7t-54 -19t-32.5 -29.5t-11 -38.5q0 -20 14 -33.5t44.5 -20.5t78.5 -7q57 0 95.5 11t57.5 31.5t19 49.5zM500 695l-143 -87h-128l190 161h186l102 -161h-118z" />
    <glyph glyph-name="Gbreve" unicode="&#x11e;" horiz-adv-x="1006" 
d="M497 254l32 121h435l-100 -375h-123l18 116q-35 -34 -76 -59q-56 -33 -122 -50.5t-142 -17.5q-72 0 -128.5 12.5t-98.5 35.5t-70 57.5t-42 77.5t-14 96q0 73 24 139t70.5 121.5t111.5 96.5t147.5 63.5t179.5 22.5q111 0 191.5 -26t124 -77.5t44.5 -127.5l-172 -34
q1 43 -22 72.5t-68.5 44.5t-116.5 15q-65 0 -118 -16t-94.5 -43.5t-70 -64.5t-43 -80t-14.5 -88q0 -30 8.5 -55.5t26 -45.5t44 -34t62.5 -21.5t81 -7.5q80 0 143 17.5t108 53.5q32 26 53 61h-269zM750 918h125q-11 -55 -41.5 -91.5t-79.5 -54.5t-117 -18q-71 0 -115.5 19.5
t-60.5 56t-6 88.5h125q-10 -38 7.5 -57t58.5 -19q42 0 67.5 18.5t36.5 57.5z" />
    <glyph glyph-name="gbreve" unicode="&#x11f;" horiz-adv-x="788" 
d="M439 559q68 0 120.5 -10t88.5 -29q13 -6 24 -14q33 36 76 54q49 22 103 16l-40 -129q-31 6 -59 4q-18 -1 -34 -6q4 -15 4 -33q0 -44 -24 -81.5t-69.5 -64.5t-111 -42t-148.5 -15q-69 0 -121 10h-2q-28 -3 -43 -13q-20 -13 -20 -34q0 -11 6.5 -19.5t21.5 -13t40 -5.5
l250 -5q64 -1 106.5 -15.5t63 -41.5t20.5 -66q0 -50 -28 -90t-84 -68.5t-139 -43.5t-193 -15q-84 0 -144.5 8t-98.5 23.5t-56.5 39t-18.5 53.5q0 41 26 69t74 45q27 10 61 16q-6 1 -11 3q-28 12 -42 33t-14 50q0 36 27.5 65.5t80.5 47.5q13 4 28 8q-33 19 -49 45
q-18 27 -18 60q0 46 23.5 83t68 64.5t109 42t146.5 14.5zM201 14q-30 -1 -52 -8q-24 -8 -37 -22.5t-13 -33.5q0 -15 9 -26.5t29.5 -18.5t53 -10.5t79.5 -3.5q68 0 117 6t79.5 17t44.5 25.5t14 31.5q0 19 -16 30t-53 11zM562 399q0 15 -8 27t-24.5 20t-42.5 12t-61 4
q-43 0 -75.5 -7t-54 -19t-32.5 -29.5t-11 -38.5q0 -20 14 -33.5t44.5 -20.5t78.5 -7q57 0 95.5 11t57.5 31.5t19 49.5zM595 766h125q-11 -55 -41.5 -91.5t-79.5 -54.5t-117 -18q-71 0 -115.5 19.5t-60.5 56t-6 88.5h125q-10 -38 7.5 -57t58.5 -19q42 0 67.5 18.5t36.5 57.5z
" />
    <glyph glyph-name="Gdotaccent" unicode="&#x120;" horiz-adv-x="1006" 
d="M497 254l32 121h435l-100 -375h-123l18 116q-35 -34 -76 -59q-56 -33 -122 -50.5t-142 -17.5q-72 0 -128.5 12.5t-98.5 35.5t-70 57.5t-42 77.5t-14 96q0 73 24 139t70.5 121.5t111.5 96.5t147.5 63.5t179.5 22.5q111 0 191.5 -26t124 -77.5t44.5 -127.5l-172 -34
q1 43 -22 72.5t-68.5 44.5t-116.5 15q-65 0 -118 -16t-94.5 -43.5t-70 -64.5t-43 -80t-14.5 -88q0 -30 8.5 -55.5t26 -45.5t44 -34t62.5 -21.5t81 -7.5q80 0 143 17.5t108 53.5q32 26 53 61h-269zM543 767l40 150h162l-40 -150h-162z" />
    <glyph glyph-name="gdotaccent" unicode="&#x121;" horiz-adv-x="788" 
d="M439 559q68 0 120.5 -10t88.5 -29q13 -6 24 -14q33 36 76 54q49 22 103 16l-40 -129q-31 6 -59 4q-18 -1 -34 -6q4 -15 4 -33q0 -44 -24 -81.5t-69.5 -64.5t-111 -42t-148.5 -15q-69 0 -121 10h-2q-28 -3 -43 -13q-20 -13 -20 -34q0 -11 6.5 -19.5t21.5 -13t40 -5.5
l250 -5q64 -1 106.5 -15.5t63 -41.5t20.5 -66q0 -50 -28 -90t-84 -68.5t-139 -43.5t-193 -15q-84 0 -144.5 8t-98.5 23.5t-56.5 39t-18.5 53.5q0 41 26 69t74 45q27 10 61 16q-6 1 -11 3q-28 12 -42 33t-14 50q0 36 27.5 65.5t80.5 47.5q13 4 28 8q-33 19 -49 45
q-18 27 -18 60q0 46 23.5 83t68 64.5t109 42t146.5 14.5zM201 14q-30 -1 -52 -8q-24 -8 -37 -22.5t-13 -33.5q0 -15 9 -26.5t29.5 -18.5t53 -10.5t79.5 -3.5q68 0 117 6t79.5 17t44.5 25.5t14 31.5q0 19 -16 30t-53 11zM562 399q0 15 -8 27t-24.5 20t-42.5 12t-61 4
q-43 0 -75.5 -7t-54 -19t-32.5 -29.5t-11 -38.5q0 -20 14 -33.5t44.5 -20.5t78.5 -7q57 0 95.5 11t57.5 31.5t19 49.5zM387 615l40 150h162l-40 -150h-162z" />
    <glyph glyph-name="Gcommaaccent" unicode="&#x122;" horiz-adv-x="1006" 
d="M497 254l32 121h435l-100 -375h-123l18 116q-35 -34 -76 -59q-56 -33 -122 -50.5t-142 -17.5q-72 0 -128.5 12.5t-98.5 35.5t-70 57.5t-42 77.5t-14 96q0 73 24 139t70.5 121.5t111.5 96.5t147.5 63.5t179.5 22.5q111 0 191.5 -26t124 -77.5t44.5 -127.5l-172 -34
q1 43 -22 72.5t-68.5 44.5t-116.5 15q-65 0 -118 -16t-94.5 -43.5t-70 -64.5t-43 -80t-14.5 -88q0 -30 8.5 -55.5t26 -45.5t44 -34t62.5 -21.5t81 -7.5q80 0 143 17.5t108 53.5q32 26 53 61h-269zM178 -205l121 145h184l-181 -145h-124z" />
    <glyph glyph-name="gcommaaccent" unicode="&#x123;" horiz-adv-x="788" 
d="M439 559q68 0 120.5 -10t88.5 -29q13 -6 24 -14q33 36 76 54q49 22 103 16l-40 -129q-31 6 -59 4q-18 -1 -34 -6q4 -15 4 -33q0 -44 -24 -81.5t-69.5 -64.5t-111 -42t-148.5 -15q-69 0 -121 10h-2q-28 -3 -43 -13q-20 -13 -20 -34q0 -11 6.5 -19.5t21.5 -13t40 -5.5
l250 -5q64 -1 106.5 -15.5t63 -41.5t20.5 -66q0 -50 -28 -90t-84 -68.5t-139 -43.5t-193 -15q-84 0 -144.5 8t-98.5 23.5t-56.5 39t-18.5 53.5q0 41 26 69t74 45q27 10 61 16q-6 1 -11 3q-28 12 -42 33t-14 50q0 36 27.5 65.5t80.5 47.5q13 4 28 8q-33 19 -49 45
q-18 27 -18 60q0 46 23.5 83t68 64.5t109 42t146.5 14.5zM201 14q-30 -1 -52 -8q-24 -8 -37 -22.5t-13 -33.5q0 -15 9 -26.5t29.5 -18.5t53 -10.5t79.5 -3.5q68 0 117 6t79.5 17t44.5 25.5t14 31.5q0 19 -16 30t-53 11zM562 399q0 15 -8 27t-24.5 20t-42.5 12t-61 4
q-43 0 -75.5 -7t-54 -19t-32.5 -29.5t-11 -38.5q0 -20 14 -33.5t44.5 -20.5t78.5 -7q57 0 95.5 11t57.5 31.5t19 49.5zM698 764l-135 -156h-195l205 156h125z" />
    <glyph glyph-name="Hcircumflex" unicode="&#x124;" horiz-adv-x="1021" 
d="M32 0l188 700h169l-74 -273h474l74 273h168l-188 -700h-168l79 293h-475l-78 -293h-169zM673 847l-143 -87h-128l190 161h186l102 -161h-118z" />
    <glyph glyph-name="hcircumflex" unicode="&#x125;" horiz-adv-x="838" 
d="M20 0l201 750h159l-79 -297q35 34 76.5 57.5t88.5 36t98 12.5q82 0 133.5 -33t69.5 -89.5t-1 -128.5l-83 -308h-160l78 290q12 44 2.5 75t-39 47t-79.5 16q-41 0 -78.5 -11.5t-68.5 -33t-53.5 -52t-34.5 -67.5l-71 -264h-159zM518 897l-143 -87h-128l190 161h186
l102 -161h-118z" />
    <glyph glyph-name="Hbar" unicode="&#x126;" horiz-adv-x="1021" 
d="M73 529l20 71h100l27 100h169l-27 -100h474l27 100h168l-27 -100h100l-19 -71h-100l-142 -529h-168l78 293h-474l-78 -293h-169l142 529h-101zM343 529l-28 -102h474l28 102h-474z" />
    <glyph glyph-name="hbar" unicode="&#x127;" horiz-adv-x="836" 
d="M17 0l161 605h-86l21 75h86l19 70h159l-18 -70h189l-21 -75h-189l-45 -170q35 34 77 58t90 37t99 13q81 0 132 -33t69 -89.5t-1 -128.5l-79 -292h-160l74 274q13 43 3 74t-39.5 47.5t-79.5 16.5q-42 0 -79.5 -11.5t-68.5 -33t-53.5 -51.5t-33.5 -68l-67 -248h-159z" />
    <glyph glyph-name="Itilde" unicode="&#x128;" horiz-adv-x="379" 
d="M32 0l188 700h169l-188 -700h-169zM569 921q-8 -59 -28 -96t-49 -54t-65 -17q-24 0 -43 7.5t-34 18t-28.5 21t-26.5 17.5t-28 7q-14 0 -24 -6.5t-17 -20.5t-10 -36h-102q10 61 31 98.5t50.5 55t64.5 17.5q23 0 41.5 -8t34 -18.5t29 -21.5t26.5 -19t26 -8q11 0 19 4
t14.5 11.5t10.5 19.5t6 28h102z" />
    <glyph glyph-name="itilde" unicode="&#x129;" horiz-adv-x="339" 
d="M17 0l147 548h159l-147 -548h-159zM507 769q-8 -59 -28 -96t-49 -54t-65 -17q-24 0 -43 7.5t-34 18t-28.5 21t-26.5 17.5t-28 7q-14 0 -24 -6.5t-17 -20.5t-10 -36h-102q10 61 31 98.5t50.5 55t64.5 17.5q23 0 41.5 -8t34 -18.5t29 -21.5t26.5 -19t26 -8q11 0 19 4
t14.5 11.5t10.5 19.5t6 28h102z" />
    <glyph glyph-name="Imacron" unicode="&#x12a;" horiz-adv-x="379" 
d="M32 0l188 700h169l-188 -700h-169zM120 771l29 107h405l-28 -107h-406z" />
    <glyph glyph-name="imacron" unicode="&#x12b;" horiz-adv-x="339" 
d="M17 0l147 548h159l-147 -548h-159zM60 619l29 107h405l-28 -107h-406z" />
    <glyph glyph-name="Ibreve" unicode="&#x12c;" horiz-adv-x="379" 
d="M32 0l188 700h169l-188 -700h-169zM447 918h125q-11 -55 -41.5 -91.5t-79.5 -54.5t-117 -18q-71 0 -115.5 19.5t-60.5 56t-6 88.5h125q-10 -38 7.5 -57t58.5 -19q42 0 67.5 18.5t36.5 57.5z" />
    <glyph glyph-name="ibreve" unicode="&#x12d;" horiz-adv-x="339" 
d="M17 0l147 548h159l-147 -548h-159zM387 766h125q-11 -55 -41.5 -91.5t-79.5 -54.5t-117 -18q-71 0 -115.5 19.5t-60.5 56t-6 88.5h125q-10 -38 7.5 -57t58.5 -19q42 0 67.5 18.5t36.5 57.5z" />
    <glyph glyph-name="Iogonek" unicode="&#x12e;" horiz-adv-x="379" 
d="M-83 -118q0 30 15 55t45 45q25 17 59 30l184 688h169l-188 -700q-53 -8 -85 -18t-45.5 -23t-13.5 -28t13 -23t42 -8q23 0 46.5 4t52.5 12l-34 -112q-27 -8 -57.5 -13t-62.5 -5q-43 0 -74 11t-48.5 32.5t-17.5 52.5z" />
    <glyph glyph-name="iogonek" unicode="&#x12f;" horiz-adv-x="339" 
d="M-103 -121q0 29 14 54t44 46q26 20 66 36l143 533h159l-146 -548q-58 -9 -89.5 -21t-43 -24.5t-11.5 -24.5q0 -15 12.5 -22.5t41.5 -7.5q22 0 47 4t53 12l-34 -112q-26 -8 -54.5 -13t-58.5 -5q-70 0 -106.5 23.5t-36.5 69.5zM181 615l36 135h162l-36 -135h-162z" />
    <glyph glyph-name="Idotaccent" unicode="&#x130;" horiz-adv-x="379" 
d="M32 0l188 700h169l-188 -700h-169zM241 767l40 150h162l-40 -150h-162z" />
    <glyph glyph-name="dotlessi" unicode="&#x131;" horiz-adv-x="339" 
d="M17 0l147 548h159l-147 -548h-159z" />
    <glyph glyph-name="IJ" unicode="&#x132;" horiz-adv-x="942" 
d="M32 0l188 700h169l-188 -700h-169zM835 230q-17 -64 -45 -109.5t-68.5 -74.5t-96 -43t-126.5 -14q-37 0 -76.5 3t-80.5 11l30 134q20 -3 38.5 -5.5t37 -3.5t36.5 -1q56 0 94 14t61 43.5t35 74.5l119 441h168z" />
    <glyph glyph-name="ij" unicode="&#x133;" horiz-adv-x="679" 
d="M17 0l147 548h159l-146 -548h-160zM181 615l36 135h162l-36 -135h-162zM355 -2l147 550h160l-146 -547q-21 -79 -57 -126t-86.5 -66.5t-117.5 -19.5q-28 0 -54 2.5t-50 6.5l27 119q17 -2 33 -3.5t29 -1.5q31 0 53.5 9t38 27.5t23.5 49.5zM520 615l36 135h162l-36 -135
h-162z" />
    <glyph glyph-name="Jcircumflex" unicode="&#x134;" horiz-adv-x="563" 
d="M456 230q-17 -64 -45 -109.5t-68.5 -74.5t-96 -43t-126.5 -14q-37 0 -76.5 3t-80.5 11l30 134q20 -3 38.5 -5.5t37 -3.5t36.5 -1q56 0 94 14t61 43.5t35 74.5l119 441h168zM540 847l-143 -87h-128l190 161h186l102 -161h-118z" />
    <glyph glyph-name="jcircumflex" unicode="&#x135;" horiz-adv-x="339" 
d="M16 -2l148 550h159l-146 -547q-21 -80 -57 -126.5t-86.5 -66t-117.5 -19.5q-28 0 -54 2.5t-50 6.5l27 119q17 -2 33.5 -3.5t28.5 -1.5q48 0 75.5 19.5t39.5 66.5zM292 695l-143 -87h-128l190 161h186l102 -161h-118z" />
    <glyph glyph-name="Kcommaaccent" unicode="&#x136;" horiz-adv-x="914" 
d="M32 0l188 700h166l-80 -298l458 298h242l-495 -322l335 -378h-216l-259 286l-116 -75l-57 -211h-166zM171 -205l121 145h184l-181 -145h-124z" />
    <glyph glyph-name="kcommaaccent" unicode="&#x137;" horiz-adv-x="759" 
d="M17 0l201 750h158l-109 -408l320 206h225l-377 -241l253 -307h-196l-183 225l-89 -60l-45 -165h-158zM100 -205l121 145h184l-181 -145h-124z" />
    <glyph glyph-name="kgreenlandic" unicode="&#x138;" horiz-adv-x="759" 
d="M17 0l147 548h158l-56 -209l323 209h223l-378 -241l254 -307h-195l-183 226l-90 -61l-45 -165h-158z" />
    <glyph glyph-name="Lacute" unicode="&#x139;" horiz-adv-x="765" 
d="M32 0l188 700h169l-153 -567h456l-36 -133h-624zM250 760l172 161h205l-239 -161h-138z" />
    <glyph glyph-name="lacute" unicode="&#x13a;" horiz-adv-x="343" 
d="M179 0h-159l201 750h159zM247 810l172 161h205l-239 -161h-138z" />
    <glyph glyph-name="Lcommaaccent" unicode="&#x13b;" horiz-adv-x="765" 
d="M32 0l188 700h169l-153 -567h456l-36 -133h-624zM119 -205l121 145h184l-181 -145h-124z" />
    <glyph glyph-name="lcommaaccent" unicode="&#x13c;" horiz-adv-x="339" 
d="M176 0h-159l201 750h159zM-133 -205l121 145h184l-181 -145h-124z" />
    <glyph glyph-name="Lcaron" unicode="&#x13d;" horiz-adv-x="765" 
d="M32 0l188 700h169l-153 -567h456l-36 -133h-624zM494 481l59 219h159l-112 -219h-106z" />
    <glyph glyph-name="lcaron" unicode="&#x13e;" horiz-adv-x="455" 
d="M176 0h-159l201 750h159zM408 531l59 219h159l-112 -219h-106z" />
    <glyph glyph-name="Ldot" unicode="&#x13f;" horiz-adv-x="765" 
d="M32 0l188 700h169l-153 -567h456l-36 -133h-624zM500 311l41 156h174l-42 -156h-173z" />
    <glyph glyph-name="ldot" unicode="&#x140;" horiz-adv-x="507" 
d="M176 0h-159l201 750h159zM344 297l41 156h174l-42 -156h-173z" />
    <glyph glyph-name="Lslash" unicode="&#x141;" horiz-adv-x="778" 
d="M7 260l23 89l119 33l85 318h168l-71 -266l197 57l-23 -89l-198 -56l-57 -213h455l-35 -133h-624l79 294z" />
    <glyph glyph-name="lslash" unicode="&#x142;" horiz-adv-x="379" 
d="M5 269l22 85l114 35l97 361h160l-83 -308l114 35l-23 -85l-114 -35l-95 -357h-160l81 304z" />
    <glyph glyph-name="Nacute" unicode="&#x143;" horiz-adv-x="1003" 
d="M32 0l188 700h165l333 -524l140 524h155l-188 -700h-165l-332 523l-141 -523h-155zM546 760l172 161h205l-239 -161h-138z" />
    <glyph glyph-name="nacute" unicode="&#x144;" 
d="M17 0l147 548h142l-17 -105q35 37 77.5 62.5t92 39.5t101.5 14q82 0 133.5 -33t70 -89.5t-0.5 -128.5l-83 -308h-160l78 290q12 44 2.5 75t-39 47t-79.5 16q-41 0 -79 -11.5t-69 -33t-53.5 -52.5t-33.5 -69l-71 -262h-159zM429 608l172 161h205l-239 -161h-138z" />
    <glyph glyph-name="Ncommaaccent" unicode="&#x145;" horiz-adv-x="1003" 
d="M32 0l188 700h165l333 -524l140 524h155l-188 -700h-165l-332 523l-141 -523h-155zM197 -205l121 145h184l-181 -145h-124z" />
    <glyph glyph-name="ncommaaccent" unicode="&#x146;" 
d="M17 0l147 548h142l-17 -105q35 37 77.5 62.5t92 39.5t101.5 14q82 0 133.5 -33t70 -89.5t-0.5 -128.5l-83 -308h-160l78 290q12 44 2.5 75t-39 47t-79.5 16q-41 0 -79 -11.5t-69 -33t-53.5 -52.5t-33.5 -69l-71 -262h-159zM128 -205l121 145h184l-181 -145h-124z" />
    <glyph glyph-name="Ncaron" unicode="&#x147;" horiz-adv-x="1003" 
d="M32 0l188 700h165l333 -524l140 524h155l-188 -700h-165l-332 523l-141 -523h-155zM645 835l139 86h129l-189 -161h-186l-102 161h116z" />
    <glyph glyph-name="ncaron" unicode="&#x148;" 
d="M17 0l147 548h142l-17 -105q35 37 77.5 62.5t92 39.5t101.5 14q82 0 133.5 -33t70 -89.5t-0.5 -128.5l-83 -308h-160l78 290q12 44 2.5 75t-39 47t-79.5 16q-41 0 -79 -11.5t-69 -33t-53.5 -52.5t-33.5 -69l-71 -262h-159zM521 683l139 86h129l-189 -161h-186l-102 161
h116z" />
    <glyph glyph-name="napostrophe" unicode="&#x149;" 
d="M17 0l147 548h142l-17 -105q35 37 77.5 62.5t92 39.5t101.5 14q82 0 133.5 -33t70 -89.5t-0.5 -128.5l-83 -308h-160l78 290q12 44 2.5 75t-39 47t-79.5 16q-41 0 -79 -11.5t-69 -33t-53.5 -52.5t-33.5 -69l-71 -262h-159zM190 605l121 145h184l-181 -145h-124z" />
    <glyph glyph-name="Eng" unicode="&#x14a;" horiz-adv-x="1003" 
d="M32 0l188 700h166l337 -505l135 505h155l-176 -654q-19 -72 -47.5 -121.5t-68.5 -79t-95 -43t-128 -13.5q-21 0 -44 1t-46 4t-45 7l29 124q21 -3 39 -5t35 -3t35 -1q53 0 88.5 13t57.5 39q12 15 21 35l-342 512l-139 -515h-155z" />
    <glyph glyph-name="eng" unicode="&#x14b;" 
d="M17 0l146 548h143l-18 -107q21 22 46 40q48 38 106 58t122 20q81 0 132.5 -33t69.5 -89.5t-2 -128.5l-82 -307q-22 -80 -58 -126.5t-86 -66t-117 -19.5q-28 0 -54 2.5t-51 6.5l28 119q16 -2 32.5 -3.5t29.5 -1.5q47 0 75 19.5t40 66.5l78 292q12 43 2.5 74t-39 47.5
t-78.5 16.5q-43 0 -81 -12t-69.5 -35t-53.5 -55q-20 -27 -31 -61l-71 -265h-159z" />
    <glyph glyph-name="Omacron" unicode="&#x14c;" horiz-adv-x="1003" 
d="M441 -11q-73 0 -132.5 12.5t-104.5 36.5t-75.5 58t-46 77.5t-15.5 94.5q0 72 23.5 138t68.5 121.5t110.5 97t149.5 64t184 22.5q73 0 132 -13t104.5 -37t76 -58.5t46.5 -77.5t16 -94q0 -71 -23 -136.5t-68 -121t-110 -97t-149.5 -64.5t-186.5 -23zM461 122q64 0 117.5 16
t95.5 44t71 65.5t44 80t15 88.5q0 29 -7.5 54t-24 45t-42.5 34t-63 21.5t-86 7.5q-64 0 -117 -16.5t-94.5 -45t-70.5 -66t-44 -81t-15 -88.5q0 -29 7.5 -54t23.5 -44t41.5 -32.5t62.5 -21t86 -7.5zM430 771l29 107h405l-28 -107h-406z" />
    <glyph glyph-name="omacron" unicode="&#x14d;" horiz-adv-x="828" 
d="M347 -11q-60 0 -109 10t-85.5 28t-61 44.5t-37 59.5t-12.5 72q0 56 19 108.5t56.5 97.5t90.5 78.5t121.5 52.5t150.5 19q61 0 110 -10t85.5 -28t61.5 -44.5t37 -59t12 -71.5q0 -57 -19 -109.5t-55.5 -97.5t-90 -78.5t-122 -52.5t-152.5 -19zM370 111q48 0 88 12.5
t70.5 34.5t52 50.5t32 60t10.5 63.5q0 20 -6 36.5t-19 29t-32 21.5t-46 13.5t-62 4.5q-48 0 -87.5 -12.5t-70 -34.5t-52 -50t-32 -60t-10.5 -64q0 -19 5.5 -36t18.5 -29.5t32.5 -21.5t46.5 -13.5t61 -4.5zM301 619l29 107h405l-28 -107h-406z" />
    <glyph glyph-name="Obreve" unicode="&#x14e;" horiz-adv-x="1003" 
d="M441 -11q-73 0 -132.5 12.5t-104.5 36.5t-75.5 58t-46 77.5t-15.5 94.5q0 72 23.5 138t68.5 121.5t110.5 97t149.5 64t184 22.5q73 0 132 -13t104.5 -37t76 -58.5t46.5 -77.5t16 -94q0 -71 -23 -136.5t-68 -121t-110 -97t-149.5 -64.5t-186.5 -23zM461 122q64 0 117.5 16
t95.5 44t71 65.5t44 80t15 88.5q0 29 -7.5 54t-24 45t-42.5 34t-63 21.5t-86 7.5q-64 0 -117 -16.5t-94.5 -45t-70.5 -66t-44 -81t-15 -88.5q0 -29 7.5 -54t23.5 -44t41.5 -32.5t62.5 -21t86 -7.5zM757 918h125q-11 -55 -41.5 -91.5t-79.5 -54.5t-117 -18q-71 0 -115.5 19.5
t-60.5 56t-6 88.5h125q-10 -38 7.5 -57t58.5 -19q42 0 67.5 18.5t36.5 57.5z" />
    <glyph glyph-name="obreve" unicode="&#x14f;" horiz-adv-x="828" 
d="M347 -11q-60 0 -109 10t-85.5 28t-61 44.5t-37 59.5t-12.5 72q0 56 19 108.5t56.5 97.5t90.5 78.5t121.5 52.5t150.5 19q61 0 110 -10t85.5 -28t61.5 -44.5t37 -59t12 -71.5q0 -57 -19 -109.5t-55.5 -97.5t-90 -78.5t-122 -52.5t-152.5 -19zM370 111q48 0 88 12.5
t70.5 34.5t52 50.5t32 60t10.5 63.5q0 20 -6 36.5t-19 29t-32 21.5t-46 13.5t-62 4.5q-48 0 -87.5 -12.5t-70 -34.5t-52 -50t-32 -60t-10.5 -64q0 -19 5.5 -36t18.5 -29.5t32.5 -21.5t46.5 -13.5t61 -4.5zM628 766h125q-11 -55 -41.5 -91.5t-79.5 -54.5t-117 -18
q-71 0 -115.5 19.5t-60.5 56t-6 88.5h125q-10 -38 7.5 -57t58.5 -19q42 0 67.5 18.5t36.5 57.5z" />
    <glyph glyph-name="Ohungarumlaut" unicode="&#x150;" horiz-adv-x="1003" 
d="M441 -11q-73 0 -132.5 12.5t-104.5 36.5t-75.5 58t-46 77.5t-15.5 94.5q0 72 23.5 138t68.5 121.5t110.5 97t149.5 64t184 22.5q73 0 132 -13t104.5 -37t76 -58.5t46.5 -77.5t16 -94q0 -71 -23 -136.5t-68 -121t-110 -97t-149.5 -64.5t-186.5 -23zM461 122q64 0 117.5 16
t95.5 44t71 65.5t44 80t15 88.5q0 29 -7.5 54t-24 45t-42.5 34t-63 21.5t-86 7.5q-64 0 -117 -16.5t-94.5 -45t-70.5 -66t-44 -81t-15 -88.5q0 -29 7.5 -54t23.5 -44t41.5 -32.5t62.5 -21t86 -7.5zM445 760l134 161h174l-186 -161h-122zM675 760l133 161h174l-186 -161h-121
z" />
    <glyph glyph-name="ohungarumlaut" unicode="&#x151;" horiz-adv-x="828" 
d="M347 -11q-60 0 -109 10t-85.5 28t-61 44.5t-37 59.5t-12.5 72q0 56 19 108.5t56.5 97.5t90.5 78.5t121.5 52.5t150.5 19q61 0 110 -10t85.5 -28t61.5 -44.5t37 -59t12 -71.5q0 -57 -19 -109.5t-55.5 -97.5t-90 -78.5t-122 -52.5t-152.5 -19zM370 111q48 0 88 12.5
t70.5 34.5t52 50.5t32 60t10.5 63.5q0 20 -6 36.5t-19 29t-32 21.5t-46 13.5t-62 4.5q-48 0 -87.5 -12.5t-70 -34.5t-52 -50t-32 -60t-10.5 -64q0 -19 5.5 -36t18.5 -29.5t32.5 -21.5t46.5 -13.5t61 -4.5zM314 608l134 161h174l-186 -161h-122zM544 608l133 161h174
l-186 -161h-121z" />
    <glyph glyph-name="OE" unicode="&#x152;" horiz-adv-x="1407" 
d="M622 0h-214q-65 0 -118.5 12t-94.5 35t-69 57.5t-42.5 78.5t-14.5 97q0 72 22 136t63.5 116t99.5 89.5t131 58t158 20.5h917l-35 -128h-484l-41 -152h428l-34 -126h-428l-44 -166h493l-34 -128h-659zM774 567h-230q-55 0 -102 -13.5t-83.5 -38.5t-63 -59t-40 -74.5
t-13.5 -85.5q0 -32 7.5 -58t22 -45.5t36.5 -33t51.5 -20t66.5 -6.5h231z" />
    <glyph glyph-name="oe" unicode="&#x153;" horiz-adv-x="1356" 
d="M339 -11q-59 0 -106 10t-83 28t-60 44.5t-36 59.5t-12 72q0 56 19.5 108.5t56 97.5t90 78.5t122 52.5t150.5 19q64 0 114.5 -15t86.5 -45q25 -22 41 -50q19 19 42 35q35 24 77.5 41t90 25.5t97.5 8.5q70 0 124.5 -16t92 -44.5t57 -67.5t19.5 -84q0 -31 -6.5 -57
t-19.5 -53h-536q-1 -9 -1 -19q0 -21 6.5 -38.5t19.5 -31t32.5 -23t46.5 -14t60 -4.5q53 0 94 8t68.5 26t41.5 44l147 -27q-29 -56 -78.5 -93.5t-121.5 -56.5t-169 -19q-49 0 -93 8.5t-79 26.5t-59 45q-15 16 -25 36q-21 -22 -46 -39q-36 -26 -78 -43t-88.5 -25.5t-98.5 -8.5
zM366 111q47 0 85 12.5t68 34.5t50 50.5t30.5 60t10.5 63.5q0 20 -5.5 36.5t-18 29t-31 21.5t-43.5 13.5t-58 4.5q-47 0 -86 -12.5t-69 -34.5t-51 -50t-31.5 -60t-10.5 -64q0 -19 5.5 -36t18 -29.5t31.5 -21.5t45 -13.5t60 -4.5zM786 332h385v5q0 29 -11 49.5t-31.5 33
t-50 18.5t-67.5 6q-49 0 -89 -10.5t-70.5 -30.5t-51.5 -48q-7 -11 -14 -23z" />
    <glyph glyph-name="Racute" unicode="&#x154;" horiz-adv-x="909" 
d="M32 0l188 700h450q56 0 99.5 -13.5t73.5 -39.5t45.5 -63.5t15.5 -85.5q0 -75 -41.5 -130t-113.5 -85q-55 -23 -123 -29l168 -254h-190l-162 247h-175l-66 -247h-169zM354 572l-53 -197h289q33 0 60 7.5t45.5 22t28.5 34.5t10 45q0 22 -6.5 38t-19.5 27.5t-32.5 17
t-45.5 5.5h-276zM484 760l172 161h205l-239 -161h-138z" />
    <glyph glyph-name="racute" unicode="&#x155;" horiz-adv-x="556" 
d="M17 0l147 548h143l-22 -124q27 30 57 55q48 38 104.5 59t119.5 21q12 0 25.5 -1t21.5 -3l-48 -160q-13 4 -31.5 6t-37.5 2q-38 0 -72 -7.5t-63.5 -22t-54.5 -37t-43 -52.5q-16 -26 -26 -58l-61 -226h-159zM298 608l172 161h205l-239 -161h-138z" />
    <glyph glyph-name="Rcommaaccent" unicode="&#x156;" horiz-adv-x="909" 
d="M32 0l188 700h450q56 0 99.5 -13.5t73.5 -39.5t45.5 -63.5t15.5 -85.5q0 -75 -41.5 -130t-113.5 -85q-55 -23 -123 -29l168 -254h-190l-162 247h-175l-66 -247h-169zM354 572l-53 -197h289q33 0 60 7.5t45.5 22t28.5 34.5t10 45q0 22 -6.5 38t-19.5 27.5t-32.5 17
t-45.5 5.5h-276zM172 -205l121 145h184l-181 -145h-124z" />
    <glyph glyph-name="rcommaaccent" unicode="&#x157;" horiz-adv-x="557" 
d="M17 0l147 548h143l-22 -124q27 30 57 55q48 38 104.5 59t119.5 21q12 0 25.5 -1t21.5 -3l-48 -160q-13 4 -31.5 6t-37.5 2q-38 0 -72 -7.5t-63.5 -22t-54.5 -37t-43 -52.5q-16 -26 -26 -58l-61 -226h-159zM-133 -205l121 145h184l-181 -145h-124z" />
    <glyph glyph-name="Rcaron" unicode="&#x158;" horiz-adv-x="909" 
d="M32 0l188 700h450q56 0 99.5 -13.5t73.5 -39.5t45.5 -63.5t15.5 -85.5q0 -75 -41.5 -130t-113.5 -85q-55 -23 -123 -29l168 -254h-190l-162 247h-175l-66 -247h-169zM354 572l-53 -197h289q33 0 60 7.5t45.5 22t28.5 34.5t10 45q0 22 -6.5 38t-19.5 27.5t-32.5 17
t-45.5 5.5h-276zM588 835l139 86h129l-189 -161h-186l-102 161h116z" />
    <glyph glyph-name="rcaron" unicode="&#x159;" horiz-adv-x="557" 
d="M17 0l147 548h143l-22 -124q27 30 57 55q48 38 104.5 59t119.5 21q12 0 25.5 -1t21.5 -3l-48 -160q-13 4 -31.5 6t-37.5 2q-38 0 -72 -7.5t-63.5 -22t-54.5 -37t-43 -52.5q-16 -26 -26 -58l-61 -226h-159zM406 683l139 86h129l-189 -161h-186l-102 161h116z" />
    <glyph glyph-name="Sacute" unicode="&#x15a;" horiz-adv-x="902" 
d="M26 213l179 24q-2 -41 21 -69t71.5 -41t120.5 -13q65 0 111.5 5.5t76 17t43.5 28t14 37.5q0 22 -11 36t-41.5 24t-88.5 18l-188 18q-56 8 -97.5 23t-68.5 37t-40 51.5t-13 67.5q0 52 26.5 95.5t78 74.5t128 47.5t176.5 16.5q122 0 204.5 -23.5t123 -70t36.5 -116.5
l-171 -25q1 56 -45 83t-160 27q-61 0 -104 -5.5t-69.5 -16.5t-38 -26.5t-11.5 -35.5q0 -21 11.5 -34.5t41 -22.5t80.5 -17l184 -16q77 -11 128 -32.5t76.5 -57t25.5 -88.5t-25 -98t-77 -78t-131.5 -51t-189.5 -18q-96 0 -168.5 13.5t-121.5 40.5t-73 69t-24 101zM477 760
l172 161h205l-239 -161h-138z" />
    <glyph glyph-name="sacute" unicode="&#x15b;" horiz-adv-x="745" 
d="M404 451q-60 0 -97.5 -7.5t-54.5 -21t-17 -32.5q0 -15 9 -24.5t31 -15t60 -9.5l134 -12q72 -8 118 -24.5t67.5 -44.5t21.5 -70q0 -58 -39.5 -103.5t-119.5 -71.5t-204 -26q-113 0 -180.5 21.5t-97 61t-29.5 91.5l159 23q-3 -45 36 -67t120 -22q54 0 91 5t59 14t31.5 21
t9.5 27t-8 24.5t-28 15t-56 8.5l-134 11q-72 8 -118.5 26t-68.5 47.5t-22 72.5q0 55 39.5 98t117 67.5t189.5 24.5q100 0 164.5 -19t96.5 -56t32 -90l-153 -22q1 26 -15 43.5t-50.5 26.5t-93.5 9zM378 608l172 161h205l-239 -161h-138z" />
    <glyph glyph-name="Scircumflex" unicode="&#x15c;" horiz-adv-x="902" 
d="M26 213l179 24q-2 -41 21 -69t71.5 -41t120.5 -13q65 0 111.5 5.5t76 17t43.5 28t14 37.5q0 22 -11 36t-41.5 24t-88.5 18l-188 18q-56 8 -97.5 23t-68.5 37t-40 51.5t-13 67.5q0 52 26.5 95.5t78 74.5t128 47.5t176.5 16.5q122 0 204.5 -23.5t123 -70t36.5 -116.5
l-171 -25q1 56 -45 83t-160 27q-61 0 -104 -5.5t-69.5 -16.5t-38 -26.5t-11.5 -35.5q0 -21 11.5 -34.5t41 -22.5t80.5 -17l184 -16q77 -11 128 -32.5t76.5 -57t25.5 -88.5t-25 -98t-77 -78t-131.5 -51t-189.5 -18q-96 0 -168.5 13.5t-121.5 40.5t-73 69t-24 101zM596 847
l-143 -87h-128l190 161h186l102 -161h-118z" />
    <glyph glyph-name="scircumflex" unicode="&#x15d;" horiz-adv-x="745" 
d="M404 451q-60 0 -97.5 -7.5t-54.5 -21t-17 -32.5q0 -15 9 -24.5t31 -15t60 -9.5l134 -12q72 -8 118 -24.5t67.5 -44.5t21.5 -70q0 -58 -39.5 -103.5t-119.5 -71.5t-204 -26q-113 0 -180.5 21.5t-97 61t-29.5 91.5l159 23q-3 -45 36 -67t120 -22q54 0 91 5t59 14t31.5 21
t9.5 27t-8 24.5t-28 15t-56 8.5l-134 11q-72 8 -118.5 26t-68.5 47.5t-22 72.5q0 55 39.5 98t117 67.5t189.5 24.5q100 0 164.5 -19t96.5 -56t32 -90l-153 -22q1 26 -15 43.5t-50.5 26.5t-93.5 9zM490 695l-143 -87h-128l190 161h186l102 -161h-118z" />
    <glyph glyph-name="Scedilla" unicode="&#x15e;" horiz-adv-x="902" 
d="M26 213l179 24q-2 -41 21 -69t71.5 -41t120.5 -13q65 0 111.5 5.5t76 17t43.5 28t14 37.5q0 22 -11 36t-41.5 24t-88.5 18l-188 18q-56 8 -97.5 23t-68.5 37t-40 51.5t-13 67.5q0 52 26.5 95.5t78 74.5t128 47.5t176.5 16.5q122 0 204.5 -23.5t123 -70t36.5 -116.5
l-171 -25q1 56 -45 83t-160 27q-61 0 -104 -5.5t-69.5 -16.5t-38 -26.5t-11.5 -35.5q0 -21 11.5 -34.5t41 -22.5t80.5 -17l184 -16q77 -11 128 -32.5t76.5 -57t25.5 -88.5t-25 -98t-77 -78t-131 -51q-76 -17 -178 -18l-14 -33q27 5 54 5q53 0 78 -18.5t25 -52.5
q0 -30 -21.5 -54t-68 -37t-121.5 -13q-36 0 -74 4t-74 12l22 69q39 -8 68 -11.5t54 -3.5q35 0 54 4t26 10.5t7 13.5q0 10 -7 15t-23 5q-13 0 -23.5 -2.5t-20.5 -7.5l-78 8l37 90q-43 4 -80 10q-73 14 -122 41t-73 69t-24 101z" />
    <glyph glyph-name="scedilla" unicode="&#x15f;" horiz-adv-x="745" 
d="M404 451q-60 0 -97.5 -7.5t-54.5 -21t-17 -32.5q0 -15 9 -24.5t31 -15t60 -9.5l134 -12q72 -8 118 -24.5t67.5 -44.5t21.5 -70q0 -58 -39.5 -103.5t-119.5 -71.5q-74 -24 -184 -26l-14 -33q27 5 54 5q53 0 78 -18.5t25 -52.5q0 -30 -21.5 -54t-68 -37t-121.5 -13
q-36 0 -74 4t-74 12l22 69q39 -8 68 -11.5t54 -3.5q35 0 54 4t26 10.5t7 13.5q0 10 -7 15t-23 5q-13 0 -23.5 -2.5t-20.5 -7.5l-78 8l37 90q-59 5 -100 19q-68 21 -97.5 60.5t-29.5 91.5l159 23q-3 -45 36 -67t120 -22q54 0 91 5t59 14t31.5 21t9.5 27t-8 24.5t-28 15
t-56 8.5l-134 11q-72 8 -118.5 26t-68.5 47.5t-22 72.5q0 55 39.5 98t117 67.5t189.5 24.5q100 0 164.5 -19t96.5 -56t32 -90l-153 -22q1 26 -15 43.5t-50.5 26.5t-93.5 9z" />
    <glyph glyph-name="Scaron" unicode="&#x160;" horiz-adv-x="902" 
d="M26 213l179 24q-2 -41 21 -69t71.5 -41t120.5 -13q65 0 111.5 5.5t76 17t43.5 28t14 37.5q0 22 -11 36t-41.5 24t-88.5 18l-188 18q-56 8 -97.5 23t-68.5 37t-40 51.5t-13 67.5q0 52 26.5 95.5t78 74.5t128 47.5t176.5 16.5q122 0 204.5 -23.5t123 -70t36.5 -116.5
l-171 -25q1 56 -45 83t-160 27q-61 0 -104 -5.5t-69.5 -16.5t-38 -26.5t-11.5 -35.5q0 -21 11.5 -34.5t41 -22.5t80.5 -17l184 -16q77 -11 128 -32.5t76.5 -57t25.5 -88.5t-25 -98t-77 -78t-131.5 -51t-189.5 -18q-96 0 -168.5 13.5t-121.5 40.5t-73 69t-24 101zM584 835
l139 86h129l-189 -161h-186l-102 161h116z" />
    <glyph glyph-name="scaron" unicode="&#x161;" horiz-adv-x="745" 
d="M404 451q-60 0 -97.5 -7.5t-54.5 -21t-17 -32.5q0 -15 9 -24.5t31 -15t60 -9.5l134 -12q72 -8 118 -24.5t67.5 -44.5t21.5 -70q0 -58 -39.5 -103.5t-119.5 -71.5t-204 -26q-113 0 -180.5 21.5t-97 61t-29.5 91.5l159 23q-3 -45 36 -67t120 -22q54 0 91 5t59 14t31.5 21
t9.5 27t-8 24.5t-28 15t-56 8.5l-134 11q-72 8 -118.5 26t-68.5 47.5t-22 72.5q0 55 39.5 98t117 67.5t189.5 24.5q100 0 164.5 -19t96.5 -56t32 -90l-153 -22q1 26 -15 43.5t-50.5 26.5t-93.5 9zM471 683l139 86h129l-189 -161h-186l-102 161h116z" />
    <glyph glyph-name="uni0162" unicode="&#x162;" 
d="M260 0l152 567h-307l37 133h782l-36 -133h-308l-152 -567h-168zM110 -205l121 145h184l-181 -145h-124z" />
    <glyph glyph-name="uni0163" unicode="&#x163;" horiz-adv-x="572" 
d="M107 213l57 215h-111l32 120h65q24 0 40 4t27.5 17.5t23.5 41.5t29 77h124l-38 -140h248l-32 -120h-248l-54 -200q-11 -41 -5 -66.5t31 -37t69 -11.5q18 0 40.5 2t47 5t46.5 7l-37 -121q-25 -5 -52 -9t-55 -6t-55 -2q-64 0 -107.5 15.5t-67 45t-28 70.5t9.5 93zM10 -205
l121 145h184l-181 -145h-124z" />
    <glyph glyph-name="Tcaron" unicode="&#x164;" 
d="M260 0l152 567h-307l37 133h782l-36 -133h-308l-152 -567h-168zM560 835l139 86h129l-189 -161h-186l-102 161h116z" />
    <glyph glyph-name="tcaron" unicode="&#x165;" horiz-adv-x="582" 
d="M107 213l57 215h-111l32 120h65q24 0 40 4t27.5 17.5t23.5 41.5t29 77h124l-38 -140h248l-32 -120h-248l-54 -200q-11 -41 -5 -66.5t31 -37t69 -11.5q18 0 40.5 2t47 5t46.5 7l-37 -121q-25 -5 -52 -9t-55 -6t-55 -2q-64 0 -107.5 15.5t-67 45t-28 70.5t9.5 93zM443 602
l59 219h159l-112 -219h-106z" />
    <glyph glyph-name="Tbar" unicode="&#x166;" 
d="M173 291l21 76h164l54 200h-307l37 133h782l-36 -133h-308l-54 -200h167l-21 -76h-166l-78 -291h-168l78 291h-165z" />
    <glyph glyph-name="tbar" unicode="&#x167;" horiz-adv-x="572" 
d="M14 239l20 75h99l31 114h-111l32 120h65q24 0 40 4t27.5 17.5t23.5 41.5t29 77h124l-38 -140h248l-32 -120h-248l-31 -114h193l-20 -75h-193l-3 -11q-11 -41 -4 -66.5t32.5 -37t68.5 -11.5q19 0 41 2t45.5 5t45.5 7l-37 -121q-24 -5 -52 -9t-55.5 -6t-52.5 -2
q-62 0 -105.5 15.5t-68.5 44.5t-30.5 70.5t8.5 93.5l7 26h-99z" />
    <glyph glyph-name="Utilde" unicode="&#x168;" horiz-adv-x="958" 
d="M881 313q-23 -83 -61.5 -144t-94 -101t-130 -59.5t-168.5 -19.5q-102 0 -173 25t-111 70t-50 106.5t9 134.5l101 375h168l-101 -378q-17 -63 -2.5 -108t59.5 -68.5t118 -23.5q52 0 95 12t77 36t58.5 59.5t37.5 84.5l104 386h168zM856 921q-8 -59 -28 -96t-49 -54t-65 -17
q-24 0 -43 7.5t-34 18t-28.5 21t-26.5 17.5t-28 7q-14 0 -24 -6.5t-17 -20.5t-10 -36h-102q10 61 31 98.5t50.5 55t64.5 17.5q23 0 41.5 -8t34 -18.5t29 -21.5t26.5 -19t26 -8q11 0 19 4t14.5 11.5t10.5 19.5t6 28h102z" />
    <glyph glyph-name="utilde" unicode="&#x169;" horiz-adv-x="816" 
d="M800 548l-147 -548h-142l16 97q-24 -26 -52.5 -46t-61 -34t-68.5 -21t-76 -7q-63 0 -107.5 17t-69.5 48.5t-31 75.5t9 97l86 321h159l-81 -302q-7 -28 -4 -51.5t17 -40t39 -25.5t60 -9q31 0 59 7t53.5 20.5t47 33t38 45t25.5 56.5l71 266h160zM744 769q-8 -59 -28 -96
t-49 -54t-65 -17q-24 0 -43 7.5t-34 18t-28.5 21t-26.5 17.5t-28 7q-14 0 -24 -6.5t-17 -20.5t-10 -36h-102q10 61 31 98.5t50.5 55t64.5 17.5q23 0 41.5 -8t34 -18.5t29 -21.5t26.5 -19t26 -8q11 0 19 4t14.5 11.5t10.5 19.5t6 28h102z" />
    <glyph glyph-name="Umacron" unicode="&#x16a;" horiz-adv-x="958" 
d="M881 313q-23 -83 -61.5 -144t-94 -101t-130 -59.5t-168.5 -19.5q-102 0 -173 25t-111 70t-50 106.5t9 134.5l101 375h168l-101 -378q-17 -63 -2.5 -108t59.5 -68.5t118 -23.5q52 0 95 12t77 36t58.5 59.5t37.5 84.5l104 386h168zM409 771l29 107h405l-28 -107h-406z" />
    <glyph glyph-name="umacron" unicode="&#x16b;" horiz-adv-x="816" 
d="M800 548l-147 -548h-142l16 97q-24 -26 -52.5 -46t-61 -34t-68.5 -21t-76 -7q-63 0 -107.5 17t-69.5 48.5t-31 75.5t9 97l86 321h159l-81 -302q-7 -28 -4 -51.5t17 -40t39 -25.5t60 -9q31 0 59 7t53.5 20.5t47 33t38 45t25.5 56.5l71 266h160zM297 619l29 107h405
l-28 -107h-406z" />
    <glyph glyph-name="Ubreve" unicode="&#x16c;" horiz-adv-x="958" 
d="M881 313q-23 -83 -61.5 -144t-94 -101t-130 -59.5t-168.5 -19.5q-102 0 -173 25t-111 70t-50 106.5t9 134.5l101 375h168l-101 -378q-17 -63 -2.5 -108t59.5 -68.5t118 -23.5q52 0 95 12t77 36t58.5 59.5t37.5 84.5l104 386h168zM736 918h125q-11 -55 -41.5 -91.5
t-79.5 -54.5t-117 -18q-71 0 -115.5 19.5t-60.5 56t-6 88.5h125q-10 -38 7.5 -57t58.5 -19q42 0 67.5 18.5t36.5 57.5z" />
    <glyph glyph-name="ubreve" unicode="&#x16d;" horiz-adv-x="816" 
d="M800 548l-147 -548h-142l16 97q-24 -26 -52.5 -46t-61 -34t-68.5 -21t-76 -7q-63 0 -107.5 17t-69.5 48.5t-31 75.5t9 97l86 321h159l-81 -302q-7 -28 -4 -51.5t17 -40t39 -25.5t60 -9q31 0 59 7t53.5 20.5t47 33t38 45t25.5 56.5l71 266h160zM623 766h125
q-11 -55 -41.5 -91.5t-79.5 -54.5t-117 -18q-71 0 -115.5 19.5t-60.5 56t-6 88.5h125q-10 -38 7.5 -57t58.5 -19q42 0 67.5 18.5t36.5 57.5z" />
    <glyph glyph-name="Uring" unicode="&#x16e;" horiz-adv-x="958" 
d="M881 313q-23 -83 -61.5 -144t-94 -101t-130 -59.5t-168.5 -19.5q-102 0 -173 25t-111 70t-50 106.5t9 134.5l101 375h168l-101 -378q-17 -63 -2.5 -108t59.5 -68.5t118 -23.5q52 0 95 12t77 36t58.5 59.5t37.5 84.5l104 386h168zM611 746q-42 0 -71 11.5t-44 33.5t-15 53
q0 38 23 68.5t64 48.5t95 18q42 0 71 -11.5t44.5 -32.5t15.5 -51q0 -38 -23.5 -69.5t-64.5 -50t-95 -18.5zM622 812q42 0 64.5 17.5t22.5 43.5q0 19 -14 29.5t-43 10.5q-41 0 -64 -18t-23 -42q0 -20 14.5 -30.5t42.5 -10.5z" />
    <glyph glyph-name="uring" unicode="&#x16f;" horiz-adv-x="816" 
d="M800 548l-147 -548h-142l16 97q-24 -26 -52.5 -46t-61 -34t-68.5 -21t-76 -7q-63 0 -107.5 17t-69.5 48.5t-31 75.5t9 97l86 321h159l-81 -302q-7 -28 -4 -51.5t17 -40t39 -25.5t60 -9q31 0 59 7t53.5 20.5t47 33t38 45t25.5 56.5l71 266h160zM499 594q-42 0 -71 11.5
t-44 33.5t-15 53q0 38 23 68.5t64 48.5t95 18q42 0 71 -11.5t44.5 -32.5t15.5 -51q0 -38 -23.5 -69.5t-64.5 -50t-95 -18.5zM510 660q42 0 64.5 17.5t22.5 43.5q0 19 -14 29.5t-43 10.5q-41 0 -64 -18t-23 -42q0 -20 14.5 -30.5t42.5 -10.5z" />
    <glyph glyph-name="Uhungarumlaut" unicode="&#x170;" horiz-adv-x="958" 
d="M881 313q-23 -83 -61.5 -144t-94 -101t-130 -59.5t-168.5 -19.5q-102 0 -173 25t-111 70t-50 106.5t9 134.5l101 375h168l-101 -378q-17 -63 -2.5 -108t59.5 -68.5t118 -23.5q52 0 95 12t77 36t58.5 59.5t37.5 84.5l104 386h168zM424 760l134 161h174l-186 -161h-122z
M654 760l133 161h174l-186 -161h-121z" />
    <glyph glyph-name="uhungarumlaut" unicode="&#x171;" horiz-adv-x="816" 
d="M800 548l-147 -548h-142l16 97q-24 -26 -52.5 -46t-61 -34t-68.5 -21t-76 -7q-63 0 -107.5 17t-69.5 48.5t-31 75.5t9 97l86 321h159l-81 -302q-7 -28 -4 -51.5t17 -40t39 -25.5t60 -9q31 0 59 7t53.5 20.5t47 33t38 45t25.5 56.5l71 266h160zM310 608l134 161h174
l-186 -161h-122zM540 608l133 161h174l-186 -161h-121z" />
    <glyph glyph-name="Uogonek" unicode="&#x172;" horiz-adv-x="958" 
d="M401 -214q-65 0 -99 24.5t-34 64.5q0 31 16.5 56t49.5 45q13 8 28 14q-92 7 -154 41q-77 42 -105.5 115t-3.5 167l104 387h169l-104 -386q-17 -63 -2 -106t58.5 -64.5t112.5 -21.5t125 21t95 63.5t56 107.5l104 386h168l-104 -387q-21 -76 -55 -131t-81.5 -92t-110.5 -61
q-37 -14 -68 -24t-56 -18.5t-44 -15t-32 -13.5t-19.5 -14t-6.5 -17q0 -13 11 -20t37 -7q22 0 45.5 4t50.5 12l-34 -112q-27 -8 -56.5 -13t-60.5 -5z" />
    <glyph glyph-name="uogonek" unicode="&#x173;" horiz-adv-x="816" 
d="M800 548l-147 -548v0q-52 -7 -84.5 -16t-50.5 -18.5t-24.5 -19t-6.5 -18.5q0 -14 11.5 -21t37.5 -7q22 0 45 4t50 12l-34 -112q-26 -8 -56 -13t-60 -5q-68 0 -102 23t-34 67q0 26 14 50.5t45.5 47t82.5 41.5q13 5 28 10l12 72q-24 -26 -52.5 -46t-61 -34t-68.5 -21
t-76 -7q-63 0 -107.5 17t-69.5 48.5t-31 75.5t9 97l86 321h159l-81 -302q-7 -28 -4 -51.5t17 -40t39 -25.5t60 -9q31 0 59 7t53.5 20.5t47 33t38 45t25.5 56.5l71 266h160z" />
    <glyph glyph-name="Wcircumflex" unicode="&#x174;" horiz-adv-x="1286" 
d="M201 0l-76 700h165l50 -494l324 494h165l66 -500l313 500h184l-452 -700h-165l-72 514l-342 -514h-160zM806 847l-143 -87h-128l190 161h186l102 -161h-118z" />
    <glyph glyph-name="wcircumflex" unicode="&#x175;" horiz-adv-x="1071" 
d="M167 0l-85 548h152l53 -359l246 359h135l62 -358l240 358h166l-375 -548h-131l-63 383l-269 -383h-131zM658 695l-143 -87h-128l190 161h186l102 -161h-118z" />
    <glyph glyph-name="Ycircumflex" unicode="&#x176;" 
d="M260 0l73 272l-218 428h187l145 -291l295 291h208l-453 -444l-69 -256h-168zM576 847l-143 -87h-128l190 161h186l102 -161h-118z" />
    <glyph glyph-name="ycircumflex" unicode="&#x177;" horiz-adv-x="711" 
d="M603 548h175l-410 -560q-43 -57 -81 -95.5t-75.5 -61t-78.5 -32.5t-88 -10q-29 0 -56.5 3t-49.5 10l26 119q17 -3 35 -5t34 -2q34 0 59 6t47.5 20.5t46.5 41.5q15 17 34 41l-140 525h161l94 -380zM478 695l-143 -87h-128l190 161h186l102 -161h-118z" />
    <glyph glyph-name="Ydieresis" unicode="&#x178;" 
d="M260 0l73 272l-218 428h187l145 -291l295 291h208l-453 -444l-69 -256h-168zM597 767l38 141h166l-38 -141h-166zM337 767l37 141h166l-37 -141h-166z" />
    <glyph glyph-name="Zacute" unicode="&#x179;" horiz-adv-x="826" 
d="M131 569l35 131h728l-33 -122l-623 -448h503l-35 -130h-731l33 125l617 444h-494zM453 760l172 161h205l-239 -161h-138z" />
    <glyph glyph-name="zacute" unicode="&#x17a;" horiz-adv-x="697" 
d="M95 430l31 118h598l-31 -117l-478 -314h396l-32 -117h-604l31 117l478 313h-389zM356 608l172 161h205l-239 -161h-138z" />
    <glyph glyph-name="Zdotaccent" unicode="&#x17b;" horiz-adv-x="826" 
d="M131 569l35 131h728l-33 -122l-623 -448h503l-35 -130h-731l33 125l617 444h-494zM464 767l40 150h162l-40 -150h-162z" />
    <glyph glyph-name="zdotaccent" unicode="&#x17c;" horiz-adv-x="697" 
d="M95 430l31 118h598l-31 -117l-478 -314h396l-32 -117h-604l31 117l478 313h-389zM360 615l40 150h162l-40 -150h-162z" />
    <glyph glyph-name="Zcaron" unicode="&#x17d;" horiz-adv-x="826" 
d="M131 569l35 131h728l-33 -122l-623 -448h503l-35 -130h-731l33 125l617 444h-494zM556 835l139 86h129l-189 -161h-186l-102 161h116z" />
    <glyph glyph-name="zcaron" unicode="&#x17e;" horiz-adv-x="697" 
d="M95 430l31 118h598l-31 -117l-478 -314h396l-32 -117h-604l31 117l478 313h-389zM454 683l139 86h129l-189 -161h-186l-102 161h116z" />
    <glyph glyph-name="Schwa" unicode="&#x18f;" horiz-adv-x="1022" 
d="M589 711q71 0 129.5 -12.5t103.5 -36.5t75.5 -59t46 -81t15.5 -102q0 -69 -23.5 -133t-68.5 -118.5t-110.5 -94.5t-149 -62.5t-184.5 -22.5q-71 0 -129.5 12.5t-103.5 35.5t-75 54.5t-45.5 70t-15.5 81.5q0 38 11 79t26 75h693q1 5 1 10q0 35 -8.5 62.5t-25.5 48
t-44.5 33.5t-65 20t-86.5 7q-60 0 -106 -12t-78.5 -34.5t-55.5 -52.5l-159 28q43 64 103 109.5t141 70t189 24.5zM751 281h-522q0 -2 -1 -5q-2 -17 -2 -29q2 -29 15.5 -52t41 -39.5t69 -25t97.5 -8.5q69 0 123.5 17.5t94.5 47.5t66 66q10 14 18 28z" />
    <glyph glyph-name="uni0191" unicode="&#x191;" horiz-adv-x="826" 
d="M220 700h678l-36 -133h-510l-47 -179h452l-36 -134h-452l-60 -223q-23 -87 -65 -140.5t-104.5 -77.5t-147.5 -24q-33 0 -65 3.5t-65 10.5l31 134q18 -4 41 -7t44 -3q47 0 80 13t55 41.5t35 77.5z" />
    <glyph glyph-name="uni0192" unicode="&#x192;" horiz-adv-x="533" 
d="M89 548h116v1q20 74 59.5 120.5t101 69t147.5 22.5q34 0 72.5 -3.5t67.5 -9.5l-38 -117q-15 4 -32.5 6t-35.5 3t-36 1q-44 0 -73 -9t-47 -29t-27 -54v-1h232l-32 -120h-232l-111 -416q-23 -84 -59.5 -133t-87.5 -69.5t-119 -20.5q-28 0 -54.5 2.5t-48.5 6.5l28 119
q16 -2 31 -3.5t29 -1.5q34 0 57 9t38 29t24 53l114 425h-116z" />
    <glyph glyph-name="uni0218" unicode="&#x218;" horiz-adv-x="902" 
d="M26 213l179 24q-2 -41 21 -69t71.5 -41t120.5 -13q65 0 111.5 5.5t76 17t43.5 28t14 37.5q0 22 -11 36t-41.5 24t-88.5 18l-188 18q-56 8 -97.5 23t-68.5 37t-40 51.5t-13 67.5q0 52 26.5 95.5t78 74.5t128 47.5t176.5 16.5q122 0 204.5 -23.5t123 -70t36.5 -116.5
l-171 -25q1 56 -45 83t-160 27q-61 0 -104 -5.5t-69.5 -16.5t-38 -26.5t-11.5 -35.5q0 -21 11.5 -34.5t41 -22.5t80.5 -17l184 -16q77 -11 128 -32.5t76.5 -57t25.5 -88.5t-25 -98t-77 -78t-131.5 -51t-189.5 -18q-96 0 -168.5 13.5t-121.5 40.5t-73 69t-24 101zM162 -205
l121 145h184l-181 -145h-124z" />
    <glyph glyph-name="uni0219" unicode="&#x219;" horiz-adv-x="745" 
d="M404 451q-60 0 -97.5 -7.5t-54.5 -21t-17 -32.5q0 -15 9 -24.5t31 -15t60 -9.5l134 -12q72 -8 118 -24.5t67.5 -44.5t21.5 -70q0 -58 -39.5 -103.5t-119.5 -71.5t-204 -26q-113 0 -180.5 21.5t-97 61t-29.5 91.5l159 23q-3 -45 36 -67t120 -22q54 0 91 5t59 14t31.5 21
t9.5 27t-8 24.5t-28 15t-56 8.5l-134 11q-72 8 -118.5 26t-68.5 47.5t-22 72.5q0 55 39.5 98t117 67.5t189.5 24.5q100 0 164.5 -19t96.5 -56t32 -90l-153 -22q1 26 -15 43.5t-50.5 26.5t-93.5 9zM74 -205l121 145h184l-181 -145h-124z" />
    <glyph glyph-name="uni021A" unicode="&#x21a;" 
d="M260 0l152 567h-307l37 133h782l-36 -133h-308l-152 -567h-168zM109 -205l121 145h184l-181 -145h-124z" />
    <glyph glyph-name="uni021B" unicode="&#x21b;" horiz-adv-x="572" 
d="M107 213l57 215h-111l32 120h65q24 0 40 4t27.5 17.5t23.5 41.5t29 77h124l-38 -140h248l-32 -120h-248l-54 -200q-11 -41 -5 -66.5t31 -37t69 -11.5q18 0 40.5 2t47 5t46.5 7l-37 -121q-25 -5 -52 -9t-55 -6t-55 -2q-64 0 -107.5 15.5t-67 45t-28 70.5t9.5 93zM10 -205
l121 145h184l-181 -145h-124z" />
    <glyph glyph-name="dotlessj" unicode="&#x237;" horiz-adv-x="339" 
d="M16 -2l148 550h159l-146 -547q-21 -80 -57 -126.5t-86.5 -66t-117.5 -19.5q-28 0 -54 2.5t-50 6.5l27 119q17 -2 33.5 -3.5t28.5 -1.5q48 0 75.5 19.5t39.5 66.5z" />
    <glyph glyph-name="uni0259" unicode="&#x259;" horiz-adv-x="812" 
d="M467 559q61 0 110.5 -10t86.5 -28.5t61.5 -44.5t37 -59.5t12.5 -71.5q0 -56 -18.5 -108.5t-54 -97t-88 -78.5t-121 -53t-152.5 -19q-75 0 -132 16.5t-96 45.5t-58.5 67.5t-19.5 82.5q0 31 6.5 57.5t19.5 52.5h555q1 8 1 16q0 21 -6 39t-19 32.5t-34 23.5t-50.5 14
t-67.5 5q-48 0 -85 -8t-62.5 -23t-40.5 -37l-143 25q29 52 78 88t119.5 54.5t160.5 18.5zM591 216h-405v-6q0 -27 10 -46.5t31 -33t53.5 -20t76.5 -6.5q52 0 94 11t73 30.5t52 47.5q8 11 15 23z" />
    <glyph glyph-name="uni02BC" unicode="&#x2bc;" horiz-adv-x="340" 
d="M212 699h169l-40 -148q-14 -55 -33.5 -89.5t-45.5 -53t-61.5 -24.5t-83.5 -6l16 87q37 0 57.5 6.5t32.5 26.5q12 18 21 51h-72z" />
    <glyph glyph-name="circumflex" unicode="&#x2c6;" horiz-adv-x="500" 
d="M372 695l-143 -87h-128l190 161h186l102 -161h-118z" />
    <glyph glyph-name="caron" unicode="&#x2c7;" horiz-adv-x="500" 
d="M353 683l139 86h129l-189 -161h-186l-102 161h116z" />
    <glyph glyph-name="breve" unicode="&#x2d8;" horiz-adv-x="500" 
d="M467 766h125q-11 -55 -41.5 -91.5t-79.5 -54.5t-117 -18q-71 0 -115.5 19.5t-60.5 56t-6 88.5h125q-10 -38 7.5 -57t58.5 -19q42 0 67.5 18.5t36.5 57.5z" />
    <glyph glyph-name="dotaccent" unicode="&#x2d9;" horiz-adv-x="500" 
d="M261 615l40 150h162l-40 -150h-162z" />
    <glyph glyph-name="ring" unicode="&#x2da;" horiz-adv-x="500" 
d="M342 594q-42 0 -71 11.5t-44 33.5t-15 53q0 38 23 68.5t64 48.5t95 18q42 0 71 -11.5t44.5 -32.5t15.5 -51q0 -38 -23.5 -69.5t-64.5 -50t-95 -18.5zM353 660q42 0 64.5 17.5t22.5 43.5q0 19 -14 29.5t-43 10.5q-41 0 -64 -18t-23 -42q0 -20 14.5 -30.5t42.5 -10.5z" />
    <glyph glyph-name="ogonek" unicode="&#x2db;" horiz-adv-x="500" 
d="M92 -124q0 26 14 50.5t45 47t82.5 41.5t127.5 33l38 -48q-52 -7 -84.5 -16t-50.5 -18.5t-24.5 -19t-6.5 -18.5q0 -14 11.5 -21t38.5 -7q21 0 44.5 4t49.5 12l-34 -112q-26 -8 -56 -13t-59 -5q-69 0 -102.5 23t-33.5 67z" />
    <glyph glyph-name="tilde" unicode="&#x2dc;" horiz-adv-x="500" 
d="M587 769q-8 -59 -28 -96t-49 -54t-65 -17q-24 0 -43 7.5t-34 18t-28.5 21t-26.5 17.5t-28 7q-14 0 -24 -6.5t-17 -20.5t-10 -36h-102q10 61 31 98.5t50.5 55t64.5 17.5q23 0 41.5 -8t34 -18.5t29 -21.5t26.5 -19t26 -8q11 0 19 4t14.5 11.5t10.5 19.5t6 28h102z" />
    <glyph glyph-name="hungarumlaut" unicode="&#x2dd;" horiz-adv-x="500" 
d="M153 608l134 161h174l-186 -161h-122zM383 608l133 161h174l-186 -161h-121z" />
    <glyph glyph-name="uni0400" unicode="&#x400;" horiz-adv-x="845" 
d="M32 0l188 700h679l-35 -128h-513l-40 -152h455l-34 -126h-455l-45 -166h521l-34 -128h-687zM668 762h-134l-157 161h188z" />
    <glyph glyph-name="afii10023" unicode="&#x401;" horiz-adv-x="845" 
d="M32 0l188 700h679l-35 -128h-513l-40 -152h455l-34 -126h-455l-45 -166h521l-34 -128h-687zM636 764l38 141h166l-38 -141h-166zM376 764l37 141h166l-37 -141h-166z" />
    <glyph glyph-name="afii10051" unicode="&#x402;" horiz-adv-x="1129" 
d="M260 0l151 567h-306l37 133h782l-36 -133h-308l-56 -210q38 32 84 54.5t99.5 34t111.5 11.5q88 0 142.5 -31t74.5 -82.5t4 -113.5l-12 -45q-12 -50 -37.5 -87t-63.5 -61t-88 -36t-112 -12q-37 0 -70 3.5t-60 8.5l27 117q22 -4 45.5 -7t46.5 -3q41 0 71.5 10.5t50 32
t28.5 54.5l6 20q9 34 -2 58t-40.5 37t-78.5 13q-48 0 -93 -11.5t-83 -33t-64.5 -53t-38.5 -71.5l-44 -164h-168z" />
    <glyph glyph-name="afii10052" unicode="&#x403;" horiz-adv-x="783" 
d="M32 0l188 700h648l-36 -133h-479l-152 -567h-169zM486 769l172 161h205l-239 -161h-138z" />
    <glyph glyph-name="afii10053" unicode="&#x404;" horiz-adv-x="951" 
d="M65 266q0 73 24.5 139.5t70.5 122t111 97t147.5 64t178.5 22.5q112 0 192 -28t123.5 -82t43.5 -133l-172 -34q0 47 -22.5 79t-67.5 48.5t-116 16.5q-64 0 -118 -15.5t-95.5 -43.5t-70.5 -65q-13 -18 -24 -36h393l-33 -123h-394v-10q0 -30 8 -55.5t24 -45t42 -33.5
t62.5 -21.5t83.5 -7.5q69 0 123 16.5t93 49.5t63 83l164 -34q-36 -84 -98 -139t-152.5 -82t-214.5 -27q-73 0 -131.5 12t-103 35.5t-74.5 57t-45 77t-15 95.5z" />
    <glyph glyph-name="afii10054" unicode="&#x405;" horiz-adv-x="902" 
d="M26 213l179 24q-2 -41 21 -69t71.5 -41t120.5 -13q65 0 111.5 5.5t76 17t43.5 28t14 37.5q0 22 -11 36t-41.5 24t-88.5 18l-188 18q-56 8 -97.5 23t-68.5 37t-40 51.5t-13 67.5q0 52 26.5 95.5t78 74.5t128 47.5t176.5 16.5q122 0 204.5 -23.5t123 -70t36.5 -116.5
l-171 -25q1 56 -45 83t-160 27q-61 0 -104 -5.5t-69.5 -16.5t-38 -26.5t-11.5 -35.5q0 -21 11.5 -34.5t41 -22.5t80.5 -17l184 -16q77 -11 128 -32.5t76.5 -57t25.5 -88.5t-25 -98t-77 -78t-131.5 -51t-189.5 -18q-96 0 -168.5 13.5t-121.5 40.5t-73 69t-24 101z" />
    <glyph glyph-name="afii10055" unicode="&#x406;" horiz-adv-x="379" 
d="M32 0l188 700h169l-188 -700h-169z" />
    <glyph glyph-name="afii10056" unicode="&#x407;" horiz-adv-x="379" 
d="M27 0l188 700h169l-188 -700h-169zM371 767l38 141h166l-38 -141h-166zM111 767l37 141h166l-37 -141h-166z" />
    <glyph glyph-name="afii10057" unicode="&#x408;" horiz-adv-x="563" 
d="M456 230q-17 -64 -45 -109.5t-68.5 -74.5t-96 -43t-126.5 -14q-37 0 -76.5 3t-80.5 11l30 134q20 -3 38.5 -5.5t37 -3.5t36.5 -1q56 0 94 14t61 43.5t35 74.5l119 441h168z" />
    <glyph glyph-name="afii10058" unicode="&#x409;" horiz-adv-x="1480" 
d="M-33 131q39 2 71 13.5t59 40.5q16 16 29 37.5t26.5 52.5t28 74t32 101t40.5 134l34 116h688v0h1l-59 -219h275q76 0 129.5 -25t82 -72t28.5 -112q0 -86 -44 -146.5t-119.5 -93t-172.5 -32.5h-477v0v0l152 567h-356v-2q-28 -92 -50 -162.5t-41.5 -123t-38.5 -92t-40.5 -69
t-48.5 -54.5q-31 -29 -68.5 -46t-83 -23.5t-101.5 -3.5zM882 351l-59 -221h278q47 0 83 16t56 44t20 66q0 32 -12 53t-35 31.5t-57 10.5h-274z" />
    <glyph glyph-name="afii10059" unicode="&#x40a;" horiz-adv-x="1574" 
d="M1281 441q57 0 101.5 -13.5t75 -39t46.5 -62t16 -82.5q0 -77 -39.5 -131.5t-108.5 -83.5t-157 -29h-532l83 308h-483l-83 -308h-168l188 700h168l-69 -259h483l69 259h169l-70 -259h311zM935 312l-49 -183h327q40 0 70.5 12t47.5 35t17 56q0 26 -11 44t-32.5 27t-53.5 9
h-316z" />
    <glyph glyph-name="afii10060" unicode="&#x40b;" horiz-adv-x="1101" 
d="M260 0l151 567h-306l37 133h782l-36 -133h-308l-58 -217q36 32 79 54t93 34t104 12q87 0 139.5 -30t70 -83t-0.5 -121l-57 -216h-168l47 179q12 45 4.5 76.5t-36 48t-79.5 16.5q-46 0 -87 -12.5t-73.5 -35t-56 -54.5t-34.5 -73l-39 -145h-168z" />
    <glyph glyph-name="afii10061" unicode="&#x40c;" horiz-adv-x="914" 
d="M32 0l188 700h166l-83 -309l473 309h241l-533 -346l359 -354h-219l-337 330l-89 -330h-166zM505 764l172 161h205l-239 -161h-138z" />
    <glyph glyph-name="uni040D" unicode="&#x40d;" horiz-adv-x="1007" 
d="M195 0h-163l188 700h163l-131 -485l602 485h163l-188 -700h-163l130 484zM726 764h-134l-157 161h188z" />
    <glyph glyph-name="afii10062" unicode="&#x40e;" horiz-adv-x="857" 
d="M144 0l187 210l-209 490h181l150 -353l317 353h198l-623 -700h-201zM717 940h153q-10 -54 -36 -93t-66 -64t-90.5 -37t-108.5 -12q-63 0 -110 14.5t-75.5 42t-37 65t5.5 84.5h145q-8 -30 0 -51t30.5 -31.5t56.5 -10.5q33 0 61 10.5t46.5 31t25.5 51.5z" />
    <glyph glyph-name="afii10145" unicode="&#x40f;" horiz-adv-x="982" 
d="M32 0l188 700h169l-153 -567h435l152 567h169l-188 -700h-306l-44 -165h-160l44 165h-306z" />
    <glyph glyph-name="afii10017" unicode="&#x410;" horiz-adv-x="935" 
d="M689 0l-39 150h-412l-119 -150h-186l563 700h172l189 -700h-168zM617 276l-68 265l-210 -265h278z" />
    <glyph glyph-name="afii10018" unicode="&#x411;" horiz-adv-x="920" 
d="M32 0l188 700h698l-36 -131h-534l-37 -136h312q72 0 122 -22.5t76.5 -64.5t26.5 -101q0 -58 -21.5 -103.5t-61.5 -77t-96.5 -48t-125.5 -16.5h-511zM277 306l-48 -179h322q39 0 68 11.5t45 34t16 54.5q0 27 -10 44.5t-29 26t-47 8.5h-317z" />
    <glyph glyph-name="afii10019" unicode="&#x412;" horiz-adv-x="944" 
d="M32 0l188 700h489q49 0 87 -11t65.5 -32t41.5 -51t14 -69q0 -36 -13.5 -67.5t-39.5 -56.5t-65 -42q-21 -9 -47 -16q26 -6 45 -18q34 -20 50 -52t16 -71q0 -62 -33.5 -110.5t-97 -76t-156.5 -27.5h-544zM276 293l-46 -172h331q42 0 70.5 11.5t44 32.5t15.5 50
q0 26 -10.5 43t-31 26t-52.5 9h-321zM353 579l-45 -165h317q27 0 50 6t39.5 18t26 30t9.5 41q0 22 -9.5 38t-28.5 24t-48 8h-311z" />
    <glyph glyph-name="afii10020" unicode="&#x413;" horiz-adv-x="783" 
d="M32 0l188 700h648l-36 -133h-479l-152 -567h-169z" />
    <glyph glyph-name="afii10021" unicode="&#x414;" horiz-adv-x="981" 
d="M-107 -167l80 300h68q14 10 27 22q25 22 47 54t44 81t46.5 121t54.5 174l34 115h674l-152 -567h95l-80 -300h-160l45 167h-619l-44 -167h-160zM219 133h431l117 434h-347q-17 -58 -32 -104q-17 -55 -32.5 -98t-30.5 -77.5t-32 -63.5q-31 -53 -74 -91z" />
    <glyph glyph-name="afii10022" unicode="&#x415;" horiz-adv-x="845" 
d="M32 0l188 700h679l-35 -128h-513l-40 -152h455l-34 -126h-455l-45 -166h521l-34 -128h-687z" />
    <glyph glyph-name="afii10024" unicode="&#x416;" horiz-adv-x="1229" 
d="M458 0l88 328l-396 -328h-225l462 377l-263 323h197l243 -307l82 307h166l-81 -301l381 301h224l-444 -341l267 -359h-198l-247 335l-90 -335h-166z" />
    <glyph glyph-name="afii10025" unicode="&#x417;" horiz-adv-x="917" 
d="M840 218q0 -54 -28 -96t-84.5 -72t-139.5 -45.5t-193 -15.5q-128 0 -210.5 25t-120 75.5t-30.5 125.5l173 32q-6 -45 11.5 -75t63 -44.5t123.5 -14.5q67 0 114 7.5t77.5 21.5t44 33.5t13.5 42.5q0 26 -13 42.5t-40 24.5t-69 8h-213l34 123h217q37 0 66 6.5t49 18t30 28
t10 37.5q0 20 -11 35t-33.5 26t-57.5 16.5t-83 5.5q-72 0 -124.5 -13.5t-86.5 -41t-51 -71.5l-157 34q27 73 85 120.5t144 70.5t199 23q88 0 154.5 -12t111 -35t67 -58t22.5 -81q0 -37 -17.5 -69.5t-52 -57t-86.5 -38.5q-10 -3 -22 -5q11 -3 21 -7q46 -18 69.5 -50.5
t23.5 -79.5z" />
    <glyph glyph-name="afii10026" unicode="&#x418;" horiz-adv-x="1007" 
d="M195 0h-163l188 700h163l-131 -485l602 485h163l-188 -700h-163l130 484z" />
    <glyph glyph-name="afii10027" unicode="&#x419;" horiz-adv-x="1007" 
d="M195 0h-163l188 700h163l-131 -485l602 485h163l-188 -700h-163l130 484zM796 938h153q-10 -54 -36 -93t-66 -64t-90.5 -37t-108.5 -12q-63 0 -110 14.5t-75.5 42t-37 65t5.5 84.5h145q-8 -30 0 -51t30.5 -31.5t56.5 -10.5q33 0 61 10.5t46.5 31t25.5 51.5z" />
    <glyph glyph-name="afii10028" unicode="&#x41a;" horiz-adv-x="914" 
d="M32 0l188 700h166l-83 -309l473 309h241l-533 -346l359 -354h-219l-337 330l-89 -330h-166z" />
    <glyph glyph-name="afii10029" unicode="&#x41b;" horiz-adv-x="966" 
d="M-33 131q39 2 71 13.5t59 40.5q16 16 29 37.5t26.5 52.5t28 74t32 101t40.5 134l34 116h688l-188 -700h-168l152 567h-356v-2q-28 -92 -50 -162.5t-41.5 -123t-38.5 -92t-40.5 -69t-48.5 -54.5q-31 -29 -68.5 -46t-83 -23.5t-101.5 -3.5z" />
    <glyph glyph-name="afii10030" unicode="&#x41c;" horiz-adv-x="1184" 
d="M32 0l188 700h180l187 -438l412 438h195l-188 -700h-157l129 480l-346 -365h-140l-167 390l-135 -505h-158z" />
    <glyph glyph-name="afii10031" unicode="&#x41d;" horiz-adv-x="1021" 
d="M32 0l188 700h169l-74 -273h474l74 273h168l-188 -700h-168l79 293h-475l-78 -293h-169z" />
    <glyph glyph-name="afii10032" unicode="&#x41e;" horiz-adv-x="1003" 
d="M441 -11q-73 0 -132.5 12.5t-104.5 36.5t-75.5 58t-46 77.5t-15.5 94.5q0 72 23.5 138t68.5 121.5t110.5 97t149.5 64t184 22.5q73 0 132 -13t104.5 -37t76 -58.5t46.5 -77.5t16 -94q0 -71 -23 -136.5t-68 -121t-110 -97t-149.5 -64.5t-186.5 -23zM461 122q64 0 117.5 16
t95.5 44t71 65.5t44 80t15 88.5q0 29 -7.5 54t-24 45t-42.5 34t-63 21.5t-86 7.5q-64 0 -117 -16.5t-94.5 -45t-70.5 -66t-44 -81t-15 -88.5q0 -29 7.5 -54t23.5 -44t41.5 -32.5t62.5 -21t86 -7.5z" />
    <glyph glyph-name="afii10033" unicode="&#x41f;" horiz-adv-x="1007" 
d="M32 0l188 700h797l-188 -700h-169l153 567h-460l-152 -567h-169z" />
    <glyph glyph-name="afii10034" unicode="&#x420;" horiz-adv-x="894" 
d="M32 0l188 700h425q61 0 108.5 -15t79.5 -43.5t49 -68t17 -89.5q0 -85 -44 -148.5t-123.5 -98t-185.5 -34.5h-291l-54 -203h-169zM353 569l-63 -235h266q52 0 90 16t58.5 46.5t20.5 72.5q0 32 -12.5 54t-38.5 34t-65 12h-256z" />
    <glyph glyph-name="afii10035" unicode="&#x421;" horiz-adv-x="951" 
d="M65 266q0 73 24.5 139.5t70.5 122t111 97t147.5 64t178.5 22.5q112 0 192 -28t123.5 -82t43.5 -133l-172 -34q0 47 -22 79t-67.5 48.5t-115.5 16.5q-64 0 -117.5 -16t-95 -44t-70 -65t-43 -79.5t-14.5 -88.5q0 -30 8 -55t24 -45t41 -34t60.5 -21.5t81.5 -7.5
q69 0 123.5 16.5t94 49.5t63.5 83l164 -34q-39 -84 -101.5 -139t-152 -82t-211.5 -27q-61 0 -111.5 8.5t-91.5 25t-72 40t-52 54.5t-31.5 68.5t-10.5 80.5z" />
    <glyph glyph-name="afii10036" unicode="&#x422;" 
d="M260 0l152 567h-307l37 133h782l-36 -133h-308l-152 -567h-168z" />
    <glyph glyph-name="afii10037" unicode="&#x423;" horiz-adv-x="857" 
d="M144 0l187 210l-209 490h181l150 -353l317 353h198l-623 -700h-201z" />
    <glyph glyph-name="afii10038" unicode="&#x424;" horiz-adv-x="1098" 
d="M382 -28l27 97h-35q-76 0 -134.5 16t-99 46.5t-61 74t-20.5 98.5q0 74 31.5 136t91.5 108t144 71.5t189 25.5h48l22 83h169l-22 -83h31q77 0 136.5 -16.5t100 -48.5t61.5 -77t21 -102q0 -71 -30.5 -131.5t-89 -105.5t-143.5 -70t-194 -25h-48l-26 -97h-169zM221 317
q0 -28 11 -50.5t33 -39t55 -24.5t77 -8h48l87 324h-56q-61 0 -108.5 -15t-80 -42t-49.5 -64t-17 -81zM918 389q0 32 -10.5 56t-32 41t-54 25t-77.5 8h-49l-87 -324h52q61 0 108.5 14.5t81 40.5t51 61.5t17.5 77.5z" />
    <glyph glyph-name="afii10039" unicode="&#x425;" horiz-adv-x="839" 
d="M568 0l-155 251l-267 -251h-210l397 370l-204 330h191l145 -238l262 238h212l-395 -354l214 -346h-190z" />
    <glyph glyph-name="afii10040" unicode="&#x426;" horiz-adv-x="996" 
d="M32 0l188 700h169l-153 -567h442l153 567h168l-152 -567h87l-80 -300h-160l45 167h-707z" />
    <glyph glyph-name="afii10041" unicode="&#x427;" horiz-adv-x="935" 
d="M589 0l73 272q-47 -15 -92 -25t-89 -15.5t-90 -5.5q-104 0 -167 33t-84 92t0 137l57 212h168l-49 -184q-15 -54 -2.5 -86.5t51.5 -47t104 -14.5q35 0 70 3.5t73.5 12t84.5 20.5l80 296h168l-188 -700h-168z" />
    <glyph glyph-name="afii10042" unicode="&#x428;" horiz-adv-x="1364" 
d="M32 0l188 700h169l-153 -567h325l152 567h168l-152 -567h324l152 567h169l-188 -700h-1154z" />
    <glyph glyph-name="afii10043" unicode="&#x429;" horiz-adv-x="1370" 
d="M1068 -167l45 167h-1081l188 700h169l-153 -567h325l152 567h168l-152 -567h324l152 567h169l-153 -567h87l-80 -300h-160z" />
    <glyph glyph-name="afii10044" unicode="&#x42a;" horiz-adv-x="1010" 
d="M92 569l36 131h392l-59 -219h257q78 0 132.5 -25t83 -72.5t28.5 -113.5q0 -85 -43.5 -145.5t-119.5 -92.5t-173 -32h-459l152 569h-227zM426 351l-59 -221h264q49 0 84.5 16t55 44.5t19.5 67.5q0 31 -11.5 51.5t-34.5 31t-58 10.5h-260z" />
    <glyph glyph-name="afii10045" unicode="&#x42b;" horiz-adv-x="1210" 
d="M864 0l188 700h169l-188 -700h-169zM30 0l188 700h169l-59 -219h275q76 0 129.5 -25t82 -72t28.5 -112q0 -86 -44 -146.5t-119.5 -93t-172.5 -32.5h-477zM293 351l-59 -221h278q47 0 83 16t56 44t20 66q0 32 -12 53t-35 31.5t-57 10.5h-274z" />
    <glyph glyph-name="afii10046" unicode="&#x42c;" horiz-adv-x="892" 
d="M32 0l188 700h169l-59 -219h275q76 0 129.5 -25t82 -72t28.5 -112q0 -86 -44 -146.5t-119.5 -93t-172.5 -32.5h-477zM295 351l-59 -221h278q47 0 83 16t56 44t20 66q0 32 -12 53t-35 31.5t-57 10.5h-274z" />
    <glyph glyph-name="afii10047" unicode="&#x42d;" horiz-adv-x="958" 
d="M372 417h389q0 32 -8 58q-9 26 -26.5 46t-43.5 33.5t-61 20t-79 6.5q-69 0 -125.5 -14.5t-97 -45t-62.5 -79.5l-158 34q36 79 102.5 131t158 78t199.5 26q72 0 130 -12.5t103 -36.5t75.5 -59t46.5 -79.5t16 -99.5q0 -71 -22.5 -136t-66 -119.5t-108 -94.5t-149 -62.5
t-187.5 -22.5q-94 0 -163 19t-113.5 53t-66.5 78.5t-22 95.5l174 33q-1 -47 21 -80.5t68.5 -51t119.5 -17.5q63 0 116.5 14.5t95.5 41.5t72 64q21 25 35 55h-395z" />
    <glyph glyph-name="afii10048" unicode="&#x42e;" horiz-adv-x="1329" 
d="M766 -11q-74 0 -132.5 12t-103.5 35.5t-75 57t-45 76.5t-15 94q0 15 1 30h-117l-78 -294h-169l188 700h169l-75 -276h113q23 55 61 102q46 56 112 97.5t150 64.5t185 23q72 0 131 -12.5t104 -36.5t75 -57.5t45.5 -76.5t15.5 -94q0 -71 -23.5 -137t-68.5 -122t-111 -97.5
t-150.5 -65t-186.5 -23.5zM790 122q63 0 116.5 16t95.5 44t71 65.5t44 80t15 88.5q0 29 -7.5 54t-24 45t-42.5 34t-63 21.5t-86 7.5q-64 0 -117 -16.5t-94.5 -45t-70.5 -66t-43.5 -81t-14.5 -88.5q0 -29 7 -54t23 -44t41.5 -32.5t62.5 -21t87 -7.5z" />
    <glyph glyph-name="afii10049" unicode="&#x42f;" horiz-adv-x="918" 
d="M740 0h-169l64 238h-155l-286 -238h-215l301 249q-18 3 -35 9q-43 13 -72.5 38t-45 61t-15.5 83q0 57 22.5 104.5t65 82.5t101 54t130.5 19h497zM669 363l57 212h-286q-47 0 -81.5 -15t-53.5 -42t-19 -64q0 -30 12.5 -50.5t37.5 -30.5t60 -10h273z" />
    <glyph glyph-name="afii10065" unicode="&#x430;" horiz-adv-x="782" 
d="M92 384q21 44 51 76.5t72 54.5t99 33t131 11q82 0 139.5 -16t90.5 -46t42 -71t-4 -91l-51 -189q-3 -14 -1 -22.5t10 -13t20 -4.5q5 0 11 0.5t10 1.5l-31 -107q-17 -5 -35.5 -8t-34.5 -3q-45 0 -71.5 16t-33.5 45q-5 17 -3 38l-14 -12q-35 -28 -77.5 -47.5t-91 -30
t-103.5 -10.5q-66 0 -112 17t-70 49t-24 77q0 53 30 92.5t96.5 65t175.5 33.5l252 18q6 23 2 41q-5 20 -21.5 34t-45 21.5t-70.5 7.5q-53 0 -90.5 -9t-61 -27.5t-35.5 -49.5zM543 248l-260 -21q-37 -4 -62.5 -13t-38.5 -23.5t-13 -35.5q0 -18 10 -30.5t31 -18.5t53 -6
q41 0 79 7t71 19t59 28.5t43.5 37.5t23.5 44v0z" />
    <glyph glyph-name="afii10066" unicode="&#x431;" horiz-adv-x="843" 
d="M369 -11q-100 0 -165.5 24.5t-99.5 71.5t-39 115t17 153l9 36q23 90 63 155.5t98.5 108t137 65t177.5 26.5l170 7q38 2 66 5t57 9l-22 -122q-27 -8 -59.5 -12t-73.5 -6l-171 -6q-66 -2 -116 -17.5t-86.5 -46.5t-62.5 -80q-13 -23 -23 -51q30 28 68 49q47 27 103.5 40.5
t118.5 13.5q51 0 92.5 -8.5t73 -25t52 -41t31.5 -55.5t11 -70q0 -56 -18.5 -107t-54 -93t-87 -73t-119 -48t-148.5 -17zM379 111q49 0 88.5 11t69.5 30.5t50.5 44.5t31 53.5t10.5 56.5q0 22 -6 39t-18 29.5t-30.5 21.5t-45.5 13.5t-62 4.5q-47 0 -86 -9.5t-68.5 -27
t-50.5 -41t-32 -51t-13 -57.5q-1 -22 3.5 -40.5t16 -33t30.5 -24.5t47 -15t65 -5z" />
    <glyph glyph-name="afii10067" unicode="&#x432;" horiz-adv-x="796" 
d="M17 0l147 548h435q52 0 87.5 -15.5t53.5 -43.5t18 -65q0 -31 -12.5 -56.5t-36 -44.5t-57.5 -32q-16 -6 -35 -10q21 -4 37 -12q32 -15 47 -40.5t15 -59.5q0 -51 -28 -89t-80.5 -59t-125.5 -21h-465zM232 228l-34 -126h261q29 0 51 8.5t34 24.5t12 38q0 18 -7.5 30
t-22 18.5t-36.5 6.5h-258zM290 446l-32 -118h248q28 0 48.5 8.5t32.5 23.5t12 35q0 25 -16 38t-49 13h-244z" />
    <glyph glyph-name="afii10068" unicode="&#x433;" horiz-adv-x="630" 
d="M17 0l147 548h524l-33 -125h-365l-114 -423h-159z" />
    <glyph glyph-name="afii10069" unicode="&#x434;" horiz-adv-x="819" 
d="M531 -157l42 157h-484l-42 -157h-149l75 280h63q21 16 38 34q26 29 49 71.5t45 107t48 157.5l14 55h557l-114 -425h82l-75 -280h-149zM202 123h321l83 308h-260q-11 -41 -21 -73q-16 -52 -32 -90.5t-37 -72.5q-23 -40 -54 -72z" />
    <glyph glyph-name="afii10070" unicode="&#x435;" horiz-adv-x="812" 
d="M348 -11q-60 0 -108.5 10t-85 28.5t-61 44.5t-36.5 59.5t-12 71.5q0 56 18.5 108.5t54.5 97.5t88.5 78.5t120.5 52.5t150 19q75 0 131.5 -16.5t94.5 -45.5t57.5 -67.5t19.5 -82.5q0 -31 -6.5 -57t-19.5 -53h-551q-1 -8 -1 -16q0 -21 6.5 -39t19.5 -32.5t33.5 -23.5
t49 -14t64.5 -5q55 0 97 8.5t71 26.5t43 43l148 -27q-30 -56 -81.5 -93.5t-127 -56.5t-177.5 -19zM229 332h400q1 3 1 5q0 28 -10 47.5t-30.5 33t-52.5 20t-76 6.5q-51 0 -92 -10.5t-72 -30.5t-52 -47q-9 -11 -16 -24z" />
    <glyph glyph-name="afii10072" unicode="&#x436;" horiz-adv-x="1035" 
d="M367 0l69 259l-309 -259h-201l368 301l-212 247h183l187 -229l61 229h154l-61 -229l292 229h203l-348 -263l210 -285h-178l-194 264l-70 -264h-154z" />
    <glyph glyph-name="afii10073" unicode="&#x437;" horiz-adv-x="754" 
d="M679 170q0 -40 -22.5 -73.5t-68 -57.5t-114.5 -37t-163 -13q-104 0 -174.5 19.5t-104.5 59.5t-29 102l155 28q-3 -27 4.5 -46t27 -31.5t52.5 -18.5t80 -6q52 0 88.5 5.5t59 16t32.5 24.5t10 31q0 12 -4.5 21.5t-14 16.5t-22.5 11t-30 5.5t-38 1.5h-148l27 102h157
q30 0 53.5 4t40.5 12.5t25.5 21t8.5 27.5t-7.5 25t-24.5 17t-45 11t-69 4q-60 0 -102 -10.5t-68.5 -31t-40.5 -54.5l-141 28q24 59 73.5 97.5t122.5 57.5t166 19q101 0 166.5 -16t97.5 -48t32 -79q0 -31 -14.5 -56.5t-43.5 -44t-73 -29.5q-12 -3 -24 -5q2 -1 3 -1
q33 -8 56.5 -23t35.5 -36.5t12 -50.5z" />
    <glyph glyph-name="afii10074" unicode="&#x438;" horiz-adv-x="836" 
d="M17 0l147 548h156l-95 -358l438 358h157l-147 -548h-157l96 357l-438 -357h-157z" />
    <glyph glyph-name="afii10075" unicode="&#x439;" horiz-adv-x="836" 
d="M17 0l147 548h156l-95 -358l438 358h157l-147 -548h-157l96 357l-438 -357h-157zM651 769h137q-8 -41 -30.5 -73t-57.5 -53t-81 -32t-100 -11t-94 12.5t-64.5 35t-33.5 53.5t-1 68h136q-9 -35 11.5 -55.5t64.5 -20.5q29 0 52.5 9t39 26t21.5 41z" />
    <glyph glyph-name="afii10076" unicode="&#x43a;" horiz-adv-x="771" 
d="M17 0l147 548h159l-62 -233l350 233h227l-408 -263l270 -285h-202l-251 262l-71 -262h-159z" />
    <glyph glyph-name="afii10077" unicode="&#x43b;" horiz-adv-x="798" 
d="M-28 111q30 2 52 10.5t42 26.5q20 19 38 52.5t36.5 87.5t40.5 133l35 127h566l-147 -548h-160l114 423h-254l-7 -23q-27 -98 -52.5 -166.5t-53 -113.5t-59.5 -73q-40 -35 -93.5 -46.5t-122.5 -8.5z" />
    <glyph glyph-name="afii10078" unicode="&#x43c;" horiz-adv-x="1012" 
d="M700 0l98 367l-258 -280h-136l-134 301l-104 -388h-149l147 548h178l-1 -1l1 1l147 -341l320 341h187l-147 -548h-149z" />
    <glyph glyph-name="afii10079" unicode="&#x43d;" horiz-adv-x="840" 
d="M17 0l147 548h159l-52 -195h341l52 195h160l-147 -548h-159l61 228h-342l-61 -228h-159z" />
    <glyph glyph-name="afii10080" unicode="&#x43e;" horiz-adv-x="827" 
d="M347 -11q-60 0 -109 10t-85.5 28t-61 44.5t-37 59.5t-12.5 72q0 56 19 108.5t56.5 97.5t90.5 78.5t121.5 52.5t150.5 19q61 0 110 -10t85.5 -28t61.5 -44.5t37 -59t12 -71.5q0 -57 -19 -109.5t-55.5 -97.5t-90 -78.5t-122 -52.5t-152.5 -19zM370 111q48 0 88 12.5
t70.5 34.5t52 50.5t32 60t10.5 63.5q0 20 -6 36.5t-19 29t-32 21.5t-46 13.5t-62 4.5q-48 0 -87.5 -12.5t-70 -34.5t-52 -50t-32 -60t-10.5 -64q0 -19 5.5 -36t18.5 -29.5t32.5 -21.5t46.5 -13.5t61 -4.5z" />
    <glyph glyph-name="afii10081" unicode="&#x43f;" horiz-adv-x="826" 
d="M17 0l147 548h646l-147 -548h-160l114 423h-327l-114 -423h-159z" />
    <glyph glyph-name="afii10082" unicode="&#x440;" horiz-adv-x="863" 
d="M307 548l-16 -93q15 15 32 28q49 36 110 56t132 20q50 0 90.5 -10t71.5 -28.5t51.5 -45t31.5 -60t11 -73.5q0 -59 -18.5 -112t-53 -97.5t-82 -76.5t-105 -49.5t-122.5 -17.5q-80 0 -135.5 21t-86.5 60q-9 12 -16 24l-80 -294h-159l201 748h143zM413 113q45 0 83.5 11
t68 30.5t50.5 46t32 57.5t11 65q0 22 -6.5 40t-19 31.5t-32 22.5t-45.5 13.5t-60 4.5q-64 0 -114 -19.5t-83.5 -55t-46.5 -84.5q-10 -38 -4.5 -68t26.5 -51t56.5 -32.5t83.5 -11.5z" />
    <glyph glyph-name="afii10083" unicode="&#x441;" horiz-adv-x="789" 
d="M778 356l-156 -29q2 37 -14.5 61.5t-53 36.5t-93.5 12q-48 0 -87.5 -12t-70 -32.5t-52 -48t-32 -59.5t-10.5 -66q0 -21 6 -38t18.5 -30t31.5 -22t46 -13.5t61 -4.5q51 0 94 12t74.5 37.5t49.5 64.5l149 -30q-26 -69 -82 -115t-135 -68.5t-175 -22.5q-59 0 -107 10
t-84.5 28.5t-61 45t-37 60t-12.5 72.5q0 57 19.5 109t57 96.5t91 78t122 52t150.5 18.5q101 0 166.5 -26.5t97 -72.5t29.5 -104z" />
    <glyph glyph-name="afii10084" unicode="&#x442;" horiz-adv-x="689" 
d="M192 0l113 423h-247l33 125h655l-33 -125h-248l-114 -423h-159z" />
    <glyph glyph-name="afii10085" unicode="&#x443;" horiz-adv-x="711" 
d="M603 548h175l-410 -560q-43 -57 -81 -95.5t-75.5 -61t-78.5 -32.5t-88 -10q-29 0 -56.5 3t-49.5 10l26 119q17 -3 35 -5t34 -2q34 0 59 6t47.5 20.5t46.5 41.5q15 17 34 41l-140 525h161l94 -380z" />
    <glyph glyph-name="afii10086" unicode="&#x444;" horiz-adv-x="1004" 
d="M298 -200l50 190q-64 2 -115 14q-63 15 -105 44t-63 72.5t-21 99.5q0 74 32.5 136t95 107.5t153.5 70.5q79 22 176 24l52 192h155l-51 -192q65 -2 116 -15q63 -15 104.5 -44.5t63 -72.5t21.5 -98q0 -73 -31.5 -135.5t-93 -108t-153.5 -70.5q-79 -22 -180 -25l-51 -189
h-155zM379 104l91 340q-56 -2 -101 -15q-56 -15 -93 -43t-56 -66.5t-19 -85.5q0 -32 12.5 -57t38.5 -41.5t65 -24.5q27 -6 62 -7zM626 444l-91 -340q56 2 101 14q56 16 93.5 44t56 67t18.5 85q0 33 -12.5 57.5t-38 40.5t-64.5 24q-28 6 -63 8z" />
    <glyph glyph-name="afii10087" unicode="&#x445;" horiz-adv-x="743" 
d="M477 0l-127 187l-216 -187h-196l336 289l-179 259h181l118 -170l203 170h199l-328 -273l191 -275h-182z" />
    <glyph glyph-name="afii10088" unicode="&#x446;" horiz-adv-x="833" 
d="M17 0l147 548h159l-113 -423h321l113 423h160l-114 -423h84l-76 -282h-149l42 157h-574z" />
    <glyph glyph-name="afii10089" unicode="&#x447;" horiz-adv-x="776" 
d="M614 0h-160l58 217q-56 -19 -109 -28.5t-103 -9.5q-87 0 -138 27t-66 75.5t3 115.5l40 151h160l-34 -128q-11 -42 -3.5 -69t35 -39.5t76.5 -12.5q28 0 54.5 3t55 9.5t59.5 16.5l59 220h159z" />
    <glyph glyph-name="afii10090" unicode="&#x448;" horiz-adv-x="1128" 
d="M17 0l147 548h155l-113 -423h240l114 423h156l-114 -423h241l113 423h156l-147 -548h-948z" />
    <glyph glyph-name="afii10091" unicode="&#x449;" horiz-adv-x="1141" 
d="M857 -157l42 157h-882l147 548h155l-113 -423h240l114 423h156l-114 -423h241l113 423h156l-113 -423h83l-76 -282h-149z" />
    <glyph glyph-name="afii10092" unicode="&#x44a;" horiz-adv-x="847" 
d="M52 425l32 123h338l-43 -159h214q64 0 107.5 -19.5t66 -56t22.5 -89.5q0 -51 -19.5 -92.5t-56.5 -70.5t-88.5 -45t-114.5 -16h-391l114 425h-181zM350 278l-45 -167h205q39 0 67.5 12t43.5 34t15 52q0 23 -9.5 38t-27 23t-44.5 8h-205z" />
    <glyph glyph-name="afii10093" unicode="&#x44b;" horiz-adv-x="1045" 
d="M17 0l147 548h159l-43 -159h233q65 0 108.5 -19.5t65.5 -56t22 -89.5q0 -51 -19.5 -92.5t-56.5 -70.5t-88.5 -45t-114.5 -16h-413zM723 0l147 548h160l-147 -548h-160zM251 278l-45 -167h224q40 0 68 12t43 34t15 52q0 23 -9 38t-27 23t-44 8h-225z" />
    <glyph glyph-name="afii10094" unicode="&#x44c;" horiz-adv-x="767" 
d="M17 0l147 548h159l-43 -159h233q64 0 108 -19.5t66 -56t22 -89.5q0 -51 -19.5 -92.5t-56.5 -70.5t-88.5 -45t-114.5 -16h-413zM251 278l-45 -167h224q39 0 67.5 12t43.5 34t15 52q0 23 -9 38t-27 23t-44 8h-225z" />
    <glyph glyph-name="afii10095" unicode="&#x44d;" horiz-adv-x="796" 
d="M209 342l-146 30q31 63 86.5 104.5t131.5 62t169 20.5q59 0 106.5 -10t84.5 -29.5t61.5 -46.5t37.5 -60.5t13 -72.5q0 -57 -18.5 -109.5t-54.5 -96.5t-88.5 -76.5t-120 -50.5t-148.5 -18q-100 0 -170 21t-106.5 63.5t-37.5 106.5l155 29q1 -34 17.5 -57t53.5 -34t96 -11
q51 0 93.5 11.5t74.5 32.5t54 49q10 12 18 26h-302l28 104h300q-1 21 -7 38q-7 19 -20 32.5t-33 23t-47 13.5t-61 4q-55 0 -98.5 -10t-74.5 -32t-47 -57z" />
    <glyph glyph-name="afii10096" unicode="&#x44e;" horiz-adv-x="1112" 
d="M17 0l147 548h159l-55 -204h92q17 34 43 65q38 45 91.5 78.5t122.5 52.5t152 19q60 0 108.5 -10t84.5 -28t60 -44.5t36.5 -59t12.5 -71.5q0 -57 -19 -109.5t-56.5 -97.5t-91 -78.5t-123 -52.5t-153.5 -19q-59 0 -107 10t-84.5 28t-61 44.5t-36.5 59.5t-12 72v16h-92
l-59 -219h-159zM655 111q48 0 87.5 12.5t70 34.5t52 50.5t32.5 60t11 63.5q0 20 -6.5 36.5t-19 29t-32 21.5t-46.5 13.5t-61 4.5q-48 0 -87.5 -12.5t-70.5 -34.5t-52 -50t-32 -60t-11 -64q0 -19 6 -36t19 -29.5t32 -21.5t46 -13.5t62 -4.5z" />
    <glyph glyph-name="afii10097" unicode="&#x44f;" horiz-adv-x="774" 
d="M612 0h-156l50 184h-130l-215 -184h-196l242 199q-26 5 -48 13q-46 18 -69.5 52.5t-23.5 84.5q0 60 33 104.5t93.5 69.5t141.5 25h424zM535 294l39 146h-235q-37 0 -63.5 -10t-40 -29t-13.5 -46q0 -20 9 -34t28 -20.5t47 -6.5h229z" />
    <glyph glyph-name="uni0450" unicode="&#x450;" horiz-adv-x="812" 
d="M348 -11q-60 0 -108.5 10t-85 28.5t-61 44.5t-36.5 59.5t-12 71.5q0 56 18.5 108.5t54.5 97.5t88.5 78.5t120.5 52.5t150 19q75 0 131.5 -16.5t94.5 -45.5t57.5 -67.5t19.5 -82.5q0 -31 -6.5 -57t-19.5 -53h-551q-1 -8 -1 -16q0 -21 6.5 -39t19.5 -32.5t33.5 -23.5
t49 -14t64.5 -5q55 0 97 8.5t71 26.5t43 43l148 -27q-30 -56 -81.5 -93.5t-127 -56.5t-177.5 -19zM229 332h400q1 3 1 5q0 28 -10 47.5t-30.5 33t-52.5 20t-76 6.5q-51 0 -92 -10.5t-72 -30.5t-52 -47q-9 -11 -16 -24zM571 608h-134l-157 161h188z" />
    <glyph glyph-name="afii10071" unicode="&#x451;" horiz-adv-x="812" 
d="M348 -11q-60 0 -108.5 10t-85 28.5t-61 44.5t-36.5 59.5t-12 71.5q0 56 18.5 108.5t54.5 97.5t88.5 78.5t120.5 52.5t150 19q75 0 131.5 -16.5t94.5 -45.5t57.5 -67.5t19.5 -82.5q0 -31 -6.5 -57t-19.5 -53h-551q-1 -8 -1 -16q0 -21 6.5 -39t19.5 -32.5t33.5 -23.5
t49 -14t64.5 -5q55 0 97 8.5t71 26.5t43 43l148 -27q-30 -56 -81.5 -93.5t-127 -56.5t-177.5 -19zM229 332h400q1 3 1 5q0 28 -10 47.5t-30.5 33t-52.5 20t-76 6.5q-51 0 -92 -10.5t-72 -30.5t-52 -47q-9 -11 -16 -24zM545 615l38 141h166l-38 -141h-166zM285 615l37 141
h166l-37 -141h-166z" />
    <glyph glyph-name="afii10099" unicode="&#x452;" horiz-adv-x="842" 
d="M32 0l142 531h-99l31 117h99l28 102h159l-27 -102h208l-31 -117h-208l-42 -156q34 33 75 55.5t87 35t96 12.5q81 0 132.5 -33t69.5 -89t-1 -128l-62 -230q-20 -76 -54 -122t-87.5 -66.5t-129.5 -20.5q-18 0 -35 1t-32.5 3.5t-30.5 5.5l27 118q16 -2 31.5 -3.5t30.5 -1.5
q50 0 79 20t41 67l57 209q12 44 2 74.5t-39.5 47.5t-79.5 17q-41 0 -77.5 -11.5t-66 -32.5t-51.5 -51t-33 -68l-50 -184h-159z" />
    <glyph glyph-name="afii10100" unicode="&#x453;" horiz-adv-x="630" 
d="M17 0l147 548h524l-33 -125h-365l-114 -423h-159zM346 608l172 161h205l-239 -161h-138z" />
    <glyph glyph-name="afii10101" unicode="&#x454;" horiz-adv-x="788" 
d="M529 328l-26 -103h-307v-6q0 -21 7 -39t20.5 -31t34 -22t48 -14t61.5 -5q56 0 100.5 13t76.5 39t50 65l141 -30q-26 -69 -82 -115t-135.5 -68.5t-175.5 -22.5q-59 0 -107 10t-84 28t-60.5 44t-36.5 59t-12 72q0 57 19.5 109.5t56.5 97.5t90.5 78.5t122 52.5t150.5 19
q101 0 166.5 -26.5t97 -72.5t30.5 -104l-152 -29q2 37 -15.5 62t-55.5 38t-96 13q-49 0 -89.5 -11t-72 -31.5t-53.5 -48.5q-8 -10 -15 -21h303z" />
    <glyph glyph-name="afii10102" unicode="&#x455;" horiz-adv-x="745" 
d="M404 451q-60 0 -97.5 -7.5t-54.5 -21t-17 -32.5q0 -15 9 -24.5t31 -15t60 -9.5l134 -12q72 -8 118 -24.5t67.5 -44.5t21.5 -70q0 -58 -39.5 -103.5t-119.5 -71.5t-204 -26q-113 0 -180.5 21.5t-97 61t-29.5 91.5l159 23q-3 -45 36 -67t120 -22q54 0 91 5t59 14t31.5 21
t9.5 27t-8 24.5t-28 15t-56 8.5l-134 11q-72 8 -118.5 26t-68.5 47.5t-22 72.5q0 55 39.5 98t117 67.5t189.5 24.5q100 0 164.5 -19t96.5 -56t32 -90l-153 -22q1 26 -15 43.5t-50.5 26.5t-93.5 9z" />
    <glyph glyph-name="afii10103" unicode="&#x456;" horiz-adv-x="339" 
d="M17 0l147 548h159l-146 -548h-160zM181 615l36 135h162l-36 -135h-162z" />
    <glyph glyph-name="afii10104" unicode="&#x457;" horiz-adv-x="339" 
d="M17 0l147 548h159l-146 -548h-160zM101 615l37 141h131l-38 -141h-130zM292 615l38 141h130l-37 -141h-131z" />
    <glyph glyph-name="afii10105" unicode="&#x458;" horiz-adv-x="339" 
d="M16 -2l147 550h160l-146 -547q-21 -79 -57 -126t-86.5 -66.5t-117.5 -19.5q-28 0 -54 2.5t-50 6.5l27 119q17 -2 33 -3.5t29 -1.5q31 0 53.5 9t38 27.5t23.5 49.5zM181 615l36 135h162l-36 -135h-162z" />
    <glyph glyph-name="afii10106" unicode="&#x459;" horiz-adv-x="1225" 
d="M-28 111q30 2 52 10.5t42 26.5q20 19 38 52.5t36.5 87.5t40.5 133l35 127h566l-43 -159h233q64 0 108 -19.5t66 -56t22 -89.5q0 -51 -19.5 -92.5t-56.5 -70.5t-88.5 -45t-114.5 -16h-413v0h-1l114 423h-254l-7 -23q-27 -98 -52.5 -166.5t-53 -113.5t-59.5 -73
q-40 -35 -93.5 -46.5t-122.5 -8.5zM710 278l-18 -64l-27 -103h224q39 0 67.5 12t43.5 34t15 52q0 23 -9 38t-27 23t-44 8h-225z" />
    <glyph glyph-name="afii10107" unicode="&#x45a;" horiz-adv-x="1279" 
d="M518 0l62 232h-342l-62 -232h-159l147 548h159l-51 -192h341l51 192h160l-51 -191h254q46 0 82 -11t61.5 -31.5t38.5 -50t13 -65.5q0 -45 -18 -82t-52 -63t-81.5 -40t-106.5 -14h-446zM743 246l-36 -135h256q34 0 57.5 9t36 26t12.5 41q0 20 -8 33t-24 19.5t-40 6.5h-254
z" />
    <glyph glyph-name="afii10108" unicode="&#x45b;" horiz-adv-x="845" 
d="M32 0l143 531h-100l31 117h100l27 102h160l-28 -102h209l-31 -117h-209l-41 -156q34 33 74.5 55.5t87 35t96.5 12.5q80 0 131.5 -33t70 -88.5t-0.5 -126.5l-62 -230h-160l56 208q12 43 2 74t-39.5 48t-78.5 17q-42 0 -78 -11.5t-66 -32.5t-51.5 -51t-33.5 -68l-49 -184
h-160z" />
    <glyph glyph-name="afii10109" unicode="&#x45c;" horiz-adv-x="771" 
d="M17 0l147 548h159l-62 -233l350 233h227l-408 -263l270 -285h-202l-251 262l-71 -262h-159zM395 608l172 161h205l-239 -161h-138z" />
    <glyph glyph-name="uni045D" unicode="&#x45d;" horiz-adv-x="836" 
d="M17 0l147 548h156l-95 -358l438 358h157l-147 -548h-157l96 357l-438 -357h-157zM595 608h-134l-157 161h188z" />
    <glyph glyph-name="afii10110" unicode="&#x45e;" horiz-adv-x="711" 
d="M603 548h175l-411 -560q-41 -57 -79.5 -95t-76.5 -61t-78.5 -33t-87.5 -10q-29 0 -56 3t-50 10l26 119q17 -3 35 -5t34 -2q34 0 59.5 6t47.5 20.5t45 41.5q16 17 34 41l-139 525h162l93 -380zM580 769h137q-8 -41 -30.5 -73t-57.5 -53t-80.5 -32t-100.5 -11
q-53 0 -93 12.5t-65 35t-34 53.5t0 68h135q-9 -35 12 -55.5t65 -20.5q28 0 51.5 9t39.5 26t21 41z" />
    <glyph glyph-name="afii10193" unicode="&#x45f;" horiz-adv-x="828" 
d="M17 0l147 548h159l-113 -423h329l113 423h160l-147 -548h-159h-90l-42 -157h-150l42 157h-249z" />
    <glyph glyph-name="afii10146" unicode="&#x462;" horiz-adv-x="888" 
d="M77 513l29 107h116l22 81h163l-22 -81h256l-29 -107h-255l-25 -90h290q54 0 94 -13t66.5 -37t39.5 -58t13 -76q0 -79 -40.5 -132.5t-111 -80t-160.5 -26.5h-467l138 513h-117zM300 301l-49 -180h288q39 0 68.5 12t46.5 35.5t17 56.5q0 26 -10 42.5t-28.5 25t-45.5 8.5
h-287z" />
    <glyph glyph-name="afii10194" unicode="&#x463;" horiz-adv-x="759" 
d="M34 0l128 479h-100l28 106h100l45 165h159l-44 -165h204l-28 -106h-205l-28 -106h213q47 0 82.5 -10.5t60.5 -31t37.5 -50t12.5 -68.5q0 -64 -34 -112t-99.5 -74.5t-159.5 -26.5h-372zM264 267l-43 -161h199q40 0 68 10.5t43 32t15 51.5q0 23 -9 38t-27 22t-45 7h-201z
" />
    <glyph glyph-name="afii10147" unicode="&#x472;" horiz-adv-x="1003" 
d="M441 -11q-73 0 -132.5 12.5t-104.5 36.5t-75.5 58t-46 77.5t-15.5 94.5q0 72 23.5 138t68.5 121.5t110.5 97t149.5 64t184 22.5q73 0 132 -13t104.5 -37t76 -58.5t46.5 -77.5t16 -94q0 -71 -23 -136.5t-68 -121t-110 -97t-149.5 -64.5t-186.5 -23zM461 120q65 0 119 15.5
t96.5 44t71.5 66.5q17 21 29 45h-541v-10q0 -30 7.5 -55t23.5 -44.5t42.5 -33.5t64.5 -21t87 -7zM808 417q0 29 -7 54q-8 25 -25 45.5t-43.5 34.5t-64 21.5t-87.5 7.5q-65 0 -118.5 -16.5t-95.5 -45t-72 -66.5q-13 -17 -23 -35h536z" />
    <glyph glyph-name="afii10195" unicode="&#x473;" horiz-adv-x="827" 
d="M343 -11q-60 0 -108 10t-84 28t-60.5 44.5t-36.5 59.5t-12 72q0 56 19 108.5t56.5 97.5t91.5 78.5t123 52.5t152 19q60 0 108 -10t84.5 -28t60.5 -44.5t36.5 -59t12.5 -71.5q0 -57 -19.5 -109.5t-56.5 -97.5t-90.5 -78.5t-123 -52.5t-153.5 -19zM624 322q1 5 1 10
q0 20 -6.5 37t-19.5 30t-32.5 22t-46.5 13.5t-62 4.5q-49 0 -89 -12.5t-71 -34.5t-52 -51q-7 -9 -13 -19h391zM370 109q48 0 88.5 12.5t71 35t51.5 50.5q7 9 12 17h-390v-8q0 -20 6 -37t19 -30t32.5 -22t47 -13.5t62.5 -4.5z" />
    <glyph glyph-name="afii10148" unicode="&#x474;" horiz-adv-x="901" 
d="M279 0l-157 700h177l109 -516l264 355q39 54 71.5 87.5t63 52t63 25.5t73.5 7q14 0 31 -1t28 -3l-32 -146q-31 3 -55.5 -3t-46 -22t-44.5 -45l-372 -491h-173z" />
    <glyph glyph-name="afii10196" unicode="&#x475;" horiz-adv-x="726" 
d="M222 0l-142 548h160l89 -374l188 254q37 50 69 78.5t65 40.5t72 12q10 0 21.5 -0.5t22.5 -1.5t19 -4l-31 -132q-26 3 -44 -0.5t-34 -16.5t-36 -38l-287 -366h-132z" />
    <glyph glyph-name="afii10050" unicode="&#x490;" horiz-adv-x="783" 
d="M32 0l188 700h488l36 135h161l-73 -268h-479l-152 -567h-169z" />
    <glyph glyph-name="afii10098" unicode="&#x491;" horiz-adv-x="630" 
d="M17 0l146 548h376l37 139h150l-71 -264h-365l-114 -423h-159z" />
    <glyph glyph-name="Wgrave" unicode="&#x1e80;" horiz-adv-x="1286" 
d="M201 0l-76 700h165l50 -494l324 494h165l66 -500l313 500h184l-452 -700h-165l-72 514l-342 -514h-160zM846 760h-134l-157 161h188z" />
    <glyph glyph-name="wgrave" unicode="&#x1e81;" horiz-adv-x="1071" 
d="M167 0l-85 548h152l53 -359l246 359h135l62 -358l240 358h166l-375 -548h-131l-63 383l-269 -383h-131zM698 608h-134l-157 161h188z" />
    <glyph glyph-name="Wacute" unicode="&#x1e82;" horiz-adv-x="1286" 
d="M201 0l-76 700h165l50 -494l324 494h165l66 -500l313 500h184l-452 -700h-165l-72 514l-342 -514h-160zM708 760l172 161h205l-239 -161h-138z" />
    <glyph glyph-name="wacute" unicode="&#x1e83;" horiz-adv-x="1071" 
d="M167 0l-85 548h152l53 -359l246 359h135l62 -358l240 358h166l-375 -548h-131l-63 383l-269 -383h-131zM557 608l172 161h205l-239 -161h-138z" />
    <glyph glyph-name="Wdieresis" unicode="&#x1e84;" horiz-adv-x="1286" 
d="M201 0l-76 700h165l50 -494l324 494h165l66 -500l313 500h184l-452 -700h-165l-72 514l-342 -514h-160zM823 767l38 141h166l-38 -141h-166zM563 767l37 141h166l-37 -141h-166z" />
    <glyph glyph-name="wdieresis" unicode="&#x1e85;" horiz-adv-x="1071" 
d="M167 0l-85 548h152l53 -359l246 359h135l62 -358l240 358h166l-375 -548h-131l-63 383l-269 -383h-131zM675 615l38 141h166l-38 -141h-166zM415 615l37 141h166l-37 -141h-166z" />
    <glyph glyph-name="uni1E9E" unicode="&#x1e9e;" horiz-adv-x="1062" 
d="M20 0l105 393q29 108 89 178.5t158 105t239 34.5q55 0 109 -2t107 -7t106 -13l-33 -125l-188 -146l100 -9q69 -10 111.5 -34t62 -60.5t19.5 -85.5q0 -54 -25.5 -98t-75.5 -75.5t-125 -49t-175 -17.5q-55 0 -109.5 5t-105.5 16.5t-95 30.5l72 124q32 -17 69 -27.5
t76.5 -15t79.5 -4.5q55 0 95.5 4.5t68.5 12.5t44.5 19.5t24 27t7.5 32.5q0 18 -6 31t-18.5 22.5t-31 14.5t-44.5 8l-226 16l27 98l209 168q-9 1 -17 1q-31 3 -61.5 4.5t-65.5 1.5q-92 0 -153.5 -21.5t-97.5 -62.5t-52 -99l-106 -396h-168z" />
    <glyph glyph-name="Ygrave" unicode="&#x1ef2;" 
d="M260 0l73 272l-218 428h187l145 -291l295 291h208l-453 -444l-69 -256h-168zM621 760h-134l-157 161h188z" />
    <glyph glyph-name="ygrave" unicode="&#x1ef3;" horiz-adv-x="711" 
d="M603 548h175l-410 -560q-43 -57 -81 -95.5t-75.5 -61t-78.5 -32.5t-88 -10q-29 0 -56.5 3t-49.5 10l26 119q17 -3 35 -5t34 -2q34 0 59 6t47.5 20.5t46.5 41.5q15 17 34 41l-140 525h161l94 -380zM520 608h-134l-157 161h188z" />
    <glyph glyph-name="endash" unicode="&#x2013;" horiz-adv-x="666" 
d="M35 224l38 139h569l-37 -139h-570z" />
    <glyph glyph-name="emdash" unicode="&#x2014;" horiz-adv-x="1331" 
d="M35 224l38 139h1235l-38 -139h-1235z" />
    <glyph glyph-name="quoteleft" unicode="&#x2018;" horiz-adv-x="340" 
d="M275 378h-169l40 149q14 54 33 88t45.5 53t62 25.5t83.5 6.5l-16 -88q-36 1 -57 -6t-33 -26q-12 -18 -21 -51h72z" />
    <glyph glyph-name="quoteright" unicode="&#x2019;" horiz-adv-x="340" 
d="M208 700h170l-37 -134q-14 -55 -33.5 -91.5t-46.5 -57.5t-63.5 -30t-84.5 -9l16 87q36 0 57 7.5t33 25.5t21 51h-72z" />
    <glyph glyph-name="quotesinglbase" unicode="&#x201a;" horiz-adv-x="340" 
d="M52 150h169l-40 -148q-14 -55 -33.5 -89.5t-45.5 -53t-61.5 -24.5t-83.5 -6l16 87q37 0 57.5 6.5t32.5 26.5q12 18 21 51h-72z" />
    <glyph glyph-name="quotedblleft" unicode="&#x201c;" horiz-adv-x="600" 
d="M106 378l40 149q14 54 33 88t45.5 53t62 25.5t83.5 6.5l-16 -88q-36 1 -57 -6t-33 -26q-12 -18 -21 -51h72l-40 -151h-169zM366 378l40 149q14 54 33 88t45.5 53t62 25.5t83.5 6.5l-16 -88q-36 1 -57 -6t-33 -26q-12 -18 -21 -51h72l-40 -151h-169z" />
    <glyph glyph-name="quotedblright" unicode="&#x201d;" horiz-adv-x="600" 
d="M469 700h169l-36 -134q-15 -55 -34.5 -91.5t-46.5 -57.5t-63.5 -30t-84.5 -9l16 87q36 0 57 7.5t33 26.5q12 18 21 50h-72zM208 700h170l-37 -134q-14 -55 -33.5 -91.5t-46.5 -57.5t-63.5 -30t-84.5 -9l16 87q36 0 57 7.5t33 26.5q12 18 21 50h-72z" />
    <glyph glyph-name="quotedblbase" unicode="&#x201e;" horiz-adv-x="600" 
d="M312 150h169l-39 -148q-15 -55 -34.5 -89.5t-45.5 -53t-61.5 -24.5t-83.5 -6l16 87q37 0 57.5 6.5t32.5 25.5t21 52h-72zM52 150h169l-40 -148q-14 -55 -33.5 -89.5t-45.5 -53t-61.5 -24.5t-83.5 -6l16 87q37 0 57.5 6.5t32.5 25.5t21 52h-72z" />
    <glyph glyph-name="dagger" unicode="&#x2020;" horiz-adv-x="680" 
d="M667 401h-215l-147 -551h-155l147 551h-215l38 141h215l56 208h155l-56 -208h215z" />
    <glyph glyph-name="daggerdbl" unicode="&#x2021;" horiz-adv-x="711" 
d="M44 199h214l54 202h-214l37 141h215l56 208h155l-56 -208h215l-38 -141h-214l-54 -202h214l-38 -141h-214l-56 -208h-155l55 208h-214z" />
    <glyph glyph-name="bullet" unicode="&#x2022;" horiz-adv-x="374" 
d="M72 222l57 215h205l-58 -215h-204z" />
    <glyph glyph-name="ellipsis" unicode="&#x2026;" horiz-adv-x="1015" 
d="M13 0l40 150h168l-40 -150h-168zM351 0l40 150h168l-40 -150h-168zM689 0l40 150h168l-40 -150h-168z" />
    <glyph glyph-name="perthousand" unicode="&#x2030;" horiz-adv-x="1420" 
d="M781 -10q-61 0 -103 18t-64 50.5t-22 76.5q0 56 31.5 101.5t89 72t134.5 26.5q56 0 94 -18q30 -14 48 -38q20 17 46 30q53 26 124 26q62 0 104.5 -18t64 -51t21.5 -77q0 -49 -30.5 -95t-87.5 -75t-137 -29q-56 0 -94 18q-31 15 -50 40q-19 -16 -42 -29q-53 -29 -127 -29z
M202 0h-182l925 700h181zM302 364q-61 0 -103 18t-64 51t-22 76q0 56 32 101.5t89 72.5t134 27q62 0 104 -18t63.5 -51t21.5 -77q0 -50 -30.5 -96t-87.5 -75t-137 -29zM1110 90q36 0 61.5 12.5t38 33t12.5 43.5q0 18 -8 30.5t-25.5 19.5t-44.5 7q-37 0 -62 -12.5t-38 -33
t-13 -43.5q0 -18 8.5 -31t25.5 -19.5t45 -6.5zM319 464q36 0 61 12.5t38 33t13 43.5q0 18 -8.5 31t-26 19.5t-44.5 6.5q-36 0 -61.5 -12.5t-38 -32.5t-12.5 -44q0 -18 8 -31t25.5 -19.5t45.5 -6.5zM797 90q37 0 62 12.5t38 33t13 43.5q0 18 -8.5 30.5t-26 19.5t-44.5 7
q-37 0 -62 -12.5t-38 -33t-13 -43.5q0 -18 8.5 -31t26 -19.5t44.5 -6.5z" />
    <glyph glyph-name="guilsinglleft" unicode="&#x2039;" horiz-adv-x="441" 
d="M149 268l206 -98l-39 -142l-291 164l44 165l380 165l-42 -156z" />
    <glyph glyph-name="guilsinglright" unicode="&#x203a;" horiz-adv-x="441" 
d="M288 284l-201 94l39 144l292 -165l-44 -165l-380 -164l43 160z" />
    <glyph glyph-name="fraction" unicode="&#x2044;" horiz-adv-x="837" 
d="M73 0h-146l879 700h146z" />
    <glyph glyph-name="zerosuperior" unicode="&#x2070;" horiz-adv-x="505" 
d="M311 453q-46 0 -81 9.5t-58.5 27.5t-36 43.5t-12.5 57.5q0 45 18.5 85.5t53 71t83.5 48t110 17.5q46 0 81 -9.5t58 -27.5t35 -43.5t12 -56.5q0 -44 -18.5 -84t-53 -71.5t-83 -49.5t-108.5 -18zM325 538q31 0 55.5 11t42 29t26.5 41.5t9 47.5q0 15 -5.5 26.5t-16.5 19
t-26.5 11.5t-36.5 4q-32 0 -57 -11t-42 -29.5t-26 -41.5t-9 -47q0 -15 5.5 -26.5t16.5 -19t27 -11.5t37 -4z" />
    <glyph glyph-name="foursuperior" unicode="&#x2074;" horiz-adv-x="485" 
d="M443 458h-104l16 59h-265l18 68l334 224h95l-58 -216h66l-20 -76h-66zM375 593l31 114l-168 -114h137z" />
    <glyph glyph-name="fivesuperior" unicode="&#x2075;" horiz-adv-x="454" 
d="M285 453q-59 0 -99 9.5t-61 30.5t-26 52l108 21q2 -14 11.5 -22.5t28.5 -12.5t47 -4q35 0 58 7.5t34 20t11 26.5q0 13 -7 21.5t-24.5 13t-46.5 4.5q-23 0 -41.5 -2.5t-33 -7.5t-26.5 -14l-87 12l75 200h335l-20 -75h-249l-24 -67q12 6 26 10q39 13 86 13q48 0 80.5 -11.5
t49 -33t16.5 -50.5q0 -41 -25.5 -73t-74.5 -50t-121 -18z" />
    <glyph glyph-name="sixsuperior" unicode="&#x2076;" horiz-adv-x="476" 
d="M122 587q0 47 17.5 88t51 72t80.5 48.5t107 17.5q49 0 87.5 -9.5t63 -27.5t32.5 -44l-99 -29q-7 17 -28.5 26t-60.5 9q-40 0 -69 -11.5t-47 -35.5q-14 -18 -22 -45q11 7 23 12q24 12 54 18t65 6q54 0 87.5 -12t49.5 -33t16 -48q0 -37 -25 -68t-76 -49.5t-129 -18.5
q-47 0 -80.5 9t-55.5 27t-32 42.5t-10 55.5zM309 528q38 0 62 7t35.5 18.5t11.5 25.5q0 12 -7.5 20.5t-24.5 12.5t-47 4q-33 0 -57.5 -7t-37.5 -18t-13 -25q0 -13 8 -21t26 -12.5t44 -4.5z" />
    <glyph glyph-name="sevensuperior" unicode="&#x2077;" horiz-adv-x="416" 
d="M516 743l-255 -285h-119l247 268h-244l22 82h367z" />
    <glyph glyph-name="eightsuperior" unicode="&#x2078;" horiz-adv-x="490" 
d="M303 453q-67 0 -111 10.5t-66 31.5t-22 50q0 33 26.5 58t78.5 39h1l-1 1q-23 10 -35.5 26.5t-12.5 37.5q0 30 24.5 54t73 38t119.5 14q64 0 104 -11.5t59.5 -31t19.5 -45.5q0 -23 -13.5 -42t-40.5 -33q-15 -7 -33 -13q24 -9 39 -22q23 -19 23 -49q0 -29 -25 -55
t-76.5 -42t-131.5 -16zM311 522q40 0 64 6.5t35 17t11 22.5q0 11 -9 18.5t-28 12t-52 4.5q-41 0 -65 -6.5t-35 -16.5t-11 -23q0 -11 8.5 -19t28.5 -12t53 -4zM370 743q-36 0 -57.5 -5.5t-31.5 -14.5t-10 -20q0 -10 8.5 -17t26.5 -10.5t44 -3.5q36 0 57.5 5.5t31.5 15
t10 20.5q0 16 -19.5 23t-59.5 7z" />
    <glyph glyph-name="ninesuperior" unicode="&#x2079;" horiz-adv-x="477" 
d="M545 671q0 -43 -16.5 -82.5t-48.5 -70t-79 -48t-107 -17.5q-71 0 -122.5 21t-63.5 60l99 29q8 -17 28.5 -26t59.5 -9q37 0 66.5 11.5t48.5 35.5q15 19 23 46q-12 -8 -25 -14q-24 -11 -55 -17t-65 -6q-52 0 -85 12.5t-48.5 34t-15.5 48.5q0 36 24 66.5t72.5 49t122.5 18.5
q50 0 86 -10t58 -29t32.5 -45t10.5 -58zM357 738q-36 0 -60 -7.5t-35 -19t-11 -25.5q0 -12 7 -20t24 -12t44 -4q32 0 57 6.5t39 18t14 26.5q0 12 -8.5 20t-26 12.5t-44.5 4.5z" />
    <glyph glyph-name="zeroinferior" unicode="&#x2080;" horiz-adv-x="505" 
d="M161 -113q-46 0 -81 9.5t-58.5 27.5t-36 43.5t-12.5 57.5q0 45 18.5 85.5t53 71t83.5 48t110 17.5q46 0 81 -9.5t58 -27.5t35 -43.5t12 -56.5q0 -44 -18.5 -84t-53 -71.5t-83 -49.5t-108.5 -18zM175 -28q31 0 55.5 11t42 29t26.5 41.5t9 47.5q0 15 -5.5 26.5t-16.5 19
t-26.5 11.5t-36.5 4q-32 0 -57 -11t-42 -29.5t-26 -41.5t-9 -47q0 -15 5.5 -26.5t16.5 -19t27 -11.5t37 -4z" />
    <glyph glyph-name="oneinferior" unicode="&#x2081;" horiz-adv-x="423" 
d="M-67 -108l22 85h136l48 178l-132 -21l22 83l152 25h93l-72 -265h118l-23 -85h-364z" />
    <glyph glyph-name="twoinferior" unicode="&#x2082;" horiz-adv-x="466" 
d="M-44 -27l243 93q31 14 48 24t24 19.5t7 19.5q0 12 -7.5 20t-23 12.5t-41.5 4.5q-31 0 -53 -6t-35 -18t-21 -31l-106 16q17 39 46 65.5t72.5 40.5t103.5 14q59 0 98.5 -12.5t60.5 -35t21 -53.5q0 -19 -7 -37t-26.5 -36t-56.5 -37t-98 -40l-63 -22h206l-21 -82h-392z" />
    <glyph glyph-name="threeinferior" unicode="&#x2083;" horiz-adv-x="467" 
d="M305 71q17 -5 28 -13q29 -21 29 -53q0 -34 -23.5 -60.5t-72.5 -42t-125 -15.5q-63 0 -106 11.5t-64.5 35t-19.5 58.5l103 16q-2 -15 8.5 -25t32 -15t54.5 -5q39 0 61 5.5t31.5 15t9.5 20.5q0 14 -11 21t-33 7h-105l20 73h105q18 0 30.5 4.5t19.5 12t7 17.5t-7.5 17
t-24 11t-45.5 4q-31 0 -53.5 -4.5t-37 -14t-21.5 -25.5l-99 16q14 34 44 56.5t74.5 34.5t104.5 12q59 0 98.5 -10.5t58.5 -30.5t19 -48q0 -25 -16.5 -45.5t-48.5 -33.5q-11 -4 -25 -7z" />
    <glyph glyph-name="fourinferior" unicode="&#x2084;" horiz-adv-x="485" 
d="M293 -108h-104l16 59h-265l18 68l334 224h95l-58 -216h66l-20 -76h-66zM225 27l31 114l-168 -114h137z" />
    <glyph glyph-name="fiveinferior" unicode="&#x2085;" horiz-adv-x="454" 
d="M135 -113q-59 0 -99 9.5t-61 30.5t-26 52l108 21q2 -14 11.5 -22.5t28.5 -12.5t47 -4q35 0 58 7.5t34 20t11 26.5q0 13 -7 21.5t-24.5 13t-46.5 4.5q-23 0 -41.5 -2.5t-33 -7.5t-26.5 -14l-87 12l75 200h335l-20 -75h-249l-24 -67q12 6 26 10q39 13 86 13
q48 0 80.5 -11.5t49 -33t16.5 -50.5q0 -41 -25.5 -73t-74.5 -50t-121 -18z" />
    <glyph glyph-name="sixinferior" unicode="&#x2086;" horiz-adv-x="476" 
d="M-28 21q0 47 17.5 88t51 72t80.5 48.5t107 17.5q49 0 87.5 -9.5t63 -27.5t32.5 -44l-99 -29q-7 17 -28.5 26t-60.5 9q-40 0 -69 -11.5t-47 -35.5q-14 -18 -22 -45q11 7 23 12q24 12 54 18t65 6q54 0 87.5 -12t49.5 -33t16 -48q0 -37 -25 -68t-76 -49.5t-129 -18.5
q-47 0 -80.5 9t-55.5 27t-32 42.5t-10 55.5zM159 -38q38 0 62 7t35.5 18.5t11.5 25.5q0 12 -7.5 20.5t-24.5 12.5t-47 4q-33 0 -57.5 -7t-37.5 -18t-13 -25q0 -13 8 -21t26 -12.5t44 -4.5z" />
    <glyph glyph-name="seveninferior" unicode="&#x2087;" horiz-adv-x="416" 
d="M366 177l-255 -285h-119l247 268h-244l22 82h367z" />
    <glyph glyph-name="eightinferior" unicode="&#x2088;" horiz-adv-x="490" 
d="M153 -113q-67 0 -111 10.5t-66 31.5t-22 50q0 33 26.5 58t78.5 39h1l-1 1q-23 10 -35.5 26.5t-12.5 37.5q0 30 24.5 54t73 38t119.5 14q64 0 104 -11.5t59.5 -31t19.5 -45.5q0 -23 -13.5 -42t-40.5 -33q-15 -7 -33 -13q24 -9 39 -22q23 -19 23 -49q0 -29 -25 -55
t-76.5 -42t-131.5 -16zM161 -44q40 0 64 6.5t35 17t11 22.5q0 11 -9 18.5t-28 12t-52 4.5q-41 0 -65 -6.5t-35 -16.5t-11 -23q0 -11 8.5 -19t28.5 -12t53 -4zM220 177q-36 0 -57.5 -5.5t-31.5 -14.5t-10 -20q0 -10 8.5 -17t26.5 -10.5t44 -3.5q36 0 57.5 5.5t31.5 15
t10 20.5q0 16 -19.5 23t-59.5 7z" />
    <glyph glyph-name="nineinferior" unicode="&#x2089;" horiz-adv-x="477" 
d="M395 105q0 -43 -16.5 -82.5t-48.5 -70t-79 -48t-107 -17.5q-71 0 -122.5 21t-63.5 60l99 29q8 -17 28.5 -26t59.5 -9q37 0 66.5 11.5t48.5 35.5q15 19 23 46q-12 -8 -25 -14q-24 -11 -55 -17t-65 -6q-52 0 -85 12.5t-48.5 34t-15.5 48.5q0 36 24 66.5t72.5 49t122.5 18.5
q50 0 86 -10t58 -29t32.5 -45t10.5 -58zM207 172q-36 0 -60 -7.5t-35 -19t-11 -25.5q0 -12 7 -20t24 -12t44 -4q32 0 57 6.5t39 18t14 26.5q0 12 -8.5 20t-26 12.5t-44.5 4.5z" />
    <glyph glyph-name="colonmonetary" unicode="&#x20a1;" horiz-adv-x="951" 
d="M170 -80l54 105q-37 16 -65 38q-31 23 -52 54t-31.5 68.5t-10.5 80.5q0 73 24.5 139.5t70.5 122t111 97t147 63.5q72 20 155 23l36 69h79l-37 -71q33 -2 63 -7l39 78h79l-48 -95q2 -1 5 -2q80 -28 123.5 -82t43.5 -133l-172 -34q0 47 -22 79q-17 24 -46 39l-219 -428
q44 3 82 14q54 17 93 50t63 83l164 -34q-36 -84 -98 -139t-152.5 -82t-214.5 -27h-5l-35 -69h-79l37 73q-15 2 -29 4q-16 3 -32 7l-42 -84h-79zM294 163l208 409q-21 -4 -41 -10q-53 -16 -94.5 -44t-70 -65t-43 -79.5t-14.5 -88.5q0 -30 8 -55.5t24 -45.5q10 -11 23 -21z
M584 578l-226 -445q7 -2 16 -4q20 -4 44 -6l230 450q-29 4 -64 5z" />
    <glyph glyph-name="uni20A9" unicode="&#x20a9;" horiz-adv-x="1293" 
d="M205 0l-33 297h-120l20 75h92l-9 83h-83l21 75h54l-19 170h166l17 -170h246l111 170h165l22 -170h250l106 170h184l-109 -170h55l-20 -75h-84l-53 -83h93l-20 -75h-122l-192 -297h-165l-71 514l-342 -514h-160zM865 455l10 -83h131l52 83h-193zM327 372h127l54 83h-190z
M885 297l13 -98l61 98h-74zM404 297h-70l10 -93z" />
    <glyph glyph-name="uni20AA" unicode="&#x20aa;" horiz-adv-x="1122" 
d="M1030 263q-20 -73 -46.5 -123t-65 -81t-92.5 -45t-127 -14h-354l103 387h81l-66 -248h234q50 0 83 12t54 39.5t33 72.5l96 355h162zM662 387q10 35 5 57.5t-24.5 33.5t-55.5 11h-269l-131 -489h-163l169 628h419q66 0 104 -20.5t48 -62.5t-7 -107l-56 -207h-81z" />
    <glyph glyph-name="dong" unicode="&#x20ab;" horiz-adv-x="870" 
d="M513 605l20 75h190l19 70h159l-19 -70h87l-21 -75h-86l-162 -605h-143l16 94q-15 -14 -31 -27q-47 -37 -106 -57.5t-127 -20.5q-53 0 -95.5 9.5t-74.5 28t-53.5 44.5t-32.5 59t-11 72q0 60 19.5 112.5t55 96.5t84.5 76t108.5 49.5t127.5 17.5q57 0 101.5 -14t75.5 -39
q29 -24 46 -56l43 160h-190zM367 113q49 0 89.5 11t72 31.5t53 50.5t31.5 66q10 37 4 65.5t-26.5 49.5t-55 32t-82.5 11q-46 0 -84 -10.5t-68 -30t-51 -45.5t-32 -57t-11 -65q0 -21 6.5 -38.5t18.5 -30.5t31.5 -22t45.5 -13.5t58 -4.5zM-28 -154l20 76h682l-20 -76h-682z
" />
    <glyph glyph-name="Euro" unicode="&#x20ac;" horiz-adv-x="1023" 
d="M59 391l20 75h110q18 33 42 62q46 55 111 96.5t147.5 64t179.5 22.5q111 0 191 -28t123.5 -82t43.5 -133l-172 -34q0 47 -22 79t-67.5 48.5t-115.5 16.5q-64 0 -117.5 -15.5t-94.5 -43.5q-34 -23 -59 -53h293l-27 -75h-313q-4 -9 -7 -17q-10 -32 -13 -65h301l-27 -76
h-268q0 -2 1 -3q7 -26 23.5 -45.5t42 -33.5t61 -21.5t81.5 -7.5q69 0 123 16.5t93.5 49.5t63.5 83l164 -34q-36 -84 -98 -139t-153 -82t-215 -27q-72 0 -131 12t-103 35.5t-74 57t-45 77.5q-10 29 -14 62h-121l20 76h102q4 42 17 82h-97z" />
    <glyph glyph-name="uni20AD" unicode="&#x20ad;" horiz-adv-x="919" 
d="M29 338l21 81h97l75 281h166l-80 -298l458 298h242l-432 -281h251l-20 -81h-259l300 -338h-216l-260 286l-116 -75l-56 -211h-166l91 338h-96z" />
    <glyph glyph-name="uni20AE" unicode="&#x20ae;" horiz-adv-x="828" 
d="M146 311l21 76l203 25l41 155h-306l37 133h782l-36 -133h-308l-36 -133l200 25l-20 -76l-200 -25l-22 -83l200 25l-21 -76l-200 -25l-53 -199h-168l47 177l-204 -25l21 76l203 25l23 83z" />
    <glyph glyph-name="uni20B1" unicode="&#x20b1;" horiz-adv-x="961" 
d="M44 0l79 293h-111l20 75h111l19 72h-111l20 75h112l49 185h390q71 0 124 -20.5t88 -56.5t52 -81q4 -13 8 -27h132l-20 -75h-104q-1 -37 -10 -72h94l-20 -75h-104q-26 -46 -67 -82q-52 -46 -125 -71.5t-163 -25.5h-264l-30 -114h-169zM312 368h402q12 32 12 69v3h-395z
M708 515q-13 25 -40 41q-31 18 -85 18h-216l-16 -59h357zM660 293h-369l-14 -54h226q66 0 117 27q22 11 40 27z" />
    <glyph glyph-name="uni20B4" unicode="&#x20b4;" horiz-adv-x="969" 
d="M855 181q-24 -50 -62.5 -86.5t-92 -59.5t-121.5 -34.5t-150 -11.5q-90 0 -157 13t-111 37t-65 57.5t-21 74.5q-1 31 8 57q1 5 4 10h-73l20 76h123q5 4 11 8q25 18 59.5 31t78.5 21.5t98 13.5l153 10h-500l20 75h679q7 15 7 32q0 19 -9.5 34t-31.5 26t-57 16.5t-86 5.5
q-48 0 -85 -4t-65 -13t-47 -24t-30 -36l-163 25q29 60 82.5 99t132.5 58t183 19q89 0 153.5 -13t107 -38t63.5 -60t21 -79q0 -15 -3 -30q-2 -9 -6 -18h78l-20 -75h-131q-12 -11 -26 -20q-36 -23 -89.5 -37t-128.5 -21l-89 -6h441l-20 -76h-685q-1 0 -1 -1q-9 -18 -9 -41
q0 -20 11 -35.5t34.5 -26.5t60.5 -16.5t88 -5.5q52 0 92.5 5.5t71.5 17t53 29t37 41.5z" />
    <glyph glyph-name="uni20B5" unicode="&#x20b5;" horiz-adv-x="951" 
d="M439 -80h-85l19 71q-26 2 -50 6q-51 9 -92 25.5t-72 40t-52 54.5t-31.5 68.5t-10.5 80.5q0 73 24.5 139.5t70.5 122t111 97t147 63.5q69 19 147 22l19 70h85l-19 -71q78 -5 139 -26q80 -28 123.5 -82t43.5 -133l-172 -34q0 47 -22.5 79t-67.5 49q-33 11 -79 14l-122 -453
q47 4 86 15q54 17 93 50t63 83l164 -34q-36 -84 -98 -139t-152 -82q-82 -24 -192 -27zM408 124l121 451q-36 -4 -68 -13q-53 -16 -94.5 -44t-70 -65t-43 -79.5t-14.5 -88.5q0 -30 8 -55.5t24 -45t41.5 -33.5t61.5 -22q16 -3 34 -5z" />
    <glyph glyph-name="uni20B8" unicode="&#x20b8;" horiz-adv-x="847" 
d="M265 0l109 404h-306l36 134h782l-36 -134h-308l-108 -404h-169zM127 624l20 76h783l-21 -76h-782z" />
    <glyph glyph-name="uni20B9" unicode="&#x20b9;" horiz-adv-x="824" 
d="M195 700h715l-20 -75h-210q17 -15 29 -34q22 -36 26 -80h124l-20 -75h-110q-10 -43 -36 -76q-43 -55 -121 -83t-185 -28l-74 -4l302 -245h-251l-292 241l33 123h294q41 0 71 8t50.5 23.5t31.5 38.5q0 1 1 2h-429l20 75h416q-3 15 -10 26q-12 21 -36.5 31t-61.5 10h-290z
" />
    <glyph glyph-name="uni20BA" unicode="&#x20ba;" horiz-adv-x="866" 
d="M45 0l71 265l-123 -19l20 75l123 20l24 88l-123 -20l20 75l123 20l53 196h168l-45 -167l213 34l-21 -76l-212 -34l-24 -88l213 35l-20 -76l-213 -34l-43 -161h237q53 0 90 14t66 49t55 96l148 -30q-30 -73 -63 -123t-74.5 -80.5t-96 -44.5t-127.5 -14h-439z" />
    <glyph glyph-name="uni20BC" unicode="&#x20bc;" horiz-adv-x="983" 
d="M522 100h-156l86 321q-21 -2 -39 -6q-50 -11 -83.5 -33t-53.5 -53.5t-31 -72.5l-68 -256h-169l68 253q19 72 56 129t94.5 96.5t137.5 59.5q56 15 125 19l38 143h156l-39 -147q24 -3 46 -8q62 -13 107.5 -39t73 -63.5t34.5 -85t-8 -104.5l-68 -253h-168l68 256
q11 41 4.5 72.5t-30 53.5t-66.5 33q-13 3 -29 6z" />
    <glyph glyph-name="uni20BD" unicode="&#x20bd;" horiz-adv-x="926" 
d="M72 0l22 81h-115l20 76h115l21 75h-118l35 131h118l90 337h430q59 0 104 -14t76 -41.5t47 -65.5t16 -85q0 -62 -25 -111t-71 -82.5t-109.5 -51t-139.5 -17.5h-285l-20 -75h292l-21 -76h-291l-22 -81h-169zM338 363h263q50 0 85.5 12t54.5 37t19 64q0 30 -11.5 51
t-36 31.5t-60.5 10.5h-258z" />
    <glyph glyph-name="uni2113" unicode="&#x2113;" horiz-adv-x="756" 
d="M8 248l112 30l51 188q21 79 67 133.5t117 83t166 28.5q63 0 108.5 -12.5t75.5 -35.5t44.5 -55t14.5 -72q0 -38 -13 -73.5t-42 -68.5t-76 -63.5t-113 -58t-154 -51.5q-48 -13 -103 -26q0 -16 4 -30q8 -28 37.5 -42t82.5 -14q40 0 91.5 7.5t102.5 21.5l-35 -122
q-35 -9 -70.5 -15.5t-69 -9t-60.5 -2.5q-102 0 -161.5 28t-79.5 80q-10 28 -10 62l-120 -33zM293 322q35 11 66 21q68 23 115 45t75.5 43.5t41.5 44t13 46.5q0 16 -5.5 29t-17.5 22.5t-31.5 15t-45.5 5.5q-45 0 -80 -14.5t-58.5 -41.5t-33.5 -67z" />
    <glyph glyph-name="uni2116" unicode="&#x2116;" horiz-adv-x="1420" 
d="M28 0l188 700h165l345 -516l139 516h155l-188 -700h-165l-346 515l-138 -515h-155zM1251 436q-50 0 -84.5 14t-52 39.5t-17.5 59.5q0 46 26 82.5t73 57.5t111 21q50 0 84.5 -14.5t51.5 -40.5t17 -61q0 -43 -25.5 -79t-72.5 -57.5t-111 -21.5zM1039 300l21 80h333l-22 -80
h-332zM1292 631q-27 0 -46.5 -9.5t-31 -25.5t-11.5 -36q0 -14 7 -24t20.5 -15.5t33.5 -5.5q28 0 48 9.5t31 25.5t11 36q0 14 -7 24t-21 15.5t-34 5.5z" />
    <glyph glyph-name="trademark" unicode="&#x2122;" horiz-adv-x="917" 
d="M440 350l94 350h102l60 -193l157 193h112l-94 -350h-86l63 237l-138 -168h-63l-54 174l-65 -243h-88zM161 350l72 271h-122l22 79h340l-22 -79h-123l-72 -271h-95z" />
    <glyph glyph-name="ohm" unicode="&#x2126;" horiz-adv-x="993" 
d="M669 156l-10 -39h178l-32 -117h-322l63 232q65 11 112 29.5t77 45t44 59.5t14 71q0 26 -9 47.5t-27 39.5t-44.5 30.5t-61 19.5t-76.5 7q-56 0 -103.5 -10t-84.5 -28t-63 -43.5t-39.5 -56.5t-13.5 -66q0 -28 9 -51t27 -40.5t47 -31t70 -22.5l-63 -232h-321l31 117h178
l10 40q-41 17 -70.5 38t-49 47t-29 57.5t-9.5 69.5q0 52 20 101.5t60.5 93t99 76.5t136 52t173.5 19q71 0 130 -12t105 -34.5t78 -54t48.5 -70t16.5 -82.5q0 -68 -32.5 -127.5t-98.5 -104.5t-168 -70z" />
    <glyph glyph-name="estimated" unicode="&#x212e;" horiz-adv-x="796" 
d="M761 296h-567q-5 0 -5 -4v-171q0 -12 8 -20q41 -43 96.5 -68t118.5 -25q68 0 126 28t99 76h51q-48 -55 -120.5 -88.5t-156.5 -33.5q-73 0 -136 24.5t-111 67.5t-75.5 100t-27.5 122q0 66 27.5 123t75.5 100.5t111 67.5t136 24t136 -24t111 -67.5t75.5 -100.5t27.5 -123
v-8zM632 318v173q0 12 -8 20q-41 41 -95.5 65.5t-116.5 24.5q-63 0 -118 -25t-96 -68q-9 -8 -9 -21v-169q0 -5 5 -5h434q4 0 4 5z" />
    <glyph glyph-name="onethird" unicode="&#x2153;" horiz-adv-x="1199" 
d="M55 350l22 85h136l48 178l-132 -21l22 83l152 25h93l-72 -265h118l-23 -85h-364zM262 0h-146l879 700h146zM1066 179q17 -5 28 -13q29 -21 29 -53q0 -34 -23.5 -60.5t-72.5 -42t-125 -15.5q-63 0 -106 11.5t-64.5 35t-19.5 58.5l103 16q-2 -15 8.5 -25t32 -15t54.5 -5
q39 0 61 5.5t31.5 15t9.5 20.5q0 14 -11 21t-33 7h-105l20 73h105q18 0 30.5 4.5t19.5 12t7 17.5t-7.5 17t-24 11t-45.5 4q-31 0 -53.5 -4.5t-37 -14t-21.5 -25.5l-99 16q14 34 44 56.5t74.5 34.5t104.5 12q59 0 98.5 -10.5t58.5 -30.5t19 -48q0 -25 -16.5 -45.5
t-48.5 -33.5q-11 -4 -25 -7z" />
    <glyph glyph-name="twothirds" unicode="&#x2154;" horiz-adv-x="1233" 
d="M78 431l243 93q31 14 48 24t24 19.5t7 19.5q0 12 -7.5 20t-23 12.5t-41.5 4.5q-31 0 -53 -6t-35 -18t-21 -31l-106 16q17 39 46 65.5t72.5 40.5t103.5 14q59 0 98.5 -12.5t60.5 -35t21 -53.5q0 -19 -7 -37t-26.5 -36t-56.5 -37t-98 -40l-63 -22h206l-21 -82h-392zM296 0
h-146l879 700h146zM1100 179q17 -5 28 -13q29 -21 29 -53q0 -34 -23.5 -60.5t-72.5 -42t-125 -15.5q-63 0 -106 11.5t-64.5 35t-19.5 58.5l103 16q-2 -15 8.5 -25t32 -15t54.5 -5q39 0 61 5.5t31.5 15t9.5 20.5q0 14 -11 21t-33 7h-105l20 73h105q18 0 30.5 4.5t19.5 12
t7 17.5t-7.5 17t-24 11t-45.5 4q-31 0 -53.5 -4.5t-37 -14t-21.5 -25.5l-99 16q14 34 44 56.5t74.5 34.5t104.5 12q59 0 98.5 -10.5t58.5 -30.5t19 -48q0 -25 -16.5 -45.5t-48.5 -33.5q-11 -4 -25 -7z" />
    <glyph glyph-name="oneeighth" unicode="&#x215b;" horiz-adv-x="1223" 
d="M55 350l22 85h136l48 178l-132 -21l22 83l152 25h93l-72 -265h118l-23 -85h-364zM262 0h-146l879 700h146zM915 -5q-67 0 -111 10.5t-66 31.5t-22 50q0 33 26.5 58t78.5 39h1l-1 1q-23 10 -35.5 26.5t-12.5 37.5q0 30 24.5 54t73 38t119.5 14q64 0 104 -11.5t59.5 -31
t19.5 -45.5q0 -23 -13.5 -42t-40.5 -33q-15 -7 -33 -13q24 -9 39 -22q23 -19 23 -49q0 -29 -25 -55t-76.5 -42t-131.5 -16zM923 64q40 0 64 6.5t35 17t11 22.5q0 11 -9 18.5t-28 12t-52 4.5q-41 0 -65 -6.5t-35 -16.5t-11 -23q0 -11 8.5 -19t28.5 -12t53 -4zM982 285
q-36 0 -57.5 -5.5t-31.5 -14.5t-10 -20q0 -10 8.5 -17t26.5 -10.5t44 -3.5q36 0 57.5 5.5t31.5 15t10 20.5q0 16 -19.5 23t-59.5 7z" />
    <glyph glyph-name="threeeighths" unicode="&#x215c;" horiz-adv-x="1216" 
d="M427 529q17 -5 28 -13q29 -21 29 -53q0 -34 -23.5 -60.5t-72.5 -42t-125 -15.5q-63 0 -106 11.5t-64.5 35t-19.5 58.5l103 16q-2 -15 8.5 -25t32 -15t54.5 -5q39 0 61 5.5t31.5 15t9.5 20.5q0 14 -11 21t-33 7h-105l20 73h105q18 0 30.5 4.5t19.5 12t7 17.5t-7.5 17
t-24 11t-45.5 4q-31 0 -53.5 -4.5t-37 -14t-21.5 -25.5l-99 16q14 34 44 56.5t74.5 34.5t104.5 12q59 0 98.5 -10.5t58.5 -30.5t19 -48q0 -25 -16.5 -45.5t-48.5 -33.5q-11 -4 -25 -7zM254 0h-146l879 700h146zM908 -5q-67 0 -111 10.5t-66 31.5t-22 50q0 33 26.5 58
t78.5 39h1l-1 1q-23 10 -35.5 26.5t-12.5 37.5q0 30 24.5 54t73 38t119.5 14q64 0 104 -11.5t59.5 -31t19.5 -45.5q0 -23 -13.5 -42t-40.5 -33q-15 -7 -33 -13q24 -9 39 -22q23 -19 23 -49q0 -29 -25 -55t-76.5 -42t-131.5 -16zM916 64q40 0 64 6.5t35 17t11 22.5
q0 11 -9 18.5t-28 12t-52 4.5q-41 0 -65 -6.5t-35 -16.5t-11 -23q0 -11 8.5 -19t28.5 -12t53 -4zM975 285q-36 0 -57.5 -5.5t-31.5 -14.5t-10 -20q0 -10 8.5 -17t26.5 -10.5t44 -3.5q36 0 57.5 5.5t31.5 15t10 20.5q0 16 -19.5 23t-59.5 7z" />
    <glyph glyph-name="fiveeighths" unicode="&#x215d;" horiz-adv-x="1199" 
d="M257 345q-59 0 -99 9.5t-61 30.5t-26 52l108 21q2 -14 11.5 -22.5t28.5 -12.5t47 -4q35 0 58 7.5t34 20t11 26.5q0 13 -7 21.5t-24.5 13t-46.5 4.5q-23 0 -41.5 -2.5t-33 -7.5t-26.5 -14l-87 12l75 200h335l-20 -75h-249l-24 -67q12 6 26 10q39 13 86 13q48 0 80.5 -11.5
t49 -33t16.5 -50.5q0 -41 -25.5 -73t-74.5 -50t-121 -18zM238 0h-146l879 700h146zM891 -5q-67 0 -111 10.5t-66 31.5t-22 50q0 33 26.5 58t78.5 39h1l-1 1q-23 10 -35.5 26.5t-12.5 37.5q0 30 24.5 54t73 38t119.5 14q64 0 104 -11.5t59.5 -31t19.5 -45.5q0 -23 -13.5 -42
t-40.5 -33q-15 -7 -33 -13q24 -9 39 -22q23 -19 23 -49q0 -29 -25 -55t-76.5 -42t-131.5 -16zM899 64q40 0 64 6.5t35 17t11 22.5q0 11 -9 18.5t-28 12t-52 4.5q-41 0 -65 -6.5t-35 -16.5t-11 -23q0 -11 8.5 -19t28.5 -12t53 -4zM958 285q-36 0 -57.5 -5.5t-31.5 -14.5
t-10 -20q0 -10 8.5 -17t26.5 -10.5t44 -3.5q36 0 57.5 5.5t31.5 15t10 20.5q0 16 -19.5 23t-59.5 7z" />
    <glyph glyph-name="seveneighths" unicode="&#x215e;" horiz-adv-x="1123" 
d="M488 635l-255 -285h-119l247 268h-244l22 82h367zM162 0h-146l879 700h146zM815 -5q-67 0 -111 10.5t-66 31.5t-22 50q0 33 26.5 58t78.5 39h1l-1 1q-23 10 -35.5 26.5t-12.5 37.5q0 30 24.5 54t73 38t119.5 14q64 0 104 -11.5t59.5 -31t19.5 -45.5q0 -23 -13.5 -42
t-40.5 -33q-15 -7 -33 -13q24 -9 39 -22q23 -19 23 -49q0 -29 -25 -55t-76.5 -42t-131.5 -16zM823 64q40 0 64 6.5t35 17t11 22.5q0 11 -9 18.5t-28 12t-52 4.5q-41 0 -65 -6.5t-35 -16.5t-11 -23q0 -11 8.5 -19t28.5 -12t53 -4zM882 285q-36 0 -57.5 -5.5t-31.5 -14.5
t-10 -20q0 -10 8.5 -17t26.5 -10.5t44 -3.5q36 0 57.5 5.5t31.5 15t10 20.5q0 16 -19.5 23t-59.5 7z" />
    <glyph glyph-name="arrowleft" unicode="&#x2190;" horiz-adv-x="787" 
d="M377 466l-122 -118h464v-130h-464l123 -118l-82 -86l-269 269l268 269z" />
    <glyph glyph-name="arrowup" unicode="&#x2191;" horiz-adv-x="768" 
d="M611 355l-118 122v-464h-129v464l-119 -123l-86 82l270 269l268 -269z" />
    <glyph glyph-name="arrowright" unicode="&#x2192;" horiz-adv-x="786" 
d="M416 466l81 86l269 -269l-269 -269l-82 86l123 118h-464v130h464z" />
    <glyph glyph-name="arrowdown" unicode="&#x2193;" horiz-adv-x="769" 
d="M203 359l118 -122v463h130v-464l118 122l85 -81l-268 -268l-269 268z" />
    <glyph glyph-name="uni2194" unicode="&#x2194;" horiz-adv-x="940" 
d="M377 466l-122 -118h437l-122 118l81 86l269 -269l-269 -269l-82 86l122 118h-436l123 -118l-82 -86l-269 269l268 269z" />
    <glyph glyph-name="uni2195" unicode="&#x2195;" horiz-adv-x="849" 
d="M262 430l-86 82l270 269l268 -268l-86 -82l-118 122v-401l118 122l86 -82l-268 -268l-270 269l86 82l119 -123v401z" />
    <glyph glyph-name="uni2196" unicode="&#x2196;" horiz-adv-x="888" 
d="M593 445h-174l330 -330l-92 -92l-330 331v-176h-113v380h379v-113z" />
    <glyph glyph-name="uni2197" unicode="&#x2197;" horiz-adv-x="752" 
d="M210 445v113h380v-380h-113v176l-331 -331l-91 92l330 330h-175z" />
    <glyph glyph-name="uni2198" unicode="&#x2198;" horiz-adv-x="888" 
d="M305 137h175l-330 330l91 92l330 -331v176h114v-381h-380v114z" />
    <glyph glyph-name="uni2199" unicode="&#x2199;" horiz-adv-x="752" 
d="M552 137v-114h-380v381h114v-176l330 331l91 -92l-330 -330h175z" />
    <glyph glyph-name="partialdiff" unicode="&#x2202;" horiz-adv-x="856" 
d="M363 -11q-80 0 -141.5 12.5t-103.5 37.5t-64 62t-22 86q0 55 25.5 102t73.5 81.5t117.5 53.5t158.5 19q59 0 108 -11.5t84.5 -33.5t54.5 -53l2 -4q1 4 1 8q5 21 6 40q5 41 1 72t-17 54t-34.5 38.5t-52.5 22.5t-70 7q-49 0 -86.5 -7.5t-63.5 -22.5t-42 -39l-153 38
q26 40 60.5 70t78.5 49.5t98.5 29.5t120.5 10q63 0 115 -11.5t92 -33t67 -53t41 -72t14 -89.5q0 -71 -18 -139t-55 -126.5t-92.5 -103t-131.5 -69.5t-172 -25zM373 116q55 0 96 10.5t69.5 28t43 40t14.5 46.5q0 20 -11.5 35.5t-33.5 26t-54.5 16t-75.5 5.5q-54 0 -95 -9
t-69 -26t-41.5 -40t-13.5 -51q0 -19 9.5 -34.5t30.5 -26t53.5 -16t77.5 -5.5z" />
    <glyph glyph-name="increment" unicode="&#x2206;" horiz-adv-x="932" 
d="M685 0h-754l564 700h172l189 -700h-171zM653 127l-107 415l-327 -415h434z" />
    <glyph glyph-name="product" unicode="&#x220f;" horiz-adv-x="1012" 
d="M-1 -122l221 822h802l-221 -822h-169l185 689h-464l-185 -689h-169z" />
    <glyph glyph-name="summation" unicode="&#x2211;" horiz-adv-x="789" 
d="M-59 -150l34 125l359 315l-198 285l34 125h685l-36 -133h-487l200 -285l-339 -299h484l-36 -133h-700z" />
    <glyph glyph-name="minus" unicode="&#x2212;" horiz-adv-x="618" 
d="M569 296h-507l32 117h506z" />
    <glyph glyph-name="uni2215" unicode="&#x2215;" horiz-adv-x="837" 
d="M73 0h-146l879 700h146z" />
    <glyph glyph-name="radical" unicode="&#x221a;" horiz-adv-x="845" 
d="M272 0l-104 353l-119 -49l-19 99l255 107l94 -342l404 532h174l-542 -700h-143z" />
    <glyph glyph-name="infinity" unicode="&#x221e;" horiz-adv-x="956" 
d="M661 114q-37 0 -71 8.5t-63.5 29.5t-53.5 57l-8 12q-26 -26 -56 -48q-36 -27 -78.5 -43t-94.5 -16q-43 0 -75.5 12t-55 34t-34 52t-11.5 67q0 54 19.5 100t55.5 79.5t83.5 52t102.5 18.5q37 0 69 -8t60 -28.5t53 -56.5q5 -7 10 -15q28 27 59 50q36 26 78.5 42t94.5 16
q43 0 76 -12t56 -34t34.5 -52t11.5 -66q0 -54 -19 -100t-54.5 -80t-83 -52.5t-105.5 -18.5zM559 320q12 -28 26 -46q19 -24 42 -33t50 -9q30 0 54.5 14.5t39 39.5t14.5 57q0 17 -5 29.5t-14.5 21.5t-23 13.5t-29.5 4.5q-34 0 -63.5 -16.5t-57.5 -42.5q-16 -15 -33 -33z
M420 324q-13 29 -27 46q-18 23 -38 32.5t-46 9.5q-22 0 -42.5 -8.5t-36 -23.5t-24.5 -35.5t-9 -44.5q0 -22 9 -37t25.5 -23t38.5 -8q32 0 60.5 16t56.5 43q16 15 33 33z" />
    <glyph glyph-name="integral" unicode="&#x222b;" horiz-adv-x="532" 
d="M238 532q21 77 58.5 125t93.5 71t133 23q30 0 64.5 -4t58.5 -9l-36 -116q-19 5 -41.5 7.5t-43.5 2.5q-51 0 -82 -23t-45 -76l-139 -520q-23 -84 -61 -133t-94.5 -70t-134.5 -21q-27 0 -56 4t-49 9l27 116q19 -4 38.5 -6.5t38.5 -2.5q53 0 84 23t47 80z" />
    <glyph glyph-name="approxequal" unicode="&#x2248;" horiz-adv-x="618" 
d="M237 441q-27 0 -63.5 -9.5t-78.5 -31.5l32 122q46 21 82.5 30t65.5 9q35 0 63.5 -9.5t53.5 -22.5t50 -22.5t54 -9.5q26 0 61.5 10t80.5 31l-32 -122q-46 -22 -82 -30.5t-64 -8.5q-35 0 -63 9.5t-52.5 22.5t-50.5 22.5t-57 9.5zM177 211q-27 0 -63.5 -9.5t-78.5 -31.5
l32 122q46 21 82.5 30t65.5 9q35 0 63.5 -9.5t53.5 -22.5t50 -22.5t54 -9.5q26 0 61.5 10t80.5 31l-32 -122q-46 -22 -82 -30.5t-64 -8.5q-35 0 -63 9.5t-52.5 22.5t-50.5 22.5t-57 9.5z" />
    <glyph glyph-name="notequal" unicode="&#x2260;" horiz-adv-x="618" 
d="M197 102h-128l64 81h-101l31 116h162l88 111h-220l31 116h281l65 82h127l-65 -82h98l-31 -116h-159l-87 -111h216l-31 -116h-277z" />
    <glyph glyph-name="lessequal" unicode="&#x2264;" horiz-adv-x="617" 
d="M79 347l31 116l562 207l-40 -148l-365 -122l300 -125l-37 -135zM494 1h-507l32 117h506z" />
    <glyph glyph-name="greaterequal" unicode="&#x2265;" horiz-adv-x="617" 
d="M619 463l-31 -116l-562 -207l41 152l362 122l-298 123l37 133zM495 1h-507l32 117h506z" />
    <glyph glyph-name="wave" unicode="&#x2307;" horiz-adv-x="1023" 
d="M950 0q-64 0 -105.5 24.5t-65.5 66.5t-37.5 94t-21 107.5t-14 108t-18 94t-33 66.5t-59.5 25t-73 -25t-68.5 -66.5t-67.5 -94t-71 -108t-77.5 -107.5t-88 -94t-102.5 -66.5t-121 -24.5l33 120q38 0 72.5 25t67.5 67t66 95t68.5 108.5t75.5 108.5t86.5 95t102 67t121.5 25
q64 0 105.5 -25t66 -67t38.5 -95t21.5 -108.5t15 -108.5t19.5 -95t35 -67t61 -25v0q2 0 -1 -18q-3 -19 -10 -41q-6 -23 -12.5 -42t-8.5 -19z" />
    <glyph glyph-name="lozenge" unicode="&#x25ca;" 
d="M434 0h-178l-203 350l391 350h178l203 -350zM237 338l130 -219l273 249l-131 208z" />
    <glyph glyph-name="commaaccent" unicode="&#xf6c3;" horiz-adv-x="500" 
d="M-49 -205l121 145h184l-181 -145h-124z" />
    <glyph glyph-name="kgreenlandic.case" horiz-adv-x="1116" 
d="M32 0l188 700h166l-80 -298l458 298h242l-495 -322l335 -378h-216l-259 286l-116 -75l-57 -211h-166zM1242 700l-135 -156h-195l205 156h125z" />
    <glyph glyph-name="napostrophe.case" horiz-adv-x="1216" 
d="M244 0l188 700h165l333 -524l140 524h155l-188 -700h-165l-332 523l-141 -523h-155zM78 555l121 145h184l-181 -145h-124z" />
    <glyph glyph-name="i.dot" horiz-adv-x="339" 
d="M17 0l147 548h159l-146 -548h-160zM181 615l36 135h162l-36 -135h-162z" />
    <glyph glyph-name="caron.alt" horiz-adv-x="500" 
d="M352 531l59 219h159l-112 -219h-106z" />
    <glyph glyph-name="revcommaaccent" horiz-adv-x="500" 
d="M570 764l-135 -156h-195l205 156h125z" />
    <glyph glyph-name="zero.tlf" horiz-adv-x="885" 
d="M384 -11q-64 0 -116.5 11t-92.5 33t-67.5 54.5t-41 74t-13.5 92.5q0 69 21 136t61.5 125t100 102t136 69t168.5 25q65 0 118 -11.5t93.5 -34t68 -55t41 -75t13.5 -94.5q0 -67 -21.5 -133t-62.5 -123.5t-100.5 -101.5t-136 -69t-169.5 -25zM398 122q58 0 106.5 17
t85.5 46.5t62.5 69.5t39 86.5t13.5 95.5q0 27 -7 49.5t-20.5 39.5t-34.5 28.5t-50 17.5t-66 6q-57 0 -104.5 -17t-84.5 -47t-63 -69.5t-39.5 -86t-13.5 -95.5q0 -27 6.5 -49.5t20 -39.5t34.5 -28.5t49.5 -17.5t65.5 -6z" />
    <glyph glyph-name="one.tlf" horiz-adv-x="886" 
d="M22 0l35 133h294l114 425l-285 -48l37 137l308 53h147l-152 -567h268l-36 -133h-730z" />
    <glyph glyph-name="two.tlf" horiz-adv-x="886" 
d="M57 132l394 189q58 27 97.5 48.5t65 39t39 33t19 30t5.5 28.5q0 26 -16 43.5t-49.5 27t-85.5 9.5q-62 0 -108 -14t-76.5 -42t-46.5 -71l-162 28q30 73 85.5 124.5t136.5 78.5t189 27q102 0 170.5 -23.5t102.5 -66.5t34 -102q0 -31 -9 -59t-31.5 -55.5t-61.5 -56.5
t-99 -61.5t-145 -70.5l-167 -83h426l-35 -133h-707z" />
    <glyph glyph-name="three.tlf" horiz-adv-x="886" 
d="M680 355h1q38 -10 64 -29.5t39 -47t13 -64.5q0 -48 -25.5 -89t-77 -71.5t-128.5 -47.5t-179 -17q-87 0 -152.5 12.5t-109.5 38t-65 65.5t-18 95l168 31q-2 -29 7.5 -51t31.5 -36.5t58.5 -22t87.5 -7.5q62 0 105 8t69 22t38 33t12 40q0 24 -11 40.5t-36 24.5t-66 8h-182
l34 126h181q38 0 66.5 6.5t48 19t29 30t9.5 38.5q0 18 -8 32.5t-27 24t-50.5 14.5t-78.5 5q-52 0 -91.5 -7t-67.5 -21t-47.5 -35t-31.5 -50l-155 32q23 52 58.5 90.5t86 64.5t117 38.5t149.5 12.5q80 0 139 -11t99.5 -33t60.5 -54.5t20 -75.5q0 -41 -17.5 -74.5t-53 -59
t-87.5 -41.5q-13 -4 -27 -7z" />
    <glyph glyph-name="four.tlf" horiz-adv-x="886" 
d="M649 0h-162l34 128h-518l33 122l633 450h168l-120 -446h132l-34 -126h-132zM555 254l74 277l-394 -277h320z" />
    <glyph glyph-name="five.tlf" horiz-adv-x="887" 
d="M390 -11q-74 0 -134 11.5t-104.5 34t-71 56t-33.5 77.5l171 36q1 -29 22 -48t61 -28t97 -9q60 0 103 10.5t71 28.5t41.5 42t13.5 51q0 23 -8.5 40t-28 29t-52 18t-80.5 6q-36 0 -67.5 -3.5t-58 -10t-47 -17t-36.5 -24.5l-142 16l149 395h612l-34 -125h-472l-62 -163
q29 16 63 27t73.5 16t85.5 5q71 0 122.5 -12.5t85.5 -36.5t50.5 -59.5t16.5 -82.5q0 -62 -25.5 -113t-76.5 -88.5t-127 -58t-178 -20.5z" />
    <glyph glyph-name="six.tlf" horiz-adv-x="887" 
d="M68 245q0 60 14.5 117t43.5 109t71 96t98 76t125 50t150 18q98 0 167 -19.5t108 -59t44 -98.5l-166 -34q-2 28 -22 46t-56.5 27.5t-92.5 9.5q-52 0 -95.5 -10.5t-78.5 -31.5t-61.5 -52t-44.5 -71q-12 -27 -21 -58l10 8q49 35 118.5 54.5t152.5 19.5q73 0 128 -12
t92 -35.5t55 -57.5t18 -79q0 -53 -24.5 -101t-75.5 -86t-129.5 -60t-186.5 -22q-71 0 -126.5 11t-96 31.5t-66.5 51.5t-39 72t-13 90zM422 117q59 0 101.5 9.5t70.5 26.5t41.5 39t13.5 46q0 21 -8.5 36.5t-27.5 26.5t-52 16.5t-81 5.5q-60 0 -104.5 -9.5t-73.5 -26
t-43.5 -38t-14.5 -46.5q0 -21 9 -37t30 -27t55 -16.5t84 -5.5z" />
    <glyph glyph-name="seven.tlf" horiz-adv-x="886" 
d="M860 569l-522 -569h-200l533 567h-493l37 133h681z" />
    <glyph glyph-name="eight.tlf" horiz-adv-x="886" 
d="M378 -11q-89 0 -154.5 12.5t-108.5 35.5t-64.5 56.5t-21.5 75.5q0 50 29 89.5t84 67.5q44 23 103 37q-10 4 -18 8q-42 20 -63.5 51t-21.5 71q0 46 26 85.5t77.5 69.5t127 46.5t174.5 16.5q78 0 138 -11t101 -32.5t62 -54t21 -75.5q0 -37 -17.5 -68.5t-51.5 -57.5t-83 -44
q-16 -6 -32 -11q20 -6 38 -14q45 -21 67.5 -52.5t22.5 -73.5q0 -49 -26 -90.5t-79.5 -72.5t-135.5 -48t-194 -17zM400 110q64 0 109 8t73 22t41.5 33.5t13.5 41.5q0 20 -10 34.5t-32 24.5t-58.5 15t-89.5 5q-66 0 -112 -7.5t-74.5 -22t-41.5 -34t-13 -43.5q0 -19 11 -33.5
t34.5 -24t60.5 -14.5t88 -5zM693 517q0 18 -9.5 31.5t-30 22.5t-52 14t-75.5 5q-57 0 -98 -7.5t-66.5 -21t-38 -31.5t-12.5 -39q0 -18 10 -31t30.5 -22t52 -13.5t75.5 -4.5q58 0 98.5 7.5t66.5 21t37.5 30.5t11.5 38z" />
    <glyph glyph-name="nine.tlf" horiz-adv-x="887" 
d="M860 456q0 -60 -15 -118.5t-44.5 -110.5t-72.5 -95.5t-99 -75.5t-124.5 -49.5t-148.5 -17.5q-97 0 -165.5 19.5t-106.5 59.5t-43 98l166 33q3 -27 23 -45t55.5 -27.5t83.5 -9.5q55 0 100 11t81 32.5t63.5 52.5t45.5 71q12 27 21 57q-29 -23 -66 -41q-46 -20 -103.5 -31
t-124.5 -11q-69 0 -121.5 12t-88.5 35.5t-54 58t-18 78.5q0 53 24 101t74.5 86t129 60t187.5 22q71 0 126.5 -11t96 -31.5t66.5 -51.5t39 -71t13 -90zM507 583q-59 0 -102 -9.5t-71 -26.5t-41 -39t-13 -47q0 -21 8.5 -36.5t28 -26.5t52.5 -16.5t82 -5.5q57 0 100.5 9.5
t73 26t44.5 38.5t15 48q0 20 -10 36t-31.5 27t-55 16.5t-80.5 5.5z" />
    <glyph glyph-name="zero.posf" horiz-adv-x="911" 
d="M391 -11q-64 0 -117 10t-94.5 31t-70 50t-43.5 67t-15 84q0 63 21.5 119.5t63 104.5t100.5 83t134.5 54t163.5 19q65 0 118.5 -10.5t95 -30.5t70 -49.5t43 -68t14.5 -84.5q0 -59 -20 -115.5t-59.5 -104t-98 -83.5t-135.5 -56t-171 -20zM415 122q53 0 98 13.5t80 36.5
t59.5 53t37 63.5t12.5 67.5q0 24 -7 44t-21.5 34.5t-37 24t-53.5 14.5t-71 5q-54 0 -99.5 -13t-80.5 -36.5t-59 -53.5t-36.5 -63.5t-12.5 -68.5q0 -25 7 -44.5t22 -34t37.5 -24t53.5 -14t71 -4.5z" />
    <glyph glyph-name="one.posf" horiz-adv-x="771" 
d="M-25 0l35 133h287l87 325l-278 -48l37 137l301 53h147l-126 -467h245l-35 -133h-700z" />
    <glyph glyph-name="two.posf" horiz-adv-x="802" 
d="M17 132l404 140q61 23 99.5 41.5t59.5 34.5t29 31.5t8 32.5q0 16 -8 29.5t-25.5 22.5t-46.5 14t-73 5q-48 0 -85.5 -8t-66 -24.5t-48 -40.5t-31.5 -57l-167 28q23 56 58.5 98.5t85.5 72t117.5 44.5t155.5 15q103 0 171.5 -22.5t102.5 -62.5t34 -93q0 -30 -9.5 -58
t-31.5 -54.5t-61.5 -52t-99.5 -50.5t-146 -50l-134 -40h411l-34 -128h-704z" />
    <glyph glyph-name="three.posf" horiz-adv-x="844" 
d="M624 245q37 -10 63 -29q28 -19 42.5 -47.5t14.5 -66.5q0 -48 -24.5 -90t-74.5 -74t-128 -50t-184 -18q-87 0 -153.5 12.5t-110.5 39t-65 67t-18 95.5l169 31q-3 -30 6.5 -52.5t32 -37.5t60 -22.5t89.5 -7.5q58 0 99.5 8t68 22.5t39 35t12.5 45.5q0 19 -6.5 33t-20 23
t-34.5 14t-51 5h-186l34 125h181q38 0 68 6.5t51.5 19.5t32.5 31.5t11 41.5q0 20 -9.5 35t-30 25t-51.5 15.5t-74 5.5q-47 0 -85 -7t-67.5 -21.5t-49.5 -35.5t-33 -49l-158 32q24 50 61.5 88t88.5 64.5t116.5 40t145.5 13.5q79 0 138 -11t99.5 -33.5t61 -56.5t20.5 -79
q0 -41 -17.5 -75t-52 -60t-86.5 -42q-17 -5 -35 -9z" />
    <glyph glyph-name="four.posf" horiz-adv-x="856" 
d="M598 -120h-162l32 120h-516l32 122l640 478h167l-126 -473h133l-35 -127h-132zM502 127l80 301l-404 -301h324z" />
    <glyph glyph-name="five.posf" horiz-adv-x="829" 
d="M329 -130q-77 0 -138 10t-104 32t-67.5 56t-30.5 81l172 35q1 -28 21.5 -47t61 -28t98.5 -9q59 0 101.5 10.5t70 28.5t40.5 43.5t13 55.5q0 21 -9.5 39t-29.5 30.5t-52 19.5t-77 7q-38 0 -69 -3t-55.5 -10t-44.5 -17.5t-36 -25.5l-143 17l151 405h613l-34 -125h-472
l-65 -173q28 16 60 26q35 12 75.5 17t84.5 5q68 0 119.5 -13.5t87 -39t53 -61t17.5 -79.5q0 -61 -26 -113.5t-77 -91.5t-128.5 -60.5t-180.5 -21.5z" />
    <glyph glyph-name="six.posf" horiz-adv-x="878" 
d="M63 245q0 60 14.5 117t43.5 109t71 96t98 76t125 50t150 18q98 0 167 -19.5t108 -59t44 -98.5l-166 -34q-2 28 -22 46t-56.5 27.5t-92.5 9.5q-52 0 -95.5 -10.5t-78.5 -31.5t-61.5 -52t-44.5 -71q-12 -27 -21 -58l10 8q49 35 118.5 54.5t152.5 19.5q73 0 128 -12
t92 -35.5t55 -57.5t18 -79q0 -53 -24.5 -101t-75.5 -86t-129.5 -60t-186.5 -22q-71 0 -126.5 11t-96 31.5t-66.5 51.5t-39 72t-13 90zM417 117q59 0 101.5 9.5t70.5 26.5t41.5 39t13.5 46q0 21 -8.5 36.5t-27.5 26.5t-52 16.5t-81 5.5q-60 0 -104.5 -9.5t-73.5 -26
t-43.5 -38t-14.5 -46.5q0 -21 9 -37t30 -27t55 -16.5t84 -5.5z" />
    <glyph glyph-name="seven.posf" horiz-adv-x="726" 
d="M756 469l-541 -589h-197l547 587h-491l36 133h681z" />
    <glyph glyph-name="eight.posf" horiz-adv-x="873" 
d="M372 -11q-89 0 -154.5 12.5t-108.5 35.5t-64.5 56.5t-21.5 75.5q0 50 29 89.5t84 67.5q44 23 103 37q-10 4 -18 8q-42 20 -63.5 51t-21.5 71q0 46 26 85.5t77.5 69.5t127 46.5t174.5 16.5q78 0 138 -11t101 -32.5t62 -54t21 -75.5q0 -37 -17.5 -68.5t-51.5 -57.5t-83 -44
q-16 -6 -32 -11q20 -6 38 -14q45 -21 67.5 -52.5t22.5 -73.5q0 -49 -26 -90.5t-79.5 -72.5t-135.5 -48t-194 -17zM394 110q64 0 109 8t73 22t41.5 33.5t13.5 41.5q0 20 -10 34.5t-32 24.5t-58.5 15t-89.5 5q-66 0 -112 -7.5t-74.5 -22t-41.5 -34t-13 -43.5q0 -19 11 -33.5
t34.5 -24t60.5 -14.5t88 -5zM687 517q0 18 -9.5 31.5t-30 22.5t-52 14t-75.5 5q-57 0 -98 -7.5t-66.5 -21t-38 -31.5t-12.5 -39q0 -18 10 -31t30.5 -22t52 -13.5t75.5 -4.5q58 0 98.5 7.5t66.5 21t37.5 30.5t11.5 38z" />
    <glyph glyph-name="nine.posf" horiz-adv-x="882" 
d="M830 343q0 -62 -15 -120.5t-44.5 -111.5t-72.5 -97t-99 -76t-124.5 -50t-148.5 -18q-101 0 -172 19.5t-109 59t-42 98.5l167 33q2 -27 21 -45t56 -27.5t91 -9.5q51 0 95.5 12t81.5 34.5t65.5 56t48.5 75.5q11 25 19 54q-3 -3 -6 -5q-49 -37 -119.5 -57t-157.5 -20
q-74 0 -129 13t-91.5 37.5t-54.5 60t-18 81.5q0 53 25 101.5t76.5 86.5t130 60.5t187.5 22.5q70 0 125 -12t95.5 -34.5t66.5 -55.5t39 -74.5t13 -91.5zM476 483q-61 0 -104 -10.5t-70.5 -28.5t-40.5 -40.5t-13 -47.5q0 -21 8.5 -37.5t28.5 -28.5t53 -18t82 -6q58 0 101.5 10
t73 27t44.5 40.5t15 49.5q0 21 -10.5 37.5t-32 28t-55 18t-80.5 6.5z" />
    <glyph glyph-name="zero.numerator" horiz-adv-x="505" 
d="M283 345q-46 0 -81 9.5t-58.5 27.5t-36 43.5t-12.5 57.5q0 45 18.5 85.5t53 71t83.5 48t110 17.5q46 0 81 -9.5t58 -27.5t35 -43.5t12 -56.5q0 -44 -18.5 -84t-53 -71.5t-83 -49.5t-108.5 -18zM297 430q31 0 55.5 11t42 29t26.5 41.5t9 47.5q0 15 -5.5 26.5t-16.5 19
t-26.5 11.5t-36.5 4q-32 0 -57 -11t-42 -29.5t-26 -41.5t-9 -47q0 -15 5.5 -26.5t16.5 -19t27 -11.5t37 -4z" />
    <glyph glyph-name="one.numerator" horiz-adv-x="423" 
d="M55 350l22 85h136l48 178l-132 -21l22 83l152 25h93l-72 -265h118l-23 -85h-364z" />
    <glyph glyph-name="two.numerator" horiz-adv-x="466" 
d="M78 431l243 93q31 14 48 24t24 19.5t7 19.5q0 12 -7.5 20t-23 12.5t-41.5 4.5q-31 0 -53 -6t-35 -18t-21 -31l-106 16q17 39 46 65.5t72.5 40.5t103.5 14q59 0 98.5 -12.5t60.5 -35t21 -53.5q0 -19 -7 -37t-26.5 -36t-56.5 -37t-98 -40l-63 -22h206l-21 -82h-392z" />
    <glyph glyph-name="three.numerator" horiz-adv-x="467" 
d="M427 529q17 -5 28 -13q29 -21 29 -53q0 -34 -23.5 -60.5t-72.5 -42t-125 -15.5q-63 0 -106 11.5t-64.5 35t-19.5 58.5l103 16q-2 -15 8.5 -25t32 -15t54.5 -5q39 0 61 5.5t31.5 15t9.5 20.5q0 14 -11 21t-33 7h-105l20 73h105q18 0 30.5 4.5t19.5 12t7 17.5t-7.5 17
t-24 11t-45.5 4q-31 0 -53.5 -4.5t-37 -14t-21.5 -25.5l-99 16q14 34 44 56.5t74.5 34.5t104.5 12q59 0 98.5 -10.5t58.5 -30.5t19 -48q0 -25 -16.5 -45.5t-48.5 -33.5q-11 -4 -25 -7z" />
    <glyph glyph-name="four.numerator" horiz-adv-x="485" 
d="M415 350h-104l16 59h-265l18 68l334 224h95l-58 -216h66l-20 -76h-66zM347 485l31 114l-168 -114h137z" />
    <glyph glyph-name="five.numerator" horiz-adv-x="454" 
d="M257 345q-59 0 -99 9.5t-61 30.5t-26 52l108 21q2 -14 11.5 -22.5t28.5 -12.5t47 -4q35 0 58 7.5t34 20t11 26.5q0 13 -7 21.5t-24.5 13t-46.5 4.5q-23 0 -41.5 -2.5t-33 -7.5t-26.5 -14l-87 12l75 200h335l-20 -75h-249l-24 -67q12 6 26 10q39 13 86 13q48 0 80.5 -11.5
t49 -33t16.5 -50.5q0 -41 -25.5 -73t-74.5 -50t-121 -18z" />
    <glyph glyph-name="six.numerator" horiz-adv-x="476" 
d="M94 479q0 47 17.5 88t51 72t80.5 48.5t107 17.5q49 0 87.5 -9.5t63 -27.5t32.5 -44l-99 -29q-7 17 -28.5 26t-60.5 9q-40 0 -69 -11.5t-47 -35.5q-14 -18 -22 -45q11 7 23 12q24 12 54 18t65 6q54 0 87.5 -12t49.5 -33t16 -48q0 -37 -25 -68t-76 -49.5t-129 -18.5
q-47 0 -80.5 9t-55.5 27t-32 42.5t-10 55.5zM281 420q38 0 62 7t35.5 18.5t11.5 25.5q0 12 -7.5 20.5t-24.5 12.5t-47 4q-33 0 -57.5 -7t-37.5 -18t-13 -25q0 -13 8 -21t26 -12.5t44 -4.5z" />
    <glyph glyph-name="seven.numerator" horiz-adv-x="416" 
d="M488 635l-255 -285h-119l247 268h-244l22 82h367z" />
    <glyph glyph-name="eight.numerator" horiz-adv-x="490" 
d="M275 345q-67 0 -111 10.5t-66 31.5t-22 50q0 33 26.5 58t78.5 39h1l-1 1q-23 10 -35.5 26.5t-12.5 37.5q0 30 24.5 54t73 38t119.5 14q64 0 104 -11.5t59.5 -31t19.5 -45.5q0 -23 -13.5 -42t-40.5 -33q-15 -7 -33 -13q24 -9 39 -22q23 -19 23 -49q0 -29 -25 -55
t-76.5 -42t-131.5 -16zM283 414q40 0 64 6.5t35 17t11 22.5q0 11 -9 18.5t-28 12t-52 4.5q-41 0 -65 -6.5t-35 -16.5t-11 -23q0 -11 8.5 -19t28.5 -12t53 -4zM342 635q-36 0 -57.5 -5.5t-31.5 -14.5t-10 -20q0 -10 8.5 -17t26.5 -10.5t44 -3.5q36 0 57.5 5.5t31.5 15
t10 20.5q0 16 -19.5 23t-59.5 7z" />
    <glyph glyph-name="nine.numerator" horiz-adv-x="477" 
d="M517 563q0 -43 -16.5 -82.5t-48.5 -70t-79 -48t-107 -17.5q-71 0 -122.5 21t-63.5 60l99 29q8 -17 28.5 -26t59.5 -9q37 0 66.5 11.5t48.5 35.5q15 19 23 46q-12 -8 -25 -14q-24 -11 -55 -17t-65 -6q-52 0 -85 12.5t-48.5 34t-15.5 48.5q0 36 24 66.5t72.5 49t122.5 18.5
q50 0 86 -10t58 -29t32.5 -45t10.5 -58zM329 630q-36 0 -60 -7.5t-35 -19t-11 -25.5q0 -12 7 -20t24 -12t44 -4q32 0 57 6.5t39 18t14 26.5q0 12 -8.5 20t-26 12.5t-44.5 4.5z" />
    <glyph glyph-name="zero.denominator" horiz-adv-x="505" 
d="M190 -5q-46 0 -81 9.5t-58.5 27.5t-36 43.5t-12.5 57.5q0 45 18.5 85.5t53 71t83.5 48t110 17.5q46 0 81 -9.5t58 -27.5t35 -43.5t12 -56.5q0 -44 -18.5 -84t-53 -71.5t-83 -49.5t-108.5 -18zM204 80q31 0 55.5 11t42 29t26.5 41.5t9 47.5q0 15 -5.5 26.5t-16.5 19
t-26.5 11.5t-36.5 4q-32 0 -57 -11t-42 -29.5t-26 -41.5t-9 -47q0 -15 5.5 -26.5t16.5 -19t27 -11.5t37 -4z" />
    <glyph glyph-name="one.denominator" horiz-adv-x="423" 
d="M-38 0l22 85h136l48 178l-132 -21l22 83l152 25h93l-72 -265h118l-23 -85h-364z" />
    <glyph glyph-name="two.denominator" horiz-adv-x="466" 
d="M-15 81l243 93q31 14 48 24t24 19.5t7 19.5q0 12 -7.5 20t-23 12.5t-41.5 4.5q-31 0 -53 -6t-35 -18t-21 -31l-106 16q17 39 46 65.5t72.5 40.5t103.5 14q59 0 98.5 -12.5t60.5 -35t21 -53.5q0 -19 -7 -37t-26.5 -36t-56.5 -37t-98 -40l-63 -22h206l-21 -82h-392z" />
    <glyph glyph-name="three.denominator" horiz-adv-x="467" 
d="M334 179q17 -5 28 -13q29 -21 29 -53q0 -34 -23.5 -60.5t-72.5 -42t-125 -15.5q-63 0 -106 11.5t-64.5 35t-19.5 58.5l103 16q-2 -15 8.5 -25t32 -15t54.5 -5q39 0 61 5.5t31.5 15t9.5 20.5q0 14 -11 21t-33 7h-105l20 73h105q18 0 30.5 4.5t19.5 12t7 17.5t-7.5 17
t-24 11t-45.5 4q-31 0 -53.5 -4.5t-37 -14t-21.5 -25.5l-99 16q14 34 44 56.5t74.5 34.5t104.5 12q59 0 98.5 -10.5t58.5 -30.5t19 -48q0 -25 -16.5 -45.5t-48.5 -33.5q-11 -4 -25 -7z" />
    <glyph glyph-name="four.denominator" horiz-adv-x="485" 
d="M322 0h-104l16 59h-265l18 68l334 224h95l-58 -216h66l-20 -76h-66zM254 135l31 114l-168 -114h137z" />
    <glyph glyph-name="five.denominator" horiz-adv-x="454" 
d="M164 -5q-59 0 -99 9.5t-61 30.5t-26 52l108 21q2 -14 11.5 -22.5t28.5 -12.5t47 -4q35 0 58 7.5t34 20t11 26.5q0 13 -7 21.5t-24.5 13t-46.5 4.5q-23 0 -41.5 -2.5t-33 -7.5t-26.5 -14l-87 12l75 200h335l-20 -75h-249l-24 -67q12 6 26 10q39 13 86 13q48 0 80.5 -11.5
t49 -33t16.5 -50.5q0 -41 -25.5 -73t-74.5 -50t-121 -18z" />
    </font>
</defs>
</svg>
