<?xml version="1.0" standalone="no"?>
<!DOCTYPE svg PUBLIC "-//W3C//DTD SVG 1.1//EN" "http://www.w3.org/Graphics/SVG/1.1/DTD/svg11.dtd" >
<svg xmlns="http://www.w3.org/2000/svg" xmlns:xlink="http://www.w3.org/1999/xlink" version="1.1">
<metadata>
Created by FontForge 20170731 at Fri Mar 31 06:32:59 2023
 By Aleksey,,,
Copyright 2022 Black Foundry
</metadata>
<defs>
<font id="TRYGrtsk-Tera" horiz-adv-x="500" >
  <font-face 
    font-family="TRY Grtsk Tera"
    font-weight="400"
    font-stretch="expanded"
    units-per-em="1000"
    panose-1="0 0 0 0 0 0 0 0 0 0"
    ascent="800"
    descent="-200"
    x-height="544"
    cap-height="700"
    bbox="-128 -214 1511 972"
    underline-thickness="20"
    underline-position="-130"
    unicode-range="U+000D-F6C3"
  />
<missing-glyph horiz-adv-x="1022" 
d="M126 0v700h769v-700h-769zM233 614v-529h556v529h-556z" />
    <glyph glyph-name=".notdef" horiz-adv-x="1022" 
d="M126 0v700h769v-700h-769zM233 614v-529h556v529h-556z" />
    <glyph glyph-name=".null" horiz-adv-x="0" 
 />
    <glyph glyph-name=".null" horiz-adv-x="0" 
 />
    <glyph glyph-name="nonmarkingreturn" horiz-adv-x="333" 
 />
    <glyph glyph-name="CR" unicode="&#xd;" horiz-adv-x="0" 
 />
    <glyph glyph-name="space" unicode=" " horiz-adv-x="300" 
 />
    <glyph glyph-name="exclam" unicode="!" horiz-adv-x="357" 
d="M225 190h-93l-7 510h107zM123 0v105h111v-105h-111z" />
    <glyph glyph-name="quotedbl" unicode="&#x22;" horiz-adv-x="533" 
d="M106 420l-5 280h99l-5 -280h-89zM337 420l-5 280h99l-5 -280h-89z" />
    <glyph glyph-name="numbersign" unicode="#" horiz-adv-x="989" 
d="M135 0l53 178h-154v73h176l59 197h-179v73h201l53 179h104l-54 -179h302l53 179h104l-54 -179h155v-73h-177l-59 -197h179v-73h-201l-53 -178h-103l53 178h-302l-53 -178h-103zM313 251h302l59 197h-302z" />
    <glyph glyph-name="dollar" unicode="$" horiz-adv-x="886" 
d="M478 -80h-71v71q-61 2 -112 12q-68 14 -118.5 41.5t-81 69.5t-41.5 99l108 17q10 -53 46.5 -88.5t97.5 -52.5q45 -13 101 -17v241l-64 5q-63 5 -112 18.5t-83 35.5t-51.5 54.5t-17.5 77.5q0 47 22.5 85t67 65t110.5 42q57 12 128 14v70h71v-71q85 -4 146 -23
q79 -24 124.5 -70.5t59.5 -115.5l-107 -16q-16 71 -82 108q-51 29 -141 35v-229l82 -6q88 -8 147 -29.5t88.5 -60.5t29.5 -100q0 -52 -24 -91.5t-71.5 -66.5t-117.5 -40q-59 -12 -134 -14v-70zM478 71q52 2 93 8q50 9 82.5 24.5t48 38t15.5 50.5q0 37 -19.5 59.5t-62.5 34.5
t-111 19l-46 3v-237zM407 403v225q-48 -1 -86 -8q-45 -8 -75 -23t-45 -36t-15 -47q0 -36 22 -58t64 -33t106 -18z" />
    <glyph glyph-name="percent" unicode="%" horiz-adv-x="983" 
d="M788 700h112l-706 -700h-112zM244 710q58 0 100.5 -20t65 -55.5t22.5 -81.5t-22.5 -81t-65 -55.5t-100.5 -20.5t-100.5 20.5t-65.5 55.5t-23 81t23 81.5t65.5 55.5t100.5 20zM244 465q33 0 56.5 11t35.5 31t12 46q0 27 -12 46.5t-35.5 30.5t-56.5 11q-34 0 -57 -11
t-35.5 -30.5t-12.5 -46.5q0 -26 12.5 -46t35.5 -31t57 -11zM739 303q59 0 101 -20.5t65 -55.5t23 -81t-23 -81t-65 -55t-101 -20q-58 0 -100.5 20t-65.5 55t-23 81t23 81t65.5 55.5t100.5 20.5zM739 58q33 0 56.5 11t36 30.5t12.5 46.5t-12.5 46.5t-35.5 30.5t-57 11
q-33 0 -56 -11t-35.5 -30.5t-12.5 -46.5t12.5 -46.5t36 -30.5t55.5 -11z" />
    <glyph glyph-name="ampersand" unicode="&#x26;" horiz-adv-x="934" 
d="M374 -10q-83 0 -143 14t-98.5 39.5t-57 60t-18.5 75.5q0 31 9.5 57.5t31 49t56 43t85.5 38.5l40 11q-20 15 -35 29q-27 25 -43 46.5t-22 42.5t-6 43q0 51 29 89.5t83.5 60t133.5 21.5q77 0 131 -21t82.5 -59t28.5 -88q0 -29 -9 -53t-30.5 -45.5t-57 -41t-87.5 -38.5
l-24 -8l221 -156q10 14 18 30q29 52 41 120l101 -13q-12 -80 -49 -144q-15 -25 -33 -48l207 -145h-147l-121 85l-2 -2q-59 -45 -138.5 -69t-176.5 -24zM353 324l-48 -15q-42 -16 -69 -30.5t-42 -29t-21.5 -30.5t-6.5 -36q0 -25 12.5 -46.5t38.5 -36.5t66.5 -23t96.5 -8
q75 0 135 18q58 18 100 51zM378 409l37 13q44 16 72.5 30t44.5 28t22 28.5t6 32.5q0 28 -16 48t-48 31t-77 11q-46 0 -78 -12t-48.5 -32.5t-16.5 -47.5q0 -15 4 -28.5t14.5 -27.5t29.5 -31t48 -39z" />
    <glyph glyph-name="quotesingle" unicode="'" horiz-adv-x="301" 
d="M106 420l-5 280h99l-5 -280h-89z" />
    <glyph glyph-name="parenleft" unicode="(" horiz-adv-x="405" 
d="M262 -150q-54 70 -90 140t-53 141t-17 144t17 144t53 141t90 140h97q-41 -56 -70.5 -109.5t-48.5 -105.5t-28.5 -104t-9.5 -106q0 -53 9.5 -105.5t28.5 -104.5t48.5 -105t70.5 -110h-97z" />
    <glyph glyph-name="parenright" unicode=")" horiz-adv-x="405" 
d="M143 700q55 -70 90.5 -140t52.5 -141t17 -144t-17 -144t-52.5 -141t-90.5 -140h-97q40 56 70 109t49 105t28 104.5t9 106.5q0 53 -9 105t-28 104t-49 105.5t-70 110.5h97z" />
    <glyph glyph-name="asterisk" unicode="*" horiz-adv-x="506" 
d="M202 484l-163 38l24 76l160 -59l-11 162h81l-10 -162l159 59l24 -76l-163 -38l111 -124l-63 -48l-98 141l-99 -141l-63 48z" />
    <glyph glyph-name="plus" unicode="+" horiz-adv-x="589" 
d="M336 561v-171h195v-75h-195v-171h-84v171h-195v75h195v171h84z" />
    <glyph glyph-name="comma" unicode="," horiz-adv-x="305" 
d="M97 109h111v-122q0 -56 -14 -89.5t-45 -48.5t-83 -16l-5 58q34 0 51.5 7.5t24.5 27t7 53.5v21h-47v109z" />
    <glyph glyph-name="hyphen" unicode="-" horiz-adv-x="497" 
d="M53 244v89h389v-89h-389z" />
    <glyph glyph-name="period" unicode="." horiz-adv-x="305" 
d="M97 0v109h111v-109h-111z" />
    <glyph glyph-name="slash" unicode="/" horiz-adv-x="468" 
d="M29 -150l286 850h106l-286 -850h-106z" />
    <glyph glyph-name="zero" unicode="0" horiz-adv-x="916" 
d="M457 -10q-73 0 -134 15.5t-109 46t-81 74t-50 100.5t-17 124t17 123.5t50 100.5t80.5 74.5t109 46t134.5 15.5q74 0 135.5 -15.5t109.5 -46t80.5 -74.5t49.5 -100.5t17 -123.5t-17 -124t-50 -100.5t-80.5 -74t-109 -46t-135.5 -15.5zM457 74q54 0 99 12t79.5 35
t57.5 56.5t35 76.5t12 96q0 52 -12 95.5t-35 76.5t-57.5 56t-79.5 35t-99 12t-98 -12t-78.5 -35t-57.5 -56t-35 -76.5t-12 -95.5q0 -53 12 -96t35 -76.5t57.5 -56.5t78.5 -35t98 -12z" />
    <glyph glyph-name="one" unicode="1" horiz-adv-x="753" 
d="M54 0v85h299v524l-287 -52v88l299 55h94v-615h264v-85h-669z" />
    <glyph glyph-name="two" unicode="2" horiz-adv-x="790" 
d="M66 83l384 225q40 24 68.5 44.5t47.5 38.5t30 35.5t15.5 34.5t4.5 37q0 40 -25 69t-73.5 44t-121.5 15q-72 0 -122.5 -17.5t-78.5 -51.5t-33 -83l-105 18q10 69 52.5 118t115 74.5t172.5 25.5q106 0 179 -25.5t112 -72.5t39 -111q0 -29 -6.5 -54.5t-21 -50t-41 -49
t-66 -51t-94.5 -57.5l-260 -154h507v-85h-679v83z" />
    <glyph glyph-name="three" unicode="3" horiz-adv-x="828" 
d="M609 358q7 -1 15 -3q45 -12 76 -34.5t47 -55t16 -74.5q0 -48 -22 -86t-65.5 -63.5t-109 -38.5t-153.5 -13q-82 0 -145.5 12t-107.5 36.5t-71 62t-38 87.5l107 21q7 -34 25 -60t49 -43.5t76.5 -26.5t105.5 -9t105 8t74 24.5t43 40t14 54.5q0 37 -20 62.5t-59.5 39.5
t-97.5 14h-193v81h192q40 0 71 8t52.5 23t32 36t10.5 49t-14.5 50.5t-43 37.5t-70.5 23t-99 8q-55 0 -97.5 -8.5t-72.5 -26t-48 -42.5t-25 -58l-102 23q11 46 38 82t70.5 61t103 37.5t135.5 12.5q81 0 143 -12.5t105 -36t65 -58.5t22 -80q0 -39 -14.5 -70t-42 -53.5
t-68.5 -36.5q-7 -2 -14 -5z" />
    <glyph glyph-name="four" unicode="4" horiz-adv-x="850" 
d="M679 0h-103v147h-541v78l538 475h106v-472h147v-81h-147v-147zM576 228v368l-419 -368h419z" />
    <glyph glyph-name="five" unicode="5" horiz-adv-x="819" 
d="M411 -10q-73 0 -131.5 10.5t-102 32t-73 55t-43.5 77.5l106 23q12 -38 43 -63.5t82 -38.5t119 -13q60 0 105 10t75.5 29t45.5 48t15 65q0 37 -15.5 66t-45 49t-74 30.5t-103.5 10.5q-39 0 -74 -4.5t-64 -13t-51.5 -21t-39.5 -29.5l-93 11l40 376h583v-81h-494l-25 -222
q6 4 13 8q30 16 66.5 27.5t77 17.5t84.5 6q76 0 135.5 -15t101.5 -44.5t64 -72.5t22 -99t-22.5 -99.5t-67 -74t-109.5 -46t-150 -15.5z" />
    <glyph glyph-name="six" unicode="6" horiz-adv-x="856" 
d="M67 338q0 60 11.5 110t33.5 92t54.5 73.5t75 53t94.5 32.5t113 11q91 0 160.5 -20t115 -58.5t62.5 -95.5l-104 -22q-13 37 -44 62.5t-79 38.5t-111 13q-54 0 -98 -12t-77 -35.5t-55.5 -58.5t-33.5 -82t-11 -104q7 9 16 18q43 40 115 62.5t167 22.5q77 0 137 -14.5
t102.5 -42.5t64 -69.5t21.5 -93.5q0 -53 -23 -95.5t-68.5 -72.5t-110.5 -45.5t-150 -15.5q-74 0 -134 14.5t-105.5 43t-76.5 71t-46.5 97.5t-15.5 122zM446 71q59 0 104.5 10.5t76.5 30t47 46.5t16 60q0 34 -16 60.5t-47.5 45t-76.5 28.5t-104 10t-105 -9.5t-79 -27t-50 -41
t-17 -52.5q0 -36 17.5 -66t50 -51t79 -32.5t104.5 -11.5z" />
    <glyph glyph-name="seven" unicode="7" horiz-adv-x="723" 
d="M695 616l-407 -616h-125l414 614h-548v86h666v-84z" />
    <glyph glyph-name="eight" unicode="8" horiz-adv-x="862" 
d="M431 -10q-90 0 -159.5 13.5t-116.5 39.5t-71 63t-24 84q0 46 24.5 81t72.5 59q37 19 87 31q-36 11 -64 27q-43 24 -66 58t-23 77t22.5 78t66 59t107 37t144.5 13t143.5 -13t106.5 -37t66 -59t22 -78q0 -35 -14.5 -64t-42.5 -51t-69 -38q-12 -5 -26 -9q50 -12 87 -31
q47 -24 72 -59t25 -81q0 -47 -24 -84t-71 -63t-116 -39.5t-159 -13.5zM431 67q65 0 113.5 8.5t80.5 24.5t48.5 39.5t16.5 53.5t-16 53.5t-48.5 39.5t-81 24.5t-113.5 8.5t-114 -8.5t-81 -24.5t-48.5 -39.5t-16.5 -53.5t16.5 -53.5t48.5 -39.5t81 -24.5t114 -8.5zM662 515
q0 28 -14.5 49.5t-43 36.5t-72 23t-101.5 8t-101.5 -8t-73 -23t-43.5 -36.5t-14 -49.5t14 -49t43.5 -36t73 -22.5t101.5 -7.5t101.5 7.5t72 22.5t43 36t14.5 49z" />
    <glyph glyph-name="nine" unicode="9" horiz-adv-x="857" 
d="M789 362q0 -59 -11 -109.5t-33.5 -92.5t-55 -73.5t-75 -53t-94 -32.5t-113.5 -11q-91 0 -160.5 20t-114 59t-63.5 95l105 22q13 -36 43.5 -62t78.5 -39t111 -13q54 0 98 12t77 35.5t55.5 58.5t33.5 82t12 104q-26 -31 -67 -53q-43 -24 -101.5 -37t-130.5 -13
q-76 0 -136.5 14.5t-102.5 42.5t-64 69.5t-22 93.5q0 53 23 95.5t68.5 72.5t111 45.5t149.5 15.5q74 0 134 -14.5t105.5 -43t76.5 -71t46.5 -97.5t15.5 -122zM410 629q-59 0 -104.5 -10.5t-76.5 -30t-46.5 -46.5t-15.5 -60q0 -34 16 -60.5t47 -45t76.5 -28.5t103.5 -10
q59 0 105 9.5t79 27t50 41t17 52.5q0 36 -17.5 66t-50 51t-79 32.5t-104.5 11.5z" />
    <glyph glyph-name="colon" unicode=":" horiz-adv-x="305" 
d="M97 0v109h111v-109h-111zM97 434v109h111v-109h-111z" />
    <glyph glyph-name="semicolon" unicode=";" horiz-adv-x="305" 
d="M97 109h111v-122q0 -56 -14 -89.5t-45 -48.5t-83 -16l-5 58q34 0 51.5 7.5t24.5 27t7 53.5v21h-47v109zM97 434v109h111v-109h-111z" />
    <glyph glyph-name="less" unicode="&#x3c;" horiz-adv-x="589" 
d="M55 312v76l474 199v-90l-364 -144l364 -144v-96z" />
    <glyph glyph-name="equal" unicode="=" horiz-adv-x="589" 
d="M531 425h-474v75h474v-75zM531 204h-474v75h474v-75z" />
    <glyph glyph-name="greater" unicode="&#x3e;" horiz-adv-x="589" 
d="M534 388v-76l-474 -199v90l364 144l-364 144v96z" />
    <glyph glyph-name="question" unicode="?" horiz-adv-x="769" 
d="M386 626q-51 0 -93 -10t-72.5 -29.5t-48.5 -50t-22 -71.5l-105 19q9 72 53 122.5t117 77t171 26.5q79 0 139.5 -14.5t102 -41t62.5 -63t21 -78.5q0 -43 -15.5 -73.5t-41 -51t-56 -36.5t-61.5 -30.5t-57 -32t-42.5 -41t-18.5 -58.5h-104q2 46 19 78t43 54.5t56.5 38.5
t60.5 30t55.5 29.5t40.5 36t15 51.5q0 26 -13 47t-40 37.5t-68 25t-98 8.5zM311 0v105h111v-105h-111z" />
    <glyph glyph-name="at" unicode="@" horiz-adv-x="1170" 
d="M894 -7q-45 0 -77.5 14t-50.5 41q-13 19 -16 43q-19 -24 -44 -44q-36 -28 -82.5 -43t-102.5 -15q-60 0 -103 17.5t-65.5 48.5t-22.5 73q0 32 11.5 57t35.5 43.5t62 30t92 15.5l216 17v10q0 46 -18 73t-51.5 39t-78.5 12q-44 0 -78 -11t-54.5 -33t-24.5 -56l-92 11
q10 52 43 87t86 52.5t121 17.5q58 0 103 -11t75 -34t45.5 -58t15.5 -85v-191q0 -37 18 -53.5t51 -16.5q30 0 57 14.5t48 43.5t33 72.5t12 99.5q0 67 -20 125.5t-59.5 105.5t-96 80.5t-130 51t-161.5 17.5q-90 0 -165.5 -20.5t-133.5 -58.5t-98.5 -90.5t-61.5 -118
t-21 -140.5q0 -70 18.5 -130t55.5 -108t92.5 -82t129 -52.5t166.5 -18.5q79 0 149.5 16t129.5 44l18 -40q-63 -31 -139.5 -48t-157.5 -17q-101 0 -183 20t-143 58t-103 92t-63 121t-21 145q0 84 24 156t69.5 131t110.5 100.5t147.5 64t179.5 22.5q95 0 175.5 -20t143.5 -57
t108 -89.5t68.5 -118t23.5 -141.5q0 -65 -15.5 -117t-44 -88.5t-68 -56t-88.5 -19.5zM748 215v14l-217 -18q-58 -6 -82.5 -25t-24.5 -51q0 -36 27.5 -57t80.5 -21q45 0 84 12t69 33.5t46.5 50.5t16.5 62z" />
    <glyph glyph-name="A" unicode="A" horiz-adv-x="900" 
d="M769 0l-99 185h-445l-99 -185h-112l380 700h109l382 -700h-116zM625 268l-178 331l-178 -331h356z" />
    <glyph glyph-name="B" unicode="B" horiz-adv-x="935" 
d="M126 0v700h481q53 0 95 -12t71 -34.5t44.5 -55t15.5 -74.5q0 -33 -10 -61.5t-30.5 -51.5t-51.5 -39q-13 -6 -28 -11q32 -7 58 -20q46 -24 70.5 -62.5t24.5 -91.5q0 -58 -28 -100t-82 -64.5t-133 -22.5h-497zM230 315v-235h375q52 0 85 14t49.5 39.5t16.5 61.5
q0 39 -19 65.5t-53.5 40.5t-83.5 14h-370zM230 620v-224h361q30 0 55 8t43 22.5t28 35.5t10 48q0 36 -16 60t-47 37t-75 13h-359z" />
    <glyph glyph-name="C" unicode="C" horiz-adv-x="945" 
d="M67 349q0 66 19 122t55 100t87.5 75t118 47.5t144.5 16.5q111 0 193.5 -27.5t134.5 -80t72 -129.5l-111 -21q-14 55 -51 94t-96 59t-142 20q-60 0 -110 -12t-88.5 -35.5t-64.5 -57.5t-39 -77t-13 -94t13 -94t39 -76.5t64.5 -56.5t88 -35t110.5 -12q84 0 145 20t98.5 60
t49.5 99l108 -22q-17 -79 -69 -133t-135.5 -81.5t-196.5 -27.5q-67 0 -124.5 11t-105 33t-83.5 53.5t-60.5 71.5t-37.5 88t-13 102z" />
    <glyph glyph-name="D" unicode="D" horiz-adv-x="979" 
d="M126 0v700h386q76 0 139 -15.5t111 -45.5t80.5 -73t49 -97.5t16.5 -119.5q0 -64 -16.5 -118.5t-49 -97t-80.5 -72.5t-111 -45.5t-139 -15.5h-386zM516 86q56 0 101 11.5t79 34t56.5 54.5t34 73t11.5 90t-11.5 90.5t-34 73.5t-56.5 55t-79 34.5t-101 11.5h-283v-528h283z
" />
    <glyph glyph-name="E" unicode="E" horiz-adv-x="839" 
d="M126 0v700h648v-84h-543v-215h489v-84h-489v-233h550v-84h-655z" />
    <glyph glyph-name="F" unicode="F" horiz-adv-x="820" 
d="M126 0v700h648v-86h-541v-239h487v-85h-487v-290h-107z" />
    <glyph glyph-name="G" unicode="G" horiz-adv-x="1002" 
d="M490 272v80h427v-352h-78l-10 147q-29 -49 -74 -83q-48 -36 -113.5 -55t-148.5 -19q-81 0 -148 16t-118.5 46.5t-87 74.5t-54 100t-18.5 122t19.5 122t56 100.5t90 75.5t122 47t151.5 16q111 0 193 -25.5t134.5 -75t73.5 -120.5l-107 -22q-15 50 -53.5 85.5t-98.5 54
t-142 18.5q-64 0 -116.5 -12t-92.5 -35t-66.5 -56.5t-40.5 -77t-14 -95.5t13.5 -95t40 -76.5t66 -56t91 -34.5t115.5 -12q101 0 169 27t104 78q29 40 38 92h-323z" />
    <glyph glyph-name="H" unicode="H" horiz-adv-x="1025" 
d="M126 0v700h107v-295h559v295h106v-700h-106v319h-559v-319h-107z" />
    <glyph glyph-name="I" unicode="I" horiz-adv-x="359" 
d="M126 0v700h107v-700h-107z" />
    <glyph glyph-name="J" unicode="J" horiz-adv-x="542" 
d="M426 240q0 -64 -15 -111.5t-46.5 -78t-81 -45.5t-119.5 -15q-32 0 -65 3t-71 9l-4 87q21 -3 41.5 -5.5t40.5 -4t41 -1.5q62 0 100 16t55.5 51.5t17.5 92.5v462h106v-460z" />
    <glyph glyph-name="K" unicode="K" horiz-adv-x="881" 
d="M126 0v700h105v-343l473 343h146l-437 -320l465 -380h-155l-395 317l-97 -71v-246h-105z" />
    <glyph glyph-name="L" unicode="L" horiz-adv-x="756" 
d="M126 0v700h107v-614h490v-86h-597z" />
    <glyph glyph-name="M" unicode="M" horiz-adv-x="1183" 
d="M126 0v700h115l352 -484l350 484h113v-700h-100v567l-318 -444h-92l-320 442v-565h-100z" />
    <glyph glyph-name="N" unicode="N" horiz-adv-x="1012" 
d="M126 0v700h106l555 -582v582h98v-700h-106l-555 581v-581h-98z" />
    <glyph glyph-name="O" unicode="O" horiz-adv-x="995" 
d="M497 -10q-81 0 -149 16t-120 47t-88 75t-54.5 99.5t-18.5 121.5t18.5 122t54 100t88 75t120.5 47.5t149 16.5q83 0 150.5 -16.5t120 -47.5t88.5 -75t54.5 -100t18.5 -122q0 -65 -18.5 -120.5t-54.5 -100t-88.5 -75.5t-120 -47t-150.5 -16zM497 75q64 0 115.5 12.5
t90 35.5t65 56.5t39.5 76t13 93.5t-13 94t-39.5 76.5t-65 57t-90 36t-115.5 12.5q-63 0 -114 -12.5t-90 -36t-65 -57t-39 -76.5t-13 -94t13 -93.5t39 -76t65 -57t90 -35.5t114 -12z" />
    <glyph glyph-name="P" unicode="P" horiz-adv-x="877" 
d="M126 0v700h432q63 0 113 -16.5t85 -48t53.5 -75.5t18.5 -100q0 -72 -33 -125.5t-94 -82t-146 -28.5h-322v-224h-107zM233 614v-305h307q58 0 98 17.5t61 52t21 81.5q0 50 -21 84t-61 52t-98 18h-307z" />
    <glyph glyph-name="Q" unicode="Q" horiz-adv-x="1002" 
d="M497 -10q-81 0 -149 16t-120 47t-88 75t-54.5 99.5t-18.5 121.5t18.5 122t54 100t88 75t120.5 47.5t149 16.5q83 0 150.5 -16.5t120 -47.5t88.5 -75t54.5 -100t18.5 -122q0 -65 -18.5 -120.5t-54.5 -99.5q-32 -39 -76 -68l127 -143h-119l-91 102q-24 -8 -49 -14
q-68 -16 -151 -16zM491 256h116l110 -124q29 20 50 47q27 34 40 76.5t13 93.5t-13 94t-39.5 76.5t-65 57t-90 36t-115.5 12.5q-63 0 -114 -12.5t-90 -36t-65 -57t-39 -76.5t-13 -94t13 -94t39 -76t65 -56.5t90 -35.5t114 -12q64 0 116 12l22 6z" />
    <glyph glyph-name="R" unicode="R" horiz-adv-x="905" 
d="M126 0v700h450q61 0 108 -14.5t79 -42.5t48.5 -68.5t16.5 -91.5q0 -66 -29.5 -113.5t-85.5 -72.5q-51 -24 -124 -25l257 -272h-136l-253 267h-224v-267h-107zM233 616v-265h326q39 0 69 8.5t51 25.5t31.5 41.5t10.5 56.5q0 33 -10 58t-30.5 41.5t-51 25t-70.5 8.5h-326z
" />
    <glyph glyph-name="S" unicode="S" horiz-adv-x="885" 
d="M54 213l108 17q10 -51 46.5 -85.5t98 -52t145.5 -17.5q69 0 119 8t82.5 23t48 36.5t15.5 49.5q0 36 -19.5 58t-62.5 34t-111 20l-179 13q-63 7 -112.5 20.5t-83.5 36t-52 55t-18 77.5q0 47 22.5 84.5t67 64.5t110.5 41t151 14q116 0 194.5 -24t124 -70.5t59.5 -115.5
l-107 -16q-16 70 -81.5 105.5t-190.5 35.5q-62 0 -107.5 -8t-75.5 -22.5t-45 -35t-15 -45.5q0 -36 22 -56.5t64 -32t106 -18.5l182 -15q88 -10 147 -31t88.5 -60t29.5 -100q0 -51 -24 -90.5t-71.5 -66.5t-117.5 -40.5t-162 -13.5q-86 0 -154.5 13.5t-119 41t-81 69.5
t-41.5 99z" />
    <glyph glyph-name="T" unicode="T" horiz-adv-x="825" 
d="M359 0v614h-332v86h772v-86h-334v-614h-106z" />
    <glyph glyph-name="U" unicode="U" horiz-adv-x="955" 
d="M849 302q0 -75 -25 -133t-73.5 -98t-117 -60.5t-156.5 -20.5t-156.5 20.5t-116.5 60.5t-73 98t-25 133v398h106v-398q0 -74 31 -124.5t90.5 -76.5t143.5 -26q64 0 113 14.5t83 43.5t52 71.5t18 97.5v398h106v-398z" />
    <glyph glyph-name="V" unicode="V" horiz-adv-x="869" 
d="M139 700l297 -589l300 589h113l-360 -700h-109l-361 700h120z" />
    <glyph glyph-name="W" unicode="W" horiz-adv-x="1276" 
d="M294 0l-274 700h114l216 -576l234 576h109l234 -573l218 573h111l-275 -700h-107l-237 580l-238 -580h-105z" />
    <glyph glyph-name="X" unicode="X" horiz-adv-x="818" 
d="M665 0l-262 290l-256 -290h-128l318 358l-310 342h132l253 -280l250 280h128l-315 -346l322 -354h-132z" />
    <glyph glyph-name="Y" unicode="Y" horiz-adv-x="807" 
d="M349 0v284l-337 416h130l262 -327l266 327h125l-340 -419v-281h-106z" />
    <glyph glyph-name="Z" unicode="Z" horiz-adv-x="809" 
d="M57 614v86h699v-80l-558 -534h558v-86h-701v82l555 532h-553z" />
    <glyph glyph-name="bracketleft" unicode="[" horiz-adv-x="433" 
d="M126 -150v850h287v-76h-188v-698h188v-76h-287z" />
    <glyph glyph-name="backslash" unicode="\" horiz-adv-x="468" 
d="M438 -150l-286 850h-106l286 -850h106z" />
    <glyph glyph-name="bracketright" unicode="]" horiz-adv-x="433" 
d="M306 -150v850h-286v-76h188v-698h-188v-76h286z" />
    <glyph glyph-name="asciicircum" unicode="^" horiz-adv-x="601" 
d="M246 700h108l198 -420h-104l-149 338l-149 -338h-101z" />
    <glyph glyph-name="underscore" unicode="_" horiz-adv-x="609" 
d="M39 -88v88h531v-88h-531z" />
    <glyph glyph-name="grave" unicode="`" 
d="M293 609h-87l-191 158h133z" />
    <glyph glyph-name="a" unicode="a" horiz-adv-x="756" 
d="M62 384q10 43 34 75t62 53t90 32t117 11q76 0 132 -12.5t91.5 -38.5t52.5 -65t17 -94v-228q0 -16 4.5 -27.5t14.5 -17.5t27 -6q5 0 11 0.5t10 1.5l-3 -70q-12 -3 -25 -4.5t-25 -1.5q-37 0 -61 12t-35 36.5t-11 59.5v11q-13 -16 -28 -30q-32 -29 -73.5 -49.5t-91 -31
t-104.5 -10.5q-73 0 -124.5 18.5t-78.5 54t-27 85.5q0 49 24.5 84t75 55t129.5 26l296 18v7q0 37 -11.5 63.5t-35.5 43.5t-61.5 25t-90.5 8q-60 0 -104 -12t-68.5 -36t-30.5 -62zM565 262l-292 -20q-46 -3 -76 -14t-45 -29.5t-15 -45.5q0 -28 16 -47t48.5 -29t80.5 -10
q45 0 87 8.5t77.5 23.5t62 36.5t41.5 48t15 56.5v22z" />
    <glyph glyph-name="b" unicode="b" horiz-adv-x="856" 
d="M197 0h-90v750h101v-316q16 22 37 40q43 38 104 59.5t135 21.5q58 0 106 -13.5t86 -38t64 -59.5t39.5 -78.5t13.5 -93.5q0 -51 -13.5 -94t-39.5 -78t-63.5 -59.5t-86 -37.5t-106.5 -13q-75 0 -135.5 20.5t-103.5 58.5q-23 20 -41 45zM453 69q47 0 84.5 9.5t65.5 27
t47.5 42.5t29.5 56.5t10 67.5t-10 67t-29.5 56t-47.5 43t-65.5 27.5t-84.5 9.5q-75 0 -130.5 -26t-85 -71.5t-29.5 -106.5q0 -44 16.5 -81.5t49 -64t78 -41.5t101.5 -15z" />
    <glyph glyph-name="c" unicode="c" horiz-adv-x="777" 
d="M729 360l-100 -19q-9 45 -37.5 74.5t-75.5 45t-110 15.5q-48 0 -86.5 -9t-67 -26.5t-47.5 -42.5t-29 -56.5t-10 -70.5q0 -37 10 -68.5t29 -56.5t48 -42t67.5 -26t85.5 -9q64 0 111 14.5t76 44.5t39 75l100 -19q-15 -63 -58 -106.5t-111 -65.5t-157 -22q-66 0 -120 12.5
t-95.5 37t-70 58.5t-43.5 77.5t-15 95.5t15 96t43.5 79t70 59t95.5 37t120 13q90 0 157.5 -22.5t110 -66t55.5 -106.5z" />
    <glyph glyph-name="d" unicode="d" horiz-adv-x="856" 
d="M648 750h101v-750h-91l-7 113q-17 -24 -40 -44q-43 -38 -103.5 -58.5t-135.5 -20.5q-58 0 -106.5 13t-86.5 37.5t-64 59.5t-39.5 78t-13.5 94q0 50 13.5 93.5t40 78.5t64 59.5t86.5 38t106 13.5q75 0 135.5 -21.5t103.5 -59.5q21 -18 37 -40v316zM402 69q76 0 131 25.5
t85 71t30 105.5q0 45 -17 82.5t-49 64.5t-77.5 42t-102.5 15q-46 0 -84 -9.5t-66 -27t-47.5 -42.5t-29 -56.5t-9.5 -67.5t9.5 -67.5t29 -56.5t47.5 -42.5t66 -27t84 -9.5z" />
    <glyph glyph-name="e" unicode="e" horiz-adv-x="802" 
d="M410 -10q-66 0 -121.5 13t-97 37t-70.5 59t-44 79t-15 96q0 50 15 93.5t43.5 78t70 59t96 37.5t119.5 13q79 0 141.5 -19.5t106.5 -55.5t67 -85.5t23 -110.5q0 -10 -0.5 -20t-2.5 -19h-579q3 -22 9 -41q10 -33 29.5 -58t49.5 -43t70 -27t90 -9q69 0 116 12t76 36t41 58
l98 -17q-18 -55 -59 -92t-108 -55.5t-164 -18.5zM165 320h479q-4 29 -16 53q-16 33 -46.5 56.5t-74 36.5t-100.5 13q-50 0 -89.5 -9t-68.5 -26.5t-49 -42.5t-29 -57q-4 -12 -6 -24z" />
    <glyph glyph-name="f" unicode="f" horiz-adv-x="505" 
d="M138 568q0 64 26 107t77 64t127 21q32 0 65.5 -3t64.5 -9l-4 -76q-18 4 -37 6.5t-38 3.5t-38 1q-49 0 -80 -12t-46.5 -37t-15.5 -67v-23h257v-77h-257v-467h-101v467h-122v77h122v24z" />
    <glyph glyph-name="g" unicode="g" horiz-adv-x="770" 
d="M377 555q66 0 120 -11t93 -33l14 -8q23 33 57 49q39 19 92 14l-5 -84q-38 5 -65 -1q-20 -5 -38 -17q2 -3 4 -7q21 -32 21 -75q0 -41 -19.5 -72.5t-57.5 -53t-92.5 -32.5t-123.5 -11t-124 11q-9 2 -17 4q-29 -5 -45 -16q-21 -14 -21 -40q0 -17 11 -29.5t32.5 -18.5
t54.5 -7l271 -6q69 -1 115 -17.5t69 -46.5t23 -74q0 -46 -24.5 -80.5t-72 -57.5t-117.5 -34t-160 -11q-83 0 -147 8.5t-106.5 27t-64.5 46.5t-22 67q0 38 21 65t62 42q19 7 42 12q-10 2 -19 6q-31 13 -46.5 35.5t-15.5 52.5q0 33 18.5 57t54.5 38l18 6q-4 1 -7 3
q-38 22 -58 53.5t-20 72.5t20 73t58 54t93 34t124 12zM266 38q-39 -2 -68 -11q-31 -10 -47 -28t-16 -45q0 -25 15.5 -42.5t45 -28.5t74.5 -16.5t105 -5.5q67 0 118 6.5t84.5 19.5t50.5 32t17 45q0 32 -27 50t-88 19zM569 382q0 25 -12.5 44.5t-37.5 32.5t-60.5 20t-81.5 7
t-82 -7t-61 -20t-38 -32.5t-13 -44.5q0 -33 23 -55.5t66.5 -33.5t104.5 -11t104 11t65.5 33.5t22.5 55.5z" />
    <glyph glyph-name="h" unicode="h" horiz-adv-x="831" 
d="M107 0v750h101v-323q27 40 68 68.5t92.5 44t109.5 15.5q81 0 138 -29t87 -82t30 -125v-319h-101v299q0 52 -21 90.5t-61.5 60t-100.5 21.5q-52 0 -96.5 -15t-77 -42.5t-50 -66t-17.5 -85.5v-262h-101z" />
    <glyph glyph-name="i" unicode="i" horiz-adv-x="316" 
d="M107 0v544h101v-544h-101zM103 628v101h109v-101h-109z" />
    <glyph glyph-name="j" unicode="j" horiz-adv-x="315" 
d="M107 -24v568h101v-563q0 -68 -20 -110.5t-61 -61.5t-104 -19q-19 0 -36.5 1.5t-37.5 4.5l-3 78q16 -2 30 -3.5t28 -1.5q36 0 58.5 11t33.5 34.5t11 61.5zM103 628v101h109v-101h-109z" />
    <glyph glyph-name="k" unicode="k" horiz-adv-x="727" 
d="M107 0v750h100v-460l356 254h136l-341 -241l364 -303h-142l-296 248l-77 -57v-191h-100z" />
    <glyph glyph-name="l" unicode="l" horiz-adv-x="315" 
d="M208 0h-101v750h101v-750z" />
    <glyph glyph-name="m" unicode="m" horiz-adv-x="1240" 
d="M107 0v544h91l6 -114q25 38 60.5 66.5t81.5 43.5t98 15q54 0 97 -16t73.5 -46t45.5 -73q18 31 43.5 56t57.5 42.5t69.5 27t79.5 9.5q54 0 97 -16.5t73 -46.5t46 -72.5t16 -95.5v-324h-101v305q0 51 -18.5 88t-54.5 57.5t-89 20.5q-45 0 -83 -15t-65 -42t-41.5 -65
t-14.5 -84v-265h-101v309q0 49 -19 85.5t-55 56.5t-88 20q-46 0 -83.5 -15t-64.5 -42t-41.5 -65t-14.5 -84v-265h-101z" />
    <glyph glyph-name="n" unicode="n" horiz-adv-x="831" 
d="M107 0v544h90l7 -122q27 42 68 71.5t94 45.5t112 16q81 0 138 -29t87 -82t30 -125v-319h-101v299q0 52 -21 90.5t-61.5 60t-100.5 21.5q-52 0 -96.5 -15t-77 -42.5t-50 -66t-17.5 -85.5v-262h-101z" />
    <glyph glyph-name="o" unicode="o" horiz-adv-x="818" 
d="M409 -10q-67 0 -121 12.5t-96 36.5t-71 58.5t-44 78.5t-15 96q0 51 15 95t44 79t71 59t96.5 37t120.5 13t121 -13t96.5 -37t70.5 -59t44 -79t15 -95q0 -52 -15 -96t-43.5 -78.5t-70.5 -58.5t-97 -36.5t-121 -12.5zM409 69q49 0 87.5 9t67.5 26t49 42t29.5 56.5t9.5 69.5
t-9.5 70t-29.5 56.5t-49 42t-67.5 26.5t-87.5 9q-48 0 -87 -9t-68.5 -26.5t-49 -42.5t-29 -56.5t-9.5 -69.5t10 -69.5t29 -56.5t48.5 -42t68.5 -26t87 -9z" />
    <glyph glyph-name="p" unicode="p" horiz-adv-x="856" 
d="M198 544l6 -115q17 25 41 45q43 38 103.5 59.5t134.5 21.5q58 0 106.5 -13.5t86.5 -38t64 -59.5t39.5 -78.5t13.5 -93.5q0 -51 -13.5 -94t-39.5 -78t-63.5 -59.5t-86.5 -37.5t-107 -13q-74 0 -134.5 20.5t-103.5 58.5q-21 18 -37 40v-309h-101v744h91zM453 69
q47 0 84.5 9.5t66 27t47.5 42.5t29 56.5t10 67.5t-10 67t-29 56.5t-47.5 43t-66 27t-84.5 9.5q-75 0 -130.5 -26t-85 -71.5t-29.5 -106.5q0 -44 16.5 -81.5t49 -64t78 -41.5t101.5 -15z" />
    <glyph glyph-name="q" unicode="q" horiz-adv-x="856" 
d="M658 544h91v-744h-101v309q-16 -22 -37 -40q-43 -38 -103.5 -58.5t-135.5 -20.5q-58 0 -106.5 13t-86.5 37.5t-64 59.5t-39.5 78t-13.5 94q0 50 13.5 93.5t40 78.5t64 59.5t86 38t106.5 13.5q75 0 135.5 -21.5t103.5 -59.5q23 -20 40 -44zM402 69q57 0 102.5 14.5
t77.5 41.5t49 64.5t17 81.5q0 61 -30 106.5t-85 71.5t-131 26q-46 0 -84 -9.5t-66 -27t-47.5 -42.5t-29 -56.5t-9.5 -67.5t9.5 -67.5t29 -56.5t47.5 -42.5t66 -27t84 -9.5z" />
    <glyph glyph-name="r" unicode="r" horiz-adv-x="537" 
d="M107 0v544h91l7 -146q25 42 61 74q44 39 100.5 60.5t121.5 21.5h14t11 -1l-4 -103q-8 3 -19.5 4t-24.5 1q-41 0 -79 -9t-70 -27.5t-56 -47t-37.5 -66t-14.5 -84.5v-221h-101z" />
    <glyph glyph-name="s" unicode="s" horiz-adv-x="734" 
d="M358 479q-64 0 -107 -9t-65 -26.5t-22 -42.5t14 -40.5t47.5 -24.5t89.5 -14l130 -7q85 -7 136 -25t74.5 -49.5t23.5 -79.5q0 -54 -35 -92.5t-103.5 -58.5t-170.5 -20q-99 0 -166 19t-105 58.5t-51 100.5l97 15q10 -60 66 -89t157 -29q55 0 94.5 6t65.5 17t38.5 26.5
t12.5 35.5q0 27 -14 43t-45.5 26t-86.5 14l-132 8q-83 7 -134.5 25t-75.5 49.5t-24 77.5q0 51 34 87t99 55.5t158 19.5t157.5 -18.5t102 -55.5t48.5 -95l-95 -14q-6 37 -31 60.5t-70 35t-112 11.5z" />
    <glyph glyph-name="t" unicode="t" horiz-adv-x="538" 
d="M133 184v283h-120v77h84q18 0 28.5 3.5t16.5 16.5t9 41.5t5 78.5h78v-140h260v-77h-260v-272q0 -45 13.5 -72.5t44.5 -40.5t82 -13q19 0 40 1.5t43.5 4.5t44.5 8l-3 -78q-24 -5 -50 -8t-51.5 -5t-48.5 -2q-54 0 -94.5 10t-68 33t-40.5 60t-13 91z" />
    <glyph glyph-name="u" unicode="u" horiz-adv-x="813" 
d="M706 544v-544h-89l-7 118q-20 -30 -48 -54t-62 -40.5t-73 -25t-82 -8.5q-55 0 -101 14.5t-79.5 44t-51.5 72.5t-18 100v323h101v-308q0 -40 13 -70.5t36 -51t55 -30.5t72 -10q37 0 72 8.5t64.5 25.5t51 42.5t34 58t12.5 72.5v263h100z" />
    <glyph glyph-name="v" unicode="v" horiz-adv-x="695" 
d="M305 0l-294 544h113l225 -434l229 434h105l-295 -544h-83z" />
    <glyph glyph-name="w" unicode="w" horiz-adv-x="1052" 
d="M248 0l-231 544h105l176 -433l187 433h85l187 -431l178 431h100l-234 -544h-84l-190 444l-195 -444h-84z" />
    <glyph glyph-name="x" unicode="x" horiz-adv-x="701" 
d="M559 0l-210 217l-211 -217h-120l267 278l-257 266h126l197 -203l202 203h118l-259 -263l271 -281h-124z" />
    <glyph glyph-name="y" unicode="y" horiz-adv-x="692" 
d="M572 544h107l-300 -587q-24 -46 -47.5 -78t-49.5 -51.5t-58.5 -28.5t-73.5 -9q-21 0 -41.5 2.5t-39.5 7.5l-4 77q17 -4 34.5 -5.5t32.5 -1.5q30 0 53.5 6.5t42.5 21.5t36.5 39t37.5 59l5 11l-294 537h112l231 -439z" />
    <glyph glyph-name="z" unicode="z" horiz-adv-x="675" 
d="M59 467v77h568v-77l-446 -390h449v-77h-579v77l445 390h-437z" />
    <glyph glyph-name="braceleft" unicode="{" horiz-adv-x="474" 
d="M137 275q48 -7 79 -27t45.5 -54t14.5 -85v-73q0 -63 22 -88t77 -25q18 0 37 1.5t36 3.5l4 -76q-25 -4 -46.5 -5.5t-41.5 -1.5q-62 0 -103.5 18.5t-61 57.5t-19.5 102v92q0 31 -6 52.5t-22 35t-44.5 22t-72.5 12.5v75q44 4 72.5 12.5t44.5 22t22 35t6 52.5v92
q0 64 19.5 103t61 57.5t103.5 18.5q23 0 43 -1.5t45 -5.5l-4 -76q-17 2 -36.5 3.5t-36.5 1.5q-36 0 -58 -11t-31.5 -36t-9.5 -67v-76q0 -49 -14.5 -82.5t-45.5 -53t-79 -26.5z" />
    <glyph glyph-name="bar" unicode="|" horiz-adv-x="353" 
d="M227 -170h-101v930h101v-930z" />
    <glyph glyph-name="braceright" unicode="}" horiz-adv-x="474" 
d="M439 312q-44 4 -72.5 12.5t-44.5 22t-22.5 35t-6.5 52.5v92q0 64 -19.5 103t-60 57.5t-104.5 18.5q-22 0 -42 -1.5t-45 -5.5l4 -76q17 2 36.5 3.5t36.5 1.5q55 0 76.5 -25.5t21.5 -88.5v-76q0 -49 14.5 -82.5t45.5 -53t80 -26.5q-49 -7 -80 -27t-45.5 -54t-14.5 -85v-73
q0 -42 -9.5 -67t-31 -35.5t-57.5 -10.5q-18 0 -37 1.5t-36 3.5l-4 -76q16 -2 31 -4t29 -2.5t27 -0.5q64 0 104.5 18.5t60 57.5t19.5 102v92q0 31 6.5 52.5t22.5 35t44.5 22t72.5 12.5v75z" />
    <glyph glyph-name="asciitilde" unicode="~" horiz-adv-x="589" 
d="M181 351q-28 0 -57.5 -10.5t-66.5 -33.5v78q40 24 70.5 33t59.5 9q34 0 63 -9.5t54.5 -22.5t50.5 -22.5t53 -9.5t57.5 10.5t65.5 33.5v-78q-40 -24 -70 -33t-59 -9q-33 0 -61.5 9.5t-54 22.5t-51.5 22.5t-54 9.5z" />
    <glyph glyph-name="uni00A0" unicode="&#xa0;" horiz-adv-x="300" 
 />
    <glyph glyph-name="exclamdown" unicode="&#xa1;" horiz-adv-x="357" 
d="M132 354h93l7 -509h-107zM234 544v-105h-111v105h111z" />
    <glyph glyph-name="cent" unicode="&#xa2;" horiz-adv-x="776" 
d="M253 -80l26 84q-49 13 -88 35q-42 25 -70.5 59t-43.5 77.5t-15 95.5t15 96t43.5 79t70 59t95.5 37t120 13q23 0 44 -2l21 67h72l-24 -76q23 -5 44 -12q68 -22 110.5 -65.5t55.5 -106.5l-100 -19q-9 45 -37.5 74.5t-75.5 44.5q-10 4 -21 6l-124 -397q17 -1 35 -1
q64 0 111 14.5t76 45t39 75.5l100 -19q-15 -63 -58 -106.5t-111 -65.5t-157 -22q-31 0 -59 2l-23 -72h-71zM304 82l122 393q-10 1 -20 1q-48 0 -86.5 -9t-67 -26.5t-47.5 -42.5t-29 -56.5t-10 -70.5q0 -37 10 -69t29 -56.5t48 -41.5q23 -14 51 -22z" />
    <glyph glyph-name="sterling" unicode="&#xa3;" horiz-adv-x="817" 
d="M764 82v-82h-718v82h40q43 0 75 15t50 42.5t18 62.5q0 33 -10 62q-5 13 -11 26h-162v71h124l-8 14q-16 28 -26.5 59.5t-10.5 70.5q0 62 37.5 108t106 71.5t161.5 25.5q69 0 124 -11.5t96.5 -35.5t69 -60t39.5 -86l-114 -19q-10 46 -38 74.5t-72 42t-103 13.5
q-64 0 -108 -15t-66.5 -43t-22.5 -66q0 -30 10 -58t26 -55l16 -30h370v-71h-335l4 -10q10 -30 10 -65q0 -44 -23 -81q-20 -32 -55 -52h506z" />
    <glyph glyph-name="currency" unicode="&#xa4;" horiz-adv-x="555" 
d="M278 183q-56 0 -98 21l-4 2l-88 -89l-55 55l86 85l-4 6q-23 37 -23 87t23 86l4 6l-86 85l55 55l89 -90q1 1 3 1q42 21 97.5 21t97.5 -21q1 0 3 -1l89 90l54 -55l-85 -85q1 -3 3 -6q23 -36 23 -86t-23 -87q-2 -3 -3 -6l85 -85l-54 -55l-88 89l-4 -2q-42 -21 -97 -21z
M278 252q52 0 81.5 26.5t29.5 71.5q0 44 -30 69.5t-81 25.5q-52 0 -82 -25.5t-30 -69.5q0 -45 30 -71.5t82 -26.5z" />
    <glyph glyph-name="yen" unicode="&#xa5;" horiz-adv-x="827" 
d="M61 400v68h149l-188 232h131l262 -329l266 329h125l-188 -232h146v-68h-202l-82 -102h270v-68h-284v-230h-106v230h-285v68h273l-83 102h-204z" />
    <glyph glyph-name="brokenbar" unicode="&#xa6;" horiz-adv-x="353" 
d="M227 355h-101v405h101v-405zM227 -170h-101v425h101v-425z" />
    <glyph glyph-name="section" unicode="&#xa7;" horiz-adv-x="840" 
d="M431 -210q-114 0 -194 23t-125.5 71.5t-58.5 121.5l111 14q10 -51 43.5 -85t91 -51t135.5 -17q60 0 104 8t72 23t42 35.5t14 44.5q0 21 -8 36.5t-27 28t-52.5 22.5t-86.5 18l-181 21q-62 9 -104.5 24t-69 36t-38.5 48.5t-12 61.5t15.5 64.5t45.5 53.5q20 16 46 28
q-1 1 -2 1q-39 15 -64 36t-36.5 48t-11.5 59q0 45 21.5 81t64 62t104.5 39.5t144 13.5t146 -12.5t109.5 -37.5t72.5 -63t35 -89l-111 -14q-9 48 -39 79t-83 45.5t-132 14.5q-56 0 -98 -8t-70 -22t-41 -34.5t-13 -44.5q0 -18 6.5 -32.5t23.5 -26.5t46 -21.5t74 -16.5l205 -27
q60 -9 102 -24t68.5 -35.5t38.5 -48t12 -60.5q0 -35 -14 -65.5t-42 -55.5q-18 -16 -42 -30q37 -14 60 -33q26 -22 37 -49t11 -61q0 -46 -22 -82t-65 -62.5t-107.5 -40t-150.5 -13.5zM269 401q-21 -11 -37 -24q-21 -17 -31.5 -36.5t-10.5 -43.5q0 -23 9 -41t29 -31t53 -23
t82 -18l177 -21q28 -4 52 -10q32 21 49 43q21 29 21 63q0 22 -8.5 39.5t-28 31t-51 23.5t-76.5 17l-209 27z" />
    <glyph glyph-name="dieresis" unicode="&#xa8;" 
d="M313 628v104h111v-104h-111zM75 628v104h111v-104h-111z" />
    <glyph glyph-name="copyright" unicode="&#xa9;" horiz-adv-x="994" 
d="M705 410l-66 -10q-8 27 -25 46t-44.5 28.5t-66.5 9.5q-34 0 -61 -9.5t-46 -27t-29 -42t-10 -55.5q0 -30 10 -54.5t28.5 -42t46 -26.5t61.5 -9q58 0 93.5 22t45.5 64l64 -8q-10 -41 -37.5 -70t-69 -44.5t-96.5 -15.5q-49 0 -88 13t-67 37.5t-42.5 58t-14.5 75.5t14.5 76
t42.5 58.5t67.5 37.5t87.5 13q83 0 133.5 -32t68.5 -93zM497 -50q-83 0 -152 18.5t-123.5 54t-91.5 85t-57 110.5t-20 131t20 131t57 111t91.5 85.5t123.5 54.5t152 19t152 -19t123 -54.5t91.5 -85t57 -110.5t19.5 -131t-19.5 -131t-57 -110.5t-91.5 -85t-123 -54.5
t-152 -19zM497 -5q75 0 137 17t109 48t80 74.5t49.5 98t16.5 117.5t-16.5 117t-49.5 98t-80 75t-109 48t-137 17t-137 -17t-109.5 -48t-80 -75t-49.5 -98.5t-17 -117.5t17 -117t49.5 -97.5t80 -74.5t109.5 -48t137 -17z" />
    <glyph glyph-name="ordfeminine" unicode="&#xaa;" horiz-adv-x="496" 
d="M67 603q7 34 31 57t62.5 34.5t87.5 11.5q41 0 73 -7t54.5 -22t34 -39t11.5 -57v-137q0 -21 22 -21h7q4 0 6 1l-2 -52q-7 -1 -15.5 -2t-18.5 -1q-23 0 -39 6.5t-24 20.5t-8 35v3q-13 -17 -30 -29q-26 -19 -60 -28t-73 -9q-43 0 -73 12t-45 33.5t-15 49.5q0 21 7.5 37
t23.5 28.5t41.5 20.5t62.5 11l159 10v10q0 27 -12.5 43t-35 23.5t-54.5 7.5q-29 0 -51.5 -6.5t-36 -19.5t-16.5 -33zM349 527l-157 -12q-33 -3 -48 -15t-15 -32q0 -22 18 -35t56 -13q29 0 55.5 7t47 20t32 31t11.5 39v10z" />
    <glyph glyph-name="guillemotleft" unicode="&#xab;" horiz-adv-x="798" 
d="M111 275l257 -133v-101l-321 181v105l321 181v-98zM478 275l257 -133v-101l-321 181v105l321 181v-98z" />
    <glyph glyph-name="logicalnot" unicode="&#xac;" horiz-adv-x="589" 
d="M57 390h474v-253h-83v178h-391v75z" />
    <glyph glyph-name="uni00AD" unicode="&#xad;" horiz-adv-x="0" 
 />
    <glyph glyph-name="registered" unicode="&#xae;" horiz-adv-x="954" 
d="M477 -10q-79 0 -145.5 17t-118 49t-87.5 77t-54.5 99.5t-18.5 116.5t18.5 117t54.5 100t87.5 77t118 49.5t145.5 17.5t145.5 -17.5t118 -49.5t87 -77t54 -99.5t18.5 -116.5t-18.5 -117t-54 -99.5t-87 -77t-118 -49.5t-145.5 -17zM477 34q71 0 130 15t104 43t75.5 67
t46.5 87t16 104q0 55 -16 103.5t-46.5 87t-75.5 66.5t-104 43t-130.5 15t-130.5 -15t-103.5 -43t-75.5 -67t-47 -87t-16 -104t16 -104t47 -87t76 -66.5t103.5 -42.5t130.5 -15zM312 171v359h233q43 0 71.5 -12.5t43 -36.5t14.5 -59q0 -34 -15.5 -58t-44.5 -37
q-19 -8 -42 -11l122 -145h-72l-115 137h-136v-137h-59zM371 482v-126h168q38 0 57.5 16.5t19.5 46.5q0 31 -19 47t-58 16h-168z" />
    <glyph glyph-name="macron" unicode="&#xaf;" 
d="M59 638v70h381v-70h-381z" />
    <glyph glyph-name="degree" unicode="&#xb0;" horiz-adv-x="538" 
d="M269 710q58 0 100.5 -20t65 -55.5t22.5 -81.5t-22.5 -81t-65 -55.5t-100.5 -20.5t-100.5 20.5t-65.5 55.5t-23 81t23 81.5t65.5 55.5t100.5 20zM269 463q34 0 58 11t36.5 31.5t12.5 47.5q0 28 -13 48t-37 31t-57 11t-57.5 -11t-37 -31t-12.5 -48q0 -27 12.5 -47.5
t36.5 -31.5t58 -11z" />
    <glyph glyph-name="plusminus" unicode="&#xb1;" horiz-adv-x="589" 
d="M336 594v-171h195v-75h-195v-171h-84v171h-195v75h195v171h84zM531 15h-474v75h474v-75z" />
    <glyph glyph-name="twosuperior" unicode="&#xb2;" horiz-adv-x="437" 
d="M33 511l212 101q34 18 50 31.5t21.5 26t5.5 26.5q0 19 -12 33t-35.5 21.5t-59.5 7.5q-35 0 -59.5 -8.5t-38.5 -24t-16 -39.5l-71 11q5 37 27.5 62t62.5 38.5t94 13.5q59 0 99.5 -13.5t61.5 -38.5t21 -60q0 -19 -5 -35t-19 -31.5t-39.5 -31.5t-66.5 -36l-115 -53h250v-55
h-368v54z" />
    <glyph glyph-name="threesuperior" unicode="&#xb3;" horiz-adv-x="438" 
d="M332 637q25 -7 42 -18q32 -23 32 -64q0 -32 -21 -55t-63 -35.5t-106 -12.5q-58 0 -98.5 10.5t-63.5 32.5t-30 54l71 11q4 -19 18 -31t39.5 -18.5t63.5 -6.5q41 0 66.5 6.5t37 19t11.5 30.5q0 24 -20 36.5t-57 12.5h-107v50h107q23 0 39 5.5t24.5 16.5t8.5 26
q0 17 -12 28.5t-35.5 18t-61.5 6.5q-36 0 -60.5 -6.5t-38.5 -18.5t-18 -31l-69 10q7 31 30 52.5t62 33t93 11.5q60 0 100.5 -11t61 -33t20.5 -52q0 -25 -13.5 -44t-39.5 -30q-6 -2 -13 -4z" />
    <glyph glyph-name="acute" unicode="&#xb4;" 
d="M206 609l145 158h133l-191 -158h-87z" />
    <glyph glyph-name="paragraph" unicode="&#xb6;" horiz-adv-x="870" 
d="M443 -150h-102v456h-76q-63 0 -109 24t-71.5 68t-25.5 102q0 61 25.5 105.5t71.5 69.5t109 25h178v-850zM744 -150h-103v850h103v-850z" />
    <glyph glyph-name="periodcentered" unicode="&#xb7;" 
d="M192 289v113h115v-113h-115z" />
    <glyph glyph-name="cedilla" unicode="&#xb8;" 
d="M275 -57q5 2 10 3q24 7 49 7q51 0 78.5 -20.5t27.5 -56.5q0 -28 -16.5 -47.5t-51 -30t-90.5 -10.5q-32 0 -66.5 3.5t-70.5 10.5l4 52q37 -7 65 -10t53 -3q32 0 50.5 4t27 12t8.5 19q0 13 -11 21t-35 8q-14 0 -28.5 -4t-27.5 -10l-51 8l18 105h67z" />
    <glyph glyph-name="onesuperior" unicode="&#xb9;" horiz-adv-x="407" 
d="M34 457v57h146v234l-141 -23v55l154 27h59v-293h130v-57h-348z" />
    <glyph glyph-name="ordmasculine" unicode="&#xba;" horiz-adv-x="532" 
d="M266 368q-50 0 -88.5 12t-64.5 34.5t-39 53.5t-13 69t13 68.5t39 53.5t64.5 35t88.5 12t88 -12t64.5 -35t39.5 -53.5t13 -68.5q0 -37 -13 -68t-39.5 -54t-64.5 -35t-88 -12zM266 422q32 0 55.5 8t39.5 23.5t24 36.5t8 47t-8 47t-24 36.5t-39.5 23.5t-55.5 8t-56 -8
t-40 -23.5t-24 -36.5t-8 -47t8 -47t24 -36.5t40 -23.5t56 -8z" />
    <glyph glyph-name="guillemotright" unicode="&#xbb;" horiz-adv-x="798" 
d="M320 274l-257 133v101l321 -181v-105l-321 -181v98zM687 274l-257 133v101l321 -181v-105l-321 -181v98z" />
    <glyph glyph-name="onequarter" unicode="&#xbc;" horiz-adv-x="1122" 
d="M34 350v57h146v234l-141 -23v55l154 27h59v-293h130v-57h-348zM294 0h-101l669 700h101zM1023 0h-69v70h-276v46l281 236h64v-231h73v-51h-73v-70zM954 121v167l-196 -167h196z" />
    <glyph glyph-name="onehalf" unicode="&#xbd;" horiz-adv-x="1134" 
d="M34 350v57h146v234l-141 -23v55l154 27h59v-293h130v-57h-348zM294 0h-101l669 700h101zM729 54l212 101q34 18 50 31.5t21.5 26t5.5 26.5q0 19 -12 33t-35.5 21.5t-59.5 7.5q-35 0 -59.5 -8.5t-38.5 -24t-16 -39.5l-71 11q5 37 27.5 62t62.5 38.5t94 13.5
q59 0 99.5 -13.5t61.5 -38.5t21 -60q0 -19 -5 -35t-19 -31.5t-39.5 -31.5t-66.5 -36l-115 -53h250v-55h-368v54z" />
    <glyph glyph-name="threequarters" unicode="&#xbe;" horiz-adv-x="1115" 
d="M332 530q25 -7 42 -18q32 -23 32 -64q0 -32 -21 -55t-63 -35.5t-106 -12.5q-58 0 -98.5 10.5t-63.5 32.5t-30 54l71 11q4 -19 18 -31t39.5 -18.5t63.5 -6.5q41 0 66.5 6.5t37 19t11.5 30.5q0 24 -20 36.5t-57 12.5h-107v50h107q23 0 39 5.5t24.5 16.5t8.5 26
q0 17 -12 28.5t-35.5 18t-61.5 6.5q-36 0 -60.5 -6.5t-38.5 -18.5t-18 -31l-69 10q7 31 30 52.5t62 33t93 11.5q60 0 100.5 -11t61 -33t20.5 -52q0 -25 -13.5 -44t-39.5 -30q-6 -2 -13 -4zM288 0h-101l669 700h101zM1016 0h-69v70h-276v46l281 236h64v-231h73v-51h-73v-70z
M947 121v167l-196 -167h196z" />
    <glyph glyph-name="questiondown" unicode="&#xbf;" horiz-adv-x="769" 
d="M381 -81q52 0 94 10t72.5 29.5t48.5 49.5t23 71l104 -19q-8 -72 -52 -122.5t-117.5 -77t-172.5 -26.5q-79 0 -139 14.5t-101 41.5t-62 63t-21 78q0 43 15 73.5t40.5 51t56 36.5t61.5 30.5t57 31.5t42.5 41t18.5 59h105q-3 -46 -20 -78t-42.5 -54.5t-56.5 -38.5t-61 -30
t-55 -29.5t-40 -36.5t-15 -51q0 -26 13 -47t39.5 -37t68 -24.5t96.5 -8.5zM457 544v-105h-112v105h112z" />
    <glyph glyph-name="Agrave" unicode="&#xc0;" horiz-adv-x="900" 
d="M769 0l-99 185h-445l-99 -185h-112l380 700h109l382 -700h-116zM625 268l-178 331l-178 -331h356zM493 764h-87l-191 158h133z" />
    <glyph glyph-name="Aacute" unicode="&#xc1;" horiz-adv-x="900" 
d="M769 0l-99 185h-445l-99 -185h-112l380 700h109l382 -700h-116zM625 268l-178 331l-178 -331h356zM406 764l145 158h133l-191 -158h-87z" />
    <glyph glyph-name="Acircumflex" unicode="&#xc2;" horiz-adv-x="900" 
d="M769 0l-99 185h-445l-99 -185h-112l380 700h109l382 -700h-116zM625 268l-178 331l-178 -331h356zM448 871l-131 -107h-79l152 158h121l151 -158h-82z" />
    <glyph glyph-name="Atilde" unicode="&#xc3;" horiz-adv-x="900" 
d="M769 0l-99 185h-445l-99 -185h-112l380 700h109l382 -700h-116zM625 268l-178 331l-178 -331h356zM636 916q7 -59 -3.5 -94t-33.5 -50t-53 -15q-25 0 -46 10t-38.5 24.5t-33.5 29t-31.5 24.5t-31.5 10q-11 0 -21 -7.5t-14 -26.5t1 -52h-68q-6 59 4.5 93.5t33.5 49.5
t53 15q24 0 45 -10t38.5 -24.5t33.5 -29t31.5 -24.5t31.5 -10q9 0 17 4t13 14t6.5 26.5t-2.5 42.5h68z" />
    <glyph glyph-name="Adieresis" unicode="&#xc4;" horiz-adv-x="900" 
d="M769 0l-99 185h-445l-99 -185h-112l380 700h109l382 -700h-116zM625 268l-178 331l-178 -331h356zM513 783v104h111v-104h-111zM275 783v104h111v-104h-111z" />
    <glyph glyph-name="Aring" unicode="&#xc5;" horiz-adv-x="900" 
d="M769 0l-99 185h-445l-99 -185h-112l380 700h109l382 -700h-116zM625 268l-178 331l-178 -331h356zM451 749q-43 0 -74.5 13t-48.5 37t-17 56t17 55.5t48.5 36.5t74.5 13t73.5 -13t47 -36.5t16.5 -55.5t-16.5 -56t-47 -37t-73.5 -13zM451 795q40 0 60.5 16t20.5 44
t-20.5 43t-60.5 15q-41 0 -62.5 -15t-21.5 -43t21.5 -44t62.5 -16z" />
    <glyph glyph-name="AE" unicode="&#xc6;" horiz-adv-x="1396" 
d="M711 0v190h-435l-155 -190h-121l568 700h762v-84h-515v-216h462v-83h-462v-233h522v-84h-626zM711 271v345h-87l-282 -345h369z" />
    <glyph glyph-name="Ccedilla" unicode="&#xc7;" horiz-adv-x="945" 
d="M67 349q0 66 19 122t55 100t87.5 75t118 47.5t144.5 16.5q111 0 193.5 -27.5t134.5 -80t72 -129.5l-111 -21q-14 55 -51 94t-96 59t-142 20q-60 0 -110 -12t-88.5 -35.5t-64.5 -57.5t-39 -77t-13 -94t13 -94t39 -76.5t64.5 -56.5t88 -35t110.5 -12q84 0 145 20t98.5 60
t49.5 99l108 -22q-17 -79 -69 -133t-136 -82q-80 -26 -187 -27l-8 -47q5 2 10 3q24 7 49 7q51 0 78.5 -20.5t27.5 -56.5q0 -28 -16.5 -47.5t-51 -30t-90.5 -10.5q-32 0 -66.5 3.5t-70.5 10.5l4 52q37 -7 65 -10t53 -3q32 0 50.5 4t27 12t8.5 19q0 13 -11 21t-35 8
q-14 0 -28.5 -4t-27.5 -10l-51 8l16 93q-35 3 -67 9q-57 11 -104.5 33t-83.5 53.5t-60.5 71.5t-37.5 88t-13 102z" />
    <glyph glyph-name="Egrave" unicode="&#xc8;" horiz-adv-x="839" 
d="M126 0v700h648v-84h-543v-215h489v-84h-489v-233h550v-84h-655zM495 764h-87l-191 158h133z" />
    <glyph glyph-name="Eacute" unicode="&#xc9;" horiz-adv-x="839" 
d="M126 0v700h648v-84h-543v-215h489v-84h-489v-233h550v-84h-655zM389 764l145 158h133l-191 -158h-87z" />
    <glyph glyph-name="Ecircumflex" unicode="&#xca;" horiz-adv-x="839" 
d="M126 0v700h648v-84h-543v-215h489v-84h-489v-233h550v-84h-655zM446 871l-131 -107h-79l152 158h121l151 -158h-82z" />
    <glyph glyph-name="Edieresis" unicode="&#xcb;" horiz-adv-x="839" 
d="M126 0v700h648v-84h-543v-215h489v-84h-489v-233h550v-84h-655zM513 783v104h111v-104h-111zM275 783v104h111v-104h-111z" />
    <glyph glyph-name="Igrave" unicode="&#xcc;" horiz-adv-x="359" 
d="M126 0v700h107v-700h-107zM223 764h-87l-191 158h133z" />
    <glyph glyph-name="Iacute" unicode="&#xcd;" horiz-adv-x="359" 
d="M126 0v700h107v-700h-107zM136 764l145 158h133l-191 -158h-87z" />
    <glyph glyph-name="Icircumflex" unicode="&#xce;" horiz-adv-x="359" 
d="M126 0v700h107v-700h-107zM178 871l-131 -107h-79l152 158h121l151 -158h-82z" />
    <glyph glyph-name="Idieresis" unicode="&#xcf;" horiz-adv-x="359" 
d="M126 0v700h107v-700h-107zM243 783v104h111v-104h-111zM5 783v104h111v-104h-111z" />
    <glyph glyph-name="Eth" unicode="&#xd0;" horiz-adv-x="988" 
d="M10 309v83h126v308h386q76 0 139 -15.5t111 -45.5t80.5 -73t49 -97.5t16.5 -119.5q0 -64 -16.5 -118.5t-49 -97t-80.5 -72.5t-111 -45.5t-139 -15.5h-386v309h-126zM526 86q56 0 101 11.5t79 34t56.5 54.5t34 73t11.5 90t-11.5 90.5t-34 73.5t-56.5 55t-79 34.5
t-101 11.5h-283v-222h226v-83h-226v-223h283z" />
    <glyph glyph-name="Ntilde" unicode="&#xd1;" horiz-adv-x="1012" 
d="M126 0v700h106l555 -582v582h98v-700h-106l-555 581v-581h-98zM692 916q7 -59 -3.5 -94t-33.5 -50t-53 -15q-25 0 -46 10t-38.5 24.5t-33.5 29t-31.5 24.5t-31.5 10q-11 0 -21 -7.5t-14 -26.5t1 -52h-68q-6 59 4.5 93.5t33.5 49.5t53 15q24 0 45 -10t38.5 -24.5t33.5 -29
t31.5 -24.5t31.5 -10q9 0 17 4t13 14t6.5 26.5t-2.5 42.5h68z" />
    <glyph glyph-name="Ograve" unicode="&#xd2;" horiz-adv-x="995" 
d="M497 -10q-81 0 -149 16t-120 47t-88 75t-54.5 99.5t-18.5 121.5t18.5 122t54 100t88 75t120.5 47.5t149 16.5q83 0 150.5 -16.5t120 -47.5t88.5 -75t54.5 -100t18.5 -122q0 -65 -18.5 -120.5t-54.5 -100t-88.5 -75.5t-120 -47t-150.5 -16zM497 75q64 0 115.5 12.5
t90 35.5t65 56.5t39.5 76t13 93.5t-13 94t-39.5 76.5t-65 57t-90 36t-115.5 12.5q-63 0 -114 -12.5t-90 -36t-65 -57t-39 -76.5t-13 -94t13 -93.5t39 -76t65 -57t90 -35.5t114 -12zM540 764h-87l-191 158h133z" />
    <glyph glyph-name="Oacute" unicode="&#xd3;" horiz-adv-x="995" 
d="M497 -10q-81 0 -149 16t-120 47t-88 75t-54.5 99.5t-18.5 121.5t18.5 122t54 100t88 75t120.5 47.5t149 16.5q83 0 150.5 -16.5t120 -47.5t88.5 -75t54.5 -100t18.5 -122q0 -65 -18.5 -120.5t-54.5 -100t-88.5 -75.5t-120 -47t-150.5 -16zM497 75q64 0 115.5 12.5
t90 35.5t65 56.5t39.5 76t13 93.5t-13 94t-39.5 76.5t-65 57t-90 36t-115.5 12.5q-63 0 -114 -12.5t-90 -36t-65 -57t-39 -76.5t-13 -94t13 -93.5t39 -76t65 -57t90 -35.5t114 -12zM453 764l145 158h133l-191 -158h-87z" />
    <glyph glyph-name="Ocircumflex" unicode="&#xd4;" horiz-adv-x="995" 
d="M497 -10q-81 0 -149 16t-120 47t-88 75t-54.5 99.5t-18.5 121.5t18.5 122t54 100t88 75t120.5 47.5t149 16.5q83 0 150.5 -16.5t120 -47.5t88.5 -75t54.5 -100t18.5 -122q0 -65 -18.5 -120.5t-54.5 -100t-88.5 -75.5t-120 -47t-150.5 -16zM497 75q64 0 115.5 12.5
t90 35.5t65 56.5t39.5 76t13 93.5t-13 94t-39.5 76.5t-65 57t-90 36t-115.5 12.5q-63 0 -114 -12.5t-90 -36t-65 -57t-39 -76.5t-13 -94t13 -93.5t39 -76t65 -57t90 -35.5t114 -12zM495 871l-131 -107h-79l152 158h121l151 -158h-82z" />
    <glyph glyph-name="Otilde" unicode="&#xd5;" horiz-adv-x="995" 
d="M497 -10q-81 0 -149 16t-120 47t-88 75t-54.5 99.5t-18.5 121.5t18.5 122t54 100t88 75t120.5 47.5t149 16.5q83 0 150.5 -16.5t120 -47.5t88.5 -75t54.5 -100t18.5 -122q0 -65 -18.5 -120.5t-54.5 -100t-88.5 -75.5t-120 -47t-150.5 -16zM497 75q64 0 115.5 12.5
t90 35.5t65 56.5t39.5 76t13 93.5t-13 94t-39.5 76.5t-65 57t-90 36t-115.5 12.5q-63 0 -114 -12.5t-90 -36t-65 -57t-39 -76.5t-13 -94t13 -93.5t39 -76t65 -57t90 -35.5t114 -12zM683 916q7 -59 -3.5 -94t-33.5 -50t-53 -15q-25 0 -46 10t-38.5 24.5t-33.5 29t-31.5 24.5
t-31.5 10q-11 0 -21 -7.5t-14 -26.5t1 -52h-68q-6 59 4.5 93.5t33.5 49.5t53 15q24 0 45 -10t38.5 -24.5t33.5 -29t31.5 -24.5t31.5 -10q9 0 17 4t13 14t6.5 26.5t-2.5 42.5h68z" />
    <glyph glyph-name="Odieresis" unicode="&#xd6;" horiz-adv-x="995" 
d="M497 -10q-81 0 -149 16t-120 47t-88 75t-54.5 99.5t-18.5 121.5t18.5 122t54 100t88 75t120.5 47.5t149 16.5q83 0 150.5 -16.5t120 -47.5t88.5 -75t54.5 -100t18.5 -122q0 -65 -18.5 -120.5t-54.5 -100t-88.5 -75.5t-120 -47t-150.5 -16zM497 75q64 0 115.5 12.5
t90 35.5t65 56.5t39.5 76t13 93.5t-13 94t-39.5 76.5t-65 57t-90 36t-115.5 12.5q-63 0 -114 -12.5t-90 -36t-65 -57t-39 -76.5t-13 -94t13 -93.5t39 -76t65 -57t90 -35.5t114 -12zM560 783v104h111v-104h-111zM322 783v104h111v-104h-111z" />
    <glyph glyph-name="multiply" unicode="&#xd7;" horiz-adv-x="589" 
d="M510 499l-159 -145l158 -144l-52 -55l-163 148l-164 -149l-52 55l159 145l-158 143l53 56l163 -148l163 149z" />
    <glyph glyph-name="Oslash" unicode="&#xd8;" horiz-adv-x="995" 
d="M93 0l87 87q-22 19 -40 41q-36 44 -54.5 99.5t-18.5 121.5t18.5 122t54 100t88 75t120.5 47.5t149 16.5q83 0 151 -16q55 -14 100 -37l43 43h114l-89 -88q22 -19 40 -41q36 -44 54.5 -100t18.5 -122q0 -65 -18.5 -120.5t-54.5 -100t-88.5 -75.5t-120 -47t-150.5 -16
q-81 0 -149 16q-55 13 -99 36l-42 -42h-114zM249 156l431 433q-30 14 -67 23q-52 13 -116 13q-63 0 -114 -12.5t-90 -36t-65 -57t-39 -76.5t-13 -94t13 -94t39 -76q10 -12 21 -23zM497 75q64 0 115.5 12t90 35.5t65 57t39.5 76t13 93.5t-13 94t-40 77q-9 11 -20 22
l-431 -432q30 -15 67 -23q51 -12 114 -12z" />
    <glyph glyph-name="Ugrave" unicode="&#xd9;" horiz-adv-x="955" 
d="M849 302q0 -75 -25 -133t-73.5 -98t-117 -60.5t-156.5 -20.5t-156.5 20.5t-116.5 60.5t-73 98t-25 133v398h106v-398q0 -74 31 -124.5t90.5 -76.5t143.5 -26q64 0 113 14.5t83 43.5t52 71.5t18 97.5v398h106v-398zM524 764h-87l-191 158h133z" />
    <glyph glyph-name="Uacute" unicode="&#xda;" horiz-adv-x="955" 
d="M849 302q0 -75 -25 -133t-73.5 -98t-117 -60.5t-156.5 -20.5t-156.5 20.5t-116.5 60.5t-73 98t-25 133v398h106v-398q0 -74 31 -124.5t90.5 -76.5t143.5 -26q64 0 113 14.5t83 43.5t52 71.5t18 97.5v398h106v-398zM433 764l145 158h133l-191 -158h-87z" />
    <glyph glyph-name="Ucircumflex" unicode="&#xdb;" horiz-adv-x="955" 
d="M849 302q0 -75 -25 -133t-73.5 -98t-117 -60.5t-156.5 -20.5t-156.5 20.5t-116.5 60.5t-73 98t-25 133v398h106v-398q0 -74 31 -124.5t90.5 -76.5t143.5 -26q64 0 113 14.5t83 43.5t52 71.5t18 97.5v398h106v-398zM475 871l-131 -107h-79l152 158h121l151 -158h-82z" />
    <glyph glyph-name="Udieresis" unicode="&#xdc;" horiz-adv-x="955" 
d="M849 302q0 -75 -25 -133t-73.5 -98t-117 -60.5t-156.5 -20.5t-156.5 20.5t-116.5 60.5t-73 98t-25 133v398h106v-398q0 -74 31 -124.5t90.5 -76.5t143.5 -26q64 0 113 14.5t83 43.5t52 71.5t18 97.5v398h106v-398zM540 783v104h111v-104h-111zM302 783v104h111v-104h-111
z" />
    <glyph glyph-name="Yacute" unicode="&#xdd;" horiz-adv-x="807" 
d="M349 0v284l-337 416h130l262 -327l266 327h125l-340 -419v-281h-106zM359 764l145 158h133l-191 -158h-87z" />
    <glyph glyph-name="Thorn" unicode="&#xde;" horiz-adv-x="877" 
d="M126 0v700h107v-107h325q63 0 113 -16.5t85 -48t53.5 -75.5t18.5 -99q0 -73 -33 -126t-94 -82t-146 -29h-322v-117h-107zM233 508v-305h307q58 0 98 17.5t61 51.5t21 82q0 49 -21 83.5t-61 52.5t-98 18h-307z" />
    <glyph glyph-name="germandbls" unicode="&#xdf;" horiz-adv-x="904" 
d="M97 0v490q0 64 27.5 114.5t76.5 85t116.5 52.5t148.5 18q76 0 131.5 -14t92 -40t54 -61.5t17.5 -78.5q0 -33 -12.5 -62t-37 -51.5t-60.5 -36.5q-3 -1 -5 -2q8 -1 16 -3q46 -8 80.5 -25.5t57.5 -42.5t35 -56.5t12 -69.5q0 -53 -23 -95t-66.5 -71.5t-107 -45t-145.5 -15.5
q-37 0 -72.5 3t-71 11t-72.5 22l20 79q33 -14 65 -21.5t62.5 -10.5t62.5 -3q65 0 111 10t75.5 29.5t43.5 47t14 61.5q0 26 -8 48.5t-25 39.5t-43.5 29t-63.5 18t-85 6h-172v81h145q34 0 61.5 5.5t48 15.5t34.5 24.5t20.5 33t6.5 41.5q0 29 -11 51.5t-34.5 38t-61 23.5
t-90.5 8q-60 0 -109 -11.5t-84.5 -34.5t-54.5 -57.5t-19 -81.5v-496h-101z" />
    <glyph glyph-name="agrave" unicode="&#xe0;" horiz-adv-x="756" 
d="M62 384q10 43 34 75t62 53t90 32t117 11q76 0 132 -12.5t91.5 -38.5t52.5 -65t17 -94v-228q0 -16 4.5 -27.5t14.5 -17.5t27 -6q5 0 11 0.5t10 1.5l-3 -70q-12 -3 -25 -4.5t-25 -1.5q-37 0 -61 12t-35 36.5t-11 59.5v11q-13 -16 -28 -30q-32 -29 -73.5 -49.5t-91 -31
t-104.5 -10.5q-73 0 -124.5 18.5t-78.5 54t-27 85.5q0 49 24.5 84t75 55t129.5 26l296 18v7q0 37 -11.5 63.5t-35.5 43.5t-61.5 25t-90.5 8q-60 0 -104 -12t-68.5 -36t-30.5 -62zM565 262l-292 -20q-46 -3 -76 -14t-45 -29.5t-15 -45.5q0 -28 16 -47t48.5 -29t80.5 -10
q45 0 87 8.5t77.5 23.5t62 36.5t41.5 48t15 56.5v22zM427 609h-87l-191 158h133z" />
    <glyph glyph-name="aacute" unicode="&#xe1;" horiz-adv-x="756" 
d="M62 384q10 43 34 75t62 53t90 32t117 11q76 0 132 -12.5t91.5 -38.5t52.5 -65t17 -94v-228q0 -16 4.5 -27.5t14.5 -17.5t27 -6q5 0 11 0.5t10 1.5l-3 -70q-12 -3 -25 -4.5t-25 -1.5q-37 0 -61 12t-35 36.5t-11 59.5v11q-13 -16 -28 -30q-32 -29 -73.5 -49.5t-91 -31
t-104.5 -10.5q-73 0 -124.5 18.5t-78.5 54t-27 85.5q0 49 24.5 84t75 55t129.5 26l296 18v7q0 37 -11.5 63.5t-35.5 43.5t-61.5 25t-90.5 8q-60 0 -104 -12t-68.5 -36t-30.5 -62zM565 262l-292 -20q-46 -3 -76 -14t-45 -29.5t-15 -45.5q0 -28 16 -47t48.5 -29t80.5 -10
q45 0 87 8.5t77.5 23.5t62 36.5t41.5 48t15 56.5v22zM340 609l145 158h133l-191 -158h-87z" />
    <glyph glyph-name="acircumflex" unicode="&#xe2;" horiz-adv-x="756" 
d="M62 384q10 43 34 75t62 53t90 32t117 11q76 0 132 -12.5t91.5 -38.5t52.5 -65t17 -94v-228q0 -16 4.5 -27.5t14.5 -17.5t27 -6q5 0 11 0.5t10 1.5l-3 -70q-12 -3 -25 -4.5t-25 -1.5q-37 0 -61 12t-35 36.5t-11 59.5v11q-13 -16 -28 -30q-32 -29 -73.5 -49.5t-91 -31
t-104.5 -10.5q-73 0 -124.5 18.5t-78.5 54t-27 85.5q0 49 24.5 84t75 55t129.5 26l296 18v7q0 37 -11.5 63.5t-35.5 43.5t-61.5 25t-90.5 8q-60 0 -104 -12t-68.5 -36t-30.5 -62zM565 262l-292 -20q-46 -3 -76 -14t-45 -29.5t-15 -45.5q0 -28 16 -47t48.5 -29t80.5 -10
q45 0 87 8.5t77.5 23.5t62 36.5t41.5 48t15 56.5v22zM382 716l-131 -107h-79l152 158h121l151 -158h-82z" />
    <glyph glyph-name="atilde" unicode="&#xe3;" horiz-adv-x="756" 
d="M62 384q10 43 34 75t62 53t90 32t117 11q76 0 132 -12.5t91.5 -38.5t52.5 -65t17 -94v-228q0 -16 4.5 -27.5t14.5 -17.5t27 -6q5 0 11 0.5t10 1.5l-3 -70q-12 -3 -25 -4.5t-25 -1.5q-37 0 -61 12t-35 36.5t-11 59.5v11q-13 -16 -28 -30q-32 -29 -73.5 -49.5t-91 -31
t-104.5 -10.5q-73 0 -124.5 18.5t-78.5 54t-27 85.5q0 49 24.5 84t75 55t129.5 26l296 18v7q0 37 -11.5 63.5t-35.5 43.5t-61.5 25t-90.5 8q-60 0 -104 -12t-68.5 -36t-30.5 -62zM565 262l-292 -20q-46 -3 -76 -14t-45 -29.5t-15 -45.5q0 -28 16 -47t48.5 -29t80.5 -10
q45 0 87 8.5t77.5 23.5t62 36.5t41.5 48t15 56.5v22zM570 761q7 -59 -3.5 -94t-33.5 -50t-53 -15q-25 0 -46 10t-38.5 24.5t-33.5 29t-31.5 24.5t-31.5 10q-11 0 -21 -7.5t-14 -26.5t1 -52h-68q-6 59 4.5 93.5t33.5 49.5t53 15q24 0 45 -10t38.5 -24.5t33.5 -29t31.5 -24.5
t31.5 -10q9 0 17 4t13 14t6.5 26.5t-2.5 42.5h68z" />
    <glyph glyph-name="adieresis" unicode="&#xe4;" horiz-adv-x="756" 
d="M62 384q10 43 34 75t62 53t90 32t117 11q76 0 132 -12.5t91.5 -38.5t52.5 -65t17 -94v-228q0 -16 4.5 -27.5t14.5 -17.5t27 -6q5 0 11 0.5t10 1.5l-3 -70q-12 -3 -25 -4.5t-25 -1.5q-37 0 -61 12t-35 36.5t-11 59.5v11q-13 -16 -28 -30q-32 -29 -73.5 -49.5t-91 -31
t-104.5 -10.5q-73 0 -124.5 18.5t-78.5 54t-27 85.5q0 49 24.5 84t75 55t129.5 26l296 18v7q0 37 -11.5 63.5t-35.5 43.5t-61.5 25t-90.5 8q-60 0 -104 -12t-68.5 -36t-30.5 -62zM565 262l-292 -20q-46 -3 -76 -14t-45 -29.5t-15 -45.5q0 -28 16 -47t48.5 -29t80.5 -10
q45 0 87 8.5t77.5 23.5t62 36.5t41.5 48t15 56.5v22zM447 628v104h111v-104h-111zM209 628v104h111v-104h-111z" />
    <glyph glyph-name="aring" unicode="&#xe5;" horiz-adv-x="756" 
d="M62 384q10 43 34 75t62 53t90 32t117 11q76 0 132 -12.5t91.5 -38.5t52.5 -65t17 -94v-228q0 -16 4.5 -27.5t14.5 -17.5t27 -6q5 0 11 0.5t10 1.5l-3 -70q-12 -3 -25 -4.5t-25 -1.5q-37 0 -61 12t-35 36.5t-11 59.5v11q-13 -16 -28 -30q-32 -29 -73.5 -49.5t-91 -31
t-104.5 -10.5q-73 0 -124.5 18.5t-78.5 54t-27 85.5q0 49 24.5 84t75 55t129.5 26l296 18v7q0 37 -11.5 63.5t-35.5 43.5t-61.5 25t-90.5 8q-60 0 -104 -12t-68.5 -36t-30.5 -62zM565 262l-292 -20q-46 -3 -76 -14t-45 -29.5t-15 -45.5q0 -28 16 -47t48.5 -29t80.5 -10
q45 0 87 8.5t77.5 23.5t62 36.5t41.5 48t15 56.5v22zM385 594q-43 0 -74.5 13t-48.5 37t-17 56t17 55.5t48.5 36.5t74.5 13t73.5 -13t47 -36.5t16.5 -55.5t-16.5 -56t-47 -37t-73.5 -13zM385 640q40 0 60.5 16t20.5 44t-20.5 43t-60.5 15q-41 0 -62.5 -15t-21.5 -43
t21.5 -44t62.5 -16z" />
    <glyph glyph-name="ae" unicode="&#xe6;" horiz-adv-x="1274" 
d="M286 -10q-65 0 -111.5 11t-77 32t-45 50t-14.5 65q0 49 24.5 83.5t75 55t129.5 26.5l296 18v5q0 37 -11.5 63.5t-35.5 44t-61.5 26t-90.5 8.5q-60 0 -104 -12t-68.5 -36t-30.5 -62l-99 16q10 43 34 75t62 53t90 32t117 11q51 0 94.5 -7t78 -22t58.5 -39q16 -16 28 -35
q13 17 30 31q29 25 67 41t81.5 23.5t89.5 7.5q76 0 136 -20t102 -55.5t64 -85.5t22 -110q0 -11 -0.5 -20.5t-2.5 -18.5h-553q2 -22 8 -41q9 -33 28 -58t47.5 -43t67 -27t87.5 -9q63 0 107 12t71.5 36t38.5 58l98 -17q-18 -55 -58 -92.5t-103.5 -55.5t-153.5 -18
q-54 0 -101 9t-86.5 28.5t-69.5 48.5q-20 20 -35 44q-18 -25 -42 -45q-34 -29 -78.5 -48t-95 -28t-104.5 -9zM564 261l-291 -19q-46 -3 -76 -14t-45 -29.5t-15 -45.5q0 -28 16.5 -47t50 -29t84.5 -10q64 0 115 13t87.5 37t55.5 56t18 69v19zM662 320h454q-5 29 -17 54
q-17 33 -47 56.5t-70.5 36t-89.5 12.5q-47 0 -84.5 -9t-65 -26.5t-46.5 -42.5t-28 -57z" />
    <glyph glyph-name="ccedilla" unicode="&#xe7;" horiz-adv-x="777" 
d="M729 360l-100 -19q-9 45 -37.5 74.5t-75.5 45t-110 15.5q-48 0 -86.5 -9t-67 -26.5t-47.5 -42.5t-29 -56.5t-10 -70.5q0 -37 10 -68.5t29 -56.5t48 -42t67.5 -26t85.5 -9q64 0 111 14.5t76 44.5t39 75l100 -19q-15 -63 -58 -106.5t-111 -65.5q-67 -22 -155 -22l-8 -47
q5 2 10 3q24 7 49 7q51 0 78.5 -20.5t27.5 -56.5q0 -28 -16.5 -47.5t-51 -30t-90.5 -10.5q-32 0 -66.5 3.5t-70.5 10.5l4 52q37 -7 65 -10t53 -3q32 0 50.5 4t27 12t8.5 19q0 13 -11 21t-35 8q-14 0 -28.5 -4t-27.5 -10l-51 8l16 94q-29 3 -55 9q-54 13 -95.5 37.5t-70 58.5
t-43.5 77.5t-15 95.5t15 96t43.5 79t70 59t95.5 37t120 13q90 0 157.5 -22.5t110 -66t55.5 -106.5z" />
    <glyph glyph-name="egrave" unicode="&#xe8;" horiz-adv-x="802" 
d="M410 -10q-66 0 -121.5 13t-97 37t-70.5 59t-44 79t-15 96q0 50 15 93.5t43.5 78t70 59t96 37.5t119.5 13q79 0 141.5 -19.5t106.5 -55.5t67 -85.5t23 -110.5q0 -10 -0.5 -20t-2.5 -19h-579q3 -22 9 -41q10 -33 29.5 -58t49.5 -43t70 -27t90 -9q69 0 116 12t76 36t41 58
l98 -17q-18 -55 -59 -92t-108 -55.5t-164 -18.5zM165 320h479q-4 29 -16 53q-16 33 -46.5 56.5t-74 36.5t-100.5 13q-50 0 -89.5 -9t-68.5 -26.5t-49 -42.5t-29 -57q-4 -12 -6 -24zM444 609h-87l-191 158h133z" />
    <glyph glyph-name="eacute" unicode="&#xe9;" horiz-adv-x="802" 
d="M410 -10q-66 0 -121.5 13t-97 37t-70.5 59t-44 79t-15 96q0 50 15 93.5t43.5 78t70 59t96 37.5t119.5 13q79 0 141.5 -19.5t106.5 -55.5t67 -85.5t23 -110.5q0 -10 -0.5 -20t-2.5 -19h-579q3 -22 9 -41q10 -33 29.5 -58t49.5 -43t70 -27t90 -9q69 0 116 12t76 36t41 58
l98 -17q-18 -55 -59 -92t-108 -55.5t-164 -18.5zM165 320h479q-4 29 -16 53q-16 33 -46.5 56.5t-74 36.5t-100.5 13q-50 0 -89.5 -9t-68.5 -26.5t-49 -42.5t-29 -57q-4 -12 -6 -24zM357 609l145 158h133l-191 -158h-87z" />
    <glyph glyph-name="ecircumflex" unicode="&#xea;" horiz-adv-x="802" 
d="M410 -10q-66 0 -121.5 13t-97 37t-70.5 59t-44 79t-15 96q0 50 15 93.5t43.5 78t70 59t96 37.5t119.5 13q79 0 141.5 -19.5t106.5 -55.5t67 -85.5t23 -110.5q0 -10 -0.5 -20t-2.5 -19h-579q3 -22 9 -41q10 -33 29.5 -58t49.5 -43t70 -27t90 -9q69 0 116 12t76 36t41 58
l98 -17q-18 -55 -59 -92t-108 -55.5t-164 -18.5zM165 320h479q-4 29 -16 53q-16 33 -46.5 56.5t-74 36.5t-100.5 13q-50 0 -89.5 -9t-68.5 -26.5t-49 -42.5t-29 -57q-4 -12 -6 -24zM399 716l-131 -107h-79l152 158h121l151 -158h-82z" />
    <glyph glyph-name="edieresis" unicode="&#xeb;" horiz-adv-x="802" 
d="M410 -10q-66 0 -121.5 13t-97 37t-70.5 59t-44 79t-15 96q0 50 15 93.5t43.5 78t70 59t96 37.5t119.5 13q79 0 141.5 -19.5t106.5 -55.5t67 -85.5t23 -110.5q0 -10 -0.5 -20t-2.5 -19h-579q3 -22 9 -41q10 -33 29.5 -58t49.5 -43t70 -27t90 -9q69 0 116 12t76 36t41 58
l98 -17q-18 -55 -59 -92t-108 -55.5t-164 -18.5zM165 320h479q-4 29 -16 53q-16 33 -46.5 56.5t-74 36.5t-100.5 13q-50 0 -89.5 -9t-68.5 -26.5t-49 -42.5t-29 -57q-4 -12 -6 -24zM464 628v104h111v-104h-111zM226 628v104h111v-104h-111z" />
    <glyph glyph-name="igrave" unicode="&#xec;" horiz-adv-x="316" 
d="M107 0v544h101v-544h-101zM202 609h-87l-191 158h133z" />
    <glyph glyph-name="iacute" unicode="&#xed;" horiz-adv-x="316" 
d="M107 0v544h101v-544h-101zM115 609l145 158h133l-191 -158h-87z" />
    <glyph glyph-name="icircumflex" unicode="&#xee;" horiz-adv-x="315" 
d="M107 0v544h101v-544h-101zM156 716l-131 -107h-79l152 158h121l151 -158h-82z" />
    <glyph glyph-name="idieresis" unicode="&#xef;" horiz-adv-x="315" 
d="M107 0v544h101v-544h-101zM221 628v104h111v-104h-111zM-17 628v104h111v-104h-111z" />
    <glyph glyph-name="eth" unicode="&#xf0;" horiz-adv-x="816" 
d="M402 -10q-65 0 -118.5 11.5t-94.5 33t-69 52t-42.5 69t-14.5 83.5t14 83.5t40.5 69t66 52t91 33t114.5 11.5q57 0 106.5 -11t89.5 -34q28 -17 50 -41q-7 24 -17 48q-16 33 -40 66.5t-60 68.5q-5 5 -11 10l-171 -53v72l110 34q-7 5 -13 10q-50 38 -115 83l114 19
q61 -42 108 -83l166 50v-71l-108 -33q29 -30 51 -59q37 -48 59 -96t31.5 -97.5t9.5 -101.5q0 -50 -14 -93.5t-41.5 -78t-69 -58.5t-97.5 -36.5t-125 -12.5zM406 68q47 0 85 7.5t66.5 22.5t47.5 36t28 47.5t9 58.5q0 31 -9.5 57.5t-28.5 47.5t-48 35t-66.5 22t-83.5 8
q-60 0 -105 -12t-75 -34.5t-44.5 -54t-14.5 -71t14.5 -71t44.5 -53.5t75 -34t105 -12z" />
    <glyph glyph-name="ntilde" unicode="&#xf1;" horiz-adv-x="831" 
d="M107 0v544h90l7 -122q27 42 68 71.5t94 45.5t112 16q81 0 138 -29t87 -82t30 -125v-319h-101v299q0 52 -21 90.5t-61.5 60t-100.5 21.5q-52 0 -96.5 -15t-77 -42.5t-50 -66t-17.5 -85.5v-262h-101zM602 761q7 -59 -3.5 -94t-33.5 -50t-53 -15q-25 0 -46 10t-38.5 24.5
t-33.5 29t-31.5 24.5t-31.5 10q-11 0 -21 -7.5t-14 -26.5t1 -52h-68q-6 59 4.5 93.5t33.5 49.5t53 15q24 0 45 -10t38.5 -24.5t33.5 -29t31.5 -24.5t31.5 -10q9 0 17 4t13 14t6.5 26.5t-2.5 42.5h68z" />
    <glyph glyph-name="ograve" unicode="&#xf2;" horiz-adv-x="818" 
d="M409 -10q-67 0 -121 12.5t-96 36.5t-71 58.5t-44 78.5t-15 96q0 51 15 95t44 79t71 59t96.5 37t120.5 13t121 -13t96.5 -37t70.5 -59t44 -79t15 -95q0 -52 -15 -96t-43.5 -78.5t-70.5 -58.5t-97 -36.5t-121 -12.5zM409 69q49 0 87.5 9t67.5 26t49 42t29.5 56.5t9.5 69.5
t-9.5 70t-29.5 56.5t-49 42t-67.5 26.5t-87.5 9q-48 0 -87 -9t-68.5 -26.5t-49 -42.5t-29 -56.5t-9.5 -69.5t10 -69.5t29 -56.5t48.5 -42t68.5 -26t87 -9zM452 609h-87l-191 158h133z" />
    <glyph glyph-name="oacute" unicode="&#xf3;" horiz-adv-x="818" 
d="M409 -10q-67 0 -121 12.5t-96 36.5t-71 58.5t-44 78.5t-15 96q0 51 15 95t44 79t71 59t96.5 37t120.5 13t121 -13t96.5 -37t70.5 -59t44 -79t15 -95q0 -52 -15 -96t-43.5 -78.5t-70.5 -58.5t-97 -36.5t-121 -12.5zM409 69q49 0 87.5 9t67.5 26t49 42t29.5 56.5t9.5 69.5
t-9.5 70t-29.5 56.5t-49 42t-67.5 26.5t-87.5 9q-48 0 -87 -9t-68.5 -26.5t-49 -42.5t-29 -56.5t-9.5 -69.5t10 -69.5t29 -56.5t48.5 -42t68.5 -26t87 -9zM365 609l145 158h133l-191 -158h-87z" />
    <glyph glyph-name="ocircumflex" unicode="&#xf4;" horiz-adv-x="818" 
d="M409 -10q-67 0 -121 12.5t-96 36.5t-71 58.5t-44 78.5t-15 96q0 51 15 95t44 79t71 59t96.5 37t120.5 13t121 -13t96.5 -37t70.5 -59t44 -79t15 -95q0 -52 -15 -96t-43.5 -78.5t-70.5 -58.5t-97 -36.5t-121 -12.5zM409 69q49 0 87.5 9t67.5 26t49 42t29.5 56.5t9.5 69.5
t-9.5 70t-29.5 56.5t-49 42t-67.5 26.5t-87.5 9q-48 0 -87 -9t-68.5 -26.5t-49 -42.5t-29 -56.5t-9.5 -69.5t10 -69.5t29 -56.5t48.5 -42t68.5 -26t87 -9zM407 716l-131 -107h-79l152 158h121l151 -158h-82z" />
    <glyph glyph-name="otilde" unicode="&#xf5;" horiz-adv-x="818" 
d="M409 -10q-67 0 -121 12.5t-96 36.5t-71 58.5t-44 78.5t-15 96q0 51 15 95t44 79t71 59t96.5 37t120.5 13t121 -13t96.5 -37t70.5 -59t44 -79t15 -95q0 -52 -15 -96t-43.5 -78.5t-70.5 -58.5t-97 -36.5t-121 -12.5zM409 69q49 0 87.5 9t67.5 26t49 42t29.5 56.5t9.5 69.5
t-9.5 70t-29.5 56.5t-49 42t-67.5 26.5t-87.5 9q-48 0 -87 -9t-68.5 -26.5t-49 -42.5t-29 -56.5t-9.5 -69.5t10 -69.5t29 -56.5t48.5 -42t68.5 -26t87 -9zM595 761q7 -59 -3.5 -94t-33.5 -50t-53 -15q-25 0 -46 10t-38.5 24.5t-33.5 29t-31.5 24.5t-31.5 10q-11 0 -21 -7.5
t-14 -26.5t1 -52h-68q-6 59 4.5 93.5t33.5 49.5t53 15q24 0 45 -10t38.5 -24.5t33.5 -29t31.5 -24.5t31.5 -10q9 0 17 4t13 14t6.5 26.5t-2.5 42.5h68z" />
    <glyph glyph-name="odieresis" unicode="&#xf6;" horiz-adv-x="818" 
d="M409 -10q-67 0 -121 12.5t-96 36.5t-71 58.5t-44 78.5t-15 96q0 51 15 95t44 79t71 59t96.5 37t120.5 13t121 -13t96.5 -37t70.5 -59t44 -79t15 -95q0 -52 -15 -96t-43.5 -78.5t-70.5 -58.5t-97 -36.5t-121 -12.5zM409 69q49 0 87.5 9t67.5 26t49 42t29.5 56.5t9.5 69.5
t-9.5 70t-29.5 56.5t-49 42t-67.5 26.5t-87.5 9q-48 0 -87 -9t-68.5 -26.5t-49 -42.5t-29 -56.5t-9.5 -69.5t10 -69.5t29 -56.5t48.5 -42t68.5 -26t87 -9zM472 628v104h111v-104h-111zM234 628v104h111v-104h-111z" />
    <glyph glyph-name="divide" unicode="&#xf7;" horiz-adv-x="589" 
d="M240 494v100h108v-100h-108zM240 111v100h108v-100h-108zM531 315h-474v75h474v-75z" />
    <glyph glyph-name="oslash" unicode="&#xf8;" horiz-adv-x="818" 
d="M69 0l77 72q-14 12 -25 26q-29 34 -44 78t-15 96q0 51 15 95t44 79t71 59t96.5 37t120.5 13t121 -13q49 -11 88 -32l36 34h96l-78 -72q14 -12 25 -26q29 -35 44 -79t15 -95q0 -52 -15 -96t-43.5 -78.5t-70.5 -58.5t-97 -36.5t-121.5 -12.5t-120.5 12q-48 12 -87 32
l-37 -34h-95zM213 134l338 314q-24 12 -54 19q-39 9 -88 9q-48 0 -87.5 -9t-69 -26t-48.5 -42t-29 -57t-10 -70t10 -70t29 -57q4 -5 9 -11zM409 68q49 0 87.5 9t68.5 26t49.5 42t29.5 57t10 70t-10 70t-30 57q-4 5 -9 11l-338 -314q24 -12 54 -19q40 -9 88 -9z" />
    <glyph glyph-name="ugrave" unicode="&#xf9;" horiz-adv-x="813" 
d="M706 544v-544h-89l-7 118q-20 -30 -48 -54t-62 -40.5t-73 -25t-82 -8.5q-55 0 -101 14.5t-79.5 44t-51.5 72.5t-18 100v323h101v-308q0 -40 13 -70.5t36 -51t55 -30.5t72 -10q37 0 72 8.5t64.5 25.5t51 42.5t34 58t12.5 72.5v263h100zM450 609h-87l-191 158h133z" />
    <glyph glyph-name="uacute" unicode="&#xfa;" horiz-adv-x="813" 
d="M706 544v-544h-89l-7 118q-20 -30 -48 -54t-62 -40.5t-73 -25t-82 -8.5q-55 0 -101 14.5t-79.5 44t-51.5 72.5t-18 100v323h101v-308q0 -40 13 -70.5t36 -51t55 -30.5t72 -10q37 0 72 8.5t64.5 25.5t51 42.5t34 58t12.5 72.5v263h100zM363 609l145 158h133l-191 -158h-87
z" />
    <glyph glyph-name="ucircumflex" unicode="&#xfb;" horiz-adv-x="813" 
d="M706 544v-544h-89l-7 118q-20 -30 -48 -54t-62 -40.5t-73 -25t-82 -8.5q-55 0 -101 14.5t-79.5 44t-51.5 72.5t-18 100v323h101v-308q0 -40 13 -70.5t36 -51t55 -30.5t72 -10q37 0 72 8.5t64.5 25.5t51 42.5t34 58t12.5 72.5v263h100zM405 716l-131 -107h-79l152 158h121
l151 -158h-82z" />
    <glyph glyph-name="udieresis" unicode="&#xfc;" horiz-adv-x="813" 
d="M706 544v-544h-89l-7 118q-20 -30 -48 -54t-62 -40.5t-73 -25t-82 -8.5q-55 0 -101 14.5t-79.5 44t-51.5 72.5t-18 100v323h101v-308q0 -40 13 -70.5t36 -51t55 -30.5t72 -10q37 0 72 8.5t64.5 25.5t51 42.5t34 58t12.5 72.5v263h100zM470 628v104h111v-104h-111z
M232 628v104h111v-104h-111z" />
    <glyph glyph-name="yacute" unicode="&#xfd;" horiz-adv-x="692" 
d="M572 544h107l-300 -587q-24 -46 -47.5 -78t-49.5 -51.5t-58.5 -28.5t-73.5 -9q-21 0 -41.5 2.5t-39.5 7.5l-4 77q17 -4 34.5 -5.5t32.5 -1.5q30 0 53.5 6.5t42.5 21.5t36.5 39t37.5 59l5 11l-294 537h112l231 -439zM302 609l145 158h133l-191 -158h-87z" />
    <glyph glyph-name="thorn" unicode="&#xfe;" horiz-adv-x="856" 
d="M208 750v-318q16 23 38 42q43 38 103 59.5t134 21.5q58 0 106.5 -13.5t86.5 -38t64 -59.5t39.5 -78.5t13.5 -93.5q0 -51 -13.5 -94t-39.5 -78t-63.5 -59.5t-86.5 -37.5t-107 -13q-74 0 -134 20.5t-103 58.5q-22 19 -38 42v-311h-101v950h101zM453 69q47 0 84.5 9.5t66 27
t47.5 42.5t29 56.5t10 67.5t-10 67t-29 56.5t-47.5 43t-66 27t-84.5 9.5q-75 0 -130.5 -26t-85 -71.5t-29.5 -106.5q0 -44 16.5 -81.5t49 -64t78 -41.5t101.5 -15z" />
    <glyph glyph-name="ydieresis" unicode="&#xff;" horiz-adv-x="692" 
d="M572 544h107l-300 -587q-24 -46 -47.5 -78t-49.5 -51.5t-58.5 -28.5t-73.5 -9q-21 0 -41.5 2.5t-39.5 7.5l-4 77q17 -4 34.5 -5.5t32.5 -1.5q30 0 53.5 6.5t42.5 21.5t36.5 39t37.5 59l5 11l-294 537h112l231 -439zM409 628v104h111v-104h-111zM171 628v104h111v-104
h-111z" />
    <glyph glyph-name="Amacron" unicode="&#x100;" horiz-adv-x="900" 
d="M769 0l-99 185h-445l-99 -185h-112l380 700h109l382 -700h-116zM625 268l-178 331l-178 -331h356zM259 793v70h381v-70h-381z" />
    <glyph glyph-name="amacron" unicode="&#x101;" horiz-adv-x="756" 
d="M62 384q10 43 34 75t62 53t90 32t117 11q76 0 132 -12.5t91.5 -38.5t52.5 -65t17 -94v-228q0 -16 4.5 -27.5t14.5 -17.5t27 -6q5 0 11 0.5t10 1.5l-3 -70q-12 -3 -25 -4.5t-25 -1.5q-37 0 -61 12t-35 36.5t-11 59.5v11q-13 -16 -28 -30q-32 -29 -73.5 -49.5t-91 -31
t-104.5 -10.5q-73 0 -124.5 18.5t-78.5 54t-27 85.5q0 49 24.5 84t75 55t129.5 26l296 18v7q0 37 -11.5 63.5t-35.5 43.5t-61.5 25t-90.5 8q-60 0 -104 -12t-68.5 -36t-30.5 -62zM565 262l-292 -20q-46 -3 -76 -14t-45 -29.5t-15 -45.5q0 -28 16 -47t48.5 -29t80.5 -10
q45 0 87 8.5t77.5 23.5t62 36.5t41.5 48t15 56.5v22zM193 638v70h381v-70h-381z" />
    <glyph glyph-name="Abreve" unicode="&#x102;" horiz-adv-x="900" 
d="M769 0l-99 185h-445l-99 -185h-112l380 700h109l382 -700h-116zM625 268l-178 331l-178 -331h356zM550 914h76q0 -50 -20 -83.5t-59 -50t-97 -16.5t-97.5 16.5t-59.5 50t-20 83.5h76q0 -47 26 -69t75 -22t74.5 22t25.5 69z" />
    <glyph glyph-name="abreve" unicode="&#x103;" horiz-adv-x="756" 
d="M62 384q10 43 34 75t62 53t90 32t117 11q76 0 132 -12.5t91.5 -38.5t52.5 -65t17 -94v-228q0 -16 4.5 -27.5t14.5 -17.5t27 -6q5 0 11 0.5t10 1.5l-3 -70q-12 -3 -25 -4.5t-25 -1.5q-37 0 -61 12t-35 36.5t-11 59.5v11q-13 -16 -28 -30q-32 -29 -73.5 -49.5t-91 -31
t-104.5 -10.5q-73 0 -124.5 18.5t-78.5 54t-27 85.5q0 49 24.5 84t75 55t129.5 26l296 18v7q0 37 -11.5 63.5t-35.5 43.5t-61.5 25t-90.5 8q-60 0 -104 -12t-68.5 -36t-30.5 -62zM565 262l-292 -20q-46 -3 -76 -14t-45 -29.5t-15 -45.5q0 -28 16 -47t48.5 -29t80.5 -10
q45 0 87 8.5t77.5 23.5t62 36.5t41.5 48t15 56.5v22zM484 759h76q0 -50 -20 -83.5t-59 -50t-97 -16.5t-97.5 16.5t-59.5 50t-20 83.5h76q0 -47 26 -69t75 -22t74.5 22t25.5 69z" />
    <glyph glyph-name="Aogonek" unicode="&#x104;" horiz-adv-x="900" 
d="M649 -119q0 24 9.5 45t31.5 40t58 35q8 3 17 7l-96 179h-443l-100 -187h-112l380 700h109l382 -700q-47 -11 -77 -22.5t-46.5 -23.5t-23 -24.5t-6.5 -24.5q0 -21 15.5 -31.5t49.5 -10.5q23 0 45 3.5t47 10.5l-3 -75q-23 -7 -50 -11.5t-56 -4.5q-62 0 -96.5 25t-34.5 70z
M625 268l-178 331l-178 -331h356z" />
    <glyph glyph-name="aogonek" unicode="&#x105;" horiz-adv-x="756" 
d="M607 6q-21 12 -31 34q-11 25 -11 60v15q-14 -19 -31 -34q-31 -29 -72.5 -49.5t-90 -31t-103.5 -10.5q-73 0 -124.5 18.5t-78.5 54t-27 85.5q0 49 24.5 84t75 55t129.5 26l296 18v7q0 37 -11.5 63.5t-35.5 43.5t-61.5 25t-90.5 8q-60 0 -104 -12t-68.5 -36t-30.5 -62
l-99 16q10 43 34 75t62 53t90 32t117 11q76 0 132 -12.5t91.5 -38.5t52.5 -65t17 -94v-228q0 -16 4.5 -27.5t14.5 -17.5t27 -6q5 0 11 0.5t10 1.5l-3 -70q-38 -12 -67 -23t-48.5 -21.5t-29 -22t-9.5 -26.5q0 -21 16 -31.5t51 -10.5q21 0 43 3.5t46 10.5l-3 -75
q-22 -7 -48.5 -11.5t-54.5 -4.5q-64 0 -98.5 25t-34.5 70q0 23 9.5 43.5t32 39t58.5 34.5q10 4 22 8zM565 240v22l-292 -20q-46 -3 -76 -14t-45 -29.5t-15 -45.5q0 -28 16 -47t48.5 -29t80.5 -10q45 0 87 8.5t77.5 23.5t62 36.5t41.5 48t15 56.5z" />
    <glyph glyph-name="Cacute" unicode="&#x106;" horiz-adv-x="945" 
d="M67 349q0 66 19 122t55 100t87.5 75t118 47.5t144.5 16.5q111 0 193.5 -27.5t134.5 -80t72 -129.5l-111 -21q-14 55 -51 94t-96 59t-142 20q-60 0 -110 -12t-88.5 -35.5t-64.5 -57.5t-39 -77t-13 -94t13 -94t39 -76.5t64.5 -56.5t88 -35t110.5 -12q84 0 145 20t98.5 60
t49.5 99l108 -22q-17 -79 -69 -133t-135.5 -81.5t-196.5 -27.5q-67 0 -124.5 11t-105 33t-83.5 53.5t-60.5 71.5t-37.5 88t-13 102zM435 764l145 158h133l-191 -158h-87z" />
    <glyph glyph-name="cacute" unicode="&#x107;" horiz-adv-x="777" 
d="M729 360l-100 -19q-9 45 -37.5 74.5t-75.5 45t-110 15.5q-48 0 -86.5 -9t-67 -26.5t-47.5 -42.5t-29 -56.5t-10 -70.5q0 -37 10 -68.5t29 -56.5t48 -42t67.5 -26t85.5 -9q64 0 111 14.5t76 44.5t39 75l100 -19q-15 -63 -58 -106.5t-111 -65.5t-157 -22q-66 0 -120 12.5
t-95.5 37t-70 58.5t-43.5 77.5t-15 95.5t15 96t43.5 79t70 59t95.5 37t120 13q90 0 157.5 -22.5t110 -66t55.5 -106.5zM344 609l145 158h133l-191 -158h-87z" />
    <glyph glyph-name="Ccircumflex" unicode="&#x108;" horiz-adv-x="945" 
d="M67 349q0 66 19 122t55 100t87.5 75t118 47.5t144.5 16.5q111 0 193.5 -27.5t134.5 -80t72 -129.5l-111 -21q-14 55 -51 94t-96 59t-142 20q-60 0 -110 -12t-88.5 -35.5t-64.5 -57.5t-39 -77t-13 -94t13 -94t39 -76.5t64.5 -56.5t88 -35t110.5 -12q84 0 145 20t98.5 60
t49.5 99l108 -22q-17 -79 -69 -133t-135.5 -81.5t-196.5 -27.5q-67 0 -124.5 11t-105 33t-83.5 53.5t-60.5 71.5t-37.5 88t-13 102zM480 871l-131 -107h-79l152 158h121l151 -158h-82z" />
    <glyph glyph-name="ccircumflex" unicode="&#x109;" horiz-adv-x="777" 
d="M729 360l-100 -19q-9 45 -37.5 74.5t-75.5 45t-110 15.5q-48 0 -86.5 -9t-67 -26.5t-47.5 -42.5t-29 -56.5t-10 -70.5q0 -37 10 -68.5t29 -56.5t48 -42t67.5 -26t85.5 -9q64 0 111 14.5t76 44.5t39 75l100 -19q-15 -63 -58 -106.5t-111 -65.5t-157 -22q-66 0 -120 12.5
t-95.5 37t-70 58.5t-43.5 77.5t-15 95.5t15 96t43.5 79t70 59t95.5 37t120 13q90 0 157.5 -22.5t110 -66t55.5 -106.5zM390 716l-131 -107h-79l152 158h121l151 -158h-82z" />
    <glyph glyph-name="Cdotaccent" unicode="&#x10a;" horiz-adv-x="945" 
d="M67 349q0 66 19 122t55 100t87.5 75t118 47.5t144.5 16.5q111 0 193.5 -27.5t134.5 -80t72 -129.5l-111 -21q-14 55 -51 94t-96 59t-142 20q-60 0 -110 -12t-88.5 -35.5t-64.5 -57.5t-39 -77t-13 -94t13 -94t39 -76.5t64.5 -56.5t88 -35t110.5 -12q84 0 145 20t98.5 60
t49.5 99l108 -22q-17 -79 -69 -133t-135.5 -81.5t-196.5 -27.5q-67 0 -124.5 11t-105 33t-83.5 53.5t-60.5 71.5t-37.5 88t-13 102zM427 783v109h109v-109h-109z" />
    <glyph glyph-name="cdotaccent" unicode="&#x10b;" horiz-adv-x="777" 
d="M729 360l-100 -19q-9 45 -37.5 74.5t-75.5 45t-110 15.5q-48 0 -86.5 -9t-67 -26.5t-47.5 -42.5t-29 -56.5t-10 -70.5q0 -37 10 -68.5t29 -56.5t48 -42t67.5 -26t85.5 -9q64 0 111 14.5t76 44.5t39 75l100 -19q-15 -63 -58 -106.5t-111 -65.5t-157 -22q-66 0 -120 12.5
t-95.5 37t-70 58.5t-43.5 77.5t-15 95.5t15 96t43.5 79t70 59t95.5 37t120 13q90 0 157.5 -22.5t110 -66t55.5 -106.5zM341 628v109h109v-109h-109z" />
    <glyph glyph-name="Ccaron" unicode="&#x10c;" horiz-adv-x="945" 
d="M67 349q0 66 19 122t55 100t87.5 75t118 47.5t144.5 16.5q111 0 193.5 -27.5t134.5 -80t72 -129.5l-111 -21q-14 55 -51 94t-96 59t-142 20q-60 0 -110 -12t-88.5 -35.5t-64.5 -57.5t-39 -77t-13 -94t13 -94t39 -76.5t64.5 -56.5t88 -35t110.5 -12q84 0 145 20t98.5 60
t49.5 99l108 -22q-17 -79 -69 -133t-135.5 -81.5t-196.5 -27.5q-67 0 -124.5 11t-105 33t-83.5 53.5t-60.5 71.5t-37.5 88t-13 102zM483 815l131 107h80l-153 -158h-121l-150 158h81z" />
    <glyph glyph-name="ccaron" unicode="&#x10d;" horiz-adv-x="777" 
d="M729 360l-100 -19q-9 45 -37.5 74.5t-75.5 45t-110 15.5q-48 0 -86.5 -9t-67 -26.5t-47.5 -42.5t-29 -56.5t-10 -70.5q0 -37 10 -68.5t29 -56.5t48 -42t67.5 -26t85.5 -9q64 0 111 14.5t76 44.5t39 75l100 -19q-15 -63 -58 -106.5t-111 -65.5t-157 -22q-66 0 -120 12.5
t-95.5 37t-70 58.5t-43.5 77.5t-15 95.5t15 96t43.5 79t70 59t95.5 37t120 13q90 0 157.5 -22.5t110 -66t55.5 -106.5zM393 660l131 107h80l-153 -158h-121l-150 158h81z" />
    <glyph glyph-name="Dcaron" unicode="&#x10e;" horiz-adv-x="979" 
d="M126 0v700h386q76 0 139 -15.5t111 -45.5t80.5 -73t49 -97.5t16.5 -119.5q0 -64 -16.5 -118.5t-49 -97t-80.5 -72.5t-111 -45.5t-139 -15.5h-386zM516 86q56 0 101 11.5t79 34t56.5 54.5t34 73t11.5 90t-11.5 90.5t-34 73.5t-56.5 55t-79 34.5t-101 11.5h-283v-528h283z
M490 815l131 107h80l-153 -158h-121l-150 158h81z" />
    <glyph glyph-name="dcaron" unicode="&#x10f;" horiz-adv-x="917" 
d="M648 750h101v-750h-91l-7 113q-17 -24 -40 -44q-43 -38 -103.5 -58.5t-135.5 -20.5q-58 0 -106.5 13t-86.5 37.5t-64 59.5t-39.5 78t-13.5 94q0 50 13.5 93.5t40 78.5t64 59.5t86.5 38t106 13.5q75 0 135.5 -21.5t103.5 -59.5q21 -18 37 -40v316zM402 69q76 0 131 25.5
t85 71t30 105.5q0 45 -17 82.5t-49 64.5t-77.5 42t-102.5 15q-46 0 -84 -9.5t-66 -27t-47.5 -42.5t-29 -56.5t-9.5 -67.5t9.5 -67.5t29 -56.5t47.5 -42.5t66 -27t84 -9.5zM855 535v215h101l-33 -215h-68z" />
    <glyph glyph-name="Dcroat" unicode="&#x110;" horiz-adv-x="988" 
d="M10 309v83h126v308h386q76 0 139 -15.5t111 -45.5t80.5 -73t49 -97.5t16.5 -119.5q0 -64 -16.5 -118.5t-49 -97t-80.5 -72.5t-111 -45.5t-139 -15.5h-386v309h-126zM526 86q56 0 101 11.5t79 34t56.5 54.5t34 73t11.5 90t-11.5 90.5t-34 73.5t-56.5 55t-79 34.5
t-101 11.5h-283v-222h226v-83h-226v-223h283z" />
    <glyph glyph-name="dcroat" unicode="&#x111;" horiz-adv-x="856" 
d="M433 610v67h215v73h101v-73h99v-67h-99v-610h-91l-7 113q-18 -25 -41 -45q-43 -37 -103.5 -57.5t-134.5 -20.5q-58 0 -106.5 13t-86.5 37t-64 58.5t-39.5 77t-13.5 91.5q0 50 13.5 92.5t40 77t64 59t86.5 37.5t106 13q74 0 134.5 -21t103.5 -58q21 -19 38 -41v184h-215z
M402 69q76 0 131 25.5t85 69.5t30 103q0 43 -17 79.5t-49 63t-77.5 41.5t-102.5 15q-46 0 -84 -9.5t-66 -27t-47.5 -42t-29 -55t-9.5 -65.5t9.5 -65.5t29 -55t47.5 -41.5t66 -26.5t84 -9.5z" />
    <glyph glyph-name="Emacron" unicode="&#x112;" horiz-adv-x="839" 
d="M126 0v700h648v-84h-543v-215h489v-84h-489v-233h550v-84h-655zM256 793v70h381v-70h-381z" />
    <glyph glyph-name="emacron" unicode="&#x113;" horiz-adv-x="802" 
d="M410 -10q-66 0 -121.5 13t-97 37t-70.5 59t-44 79t-15 96q0 50 15 93.5t43.5 78t70 59t96 37.5t119.5 13q79 0 141.5 -19.5t106.5 -55.5t67 -85.5t23 -110.5q0 -10 -0.5 -20t-2.5 -19h-579q3 -22 9 -41q10 -33 29.5 -58t49.5 -43t70 -27t90 -9q69 0 116 12t76 36t41 58
l98 -17q-18 -55 -59 -92t-108 -55.5t-164 -18.5zM165 320h479q-4 29 -16 53q-16 33 -46.5 56.5t-74 36.5t-100.5 13q-50 0 -89.5 -9t-68.5 -26.5t-49 -42.5t-29 -57q-4 -12 -6 -24zM210 638v70h381v-70h-381z" />
    <glyph glyph-name="Ebreve" unicode="&#x114;" horiz-adv-x="839" 
d="M126 0v700h648v-84h-543v-215h489v-84h-489v-233h550v-84h-655zM548 914h76q0 -50 -20 -83.5t-59 -50t-97 -16.5t-97.5 16.5t-59.5 50t-20 83.5h76q0 -47 26 -69t75 -22t74.5 22t25.5 69z" />
    <glyph glyph-name="ebreve" unicode="&#x115;" horiz-adv-x="802" 
d="M410 -10q-66 0 -121.5 13t-97 37t-70.5 59t-44 79t-15 96q0 50 15 93.5t43.5 78t70 59t96 37.5t119.5 13q79 0 141.5 -19.5t106.5 -55.5t67 -85.5t23 -110.5q0 -10 -0.5 -20t-2.5 -19h-579q3 -22 9 -41q10 -33 29.5 -58t49.5 -43t70 -27t90 -9q69 0 116 12t76 36t41 58
l98 -17q-18 -55 -59 -92t-108 -55.5t-164 -18.5zM165 320h479q-4 29 -16 53q-16 33 -46.5 56.5t-74 36.5t-100.5 13q-50 0 -89.5 -9t-68.5 -26.5t-49 -42.5t-29 -57q-4 -12 -6 -24zM501 759h76q0 -50 -20 -83.5t-59 -50t-97 -16.5t-97.5 16.5t-59.5 50t-20 83.5h76
q0 -47 26 -69t75 -22t74.5 22t25.5 69z" />
    <glyph glyph-name="Edotaccent" unicode="&#x116;" horiz-adv-x="839" 
d="M126 0v700h648v-84h-543v-215h489v-84h-489v-233h550v-84h-655zM395 783v109h109v-109h-109z" />
    <glyph glyph-name="edotaccent" unicode="&#x117;" horiz-adv-x="802" 
d="M410 -10q-66 0 -121.5 13t-97 37t-70.5 59t-44 79t-15 96q0 50 15 93.5t43.5 78t70 59t96 37.5t119.5 13q79 0 141.5 -19.5t106.5 -55.5t67 -85.5t23 -110.5q0 -10 -0.5 -20t-2.5 -19h-579q3 -22 9 -41q10 -33 29.5 -58t49.5 -43t70 -27t90 -9q69 0 116 12t76 36t41 58
l98 -17q-18 -55 -59 -92t-108 -55.5t-164 -18.5zM165 320h479q-4 29 -16 53q-16 33 -46.5 56.5t-74 36.5t-100.5 13q-50 0 -89.5 -9t-68.5 -26.5t-49 -42.5t-29 -57q-4 -12 -6 -24zM346 628v109h109v-109h-109z" />
    <glyph glyph-name="Eogonek" unicode="&#x118;" horiz-adv-x="839" 
d="M126 0v700h648v-84h-543v-215h489v-84h-489v-233h550v-84h-1q-47 -11 -77.5 -22.5t-47 -23.5t-23 -24.5t-6.5 -24.5q0 -21 16 -31.5t50 -10.5q23 0 44.5 3.5t45.5 10.5l-3 -75q-22 -7 -48.5 -11.5t-55.5 -4.5q-63 0 -97 25t-34 70q0 24 9.5 45t31.5 40q21 18 56 34h-515z
" />
    <glyph glyph-name="eogonek" unicode="&#x119;" horiz-adv-x="802" 
d="M573 10q-11 -3 -23 -6q-29 -7 -64 -10.5t-76 -3.5q-66 0 -121.5 13t-97 37t-70.5 59t-44 79t-15 96q0 50 15 93.5t43.5 78t70 59t96 37.5t119.5 13q79 0 141.5 -19.5t106.5 -55.5t67 -85.5t23 -110.5q0 -10 -0.5 -20t-2.5 -19h-579q3 -22 9 -41q10 -33 29.5 -58t49.5 -43
t70 -27t90 -9q69 0 116 12t76 36t41 58l98 -17q-15 -41 -35.5 -72t-41.5 -55t-39.5 -44t-29.5 -38.5t-11 -38.5q0 -23 16 -34t51 -11q21 0 43 3.5t46 10.5l-3 -75q-22 -7 -48.5 -11.5t-54.5 -4.5q-64 0 -98 25.5t-34 71.5q0 25 9.5 47.5t26.5 43.5q15 18 35 36zM165 320h478
q-4 29 -16 53q-15 33 -45.5 56.5t-74 36.5t-100.5 13q-49 0 -88.5 -9t-69 -26.5t-49.5 -42.5t-29 -57q-4 -12 -6 -24z" />
    <glyph glyph-name="Ecaron" unicode="&#x11a;" horiz-adv-x="839" 
d="M126 0v700h648v-84h-543v-215h489v-84h-489v-233h550v-84h-655zM449 815l131 107h80l-153 -158h-121l-150 158h81z" />
    <glyph glyph-name="ecaron" unicode="&#x11b;" horiz-adv-x="802" 
d="M410 -10q-66 0 -121.5 13t-97 37t-70.5 59t-44 79t-15 96q0 50 15 93.5t43.5 78t70 59t96 37.5t119.5 13q79 0 141.5 -19.5t106.5 -55.5t67 -85.5t23 -110.5q0 -10 -0.5 -20t-2.5 -19h-579q3 -22 9 -41q10 -33 29.5 -58t49.5 -43t70 -27t90 -9q69 0 116 12t76 36t41 58
l98 -17q-18 -55 -59 -92t-108 -55.5t-164 -18.5zM165 320h479q-4 29 -16 53q-16 33 -46.5 56.5t-74 36.5t-100.5 13q-50 0 -89.5 -9t-68.5 -26.5t-49 -42.5t-29 -57q-4 -12 -6 -24zM402 660l131 107h80l-153 -158h-121l-150 158h81z" />
    <glyph glyph-name="Gcircumflex" unicode="&#x11c;" horiz-adv-x="1002" 
d="M490 272v80h427v-352h-78l-10 147q-29 -49 -74 -83q-48 -36 -113.5 -55t-148.5 -19q-81 0 -148 16t-118.5 46.5t-87 74.5t-54 100t-18.5 122t19.5 122t56 100.5t90 75.5t122 47t151.5 16q111 0 193 -25.5t134.5 -75t73.5 -120.5l-107 -22q-15 50 -53.5 85.5t-98.5 54
t-142 18.5q-64 0 -116.5 -12t-92.5 -35t-66.5 -56.5t-40.5 -77t-14 -95.5t13.5 -95t40 -76.5t66 -56t91 -34.5t115.5 -12q101 0 169 27t104 78q29 40 38 92h-323zM493 871l-131 -107h-79l152 158h121l151 -158h-82z" />
    <glyph glyph-name="gcircumflex" unicode="&#x11d;" horiz-adv-x="770" 
d="M377 555q66 0 120 -11t93 -33l14 -8q23 33 57 49q39 19 92 14l-5 -84q-38 5 -65 -1q-20 -5 -38 -17q2 -3 4 -7q21 -32 21 -75q0 -41 -19.5 -72.5t-57.5 -53t-92.5 -32.5t-123.5 -11t-124 11q-9 2 -17 4q-29 -5 -45 -16q-21 -14 -21 -40q0 -17 11 -29.5t32.5 -18.5
t54.5 -7l271 -6q69 -1 115 -17.5t69 -46.5t23 -74q0 -46 -24.5 -80.5t-72 -57.5t-117.5 -34t-160 -11q-83 0 -147 8.5t-106.5 27t-64.5 46.5t-22 67q0 38 21 65t62 42q19 7 42 12q-10 2 -19 6q-31 13 -46.5 35.5t-15.5 52.5q0 33 18.5 57t54.5 38l18 6q-4 1 -7 3
q-38 22 -58 53.5t-20 72.5t20 73t58 54t93 34t124 12zM266 38q-39 -2 -68 -11q-31 -10 -47 -28t-16 -45q0 -25 15.5 -42.5t45 -28.5t74.5 -16.5t105 -5.5q67 0 118 6.5t84.5 19.5t50.5 32t17 45q0 32 -27 50t-88 19zM569 382q0 25 -12.5 44.5t-37.5 32.5t-60.5 20t-81.5 7
t-82 -7t-61 -20t-38 -32.5t-13 -44.5q0 -33 23 -55.5t66.5 -33.5t104.5 -11t104 11t65.5 33.5t22.5 55.5zM376 716l-131 -107h-79l152 158h121l151 -158h-82z" />
    <glyph glyph-name="Gbreve" unicode="&#x11e;" horiz-adv-x="1002" 
d="M490 272v80h427v-352h-78l-10 147q-29 -49 -74 -83q-48 -36 -113.5 -55t-148.5 -19q-81 0 -148 16t-118.5 46.5t-87 74.5t-54 100t-18.5 122t19.5 122t56 100.5t90 75.5t122 47t151.5 16q111 0 193 -25.5t134.5 -75t73.5 -120.5l-107 -22q-15 50 -53.5 85.5t-98.5 54
t-142 18.5q-64 0 -116.5 -12t-92.5 -35t-66.5 -56.5t-40.5 -77t-14 -95.5t13.5 -95t40 -76.5t66 -56t91 -34.5t115.5 -12q101 0 169 27t104 78q29 40 38 92h-323zM595 914h76q0 -50 -20 -83.5t-59 -50t-97 -16.5t-97.5 16.5t-59.5 50t-20 83.5h76q0 -47 26 -69t75 -22
t74.5 22t25.5 69z" />
    <glyph glyph-name="gbreve" unicode="&#x11f;" horiz-adv-x="770" 
d="M377 555q66 0 120 -11t93 -33l14 -8q23 33 57 49q39 19 92 14l-5 -84q-38 5 -65 -1q-20 -5 -38 -17q2 -3 4 -7q21 -32 21 -75q0 -41 -19.5 -72.5t-57.5 -53t-92.5 -32.5t-123.5 -11t-124 11q-9 2 -17 4q-29 -5 -45 -16q-21 -14 -21 -40q0 -17 11 -29.5t32.5 -18.5
t54.5 -7l271 -6q69 -1 115 -17.5t69 -46.5t23 -74q0 -46 -24.5 -80.5t-72 -57.5t-117.5 -34t-160 -11q-83 0 -147 8.5t-106.5 27t-64.5 46.5t-22 67q0 38 21 65t62 42q19 7 42 12q-10 2 -19 6q-31 13 -46.5 35.5t-15.5 52.5q0 33 18.5 57t54.5 38l18 6q-4 1 -7 3
q-38 22 -58 53.5t-20 72.5t20 73t58 54t93 34t124 12zM266 38q-39 -2 -68 -11q-31 -10 -47 -28t-16 -45q0 -25 15.5 -42.5t45 -28.5t74.5 -16.5t105 -5.5q67 0 118 6.5t84.5 19.5t50.5 32t17 45q0 32 -27 50t-88 19zM569 382q0 25 -12.5 44.5t-37.5 32.5t-60.5 20t-81.5 7
t-82 -7t-61 -20t-38 -32.5t-13 -44.5q0 -33 23 -55.5t66.5 -33.5t104.5 -11t104 11t65.5 33.5t22.5 55.5zM478 759h76q0 -50 -20 -83.5t-59 -50t-97 -16.5t-97.5 16.5t-59.5 50t-20 83.5h76q0 -47 26 -69t75 -22t74.5 22t25.5 69z" />
    <glyph glyph-name="Gdotaccent" unicode="&#x120;" horiz-adv-x="1002" 
d="M490 272v80h427v-352h-78l-10 147q-29 -49 -74 -83q-48 -36 -113.5 -55t-148.5 -19q-81 0 -148 16t-118.5 46.5t-87 74.5t-54 100t-18.5 122t19.5 122t56 100.5t90 75.5t122 47t151.5 16q111 0 193 -25.5t134.5 -75t73.5 -120.5l-107 -22q-15 50 -53.5 85.5t-98.5 54
t-142 18.5q-64 0 -116.5 -12t-92.5 -35t-66.5 -56.5t-40.5 -77t-14 -95.5t13.5 -95t40 -76.5t66 -56t91 -34.5t115.5 -12q101 0 169 27t104 78q29 40 38 92h-323zM440 783v109h109v-109h-109z" />
    <glyph glyph-name="gdotaccent" unicode="&#x121;" horiz-adv-x="770" 
d="M377 555q66 0 120 -11t93 -33l14 -8q23 33 57 49q39 19 92 14l-5 -84q-38 5 -65 -1q-20 -5 -38 -17q2 -3 4 -7q21 -32 21 -75q0 -41 -19.5 -72.5t-57.5 -53t-92.5 -32.5t-123.5 -11t-124 11q-9 2 -17 4q-29 -5 -45 -16q-21 -14 -21 -40q0 -17 11 -29.5t32.5 -18.5
t54.5 -7l271 -6q69 -1 115 -17.5t69 -46.5t23 -74q0 -46 -24.5 -80.5t-72 -57.5t-117.5 -34t-160 -11q-83 0 -147 8.5t-106.5 27t-64.5 46.5t-22 67q0 38 21 65t62 42q19 7 42 12q-10 2 -19 6q-31 13 -46.5 35.5t-15.5 52.5q0 33 18.5 57t54.5 38l18 6q-4 1 -7 3
q-38 22 -58 53.5t-20 72.5t20 73t58 54t93 34t124 12zM266 38q-39 -2 -68 -11q-31 -10 -47 -28t-16 -45q0 -25 15.5 -42.5t45 -28.5t74.5 -16.5t105 -5.5q67 0 118 6.5t84.5 19.5t50.5 32t17 45q0 32 -27 50t-88 19zM569 382q0 25 -12.5 44.5t-37.5 32.5t-60.5 20t-81.5 7
t-82 -7t-61 -20t-38 -32.5t-13 -44.5q0 -33 23 -55.5t66.5 -33.5t104.5 -11t104 11t65.5 33.5t22.5 55.5zM323 628v109h109v-109h-109z" />
    <glyph glyph-name="Gcommaaccent" unicode="&#x122;" horiz-adv-x="1002" 
d="M490 272v80h427v-352h-78l-10 147q-29 -49 -74 -83q-48 -36 -113.5 -55t-148.5 -19q-81 0 -148 16t-118.5 46.5t-87 74.5t-54 100t-18.5 122t19.5 122t56 100.5t90 75.5t122 47t151.5 16q111 0 193 -25.5t134.5 -75t73.5 -120.5l-107 -22q-15 50 -53.5 85.5t-98.5 54
t-142 18.5q-64 0 -116.5 -12t-92.5 -35t-66.5 -56.5t-40.5 -77t-14 -95.5t13.5 -95t40 -76.5t66 -56t91 -34.5t115.5 -12q101 0 169 27t104 78q29 40 38 92h-323zM328 -213l99 149h121l-138 -149h-82z" />
    <glyph glyph-name="gcommaaccent" unicode="&#x123;" horiz-adv-x="770" 
d="M377 555q66 0 120 -11t93 -33l14 -8q23 33 57 49q39 19 92 14l-5 -84q-38 5 -65 -1q-20 -5 -38 -17q2 -3 4 -7q21 -32 21 -75q0 -41 -19.5 -72.5t-57.5 -53t-92.5 -32.5t-123.5 -11t-124 11q-9 2 -17 4q-29 -5 -45 -16q-21 -14 -21 -40q0 -17 11 -29.5t32.5 -18.5
t54.5 -7l271 -6q69 -1 115 -17.5t69 -46.5t23 -74q0 -46 -24.5 -80.5t-72 -57.5t-117.5 -34t-160 -11q-83 0 -147 8.5t-106.5 27t-64.5 46.5t-22 67q0 38 21 65t62 42q19 7 42 12q-10 2 -19 6q-31 13 -46.5 35.5t-15.5 52.5q0 33 18.5 57t54.5 38l18 6q-4 1 -7 3
q-38 22 -58 53.5t-20 72.5t20 73t58 54t93 34t124 12zM266 38q-39 -2 -68 -11q-31 -10 -47 -28t-16 -45q0 -25 15.5 -42.5t45 -28.5t74.5 -16.5t105 -5.5q67 0 118 6.5t84.5 19.5t50.5 32t17 45q0 32 -27 50t-88 19zM569 382q0 25 -12.5 44.5t-37.5 32.5t-60.5 20t-81.5 7
t-82 -7t-61 -20t-38 -32.5t-13 -44.5q0 -33 23 -55.5t66.5 -33.5t104.5 -11t104 11t65.5 33.5t22.5 55.5zM560 764l-119 -155h-124l161 155h82z" />
    <glyph glyph-name="Hcircumflex" unicode="&#x124;" horiz-adv-x="1025" 
d="M126 0v700h107v-295h559v295h106v-700h-106v319h-559v-319h-107zM510 871l-131 -107h-79l152 158h121l151 -158h-82z" />
    <glyph glyph-name="hcircumflex" unicode="&#x125;" horiz-adv-x="831" 
d="M107 0v750h101v-323q27 40 68 68.5t92.5 44t109.5 15.5q81 0 138 -29t87 -82t30 -125v-319h-101v299q0 52 -21 90.5t-61.5 60t-100.5 21.5q-52 0 -96.5 -15t-77 -42.5t-50 -66t-17.5 -85.5v-262h-101zM317 921l-131 -107h-79l152 158h121l151 -158h-82z" />
    <glyph glyph-name="Hbar" unicode="&#x126;" horiz-adv-x="1025" 
d="M7 519v68h119v113h107v-113h559v113h106v-113h119v-68h-119v-519h-106v319h-559v-319h-107v519h-119zM233 519v-115h559v115h-559z" />
    <glyph glyph-name="hbar" unicode="&#x127;" horiz-adv-x="831" 
d="M107 0v610h-100v67h100v73h101v-73h214v-67h-214v-192q27 40 68 68.5t92.5 44t109.5 15.5q81 0 138 -29t87 -82t30 -125v-310h-101v290q0 52 -21 90.5t-61.5 60t-100.5 21.5q-52 0 -96.5 -15t-77 -42.5t-50 -66t-17.5 -85.5v-253h-101z" />
    <glyph glyph-name="Itilde" unicode="&#x128;" horiz-adv-x="359" 
d="M126 0v700h107v-700h-107zM366 916q7 -59 -3.5 -94t-33.5 -50t-53 -15q-25 0 -46 10t-38.5 24.5t-33.5 29t-31.5 24.5t-31.5 10q-11 0 -21 -7.5t-14 -26.5t1 -52h-68q-6 59 4.5 93.5t33.5 49.5t53 15q24 0 45 -10t38.5 -24.5t33.5 -29t31.5 -24.5t31.5 -10q9 0 17 4
t13 14t6.5 26.5t-2.5 42.5h68z" />
    <glyph glyph-name="itilde" unicode="&#x129;" horiz-adv-x="316" 
d="M107 0v544h101v-544h-101zM345 761q7 -59 -3.5 -94t-33.5 -50t-53 -15q-25 0 -46 10t-38.5 24.5t-33.5 29t-31.5 24.5t-31.5 10q-11 0 -21 -7.5t-14 -26.5t1 -52h-68q-6 59 4.5 93.5t33.5 49.5t53 15q24 0 45 -10t38.5 -24.5t33.5 -29t31.5 -24.5t31.5 -10q9 0 17 4
t13 14t6.5 26.5t-2.5 42.5h68z" />
    <glyph glyph-name="Imacron" unicode="&#x12a;" horiz-adv-x="359" 
d="M126 0v700h107v-700h-107zM-11 793v70h381v-70h-381z" />
    <glyph glyph-name="imacron" unicode="&#x12b;" horiz-adv-x="315" 
d="M107 0v544h101v-544h-101zM-33 638v70h381v-70h-381z" />
    <glyph glyph-name="Ibreve" unicode="&#x12c;" horiz-adv-x="359" 
d="M126 0v700h107v-700h-107zM280 914h76q0 -50 -20 -83.5t-59 -50t-97 -16.5t-97.5 16.5t-59.5 50t-20 83.5h76q0 -47 26 -69t75 -22t74.5 22t25.5 69z" />
    <glyph glyph-name="ibreve" unicode="&#x12d;" horiz-adv-x="315" 
d="M107 0v544h101v-544h-101zM258 759h76q0 -50 -20 -83.5t-59 -50t-97 -16.5t-97.5 16.5t-59.5 50t-20 83.5h76q0 -47 26 -69t75 -22t74.5 22t25.5 69z" />
    <glyph glyph-name="Iogonek" unicode="&#x12e;" horiz-adv-x="359" 
d="M33 -119q0 24 9 45.5t28 40.5t48 35l8 4v694h107v-700q-43 -13 -69 -29t-37.5 -32.5t-11.5 -33.5q0 -21 17 -31.5t53 -10.5q23 0 45.5 3.5t47.5 10.5l-3 -75q-24 -7 -51 -11.5t-56 -4.5q-44 0 -73.5 11t-45.5 32.5t-16 51.5z" />
    <glyph glyph-name="iogonek" unicode="&#x12f;" horiz-adv-x="316" 
d="M9 -119q0 24 9.5 45.5t28 40.5t47.5 35q6 3 13 7v535h101v-544q-42 -13 -68 -29t-37.5 -32.5t-11.5 -33.5q0 -21 17 -31.5t53 -10.5q23 0 45.5 3.5t46.5 10.5l-3 -75q-23 -7 -50 -11.5t-56 -4.5q-65 0 -100 25t-35 70zM103 628v101h109v-101h-109z" />
    <glyph glyph-name="Idotaccent" unicode="&#x130;" horiz-adv-x="359" 
d="M126 0v700h107v-700h-107zM125 783v109h109v-109h-109z" />
    <glyph glyph-name="dotlessi" unicode="&#x131;" horiz-adv-x="315" 
d="M107 0v544h101v-544h-101z" />
    <glyph glyph-name="IJ" unicode="&#x132;" horiz-adv-x="902" 
d="M126 0v700h107v-700h-107zM785 240q0 -64 -15 -111.5t-46.5 -78t-81 -45.5t-119.5 -15q-32 0 -65 3t-71 9l-4 87q21 -3 41.5 -5.5t40.5 -4t41 -1.5q62 0 100 16t55.5 51.5t17.5 92.5v462h106v-460z" />
    <glyph glyph-name="ij" unicode="&#x133;" horiz-adv-x="631" 
d="M107 0v544h101v-544h-101zM103 628v101h109v-101h-109zM422 -24v568h101v-563q0 -68 -20 -110.5t-61 -61.5t-104 -19q-19 0 -36.5 1.5t-37.5 4.5l-3 78q16 -2 30 -3.5t28 -1.5q36 0 58.5 11t33.5 34.5t11 61.5zM418 628v101h109v-101h-109z" />
    <glyph glyph-name="Jcircumflex" unicode="&#x134;" horiz-adv-x="542" 
d="M426 240q0 -64 -15 -111.5t-46.5 -78t-81 -45.5t-119.5 -15q-32 0 -65 3t-71 9l-4 87q21 -3 41.5 -5.5t40.5 -4t41 -1.5q62 0 100 16t55.5 51.5t17.5 92.5v462h106v-460zM372 871l-131 -107h-79l152 158h121l151 -158h-82z" />
    <glyph glyph-name="jcircumflex" unicode="&#x135;" horiz-adv-x="316" 
d="M107 -24v568h101v-563q0 -68 -20 -110.5t-61 -61.5t-104 -19q-19 0 -36.5 1.5t-37.5 4.5l-3 78q16 -2 30 -3.5t28 -1.5q53 0 78 25t25 82zM157 716l-131 -107h-79l152 158h121l151 -158h-82z" />
    <glyph glyph-name="Kcommaaccent" unicode="&#x136;" horiz-adv-x="881" 
d="M126 0v700h105v-343l473 343h146l-437 -320l465 -380h-155l-395 317l-97 -71v-246h-105zM299 -213l99 149h121l-138 -149h-82z" />
    <glyph glyph-name="kcommaaccent" unicode="&#x137;" horiz-adv-x="727" 
d="M107 0v750h100v-460l356 254h136l-341 -241l364 -303h-142l-296 248l-77 -57v-191h-100zM231 -213l99 149h121l-138 -149h-82z" />
    <glyph glyph-name="kgreenlandic" unicode="&#x138;" horiz-adv-x="727" 
d="M107 0v544h100v-254l356 254h136l-341 -241l364 -303h-139l-299 248l-77 -57v-191h-100z" />
    <glyph glyph-name="Lacute" unicode="&#x139;" horiz-adv-x="756" 
d="M126 0v700h107v-614h490v-86h-597zM136 764l145 158h133l-191 -158h-87z" />
    <glyph glyph-name="lacute" unicode="&#x13a;" horiz-adv-x="315" 
d="M208 0h-101v750h101v-750zM114 814l145 158h133l-191 -158h-87z" />
    <glyph glyph-name="Lcommaaccent" unicode="&#x13b;" horiz-adv-x="756" 
d="M126 0v700h107v-614h490v-86h-597zM260 -213l99 149h121l-138 -149h-82z" />
    <glyph glyph-name="lcommaaccent" unicode="&#x13c;" horiz-adv-x="315" 
d="M208 0h-101v750h101v-750zM-4 -213l99 149h121l-138 -149h-82z" />
    <glyph glyph-name="Lcaron" unicode="&#x13d;" horiz-adv-x="756" 
d="M126 0v700h107v-614h490v-86h-597zM403 485v215h101l-33 -215h-68z" />
    <glyph glyph-name="lcaron" unicode="&#x13e;" horiz-adv-x="376" 
d="M208 0h-101v750h101v-750zM315 535v215h101l-33 -215h-68z" />
    <glyph glyph-name="Ldot" unicode="&#x13f;" horiz-adv-x="756" 
d="M126 0v700h107v-614h490v-86h-597zM499 319v113h115v-113h-115z" />
    <glyph glyph-name="ldot" unicode="&#x140;" horiz-adv-x="413" 
d="M208 0h-101v750h101v-750zM306 311v113h115v-113h-115z" />
    <glyph glyph-name="Lslash" unicode="&#x141;" horiz-adv-x="769" 
d="M13 255v86l127 38v321h106v-288l203 62v-86l-203 -62v-241h490v-85h-596v293z" />
    <glyph glyph-name="lslash" unicode="&#x142;" horiz-adv-x="355" 
d="M9 275v73l118 40v362h101v-328l119 39v-73l-119 -40v-348h-101v314z" />
    <glyph glyph-name="Nacute" unicode="&#x143;" horiz-adv-x="1012" 
d="M126 0v700h106l555 -582v582h98v-700h-106l-555 581v-581h-98zM462 764l145 158h133l-191 -158h-87z" />
    <glyph glyph-name="nacute" unicode="&#x144;" horiz-adv-x="831" 
d="M107 0v544h90l7 -122q27 42 68 71.5t94 45.5t112 16q81 0 138 -29t87 -82t30 -125v-319h-101v299q0 52 -21 90.5t-61.5 60t-100.5 21.5q-52 0 -96.5 -15t-77 -42.5t-50 -66t-17.5 -85.5v-262h-101zM372 609l145 158h133l-191 -158h-87z" />
    <glyph glyph-name="Ncommaaccent" unicode="&#x145;" horiz-adv-x="1012" 
d="M126 0v700h106l555 -582v582h98v-700h-106l-555 581v-581h-98zM343 -213l99 149h121l-138 -149h-82z" />
    <glyph glyph-name="ncommaaccent" unicode="&#x146;" horiz-adv-x="831" 
d="M107 0v544h90l7 -122q27 42 68 71.5t94 45.5t112 16q81 0 138 -29t87 -82t30 -125v-319h-101v299q0 52 -21 90.5t-61.5 60t-100.5 21.5q-52 0 -96.5 -15t-77 -42.5t-50 -66t-17.5 -85.5v-262h-101zM267 -213l99 149h121l-138 -149h-82z" />
    <glyph glyph-name="Ncaron" unicode="&#x147;" horiz-adv-x="1012" 
d="M126 0v700h106l555 -582v582h98v-700h-106l-555 581v-581h-98zM507 815l131 107h80l-153 -158h-121l-150 158h81z" />
    <glyph glyph-name="ncaron" unicode="&#x148;" horiz-adv-x="831" 
d="M107 0v544h90l7 -122q27 42 68 71.5t94 45.5t112 16q81 0 138 -29t87 -82t30 -125v-319h-101v299q0 52 -21 90.5t-61.5 60t-100.5 21.5q-52 0 -96.5 -15t-77 -42.5t-50 -66t-17.5 -85.5v-262h-101zM417 660l131 107h80l-153 -158h-121l-150 158h81z" />
    <glyph glyph-name="napostrophe" unicode="&#x149;" horiz-adv-x="832" 
d="M107 0v544h90l7 -122q27 42 68 71.5t94 45.5t112 16q81 0 138 -29t87 -82t30 -125v-319h-101v299q0 52 -21 90.5t-61.5 60t-100.5 21.5q-52 0 -96.5 -15t-77 -42.5t-50 -66t-17.5 -85.5v-262h-101zM108 600l99 149h121l-138 -149h-82z" />
    <glyph glyph-name="Eng" unicode="&#x14a;" horiz-adv-x="1012" 
d="M126 0v700h106l555 -577v577h98v-669q0 -65 -15 -110.5t-45.5 -74.5t-79 -42.5t-116.5 -13.5q-21 0 -42 1t-42 4t-44 7l-4 81q22 -4 41 -6.5t38 -4t39 -1.5q61 0 98.5 16t55.5 51q13 26 17 63l-562 583v-584h-98z" />
    <glyph glyph-name="eng" unicode="&#x14b;" horiz-adv-x="831" 
d="M107 0v544h90l7 -123q21 32 51 58q43 36 100 56t123 20q81 0 138 -29t87 -82t30 -125v-338q0 -68 -20 -110.5t-61 -61.5t-103 -19q-19 0 -37 1.5t-38 4.5l-3 78q16 -2 30.5 -3.5t27.5 -1.5q53 0 78 25t25 82v323q0 52 -21 90.5t-61.5 60t-100.5 21.5q-52 0 -96.5 -15
t-77 -42.5t-50 -66t-17.5 -85.5v-262h-101z" />
    <glyph glyph-name="Omacron" unicode="&#x14c;" horiz-adv-x="995" 
d="M497 -10q-81 0 -149 16t-120 47t-88 75t-54.5 99.5t-18.5 121.5t18.5 122t54 100t88 75t120.5 47.5t149 16.5q83 0 150.5 -16.5t120 -47.5t88.5 -75t54.5 -100t18.5 -122q0 -65 -18.5 -120.5t-54.5 -100t-88.5 -75.5t-120 -47t-150.5 -16zM497 75q64 0 115.5 12.5
t90 35.5t65 56.5t39.5 76t13 93.5t-13 94t-39.5 76.5t-65 57t-90 36t-115.5 12.5q-63 0 -114 -12.5t-90 -36t-65 -57t-39 -76.5t-13 -94t13 -93.5t39 -76t65 -57t90 -35.5t114 -12zM306 793v70h381v-70h-381z" />
    <glyph glyph-name="omacron" unicode="&#x14d;" horiz-adv-x="818" 
d="M409 -10q-67 0 -121 12.5t-96 36.5t-71 58.5t-44 78.5t-15 96q0 51 15 95t44 79t71 59t96.5 37t120.5 13t121 -13t96.5 -37t70.5 -59t44 -79t15 -95q0 -52 -15 -96t-43.5 -78.5t-70.5 -58.5t-97 -36.5t-121 -12.5zM409 69q49 0 87.5 9t67.5 26t49 42t29.5 56.5t9.5 69.5
t-9.5 70t-29.5 56.5t-49 42t-67.5 26.5t-87.5 9q-48 0 -87 -9t-68.5 -26.5t-49 -42.5t-29 -56.5t-9.5 -69.5t10 -69.5t29 -56.5t48.5 -42t68.5 -26t87 -9zM218 638v70h381v-70h-381z" />
    <glyph glyph-name="Obreve" unicode="&#x14e;" horiz-adv-x="995" 
d="M497 -10q-81 0 -149 16t-120 47t-88 75t-54.5 99.5t-18.5 121.5t18.5 122t54 100t88 75t120.5 47.5t149 16.5q83 0 150.5 -16.5t120 -47.5t88.5 -75t54.5 -100t18.5 -122q0 -65 -18.5 -120.5t-54.5 -100t-88.5 -75.5t-120 -47t-150.5 -16zM497 75q64 0 115.5 12.5
t90 35.5t65 56.5t39.5 76t13 93.5t-13 94t-39.5 76.5t-65 57t-90 36t-115.5 12.5q-63 0 -114 -12.5t-90 -36t-65 -57t-39 -76.5t-13 -94t13 -93.5t39 -76t65 -57t90 -35.5t114 -12zM597 914h76q0 -50 -20 -83.5t-59 -50t-97 -16.5t-97.5 16.5t-59.5 50t-20 83.5h76
q0 -47 26 -69t75 -22t74.5 22t25.5 69z" />
    <glyph glyph-name="obreve" unicode="&#x14f;" horiz-adv-x="818" 
d="M409 -10q-67 0 -121 12.5t-96 36.5t-71 58.5t-44 78.5t-15 96q0 51 15 95t44 79t71 59t96.5 37t120.5 13t121 -13t96.5 -37t70.5 -59t44 -79t15 -95q0 -52 -15 -96t-43.5 -78.5t-70.5 -58.5t-97 -36.5t-121 -12.5zM409 69q49 0 87.5 9t67.5 26t49 42t29.5 56.5t9.5 69.5
t-9.5 70t-29.5 56.5t-49 42t-67.5 26.5t-87.5 9q-48 0 -87 -9t-68.5 -26.5t-49 -42.5t-29 -56.5t-9.5 -69.5t10 -69.5t29 -56.5t48.5 -42t68.5 -26t87 -9zM509 759h76q0 -50 -20 -83.5t-59 -50t-97 -16.5t-97.5 16.5t-59.5 50t-20 83.5h76q0 -47 26 -69t75 -22t74.5 22
t25.5 69z" />
    <glyph glyph-name="Ohungarumlaut" unicode="&#x150;" horiz-adv-x="995" 
d="M497 -10q-81 0 -149 16t-120 47t-88 75t-54.5 99.5t-18.5 121.5t18.5 122t54 100t88 75t120.5 47.5t149 16.5q83 0 150.5 -16.5t120 -47.5t88.5 -75t54.5 -100t18.5 -122q0 -65 -18.5 -120.5t-54.5 -100t-88.5 -75.5t-120 -47t-150.5 -16zM497 75q64 0 115.5 12.5
t90 35.5t65 56.5t39.5 76t13 93.5t-13 94t-39.5 76.5t-65 57t-90 36t-115.5 12.5q-63 0 -114 -12.5t-90 -36t-65 -57t-39 -76.5t-13 -94t13 -93.5t39 -76t65 -57t90 -35.5t114 -12zM347 764l115 158h115l-149 -158h-81zM552 764l115 158h114l-148 -158h-81z" />
    <glyph glyph-name="ohungarumlaut" unicode="&#x151;" horiz-adv-x="818" 
d="M409 -10q-67 0 -121 12.5t-96 36.5t-71 58.5t-44 78.5t-15 96q0 51 15 95t44 79t71 59t96.5 37t120.5 13t121 -13t96.5 -37t70.5 -59t44 -79t15 -95q0 -52 -15 -96t-43.5 -78.5t-70.5 -58.5t-97 -36.5t-121 -12.5zM409 69q49 0 87.5 9t67.5 26t49 42t29.5 56.5t9.5 69.5
t-9.5 70t-29.5 56.5t-49 42t-67.5 26.5t-87.5 9q-48 0 -87 -9t-68.5 -26.5t-49 -42.5t-29 -56.5t-9.5 -69.5t10 -69.5t29 -56.5t48.5 -42t68.5 -26t87 -9zM253 609l115 158h115l-149 -158h-81zM458 609l115 158h114l-148 -158h-81z" />
    <glyph glyph-name="OE" unicode="&#x152;" horiz-adv-x="1399" 
d="M714 0h-206q-84 0 -153.5 15.5t-123 45.5t-90 72.5t-55.5 96.5t-19 118.5t19 119t55.5 97.5t90 73.5t123 46t153.5 15.5h825v-84h-514v-216h461v-83h-461v-233h521v-84h-626zM714 616h-206q-66 0 -118.5 -11.5t-92.5 -34t-67 -55t-40.5 -74.5t-13.5 -92t13.5 -92
t40.5 -74t67 -54.5t93 -34t118 -11.5h206v533z" />
    <glyph glyph-name="oe" unicode="&#x153;" horiz-adv-x="1368" 
d="M402 -10q-64 0 -118 12.5t-95 36.5t-69.5 58.5t-43 78.5t-14.5 96q0 51 14.5 95t43 79t69.5 59t95 37t118 13q70 0 129.5 -16t104.5 -49q34 -25 58 -61q16 24 37 43q31 28 70 46.5t84.5 27.5t96.5 9q77 0 137.5 -19.5t103.5 -55.5t65.5 -85.5t22.5 -110.5
q0 -11 -0.5 -20.5t-2.5 -18.5h-561q2 -22 8 -41q9 -33 28 -58t48 -43t68 -27t88 -9q65 0 110.5 12t73.5 36t39 58l98 -17q-19 -55 -59.5 -92.5t-104.5 -55.5t-157 -18q-52 0 -99 9t-86.5 27.5t-70.5 47.5q-20 18 -36 42q-16 -24 -37 -43q-30 -29 -70 -47.5t-87 -27t-99 -8.5
zM402 68q47 0 84.5 9t66 26t47.5 42t28.5 57t9.5 70t-9.5 70t-28.5 56.5t-47.5 42t-66 26.5t-84.5 9t-84.5 -9t-66 -26.5t-47.5 -42.5t-28.5 -56.5t-9.5 -69.5t9.5 -70t28.5 -57t47.5 -42t66 -26t84.5 -9zM749 320h461q-3 29 -15 54q-17 34 -47.5 57.5t-72.5 35.5t-93 12
q-48 0 -85.5 -9t-66 -26.5t-47.5 -42.5t-28 -57q-4 -12 -6 -24z" />
    <glyph glyph-name="Racute" unicode="&#x154;" horiz-adv-x="905" 
d="M126 0v700h450q61 0 108 -14.5t79 -42.5t48.5 -68.5t16.5 -91.5q0 -66 -29.5 -113.5t-85.5 -72.5q-51 -24 -124 -25l257 -272h-136l-253 267h-224v-267h-107zM233 616v-265h326q39 0 69 8.5t51 25.5t31.5 41.5t10.5 56.5q0 33 -10 58t-30.5 41.5t-51 25t-70.5 8.5h-326z
M408 764l145 158h133l-191 -158h-87z" />
    <glyph glyph-name="racute" unicode="&#x155;" horiz-adv-x="537" 
d="M107 0v544h91l7 -146q25 42 61 74q44 39 100.5 60.5t121.5 21.5h14t11 -1l-4 -103q-8 3 -19.5 4t-24.5 1q-41 0 -79 -9t-70 -27.5t-56 -47t-37.5 -66t-14.5 -84.5v-221h-101zM239 609l145 158h133l-191 -158h-87z" />
    <glyph glyph-name="Rcommaaccent" unicode="&#x156;" horiz-adv-x="905" 
d="M126 0v700h450q61 0 108 -14.5t79 -42.5t48.5 -68.5t16.5 -91.5q0 -66 -29.5 -113.5t-85.5 -72.5q-51 -24 -124 -25l257 -272h-136l-253 267h-224v-267h-107zM233 616v-265h326q39 0 69 8.5t51 25.5t31.5 41.5t10.5 56.5q0 33 -10 58t-30.5 41.5t-51 25t-70.5 8.5h-326z
M298 -213l99 149h121l-138 -149h-82z" />
    <glyph glyph-name="rcommaaccent" unicode="&#x157;" horiz-adv-x="537" 
d="M107 0v544h91l7 -146q25 42 61 74q44 39 100.5 60.5t121.5 21.5h14t11 -1l-4 -103q-8 3 -19.5 4t-24.5 1q-41 0 -79 -9t-70 -27.5t-56 -47t-37.5 -66t-14.5 -84.5v-221h-101zM-4 -213l99 149h121l-138 -149h-82z" />
    <glyph glyph-name="Rcaron" unicode="&#x158;" horiz-adv-x="905" 
d="M126 0v700h450q61 0 108 -14.5t79 -42.5t48.5 -68.5t16.5 -91.5q0 -66 -29.5 -113.5t-85.5 -72.5q-51 -24 -124 -25l257 -272h-136l-253 267h-224v-267h-107zM233 616v-265h326q39 0 69 8.5t51 25.5t31.5 41.5t10.5 56.5q0 33 -10 58t-30.5 41.5t-51 25t-70.5 8.5h-326z
M453 815l131 107h80l-153 -158h-121l-150 158h81z" />
    <glyph glyph-name="rcaron" unicode="&#x159;" horiz-adv-x="537" 
d="M107 0v544h91l7 -146q25 42 61 74q44 39 100.5 60.5t121.5 21.5h14t11 -1l-4 -103q-8 3 -19.5 4t-24.5 1q-41 0 -79 -9t-70 -27.5t-56 -47t-37.5 -66t-14.5 -84.5v-221h-101zM292 660l131 107h80l-153 -158h-121l-150 158h81z" />
    <glyph glyph-name="Sacute" unicode="&#x15a;" horiz-adv-x="885" 
d="M54 213l108 17q10 -51 46.5 -85.5t98 -52t145.5 -17.5q69 0 119 8t82.5 23t48 36.5t15.5 49.5q0 36 -19.5 58t-62.5 34t-111 20l-179 13q-63 7 -112.5 20.5t-83.5 36t-52 55t-18 77.5q0 47 22.5 84.5t67 64.5t110.5 41t151 14q116 0 194.5 -24t124 -70.5t59.5 -115.5
l-107 -16q-16 70 -81.5 105.5t-190.5 35.5q-62 0 -107.5 -8t-75.5 -22.5t-45 -35t-15 -45.5q0 -36 22 -56.5t64 -32t106 -18.5l182 -15q88 -10 147 -31t88.5 -60t29.5 -100q0 -51 -24 -90.5t-71.5 -66.5t-117.5 -40.5t-162 -13.5q-86 0 -154.5 13.5t-119 41t-81 69.5
t-41.5 99zM393 764l145 158h133l-191 -158h-87z" />
    <glyph glyph-name="sacute" unicode="&#x15b;" horiz-adv-x="734" 
d="M358 479q-64 0 -107 -9t-65 -26.5t-22 -42.5t14 -40.5t47.5 -24.5t89.5 -14l130 -7q85 -7 136 -25t74.5 -49.5t23.5 -79.5q0 -54 -35 -92.5t-103.5 -58.5t-170.5 -20q-99 0 -166 19t-105 58.5t-51 100.5l97 15q10 -60 66 -89t157 -29q55 0 94.5 6t65.5 17t38.5 26.5
t12.5 35.5q0 27 -14 43t-45.5 26t-86.5 14l-132 8q-83 7 -134.5 25t-75.5 49.5t-24 77.5q0 51 34 87t99 55.5t158 19.5t157.5 -18.5t102 -55.5t48.5 -95l-95 -14q-6 37 -31 60.5t-70 35t-112 11.5zM316 609l145 158h133l-191 -158h-87z" />
    <glyph glyph-name="Scircumflex" unicode="&#x15c;" horiz-adv-x="885" 
d="M54 213l108 17q10 -51 46.5 -85.5t98 -52t145.5 -17.5q69 0 119 8t82.5 23t48 36.5t15.5 49.5q0 36 -19.5 58t-62.5 34t-111 20l-179 13q-63 7 -112.5 20.5t-83.5 36t-52 55t-18 77.5q0 47 22.5 84.5t67 64.5t110.5 41t151 14q116 0 194.5 -24t124 -70.5t59.5 -115.5
l-107 -16q-16 70 -81.5 105.5t-190.5 35.5q-62 0 -107.5 -8t-75.5 -22.5t-45 -35t-15 -45.5q0 -36 22 -56.5t64 -32t106 -18.5l182 -15q88 -10 147 -31t88.5 -60t29.5 -100q0 -51 -24 -90.5t-71.5 -66.5t-117.5 -40.5t-162 -13.5q-86 0 -154.5 13.5t-119 41t-81 69.5
t-41.5 99zM435 871l-131 -107h-79l152 158h121l151 -158h-82z" />
    <glyph glyph-name="scircumflex" unicode="&#x15d;" horiz-adv-x="734" 
d="M358 479q-64 0 -107 -9t-65 -26.5t-22 -42.5t14 -40.5t47.5 -24.5t89.5 -14l130 -7q85 -7 136 -25t74.5 -49.5t23.5 -79.5q0 -54 -35 -92.5t-103.5 -58.5t-170.5 -20q-99 0 -166 19t-105 58.5t-51 100.5l97 15q10 -60 66 -89t157 -29q55 0 94.5 6t65.5 17t38.5 26.5
t12.5 35.5q0 27 -14 43t-45.5 26t-86.5 14l-132 8q-83 7 -134.5 25t-75.5 49.5t-24 77.5q0 51 34 87t99 55.5t158 19.5t157.5 -18.5t102 -55.5t48.5 -95l-95 -14q-6 37 -31 60.5t-70 35t-112 11.5zM361 716l-131 -107h-79l152 158h121l151 -158h-82z" />
    <glyph glyph-name="Scedilla" unicode="&#x15e;" horiz-adv-x="885" 
d="M54 213l108 17q10 -51 46.5 -85.5t98 -52t145.5 -17.5q69 0 119 8t82.5 23t48 36.5t15.5 49.5q0 36 -19.5 58t-62.5 34t-111 20l-179 13q-63 7 -112.5 20.5t-83.5 36t-52 55t-18 77.5q0 47 22.5 84.5t67 64.5t110.5 41t151 14q116 0 194.5 -24t124 -70.5t59.5 -115.5
l-107 -16q-16 70 -81.5 105.5t-190.5 35.5q-62 0 -107.5 -8t-75.5 -22.5t-45 -35t-15 -45.5q0 -36 22 -56.5t64 -32t106 -18.5l182 -15q88 -10 147 -31t88.5 -60t29.5 -100q0 -51 -24 -90.5t-71.5 -66.5t-117.5 -41q-61 -12 -138 -13l-8 -47q5 2 10 3q24 7 49 7
q51 0 78.5 -20.5t27.5 -56.5q0 -28 -16.5 -47.5t-51 -30t-90.5 -10.5q-32 0 -66.5 3.5t-70.5 10.5l4 52q37 -7 65 -10t53 -3q32 0 50.5 4t27 12t8.5 19q0 13 -11 21t-35 8q-14 0 -28.5 -4t-27.5 -10l-51 8l16 92q-61 2 -112 12q-68 14 -118.5 41.5t-81 69.5t-41.5 99z" />
    <glyph glyph-name="scedilla" unicode="&#x15f;" horiz-adv-x="734" 
d="M358 479q-64 0 -107 -9t-65 -26.5t-22 -42.5t14 -40.5t47.5 -24.5t89.5 -14l130 -7q85 -7 136 -25t74.5 -49.5t23.5 -79.5q0 -54 -35 -92.5t-104 -58.5q-61 -18 -150 -20l-8 -47q5 2 10 3q24 7 49 7q51 0 78.5 -20.5t27.5 -56.5q0 -28 -16.5 -47.5t-51 -30t-90.5 -10.5
q-32 0 -66.5 3.5t-70.5 10.5l4 52q37 -7 65 -10t53 -3q32 0 50.5 4t27 12t8.5 19q0 13 -11 21t-35 8q-14 0 -28.5 -4t-27.5 -10l-51 8l16 92q-68 3 -119 18q-67 19 -105 58.5t-51 100.5l97 15q10 -60 66 -89t157 -29q55 0 94.5 6t65.5 17t38.5 26.5t12.5 35.5q0 27 -14 43
t-45.5 26t-86.5 14l-132 8q-83 7 -134.5 25t-75.5 49.5t-24 77.5q0 51 34 87t99 55.5t158 19.5t157.5 -18.5t102 -55.5t48.5 -95l-95 -14q-6 37 -31 60.5t-70 35t-112 11.5z" />
    <glyph glyph-name="Scaron" unicode="&#x160;" horiz-adv-x="885" 
d="M54 213l108 17q10 -51 46.5 -85.5t98 -52t145.5 -17.5q69 0 119 8t82.5 23t48 36.5t15.5 49.5q0 36 -19.5 58t-62.5 34t-111 20l-179 13q-63 7 -112.5 20.5t-83.5 36t-52 55t-18 77.5q0 47 22.5 84.5t67 64.5t110.5 41t151 14q116 0 194.5 -24t124 -70.5t59.5 -115.5
l-107 -16q-16 70 -81.5 105.5t-190.5 35.5q-62 0 -107.5 -8t-75.5 -22.5t-45 -35t-15 -45.5q0 -36 22 -56.5t64 -32t106 -18.5l182 -15q88 -10 147 -31t88.5 -60t29.5 -100q0 -51 -24 -90.5t-71.5 -66.5t-117.5 -40.5t-162 -13.5q-86 0 -154.5 13.5t-119 41t-81 69.5
t-41.5 99zM438 815l131 107h80l-153 -158h-121l-150 158h81z" />
    <glyph glyph-name="scaron" unicode="&#x161;" horiz-adv-x="734" 
d="M358 479q-64 0 -107 -9t-65 -26.5t-22 -42.5t14 -40.5t47.5 -24.5t89.5 -14l130 -7q85 -7 136 -25t74.5 -49.5t23.5 -79.5q0 -54 -35 -92.5t-103.5 -58.5t-170.5 -20q-99 0 -166 19t-105 58.5t-51 100.5l97 15q10 -60 66 -89t157 -29q55 0 94.5 6t65.5 17t38.5 26.5
t12.5 35.5q0 27 -14 43t-45.5 26t-86.5 14l-132 8q-83 7 -134.5 25t-75.5 49.5t-24 77.5q0 51 34 87t99 55.5t158 19.5t157.5 -18.5t102 -55.5t48.5 -95l-95 -14q-6 37 -31 60.5t-70 35t-112 11.5zM364 660l131 107h80l-153 -158h-121l-150 158h81z" />
    <glyph glyph-name="uni0162" unicode="&#x162;" horiz-adv-x="825" 
d="M359 0v614h-332v86h772v-86h-334v-614h-106zM249 -213l99 149h121l-138 -149h-82z" />
    <glyph glyph-name="uni0163" unicode="&#x163;" horiz-adv-x="538" 
d="M133 184v283h-120v77h84q18 0 28.5 3.5t16.5 16.5t9 41.5t5 78.5h78v-140h260v-77h-260v-272q0 -45 13.5 -72.5t44.5 -40.5t82 -13q19 0 40 1.5t43.5 4.5t44.5 8l-3 -78q-24 -5 -50 -8t-51.5 -5t-48.5 -2q-54 0 -94.5 10t-68 33t-40.5 60t-13 91zM136 -213l99 149h121
l-138 -149h-82z" />
    <glyph glyph-name="Tcaron" unicode="&#x164;" horiz-adv-x="825" 
d="M359 0v614h-332v86h772v-86h-334v-614h-106zM413 815l131 107h80l-153 -158h-121l-150 158h81z" />
    <glyph glyph-name="tcaron" unicode="&#x165;" horiz-adv-x="538" 
d="M133 184v283h-120v77h84q18 0 28.5 3.5t16.5 16.5t9 41.5t5 78.5h78v-140h260v-77h-260v-272q0 -45 13.5 -72.5t44.5 -40.5t82 -13q19 0 40 1.5t43.5 4.5t44.5 8l-3 -78q-24 -5 -50 -8t-51.5 -5t-48.5 -2q-54 0 -94.5 10t-68 33t-40.5 60t-13 91zM306 609v215h101
l-33 -215h-68z" />
    <glyph glyph-name="Tbar" unicode="&#x166;" horiz-adv-x="825" 
d="M180 314v68h179v232h-332v86h772v-86h-334v-232h179v-68h-179v-314h-106v314h-179z" />
    <glyph glyph-name="tbar" unicode="&#x167;" horiz-adv-x="538" 
d="M27 247v67h106v153h-120v77h84q18 0 28.5 3.5t16.5 16.5t9 41.5t5 78.5h78v-140h260v-77h-260v-153h206v-67h-206v-52q0 -45 13.5 -72.5t44.5 -40.5t82 -13q19 0 40 1.5t43.5 4.5t44.5 8l-3 -78q-24 -5 -50 -8t-51.5 -5t-48.5 -2q-54 0 -94.5 10t-68 33t-40.5 60t-13 91
v63h-106z" />
    <glyph glyph-name="Utilde" unicode="&#x168;" horiz-adv-x="955" 
d="M849 302q0 -75 -25 -133t-73.5 -98t-117 -60.5t-156.5 -20.5t-156.5 20.5t-116.5 60.5t-73 98t-25 133v398h106v-398q0 -74 31 -124.5t90.5 -76.5t143.5 -26q64 0 113 14.5t83 43.5t52 71.5t18 97.5v398h106v-398zM663 916q7 -59 -3.5 -94t-33.5 -50t-53 -15
q-25 0 -46 10t-38.5 24.5t-33.5 29t-31.5 24.5t-31.5 10q-11 0 -21 -7.5t-14 -26.5t1 -52h-68q-6 59 4.5 93.5t33.5 49.5t53 15q24 0 45 -10t38.5 -24.5t33.5 -29t31.5 -24.5t31.5 -10q9 0 17 4t13 14t6.5 26.5t-2.5 42.5h68z" />
    <glyph glyph-name="utilde" unicode="&#x169;" horiz-adv-x="813" 
d="M706 544v-544h-89l-7 118q-20 -30 -48 -54t-62 -40.5t-73 -25t-82 -8.5q-55 0 -101 14.5t-79.5 44t-51.5 72.5t-18 100v323h101v-308q0 -40 13 -70.5t36 -51t55 -30.5t72 -10q37 0 72 8.5t64.5 25.5t51 42.5t34 58t12.5 72.5v263h100zM593 761q7 -59 -3.5 -94t-33.5 -50
t-53 -15q-25 0 -46 10t-38.5 24.5t-33.5 29t-31.5 24.5t-31.5 10q-11 0 -21 -7.5t-14 -26.5t1 -52h-68q-6 59 4.5 93.5t33.5 49.5t53 15q24 0 45 -10t38.5 -24.5t33.5 -29t31.5 -24.5t31.5 -10q9 0 17 4t13 14t6.5 26.5t-2.5 42.5h68z" />
    <glyph glyph-name="Umacron" unicode="&#x16a;" horiz-adv-x="955" 
d="M849 302q0 -75 -25 -133t-73.5 -98t-117 -60.5t-156.5 -20.5t-156.5 20.5t-116.5 60.5t-73 98t-25 133v398h106v-398q0 -74 31 -124.5t90.5 -76.5t143.5 -26q64 0 113 14.5t83 43.5t52 71.5t18 97.5v398h106v-398zM286 793v70h381v-70h-381z" />
    <glyph glyph-name="umacron" unicode="&#x16b;" horiz-adv-x="813" 
d="M706 544v-544h-89l-7 118q-20 -30 -48 -54t-62 -40.5t-73 -25t-82 -8.5q-55 0 -101 14.5t-79.5 44t-51.5 72.5t-18 100v323h101v-308q0 -40 13 -70.5t36 -51t55 -30.5t72 -10q37 0 72 8.5t64.5 25.5t51 42.5t34 58t12.5 72.5v263h100zM216 638v70h381v-70h-381z" />
    <glyph glyph-name="Ubreve" unicode="&#x16c;" horiz-adv-x="955" 
d="M849 302q0 -75 -25 -133t-73.5 -98t-117 -60.5t-156.5 -20.5t-156.5 20.5t-116.5 60.5t-73 98t-25 133v398h106v-398q0 -74 31 -124.5t90.5 -76.5t143.5 -26q64 0 113 14.5t83 43.5t52 71.5t18 97.5v398h106v-398zM577 914h76q0 -50 -20 -83.5t-59 -50t-97 -16.5
t-97.5 16.5t-59.5 50t-20 83.5h76q0 -47 26 -69t75 -22t74.5 22t25.5 69z" />
    <glyph glyph-name="ubreve" unicode="&#x16d;" horiz-adv-x="813" 
d="M706 544v-544h-89l-7 118q-20 -30 -48 -54t-62 -40.5t-73 -25t-82 -8.5q-55 0 -101 14.5t-79.5 44t-51.5 72.5t-18 100v323h101v-308q0 -40 13 -70.5t36 -51t55 -30.5t72 -10q37 0 72 8.5t64.5 25.5t51 42.5t34 58t12.5 72.5v263h100zM507 759h76q0 -50 -20 -83.5
t-59 -50t-97 -16.5t-97.5 16.5t-59.5 50t-20 83.5h76q0 -47 26 -69t75 -22t74.5 22t25.5 69z" />
    <glyph glyph-name="Uring" unicode="&#x16e;" horiz-adv-x="955" 
d="M849 302q0 -75 -25 -133t-73.5 -98t-117 -60.5t-156.5 -20.5t-156.5 20.5t-116.5 60.5t-73 98t-25 133v398h106v-398q0 -74 31 -124.5t90.5 -76.5t143.5 -26q64 0 113 14.5t83 43.5t52 71.5t18 97.5v398h106v-398zM478 749q-43 0 -74.5 13t-48.5 37t-17 56t17 55.5
t48.5 36.5t74.5 13t73.5 -13t47 -36.5t16.5 -55.5t-16.5 -56t-47 -37t-73.5 -13zM478 795q40 0 60.5 16t20.5 44t-20.5 43t-60.5 15q-41 0 -62.5 -15t-21.5 -43t21.5 -44t62.5 -16z" />
    <glyph glyph-name="uring" unicode="&#x16f;" horiz-adv-x="813" 
d="M706 544v-544h-89l-7 118q-20 -30 -48 -54t-62 -40.5t-73 -25t-82 -8.5q-55 0 -101 14.5t-79.5 44t-51.5 72.5t-18 100v323h101v-308q0 -40 13 -70.5t36 -51t55 -30.5t72 -10q37 0 72 8.5t64.5 25.5t51 42.5t34 58t12.5 72.5v263h100zM408 594q-43 0 -74.5 13t-48.5 37
t-17 56t17 55.5t48.5 36.5t74.5 13t73.5 -13t47 -36.5t16.5 -55.5t-16.5 -56t-47 -37t-73.5 -13zM408 640q40 0 60.5 16t20.5 44t-20.5 43t-60.5 15q-41 0 -62.5 -15t-21.5 -43t21.5 -44t62.5 -16z" />
    <glyph glyph-name="Uhungarumlaut" unicode="&#x170;" horiz-adv-x="955" 
d="M849 302q0 -75 -25 -133t-73.5 -98t-117 -60.5t-156.5 -20.5t-156.5 20.5t-116.5 60.5t-73 98t-25 133v398h106v-398q0 -74 31 -124.5t90.5 -76.5t143.5 -26q64 0 113 14.5t83 43.5t52 71.5t18 97.5v398h106v-398zM325 764l115 158h115l-149 -158h-81zM530 764l115 158
h114l-148 -158h-81z" />
    <glyph glyph-name="uhungarumlaut" unicode="&#x171;" horiz-adv-x="813" 
d="M706 544v-544h-89l-7 118q-20 -30 -48 -54t-62 -40.5t-73 -25t-82 -8.5q-55 0 -101 14.5t-79.5 44t-51.5 72.5t-18 100v323h101v-308q0 -40 13 -70.5t36 -51t55 -30.5t72 -10q37 0 72 8.5t64.5 25.5t51 42.5t34 58t12.5 72.5v263h100zM251 609l115 158h115l-149 -158h-81
zM456 609l115 158h114l-148 -158h-81z" />
    <glyph glyph-name="Uogonek" unicode="&#x172;" horiz-adv-x="955" 
d="M508 -214q-63 0 -97 25t-34 70q0 24 10 44.5t31 37.5q17 14 43 27q-106 2 -183 36q-83 37 -127.5 107t-44.5 169v398h106v-398q0 -74 31 -124.5t90.5 -76.5t143.5 -26q85 0 144.5 26t90.5 76.5t31 124.5v398h106v-398q0 -66 -20 -120t-59.5 -93t-95.5 -63
q-28 -12 -54 -22.5t-50 -19t-44.5 -17.5t-35 -18t-23 -20t-8.5 -24q0 -21 16 -31.5t50 -10.5q23 0 44.5 3.5t46.5 10.5l-3 -75q-23 -7 -50 -11.5t-55 -4.5z" />
    <glyph glyph-name="uogonek" unicode="&#x173;" horiz-adv-x="813" 
d="M706 544v-544h-1q-46 -11 -76.5 -22.5t-47 -23.5t-23 -24.5t-6.5 -24.5q0 -21 16 -31.5t50 -10.5q23 0 44.5 3.5t45.5 10.5l-3 -75q-22 -7 -48.5 -11.5t-55.5 -4.5q-63 0 -97 25t-34 70q0 24 9.5 45t31.5 40t58 35q20 9 47 17l-6 100q-20 -30 -48 -54t-62 -40.5t-73 -25
t-82 -8.5q-55 0 -101 14.5t-79.5 44t-51.5 72.5t-18 100v323h101v-308q0 -40 13 -70.5t36 -51t55 -30.5t72 -10q37 0 72 8.5t64.5 25.5t51 42.5t34 58t12.5 72.5v263h100z" />
    <glyph glyph-name="Wcircumflex" unicode="&#x174;" horiz-adv-x="1276" 
d="M294 0l-274 700h114l216 -576l234 576h109l234 -573l218 573h111l-275 -700h-107l-237 580l-238 -580h-105zM636 871l-131 -107h-79l152 158h121l151 -158h-82z" />
    <glyph glyph-name="wcircumflex" unicode="&#x175;" horiz-adv-x="1052" 
d="M248 0l-231 544h105l176 -433l187 433h85l187 -431l178 431h100l-234 -544h-84l-190 444l-195 -444h-84zM524 716l-131 -107h-79l152 158h121l151 -158h-82z" />
    <glyph glyph-name="Ycircumflex" unicode="&#x176;" horiz-adv-x="807" 
d="M349 0v284l-337 416h130l262 -327l266 327h125l-340 -419v-281h-106zM401 871l-131 -107h-79l152 158h121l151 -158h-82z" />
    <glyph glyph-name="ycircumflex" unicode="&#x177;" horiz-adv-x="692" 
d="M572 544h107l-300 -587q-24 -46 -47.5 -78t-49.5 -51.5t-58.5 -28.5t-73.5 -9q-21 0 -41.5 2.5t-39.5 7.5l-4 77q17 -4 34.5 -5.5t32.5 -1.5q30 0 53.5 6.5t42.5 21.5t36.5 39t37.5 59l5 11l-294 537h112l231 -439zM344 716l-131 -107h-79l152 158h121l151 -158h-82z" />
    <glyph glyph-name="Ydieresis" unicode="&#x178;" horiz-adv-x="807" 
d="M349 0v284l-337 416h130l262 -327l266 327h125l-340 -419v-281h-106zM466 783v104h111v-104h-111zM228 783v104h111v-104h-111z" />
    <glyph glyph-name="Zacute" unicode="&#x179;" horiz-adv-x="809" 
d="M57 614v86h699v-80l-558 -534h558v-86h-701v82l555 532h-553zM354 764l145 158h133l-191 -158h-87z" />
    <glyph glyph-name="zacute" unicode="&#x17a;" horiz-adv-x="675" 
d="M59 467v77h568v-77l-446 -390h449v-77h-579v77l445 390h-437zM293 609l145 158h133l-191 -158h-87z" />
    <glyph glyph-name="Zdotaccent" unicode="&#x17b;" horiz-adv-x="809" 
d="M57 614v86h699v-80l-558 -534h558v-86h-701v82l555 532h-553zM349 783v109h109v-109h-109z" />
    <glyph glyph-name="zdotaccent" unicode="&#x17c;" horiz-adv-x="675" 
d="M59 467v77h568v-77l-446 -390h449v-77h-579v77l445 390h-437zM286 628v109h109v-109h-109z" />
    <glyph glyph-name="Zcaron" unicode="&#x17d;" horiz-adv-x="809" 
d="M57 614v86h699v-80l-558 -534h558v-86h-701v82l555 532h-553zM405 815l131 107h80l-153 -158h-121l-150 158h81z" />
    <glyph glyph-name="zcaron" unicode="&#x17e;" horiz-adv-x="675" 
d="M59 467v77h568v-77l-446 -390h449v-77h-579v77l445 390h-437zM342 660l131 107h80l-153 -158h-121l-150 158h81z" />
    <glyph glyph-name="Schwa" unicode="&#x18f;" horiz-adv-x="970" 
d="M483 710q82 0 149 -15t118 -45t85.5 -74t52 -101.5t17.5 -129.5q0 -69 -18 -125.5t-52.5 -99t-86 -72t-118 -44t-147.5 -14.5q-80 0 -145.5 14t-116 41.5t-85 68t-52.5 92t-18 113.5q0 18 0.5 33t3.5 29h726q-2 35 -11 66q-12 45 -37 78.5t-62.5 55.5t-88.5 33t-114 11
q-75 0 -127.5 -15.5t-86 -43.5t-50.5 -66l-105 17q26 60 73.5 103t121 66.5t174.5 23.5zM795 299h-620v0q4 -55 25 -96.5t59.5 -70t94.5 -43t128 -14.5q64 0 114.5 10.5t88.5 32t63 54t37 75.5q7 24 10 52z" />
    <glyph glyph-name="uni0191" unicode="&#x191;" horiz-adv-x="820" 
d="M126 700h648v-86h-541v-239h487v-85h-487v-252q0 -83 -26 -138.5t-79 -82.5t-137 -27q-28 0 -56 3.5t-59 9.5l-4 86q23 -5 48.5 -8t50.5 -3q55 0 89 16t50 51.5t16 92.5v662z" />
    <glyph glyph-name="uni0192" unicode="&#x192;" horiz-adv-x="508" 
d="M20 544h122v24q0 64 25.5 106.5t77 64t126.5 21.5q32 0 65.5 -3t64.5 -9l-4 -76q-18 4 -37 6.5t-38 3.5t-38 1q-48 0 -79.5 -12t-47 -37t-15.5 -67v-23h257v-77h-257v-486q0 -68 -19.5 -110.5t-60 -61.5t-104.5 -19q-20 0 -38.5 1.5t-35.5 4.5l-4 78q16 -2 30.5 -3.5
t28.5 -1.5q36 0 58.5 11t33.5 34.5t11 61.5v491h-122v77z" />
    <glyph glyph-name="uni0218" unicode="&#x218;" horiz-adv-x="885" 
d="M54 213l108 17q10 -51 46.5 -85.5t98 -52t145.5 -17.5q69 0 119 8t82.5 23t48 36.5t15.5 49.5q0 36 -19.5 58t-62.5 34t-111 20l-179 13q-63 7 -112.5 20.5t-83.5 36t-52 55t-18 77.5q0 47 22.5 84.5t67 64.5t110.5 41t151 14q116 0 194.5 -24t124 -70.5t59.5 -115.5
l-107 -16q-16 70 -81.5 105.5t-190.5 35.5q-62 0 -107.5 -8t-75.5 -22.5t-45 -35t-15 -45.5q0 -36 22 -56.5t64 -32t106 -18.5l182 -15q88 -10 147 -31t88.5 -60t29.5 -100q0 -51 -24 -90.5t-71.5 -66.5t-117.5 -40.5t-162 -13.5q-86 0 -154.5 13.5t-119 41t-81 69.5
t-41.5 99zM282 -213l99 149h121l-138 -149h-82z" />
    <glyph glyph-name="uni0219" unicode="&#x219;" horiz-adv-x="734" 
d="M358 479q-64 0 -107 -9t-65 -26.5t-22 -42.5t14 -40.5t47.5 -24.5t89.5 -14l130 -7q85 -7 136 -25t74.5 -49.5t23.5 -79.5q0 -54 -35 -92.5t-103.5 -58.5t-170.5 -20q-99 0 -166 19t-105 58.5t-51 100.5l97 15q10 -60 66 -89t157 -29q55 0 94.5 6t65.5 17t38.5 26.5
t12.5 35.5q0 27 -14 43t-45.5 26t-86.5 14l-132 8q-83 7 -134.5 25t-75.5 49.5t-24 77.5q0 51 34 87t99 55.5t158 19.5t157.5 -18.5t102 -55.5t48.5 -95l-95 -14q-6 37 -31 60.5t-70 35t-112 11.5zM218 -213l99 149h121l-138 -149h-82z" />
    <glyph glyph-name="uni021A" unicode="&#x21a;" horiz-adv-x="825" 
d="M359 0v614h-332v86h772v-86h-334v-614h-106zM249 -213l99 149h121l-138 -149h-82z" />
    <glyph glyph-name="uni021B" unicode="&#x21b;" horiz-adv-x="538" 
d="M133 184v283h-120v77h84q18 0 28.5 3.5t16.5 16.5t9 41.5t5 78.5h78v-140h260v-77h-260v-272q0 -45 13.5 -72.5t44.5 -40.5t82 -13q19 0 40 1.5t43.5 4.5t44.5 8l-3 -78q-24 -5 -50 -8t-51.5 -5t-48.5 -2q-54 0 -94.5 10t-68 33t-40.5 60t-13 91zM136 -213l99 149h121
l-138 -149h-82z" />
    <glyph glyph-name="dotlessj" unicode="&#x237;" horiz-adv-x="315" 
d="M107 -24v568h101v-563q0 -68 -20 -110.5t-61 -61.5t-104 -19q-19 0 -36.5 1.5t-37.5 4.5l-3 78q16 -2 30 -3.5t28 -1.5q53 0 78 25t25 82z" />
    <glyph glyph-name="uni0259" unicode="&#x259;" horiz-adv-x="789" 
d="M391 555q67 0 122 -12t96.5 -35t69.5 -58t42.5 -80t14.5 -102q0 -53 -14.5 -97.5t-43.5 -78t-70.5 -56.5t-96 -34.5t-120.5 -11.5q-81 0 -143.5 17.5t-105 51.5t-65.5 83t-23 113q0 11 0.5 22.5t2.5 21.5h577q-2 25 -8 46q-10 33 -29 58.5t-48.5 41.5t-69 24.5t-88.5 8.5
q-58 0 -98.5 -11t-66.5 -30.5t-39 -48.5l-98 16q20 48 59 82t99 51.5t144 17.5zM633 225h-476q3 -36 17 -63q16 -32 45.5 -53t72.5 -32t98 -11q50 0 89.5 8t69 23.5t48.5 40t29 56.5q4 15 7 31z" />
    <glyph glyph-name="uni02BC" unicode="&#x2bc;" horiz-adv-x="305" 
d="M93 699h115v-122q0 -42 -7.5 -71t-24 -47.5t-44 -27t-66.5 -8.5l-5 58q34 0 51.5 7.5t24.5 27t7 53.5v21h-51v109z" />
    <glyph glyph-name="circumflex" unicode="&#x2c6;" 
d="M248 716l-131 -107h-79l152 158h121l151 -158h-82z" />
    <glyph glyph-name="caron" unicode="&#x2c7;" 
d="M251 660l131 107h80l-153 -158h-121l-150 158h81z" />
    <glyph glyph-name="breve" unicode="&#x2d8;" 
d="M350 759h76q0 -50 -20 -83.5t-59 -50t-97 -16.5t-97.5 16.5t-59.5 50t-20 83.5h76q0 -47 26 -69t75 -22t74.5 22t25.5 69z" />
    <glyph glyph-name="dotaccent" unicode="&#x2d9;" 
d="M195 628v109h109v-109h-109z" />
    <glyph glyph-name="ring" unicode="&#x2da;" 
d="M251 594q-43 0 -74.5 13t-48.5 37t-17 56t17 55.5t48.5 36.5t74.5 13t73.5 -13t47 -36.5t16.5 -55.5t-16.5 -56t-47 -37t-73.5 -13zM251 640q40 0 60.5 16t20.5 44t-20.5 43t-60.5 15q-41 0 -62.5 -15t-21.5 -43t21.5 -44t62.5 -16z" />
    <glyph glyph-name="ogonek" unicode="&#x2db;" 
d="M213 -119q0 24 9.5 45t31.5 40t58 35t90 29l47 -30q-47 -11 -77 -22.5t-47 -23.5t-23.5 -24.5t-6.5 -24.5q0 -21 16 -31.5t50 -10.5q23 0 44.5 3.5t45.5 10.5l-3 -75q-22 -7 -48.5 -11.5t-55.5 -4.5q-62 0 -96.5 25t-34.5 70z" />
    <glyph glyph-name="tilde" unicode="&#x2dc;" 
d="M436 761q7 -59 -3.5 -94t-33.5 -50t-53 -15q-25 0 -46 10t-38.5 24.5t-33.5 29t-31.5 24.5t-31.5 10q-11 0 -21 -7.5t-14 -26.5t1 -52h-68q-6 59 4.5 93.5t33.5 49.5t53 15q24 0 45 -10t38.5 -24.5t33.5 -29t31.5 -24.5t31.5 -10q9 0 17 4t13 14t6.5 26.5t-2.5 42.5h68z
" />
    <glyph glyph-name="hungarumlaut" unicode="&#x2dd;" 
d="M94 609l115 158h115l-149 -158h-81zM299 609l115 158h114l-148 -158h-81z" />
    <glyph glyph-name="uni0400" unicode="&#x400;" horiz-adv-x="839" 
d="M126 0v700h648v-84h-543v-215h489v-84h-489v-233h550v-84h-655zM498 765h-87l-191 158h133z" />
    <glyph glyph-name="afii10023" unicode="&#x401;" horiz-adv-x="839" 
d="M126 0v700h648v-84h-543v-215h489v-84h-489v-233h550v-84h-655zM513 769v104h111v-104h-111zM275 769v104h111v-104h-111z" />
    <glyph glyph-name="afii10051" unicode="&#x402;" horiz-adv-x="1118" 
d="M359 0v614h-332v86h772v-86h-334v-283q30 40 74.5 68t101.5 43.5t122 15.5q84 0 143 -27.5t91 -76.5t32 -115v-41q0 -52 -16 -91.5t-47.5 -65.5t-78.5 -38.5t-109 -12.5q-31 0 -60 3t-59 8l-3 76q27 -5 53.5 -8t52.5 -3q53 0 88.5 14.5t54 43.5t18.5 73v35q0 44 -22 77
t-63.5 51t-101.5 18q-57 0 -106 -15.5t-86.5 -43.5t-58 -66.5t-20.5 -84.5v-168h-106z" />
    <glyph glyph-name="afii10052" unicode="&#x403;" horiz-adv-x="767" 
d="M126 0v700h613v-86h-506v-614h-107zM376 780l145 158h133l-191 -158h-87z" />
    <glyph glyph-name="afii10053" unicode="&#x404;" horiz-adv-x="945" 
d="M67 349q0 66 19 122t55 100t87.5 75t118 47.5t144.5 16.5q111 0 193.5 -27.5t134.5 -80t72 -129.5l-111 -21q-14 55 -51 94t-96 59t-142 20q-60 0 -110 -12t-88.5 -35.5t-64.5 -57t-39 -76.5q-7 -24 -11 -50h489v-79h-490q3 -32 12 -60q13 -43 39 -76.5t64.5 -57
t88 -35.5t110.5 -12q84 0 145 20.5t98.5 60.5t49.5 99l108 -22q-17 -79 -69 -133t-135.5 -81.5t-196.5 -27.5q-80 0 -147 16t-118.5 47t-87 75t-53.5 100t-18 121z" />
    <glyph glyph-name="afii10054" unicode="&#x405;" horiz-adv-x="885" 
d="M54 213l108 17q10 -51 46.5 -85.5t98 -52t145.5 -17.5q69 0 119 8t82.5 23t48 36.5t15.5 49.5q0 36 -19.5 58t-62.5 34t-111 20l-179 13q-63 7 -112.5 20.5t-83.5 36t-52 55t-18 77.5q0 47 22.5 84.5t67 64.5t110.5 41t151 14q116 0 194.5 -24t124 -70.5t59.5 -115.5
l-107 -16q-16 70 -81.5 105.5t-190.5 35.5q-62 0 -107.5 -8t-75.5 -22.5t-45 -35t-15 -45.5q0 -36 22 -56.5t64 -32t106 -18.5l182 -15q88 -10 147 -31t88.5 -60t29.5 -100q0 -51 -24 -90.5t-71.5 -66.5t-117.5 -40.5t-162 -13.5q-86 0 -154.5 13.5t-119 41t-81 69.5
t-41.5 99z" />
    <glyph glyph-name="afii10055" unicode="&#x406;" horiz-adv-x="359" 
d="M126 0v700h107v-700h-107z" />
    <glyph glyph-name="afii10056" unicode="&#x407;" horiz-adv-x="359" 
d="M126 0v700h107v-700h-107zM243 783v104h111v-104h-111zM5 783v104h111v-104h-111z" />
    <glyph glyph-name="afii10057" unicode="&#x408;" horiz-adv-x="542" 
d="M426 240q0 -64 -15 -111.5t-46.5 -78t-81 -45.5t-119.5 -15q-32 0 -65 3t-71 9l-4 87q21 -3 41.5 -5.5t40.5 -4t41 -1.5q62 0 100 16t55.5 51.5t17.5 92.5v462h106v-460z" />
    <glyph glyph-name="afii10058" unicode="&#x409;" horiz-adv-x="1486" 
d="M13 80q34 4 62 15t48 37q13 16 22.5 39.5t15.5 57t10 81.5t6.5 113t4.5 150l3 127h652v-246h343q80 0 138.5 -28t90 -79t31.5 -120t-31.5 -120t-90 -79t-138.5 -28h-450v614h-442l-2 -51q-2 -95 -6 -167t-10 -126t-15.5 -92.5t-22.5 -65.5t-32 -49q-20 -23 -45.5 -38.5
t-58 -23t-74.5 -9.5zM837 370v-287h329q51 0 88.5 16.5t57.5 48.5t20 79t-20 79t-57.5 48t-88.5 16h-329z" />
    <glyph glyph-name="afii10059" unicode="&#x40a;" horiz-adv-x="1557" 
d="M1260 419q58 0 104.5 -15t79 -42t50 -65.5t17.5 -85.5q0 -65 -30.5 -112.5t-86.5 -73t-134 -25.5h-468v333h-559v-333h-107v700h107v-282h559v282h106v-281h362zM898 336v-253h351q47 0 82 14.5t54 43.5t19 70t-19 68.5t-54 42t-82 14.5h-351z" />
    <glyph glyph-name="afii10060" unicode="&#x40b;" horiz-adv-x="1092" 
d="M352 0v614h-333v86h773v-86h-334v-286q28 40 70 67.5t95 42.5t114 15q84 0 141 -28.5t86.5 -81t29.5 -122.5v-221h-105v196q0 54 -21.5 93t-62 60t-101.5 21q-54 0 -99 -15.5t-78 -44t-51 -67.5t-18 -87v-156h-106z" />
    <glyph glyph-name="afii10061" unicode="&#x40c;" horiz-adv-x="880" 
d="M235 357l472 343h151l-471 -336l488 -364h-157zM126 0v700h105v-700h-105zM405 766l145 158h133l-191 -158h-87z" />
    <glyph glyph-name="uni040D" unicode="&#x40d;" horiz-adv-x="1015" 
d="M229 0h-103v700h103v-566l556 566h103v-700h-103v565zM556 766h-87l-191 158h133z" />
    <glyph glyph-name="afii10062" unicode="&#x40e;" horiz-adv-x="840" 
d="M256 0l120 184l-361 516h124l296 -425l274 425h118l-450 -700h-121zM568 919h95q0 -42 -16.5 -75.5t-47.5 -57.5t-75 -36.5t-98 -12.5t-97.5 12.5t-74.5 36.5t-47 57.5t-16 75.5h94q0 -33 17.5 -57.5t49 -38t74.5 -13.5t75 13.5t49.5 38t17.5 57.5z" />
    <glyph glyph-name="afii10145" unicode="&#x40f;" horiz-adv-x="980" 
d="M126 0v700h107v-615h514v615h107v-700h-107h-207v-163h-100v163h-314z" />
    <glyph glyph-name="afii10017" unicode="&#x410;" horiz-adv-x="900" 
d="M769 0l-99 185h-445l-99 -185h-112l380 700h109l382 -700h-116zM625 268l-178 331l-178 -331h356z" />
    <glyph glyph-name="afii10018" unicode="&#x411;" horiz-adv-x="907" 
d="M126 0v700h663v-84h-559v-198h371q74 0 127.5 -25.5t82.5 -73t29 -112.5q0 -49 -16.5 -87.5t-47 -65t-75 -40.5t-99.5 -14h-476zM230 336v-255h359q47 0 79.5 14.5t49.5 42.5t17 69q0 42 -18 70.5t-50.5 43.5t-77.5 15h-359z" />
    <glyph glyph-name="afii10019" unicode="&#x412;" horiz-adv-x="935" 
d="M126 0v700h481q53 0 95 -12t71 -34.5t44.5 -55t15.5 -74.5q0 -33 -10 -61.5t-30.5 -51.5t-51.5 -39q-13 -6 -28 -11q32 -7 58 -20q46 -24 70.5 -62.5t24.5 -91.5q0 -58 -28 -100t-82 -64.5t-133 -22.5h-497zM230 315v-235h375q52 0 85 14t49.5 39.5t16.5 61.5
q0 39 -19 65.5t-53.5 40.5t-83.5 14h-370zM230 620v-224h361q30 0 55 8t43 22.5t28 35.5t10 48q0 36 -16 60t-47 37t-75 13h-359z" />
    <glyph glyph-name="afii10020" unicode="&#x413;" horiz-adv-x="767" 
d="M126 0v700h613v-86h-506v-614h-107z" />
    <glyph glyph-name="afii10021" unicode="&#x414;" horiz-adv-x="951" 
d="M10 -167v252h72q15 15 28 31q17 24 30.5 57t23.5 82t16.5 121.5t8.5 174.5l4 149h626v-615h100v-252h-101v167h-708v-167h-100zM189 85h526v529h-423l-2 -61q-1 -73 -4.5 -129t-9 -100.5t-12.5 -79t-17 -63.5q-18 -48 -46 -83q-6 -7 -12 -13z" />
    <glyph glyph-name="afii10022" unicode="&#x415;" horiz-adv-x="839" 
d="M126 0v700h648v-84h-543v-215h489v-84h-489v-233h550v-84h-655z" />
    <glyph glyph-name="afii10024" unicode="&#x416;" horiz-adv-x="1174" 
d="M644 362l380 338h134l-383 -333l394 -367h-138zM529 360l-388 -360h-136l395 364l-381 336h133zM535 0v700h104v-700h-104z" />
    <glyph glyph-name="afii10025" unicode="&#x417;" horiz-adv-x="890" 
d="M822 196q0 -50 -25 -89t-74.5 -65t-120.5 -39t-164 -13q-118 0 -199 24t-126 73t-55 121l109 20q6 -52 36 -87.5t88.5 -53.5t146.5 -18q66 0 116 8.5t84 25.5t51.5 41.5t17.5 55.5q0 41 -23 67.5t-69 39.5t-118 13h-208v80h205q45 0 81 6.5t62 20t40 35t14 51.5
q0 28 -15.5 50t-47.5 37.5t-79 23t-111 7.5q-79 0 -135.5 -16.5t-88 -50t-40.5 -83.5l-103 22q14 67 59 113.5t122 70t185 23.5q90 0 158.5 -12t114.5 -35.5t69.5 -59t23.5 -81.5q0 -35 -13 -63t-39 -49.5t-65 -36.5q-14 -5 -29 -9q30 -5 55 -14q55 -21 82.5 -59t27.5 -95z
" />
    <glyph glyph-name="afii10026" unicode="&#x418;" horiz-adv-x="1015" 
d="M229 0h-103v700h103v-566l556 566h103v-700h-103v565z" />
    <glyph glyph-name="afii10027" unicode="&#x419;" horiz-adv-x="1015" 
d="M229 0h-103v700h103v-566l556 566h103v-700h-103v565zM655 918h95q0 -42 -16.5 -75.5t-47.5 -57.5t-75 -36.5t-98 -12.5t-97.5 12.5t-74.5 36.5t-47 57.5t-16 75.5h94q0 -33 17.5 -57.5t49 -38t74.5 -13.5t75 13.5t49.5 38t17.5 57.5z" />
    <glyph glyph-name="afii10028" unicode="&#x41a;" horiz-adv-x="880" 
d="M235 357l472 343h151l-471 -336l488 -364h-157zM126 0v700h105v-700h-105z" />
    <glyph glyph-name="afii10029" unicode="&#x41b;" horiz-adv-x="963" 
d="M13 80q34 4 62 15t48 37q13 16 22.5 39.5t15.5 57t10 81.5t6.5 113t4.5 150l3 127h651v-700h-105v614h-443l-2 -51q-2 -95 -6 -167t-10 -126t-15.5 -92.5t-22.5 -65.5t-32 -49q-20 -23 -45.5 -38.5t-58 -23t-74.5 -9.5z" />
    <glyph glyph-name="afii10030" unicode="&#x41c;" horiz-adv-x="1183" 
d="M126 0v700h115l352 -484l350 484h113v-700h-100v567l-318 -444h-92l-320 442v-565h-100z" />
    <glyph glyph-name="afii10031" unicode="&#x41d;" horiz-adv-x="1025" 
d="M126 0v700h107v-295h559v295h106v-700h-106v319h-559v-319h-107z" />
    <glyph glyph-name="afii10032" unicode="&#x41e;" horiz-adv-x="995" 
d="M497 -10q-81 0 -149 16t-120 47t-88 75t-54.5 99.5t-18.5 121.5t18.5 122t54 100t88 75t120.5 47.5t149 16.5q83 0 150.5 -16.5t120 -47.5t88.5 -75t54.5 -100t18.5 -122q0 -65 -18.5 -120.5t-54.5 -100t-88.5 -75.5t-120 -47t-150.5 -16zM497 75q64 0 115.5 12.5
t90 35.5t65 56.5t39.5 76t13 93.5t-13 94t-39.5 76.5t-65 57t-90 36t-115.5 12.5q-63 0 -114 -12.5t-90 -36t-65 -57t-39 -76.5t-13 -94t13 -93.5t39 -76t65 -57t90 -35.5t114 -12z" />
    <glyph glyph-name="afii10033" unicode="&#x41f;" horiz-adv-x="1018" 
d="M126 0v700h765v-700h-106v614h-552v-614h-107z" />
    <glyph glyph-name="afii10034" unicode="&#x420;" horiz-adv-x="877" 
d="M126 0v700h432q63 0 113 -16.5t85 -48t53.5 -75.5t18.5 -100q0 -72 -33 -125.5t-94 -82t-146 -28.5h-322v-224h-107zM233 614v-305h307q58 0 98 17.5t61 52t21 81.5q0 50 -21 84t-61 52t-98 18h-307z" />
    <glyph glyph-name="afii10035" unicode="&#x421;" horiz-adv-x="945" 
d="M67 349q0 66 19 122t55 100t87.5 75t118 47.5t144.5 16.5q111 0 193.5 -27.5t134.5 -80t72 -129.5l-111 -21q-14 55 -51 94t-96 59t-142 20q-60 0 -110 -12t-88.5 -35.5t-64.5 -57.5t-39 -77t-13 -94t13 -94t39 -76.5t64.5 -56.5t88 -35t110.5 -12q84 0 145 20t98.5 60
t49.5 99l108 -22q-17 -79 -69 -133t-135.5 -81.5t-196.5 -27.5q-67 0 -124.5 11t-105 33t-83.5 53.5t-60.5 71.5t-37.5 88t-13 102z" />
    <glyph glyph-name="afii10036" unicode="&#x422;" horiz-adv-x="825" 
d="M359 0v614h-332v86h772v-86h-334v-614h-106z" />
    <glyph glyph-name="afii10037" unicode="&#x423;" horiz-adv-x="840" 
d="M256 0l120 184l-361 516h124l296 -425l274 425h118l-450 -700h-121z" />
    <glyph glyph-name="afii10038" unicode="&#x424;" horiz-adv-x="1049" 
d="M470 -22v97h-26q-91 0 -163.5 19t-124 55.5t-79 88.5t-27.5 118.5t28 119t79 89.5t124 56.5t163 19.5h26v80h108v-80h28q90 0 162.5 -19.5t124 -56.5t79 -89.5t27.5 -119t-27.5 -118.5t-78.5 -88.5t-124 -55.5t-163 -19h-28v-97h-108zM896 356q0 50 -20 87.5t-57.5 63.5
t-91 39t-121.5 13h-30v-403h30q68 0 121.5 13t91 38.5t57.5 63t20 85.5zM153 356q0 -48 19.5 -85.5t57.5 -63t91.5 -38.5t121.5 -13h28v403h-28q-68 0 -122 -13t-91.5 -39t-57 -63.5t-19.5 -87.5z" />
    <glyph glyph-name="afii10039" unicode="&#x425;" horiz-adv-x="818" 
d="M665 0l-262 290l-256 -290h-128l318 358l-310 342h132l253 -280l250 280h128l-315 -346l322 -354h-132z" />
    <glyph glyph-name="afii10040" unicode="&#x426;" horiz-adv-x="993" 
d="M126 0v700h107v-615h526v615h106v-615h96v-252h-102v167h-733z" />
    <glyph glyph-name="afii10041" unicode="&#x427;" horiz-adv-x="929" 
d="M696 0v300q-51 -19 -100.5 -31.5t-98 -19t-98.5 -6.5q-102 0 -171 25t-104 79t-35 140v213h105v-196q0 -64 26 -101.5t76.5 -53t124.5 -15.5q44 0 88 5.5t90.5 17t96.5 28.5v315h106v-700h-106z" />
    <glyph glyph-name="afii10042" unicode="&#x428;" horiz-adv-x="1333" 
d="M126 0v700h107v-614h381v614h106v-614h381v614h105v-700h-1080z" />
    <glyph glyph-name="afii10043" unicode="&#x429;" horiz-adv-x="1334" 
d="M1201 -167v167h-1075v700h107v-614h381v614h106v-614h381v614h105v-614h96v-253h-101z" />
    <glyph glyph-name="afii10044" unicode="&#x42a;" horiz-adv-x="994" 
d="M7 616v84h356v-246h327q81 0 139.5 -28t90 -79t31.5 -120t-31.5 -120t-90 -79t-139.5 -28h-431v616h-252zM363 370v-287h313q52 0 89 16.5t57 48.5t20 79t-20 79t-57 48t-89 16h-313z" />
    <glyph glyph-name="afii10045" unicode="&#x42b;" horiz-adv-x="1177" 
d="M944 1v700h107v-700h-107zM126 0v700h107v-246h343q80 0 138.5 -28t90 -79t31.5 -120t-31.5 -120t-90 -79t-138.5 -28h-450zM233 370v-287h329q51 0 88.5 16.5t57.5 48.5t20 79t-20 79t-57.5 48t-88.5 16h-329z" />
    <glyph glyph-name="afii10046" unicode="&#x42c;" horiz-adv-x="882" 
d="M126 0v700h107v-246h343q80 0 138.5 -28t90 -79t31.5 -120t-31.5 -120t-90 -79t-138.5 -28h-450zM233 370v-287h329q51 0 88.5 16.5t57.5 48.5t20 79t-20 79t-57.5 48t-88.5 16h-329z" />
    <glyph glyph-name="afii10047" unicode="&#x42d;" horiz-adv-x="944" 
d="M301 396h466q-4 26 -11 50q-13 43 -39 77t-63.5 57t-86.5 35t-108 12q-84 0 -144.5 -20t-98.5 -58t-53 -93l-105 22q21 76 73 127.5t134.5 78t193.5 26.5q77 0 142 -16t116 -46.5t87 -75t54.5 -100.5t18.5 -123q0 -66 -18 -122t-53 -99.5t-86.5 -74.5t-117.5 -47
t-145 -16q-86 0 -155 15.5t-120 45.5t-84 75.5t-46 104.5l108 21q12 -59 49.5 -99t100 -60.5t147.5 -20.5q60 0 109.5 12.5t87 35.5t63.5 57t39 77q9 29 12 62h-467v80z" />
    <glyph glyph-name="afii10048" unicode="&#x42e;" horiz-adv-x="1301" 
d="M803 -10q-83 0 -150.5 16t-120 47t-88 75t-54.5 100q-14 42 -17 90h-140v-318h-107v700h107v-298h142q4 36 15 69q19 56 54.5 100t87.5 75t120 47.5t150.5 16.5t150.5 -16.5t120 -47.5t88 -75t54.5 -100t18.5 -122q0 -65 -18.5 -120.5t-54.5 -100t-88 -75.5t-120 -47
t-150 -16zM803 74q63 0 114.5 12.5t90 35.5t64.5 57t39 76.5t13 93.5t-13 94t-39 76.5t-64.5 57t-89.5 36t-115 12.5t-115.5 -12.5t-90 -36t-64.5 -57t-39 -76.5t-13 -94.5t13 -94t39.5 -76t65 -57t90 -35.5t114.5 -12z" />
    <glyph glyph-name="afii10049" unicode="&#x42f;" horiz-adv-x="906" 
d="M779 0h-106v263h-214l-266 -263h-131l269 266q-58 0 -104 15q-47 15 -81 43.5t-52 68t-18 88.5q0 51 17.5 91t50.5 69t79 44t103 15h453v-700zM673 345v272h-331q-49 0 -84 -16t-53.5 -46.5t-18.5 -73.5q0 -42 18.5 -72.5t53.5 -47t84 -16.5h331z" />
    <glyph glyph-name="afii10065" unicode="&#x430;" horiz-adv-x="756" 
d="M62 384q10 43 34 75t62 53t90 32t117 11q76 0 132 -12.5t91.5 -38.5t52.5 -65t17 -94v-228q0 -16 4.5 -27.5t14.5 -17.5t27 -6q5 0 11 0.5t10 1.5l-3 -70q-12 -3 -25 -4.5t-25 -1.5q-37 0 -61 12t-35 36.5t-11 59.5v11q-13 -16 -28 -30q-32 -29 -73.5 -49.5t-91 -31
t-104.5 -10.5q-73 0 -124.5 18.5t-78.5 54t-27 85.5q0 49 24.5 84t75 55t129.5 26l296 18v7q0 37 -11.5 63.5t-35.5 43.5t-61.5 25t-90.5 8q-60 0 -104 -12t-68.5 -36t-30.5 -62zM565 262l-292 -20q-46 -3 -76 -14t-45 -29.5t-15 -45.5q0 -28 16 -47t48.5 -29t80.5 -10
q45 0 87 8.5t77.5 23.5t62 36.5t41.5 48t15 56.5v22z" />
    <glyph glyph-name="afii10066" unicode="&#x431;" horiz-adv-x="832" 
d="M423 -10q-88 0 -153.5 21.5t-109 62t-65 98.5t-21.5 130v40q0 103 21 177t65 122t112 72.5t163 28.5l170 7q34 2 61 5t53 8l8 -77q-24 -7 -54 -11t-66 -6l-171 -6q-73 -3 -124.5 -21t-84.5 -54.5t-48 -95.5q-9 -35 -12 -80q1 2 2 3q27 39 70 65.5t99 41t122 14.5
q60 0 109.5 -12.5t87 -35.5t62.5 -55.5t38 -75t13 -92.5t-15 -93t-44.5 -76t-72.5 -57t-96.5 -36t-118.5 -12zM424 68q47 0 86 9t68.5 25t49 40t29.5 55t10 68q0 36 -9.5 66.5t-28 55t-47 41t-66 25t-85.5 8.5q-46 0 -85 -8t-69.5 -24.5t-52 -40t-33.5 -53.5t-12 -67
q0 -36 9.5 -67t29 -55t49 -41.5t68.5 -27t89 -9.5z" />
    <glyph glyph-name="afii10067" unicode="&#x432;" horiz-adv-x="783" 
d="M107 0v544h410q58 0 98 -16t62 -46.5t22 -75.5q0 -29 -10 -51.5t-28 -39t-44 -27.5q-7 -3 -16 -5q25 -5 46 -15q38 -18 58.5 -49t20.5 -74q0 -47 -23 -79t-67 -49t-106 -17h-423zM205 244v-172h302q38 0 64 9.5t39 28t13 46.5q0 29 -14 49t-40.5 29.5t-65.5 9.5h-298z
M205 472v-159h288q32 0 56 9.5t37 28t13 45.5q0 37 -28 56.5t-78 19.5h-288z" />
    <glyph glyph-name="afii10068" unicode="&#x433;" horiz-adv-x="623" 
d="M107 0v544h499v-79h-398v-465h-101z" />
    <glyph glyph-name="afii10069" unicode="&#x434;" horiz-adv-x="795" 
d="M670 -158v158h-565v-158h-94v237h65q19 20 33 43q18 30 28.5 74.5t16.5 113.5t9 170l2 64h511v-465h89v-237h-95zM179 79h400v390h-321q-3 -79 -7 -136q-4 -59 -11 -101.5t-19 -78.5q-13 -38 -36 -67q-3 -3 -6 -7z" />
    <glyph glyph-name="afii10070" unicode="&#x435;" horiz-adv-x="802" 
d="M410 -10q-66 0 -121.5 13t-97 37t-70.5 59t-44 79t-15 96q0 50 15 93.5t43.5 78t70 59t96 37.5t119.5 13q79 0 141.5 -19.5t106.5 -55.5t67 -85.5t23 -110.5q0 -10 -0.5 -20t-2.5 -19h-579q3 -22 9 -41q10 -33 29.5 -58t49.5 -43t70 -27t90 -9q69 0 116 12t76 36t41 58
l98 -17q-18 -55 -59 -92t-108 -55.5t-164 -18.5zM165 320h479q-4 29 -16 53q-16 33 -46.5 56.5t-74 36.5t-100.5 13q-50 0 -89.5 -9t-68.5 -26.5t-49 -42.5t-29 -57q-4 -12 -6 -24z" />
    <glyph glyph-name="afii10072" unicode="&#x436;" horiz-adv-x="964" 
d="M431 0v544h99v-544h-99zM537 285l285 259h128l-292 -254l301 -290h-130zM426 285l-292 -285h-129l300 290l-292 254h128z" />
    <glyph glyph-name="afii10073" unicode="&#x437;" horiz-adv-x="741" 
d="M683 151q0 -40 -20.5 -70.5t-61.5 -50.5t-101 -30t-139 -10q-95 0 -162.5 18t-105.5 57t-48 101l99 17q5 -32 19.5 -54.5t41 -37t65.5 -21.5t92 -7t94 6t68.5 17.5t41.5 29.5t14 41q0 20 -7.5 35t-22.5 25t-36 16.5t-48 9.5t-58 3h-166v70h166q35 0 64.5 4.5t51 14.5
t33.5 26t12 38q0 20 -12 35.5t-37 25.5t-63.5 15.5t-90.5 5.5q-67 0 -111.5 -11.5t-70 -36.5t-33.5 -65l-94 18q12 60 52 97t104.5 54.5t152.5 17.5q102 0 168.5 -16.5t100 -48.5t33.5 -80q0 -30 -12.5 -53.5t-36.5 -40.5t-59 -27q-10 -3 -21 -5q14 -2 26 -5
q38 -8 64.5 -24.5t40 -42t13.5 -61.5z" />
    <glyph glyph-name="afii10074" unicode="&#x438;" horiz-adv-x="832" 
d="M107 0v544h99v-425l419 425h100v-544h-100v425l-419 -425h-99z" />
    <glyph glyph-name="afii10075" unicode="&#x439;" horiz-adv-x="832" 
d="M107 0v544h99v-425l419 425h100v-544h-100v425l-419 -425h-99zM544 757h88q0 -36 -15.5 -64t-43 -48t-65.5 -30t-85 -10q-45 0 -83.5 10t-66 30t-42.5 48t-15 64h87q0 -42 33 -66.5t87 -24.5q37 0 64 11t42 31.5t15 48.5z" />
    <glyph glyph-name="afii10076" unicode="&#x43a;" horiz-adv-x="733" 
d="M215 281l364 263h140l-365 -257l373 -287h-144zM107 0v544h101v-544h-101z" />
    <glyph glyph-name="afii10077" unicode="&#x43b;" horiz-adv-x="789" 
d="M18 72q27 3 48 11t36 24q20 22 30 60t15 101t8 157l2 119h524v-544h-101v463h-328l-1 -49q-3 -107 -11 -179t-24.5 -116.5t-41.5 -71.5q-26 -28 -61.5 -40t-89.5 -14z" />
    <glyph glyph-name="afii10078" unicode="&#x43c;" horiz-adv-x="1004" 
d="M802 0v434l-253 -330h-93l-254 329v-433h-95v544h112l284 -363l282 363h112v-544h-95z" />
    <glyph glyph-name="afii10079" unicode="&#x43d;" horiz-adv-x="842" 
d="M107 0v544h101v-221h426v221h100v-544h-100v245h-426v-245h-101z" />
    <glyph glyph-name="afii10080" unicode="&#x43e;" horiz-adv-x="818" 
d="M409 -10q-67 0 -121 12.5t-96 36.5t-71 58.5t-44 78.5t-15 96q0 51 15 95t44 79t71 59t96.5 37t120.5 13t121 -13t96.5 -37t70.5 -59t44 -79t15 -95q0 -52 -15 -96t-43.5 -78.5t-70.5 -58.5t-97 -36.5t-121 -12.5zM409 69q49 0 87.5 9t67.5 26t49 42t29.5 56.5t9.5 69.5
t-9.5 70t-29.5 56.5t-49 42t-67.5 26.5t-87.5 9q-48 0 -87 -9t-68.5 -26.5t-49 -42.5t-29 -56.5t-9.5 -69.5t10 -69.5t29 -56.5t48.5 -42t68.5 -26t87 -9z" />
    <glyph glyph-name="afii10081" unicode="&#x43f;" horiz-adv-x="831" 
d="M107 0v544h617v-544h-101v463h-415v-463h-101z" />
    <glyph glyph-name="afii10082" unicode="&#x440;" horiz-adv-x="856" 
d="M198 544l6 -115q17 25 41 45q43 38 103.5 59.5t134.5 21.5q58 0 106.5 -13.5t86.5 -38t64 -59.5t39.5 -78.5t13.5 -93.5q0 -51 -13.5 -94t-39.5 -78t-63.5 -59.5t-86.5 -37.5t-107 -13q-74 0 -134.5 20.5t-103.5 58.5q-21 18 -37 40v-309h-101v744h91zM453 69
q47 0 84.5 9.5t66 27t47.5 42.5t29 56.5t10 67.5t-10 67t-29 56.5t-47.5 43t-66 27t-84.5 9.5q-75 0 -130.5 -26t-85 -71.5t-29.5 -106.5q0 -44 16.5 -81.5t49 -64t78 -41.5t101.5 -15z" />
    <glyph glyph-name="afii10083" unicode="&#x441;" horiz-adv-x="777" 
d="M729 360l-100 -19q-9 45 -37.5 74.5t-75.5 45t-110 15.5q-48 0 -86.5 -9t-67 -26.5t-47.5 -42.5t-29 -56.5t-10 -70.5q0 -37 10 -68.5t29 -56.5t48 -42t67.5 -26t85.5 -9q64 0 111 14.5t76 44.5t39 75l100 -19q-15 -63 -58 -106.5t-111 -65.5t-157 -22q-66 0 -120 12.5
t-95.5 37t-70 58.5t-43.5 77.5t-15 95.5t15 96t43.5 79t70 59t95.5 37t120 13q90 0 157.5 -22.5t110 -66t55.5 -106.5z" />
    <glyph glyph-name="afii10084" unicode="&#x442;" horiz-adv-x="675" 
d="M287 0v463h-269v81h638v-81h-269v-463h-100z" />
    <glyph glyph-name="afii10085" unicode="&#x443;" horiz-adv-x="692" 
d="M572 544h107l-300 -587q-24 -46 -47.5 -78t-49.5 -51.5t-58.5 -28.5t-73.5 -9q-21 0 -41.5 2.5t-39.5 7.5l-4 77q17 -4 34.5 -5.5t32.5 -1.5q30 0 53.5 6.5t42.5 21.5t36.5 39t37.5 59l5 11l-294 537h112l231 -439z" />
    <glyph glyph-name="afii10086" unicode="&#x444;" horiz-adv-x="971" 
d="M435 -200v194q-82 1 -147 18q-74 18 -124.5 54t-76.5 87.5t-26 116.5q0 67 26 119t76.5 88.5t124.5 54.5q65 17 147 19v199h99v-199q83 -2 149 -19q73 -18 124 -54.5t77 -88.5t26 -119q0 -65 -26 -116.5t-77 -87.5t-124 -54q-66 -17 -149 -18v-194h-99zM534 477v-411
q62 2 110 13q55 14 92 40t55.5 64t18.5 87q0 50 -18.5 88.5t-55.5 65t-92 40.5q-48 12 -110 13zM435 66v411q-60 -2 -108 -13q-55 -14 -92.5 -40.5t-56 -65t-18.5 -88.5q0 -49 18.5 -87t56 -64t92.5 -40q48 -11 108 -13z" />
    <glyph glyph-name="afii10087" unicode="&#x445;" horiz-adv-x="701" 
d="M559 0l-210 217l-211 -217h-120l267 278l-257 266h126l197 -203l202 203h118l-259 -263l271 -281h-124z" />
    <glyph glyph-name="afii10088" unicode="&#x446;" horiz-adv-x="833" 
d="M107 0v544h101v-464h407v464h101v-464h89v-238h-94v158h-604z" />
    <glyph glyph-name="afii10089" unicode="&#x447;" horiz-adv-x="775" 
d="M668 0h-101v235q-59 -20 -118 -32t-113 -12q-90 0 -147 22t-83.5 69t-26.5 122v140h101v-133q0 -55 18.5 -85.5t58.5 -43t105 -12.5q34 0 67.5 4t68 12.5t69.5 21.5v236h101v-544z" />
    <glyph glyph-name="afii10090" unicode="&#x448;" horiz-adv-x="1093" 
d="M107 0v544h99v-464h291v464h98v-464h292v464h98v-544h-878z" />
    <glyph glyph-name="afii10091" unicode="&#x449;" horiz-adv-x="1102" 
d="M980 -158v158h-873v544h99v-464h291v464h98v-464h291v464h99v-464h90v-238h-95z" />
    <glyph glyph-name="afii10092" unicode="&#x44a;" horiz-adv-x="816" 
d="M6 465v79h292v-176h262q69 0 117 -22t73 -63.5t25 -99.5q0 -43 -14 -77t-42 -57.5t-68 -36t-91 -12.5h-361v465h-193zM298 295v-222h247q42 0 71.5 12.5t45.5 37t16 60.5q0 37 -16 61.5t-45.5 37.5t-71.5 13h-247z" />
    <glyph glyph-name="afii10093" unicode="&#x44b;" horiz-adv-x="1004" 
d="M107 0v544h101v-176h276q68 0 116 -22t73.5 -63.5t25.5 -99.5q0 -43 -14.5 -77t-42 -57.5t-67.5 -36t-91 -12.5h-377zM208 295v-222h261q41 0 70.5 12.5t45.5 37t16 60.5q0 37 -16 61.5t-45.5 37.5t-70.5 13h-261zM796 0v544h100v-544h-100z" />
    <glyph glyph-name="afii10094" unicode="&#x44c;" horiz-adv-x="740" 
d="M107 0v544h101v-176h276q68 0 116 -22t73.5 -63.5t25.5 -99.5q0 -43 -14.5 -77t-42 -57.5t-67.5 -36t-91 -12.5h-377zM208 295v-222h261q41 0 70.5 12.5t45.5 37t16 60.5q0 37 -16 62t-45.5 37.5t-70.5 12.5h-261z" />
    <glyph glyph-name="afii10095" unicode="&#x44d;" horiz-adv-x="784" 
d="M149 350l-97 19q15 61 58 102t111.5 62.5t157.5 21.5q65 0 119 -13t95.5 -38t70 -59.5t43 -78t14.5 -93.5q0 -52 -15 -96t-43 -78.5t-69.5 -59t-96 -37t-119.5 -12.5q-94 0 -162.5 20.5t-110 62t-56.5 103.5l97 18q10 -43 39 -71t77 -42t116 -14q49 0 88.5 9t68.5 26
t48.5 42t29.5 58q6 18 8 38h-366v72h365q-3 16 -7 30q-10 32 -29.5 57t-48.5 42.5t-68 26.5t-88 9q-64 0 -113 -14t-78.5 -42.5t-38.5 -70.5z" />
    <glyph glyph-name="afii10096" unicode="&#x44e;" horiz-adv-x="1085" 
d="M107 0v544h101v-223h124q4 24 11 46q15 44 44 79t71 59t96.5 37t120.5 13q67 0 121.5 -13t96.5 -37t70.5 -59t43.5 -79t15 -95q0 -52 -15 -96t-43.5 -78.5t-70.5 -58.5t-96.5 -36.5t-121.5 -12.5q-66 0 -120.5 12.5t-96.5 36.5t-71 58.5t-44 78.5q-10 30 -13 64h-122
v-240h-101zM675 68q49 0 87.5 9t67.5 26t49 42t29.5 57t9.5 70t-9.5 70t-29.5 56.5t-49 42t-67.5 26.5t-87.5 9q-48 0 -86.5 -9t-68 -26.5t-49.5 -42.5t-29.5 -56.5t-9.5 -69.5t10 -70t29.5 -57t49 -42t68 -26t86.5 -9z" />
    <glyph glyph-name="afii10097" unicode="&#x44f;" horiz-adv-x="754" 
d="M647 0h-100v203h-182l-194 -203h-122l201 208q-52 4 -91 19q-50 20 -76 57t-26 90t25.5 91.5t74 59t114.5 20.5h376v-545zM547 276v196h-269q-38 0 -66 -11.5t-42.5 -33.5t-14.5 -53.5t15 -53.5t42.5 -33t65.5 -11h269z" />
    <glyph glyph-name="uni0450" unicode="&#x450;" horiz-adv-x="802" 
d="M410 -10q-66 0 -121.5 13t-97 37t-70.5 59t-44 79t-15 96q0 50 15 93.5t43.5 78t70 59t96 37.5t119.5 13q79 0 141.5 -19.5t106.5 -55.5t67 -85.5t23 -110.5q0 -10 -0.5 -20t-2.5 -19h-579q3 -22 9 -41q10 -33 29.5 -58t49.5 -43t70 -27t90 -9q69 0 116 12t76 36t41 58
l98 -17q-18 -55 -59 -92t-108 -55.5t-164 -18.5zM165 320h479q-4 29 -16 53q-16 33 -46.5 56.5t-74 36.5t-100.5 13q-50 0 -89.5 -9t-68.5 -26.5t-49 -42.5t-29 -57q-4 -12 -6 -24zM446 609h-87l-191 158h133z" />
    <glyph glyph-name="afii10071" unicode="&#x451;" horiz-adv-x="802" 
d="M410 -10q-66 0 -121.5 13t-97 37t-70.5 59t-44 79t-15 96q0 50 15 93.5t43.5 78t70 59t96 37.5t119.5 13q79 0 141.5 -19.5t106.5 -55.5t67 -85.5t23 -110.5q0 -10 -0.5 -20t-2.5 -19h-579q3 -22 9 -41q10 -33 29.5 -58t49.5 -43t70 -27t90 -9q69 0 116 12t76 36t41 58
l98 -17q-18 -55 -59 -92t-108 -55.5t-164 -18.5zM165 320h479q-4 29 -16 53q-16 33 -46.5 56.5t-74 36.5t-100.5 13q-50 0 -89.5 -9t-68.5 -26.5t-49 -42.5t-29 -57q-4 -12 -6 -24zM464 628v104h111v-104h-111zM226 628v104h111v-104h-111z" />
    <glyph glyph-name="afii10099" unicode="&#x452;" horiz-adv-x="834" 
d="M114 0v575h-108v78h108v97h102v-97h243v-78h-243v-193q27 39 67.5 67t91.5 43.5t109 15.5q81 0 137.5 -29t86 -82t29.5 -125v-285q0 -71 -20 -114.5t-62 -63t-112 -19.5q-15 0 -28.5 0.5t-25.5 2.5t-23 4l-4 77q14 -2 30 -3.5t30 -1.5q60 0 87 25.5t27 84.5v273
q0 52 -21 90.5t-61.5 60t-99.5 21.5q-52 0 -95.5 -15t-75.5 -42.5t-49.5 -66t-17.5 -85.5v-215h-102z" />
    <glyph glyph-name="afii10100" unicode="&#x453;" horiz-adv-x="623" 
d="M107 0v544h499v-79h-398v-465h-101zM301 609l145 158h133l-191 -158h-87z" />
    <glyph glyph-name="afii10101" unicode="&#x454;" horiz-adv-x="786" 
d="M529 310v-71h-364q2 -20 8 -37q10 -32 30 -57t49 -42.5t68 -27t87 -9.5q65 0 112.5 14t77.5 42t40 72l100 -19q-15 -61 -59 -102.5t-112.5 -62t-158.5 -20.5q-65 0 -119.5 12.5t-96.5 37t-70.5 59t-43.5 78t-15 94.5q0 52 15 96t43.5 78.5t70.5 59t96 37.5t120 13
q91 0 159 -21.5t111 -62.5t57 -101l-100 -20q-9 42 -38.5 70t-77.5 42.5t-111 14.5q-48 0 -87.5 -9t-68.5 -26t-48.5 -42t-29.5 -58q-5 -15 -7 -32h363z" />
    <glyph glyph-name="afii10102" unicode="&#x455;" horiz-adv-x="734" 
d="M358 479q-64 0 -107 -9t-65 -26.5t-22 -42.5t14 -40.5t47.5 -24.5t89.5 -14l130 -7q85 -7 136 -25t74.5 -49.5t23.5 -79.5q0 -54 -35 -92.5t-103.5 -58.5t-170.5 -20q-99 0 -166 19t-105 58.5t-51 100.5l97 15q10 -60 66 -89t157 -29q55 0 94.5 6t65.5 17t38.5 26.5
t12.5 35.5q0 27 -14 43t-45.5 26t-86.5 14l-132 8q-83 7 -134.5 25t-75.5 49.5t-24 77.5q0 51 34 87t99 55.5t158 19.5t157.5 -18.5t102 -55.5t48.5 -95l-95 -14q-6 37 -31 60.5t-70 35t-112 11.5z" />
    <glyph glyph-name="afii10103" unicode="&#x456;" horiz-adv-x="316" 
d="M107 0v544h101v-544h-101zM103 628v101h109v-101h-109z" />
    <glyph glyph-name="afii10104" unicode="&#x457;" horiz-adv-x="316" 
d="M107 0v544h101v-544h-101zM30 628v104h90v-104h-90zM196 628v104h90v-104h-90z" />
    <glyph glyph-name="afii10105" unicode="&#x458;" horiz-adv-x="316" 
d="M107 -24v568h101v-563q0 -68 -20 -110.5t-61 -61.5t-104 -19q-19 0 -36.5 1.5t-37.5 4.5l-3 78q16 -2 30 -3.5t28 -1.5q36 0 58.5 11t33.5 34.5t11 61.5zM103 628v101h109v-101h-109z" />
    <glyph glyph-name="afii10106" unicode="&#x459;" horiz-adv-x="1213" 
d="M18 72q27 3 48 11t36 24q20 22 30 60t15 101t8 157l2 119h524v-176h276q68 0 116 -22t73.5 -63.5t25.5 -99.5q0 -43 -14.5 -77t-42 -57.5t-67.5 -36t-91 -12.5h-377v463h-328l-1 -49q-3 -107 -11 -179t-24.5 -116.5t-41.5 -71.5q-26 -28 -61.5 -40t-89.5 -14zM681 295
v-222h261q41 0 70.5 12.5t45.5 37t16 60.5q0 37 -16 62t-45.5 37.5t-70.5 12.5h-261z" />
    <glyph glyph-name="afii10107" unicode="&#x45a;" horiz-adv-x="1276" 
d="M633 0v253h-425v-253h-101v544h101v-212h425v212h100v-212h299q48 0 85.5 -11.5t63.5 -33t40 -52t14 -68.5q0 -39 -14 -70t-40 -52.5t-63.5 -33t-85.5 -11.5h-399zM733 258v-185h284q38 0 64.5 10.5t41 31.5t14.5 52q0 30 -14.5 50.5t-41 30.5t-64.5 10h-284z" />
    <glyph glyph-name="afii10108" unicode="&#x45b;" horiz-adv-x="836" 
d="M116 0v575h-108v78h108v97h101v-97h244v-78h-244v-194q28 40 68 68t91.5 43.5t109.5 15.5q81 0 137.5 -29t86 -82t29.5 -125v-272h-101v252q0 52 -21 90.5t-61.5 60t-99.5 21.5q-52 0 -95.5 -15t-76 -42.5t-50 -66t-17.5 -85.5v-215h-101z" />
    <glyph glyph-name="afii10109" unicode="&#x45c;" horiz-adv-x="733" 
d="M215 281l364 263h140l-365 -257l373 -287h-144zM107 0v544h101v-544h-101zM328 609l145 158h133l-191 -158h-87z" />
    <glyph glyph-name="uni045D" unicode="&#x45d;" horiz-adv-x="832" 
d="M107 0v544h99v-425l419 425h100v-544h-100v425l-419 -425h-99zM466 609h-87l-191 158h133z" />
    <glyph glyph-name="afii10110" unicode="&#x45e;" horiz-adv-x="693" 
d="M572 544h107l-300 -587q-24 -46 -47.5 -78t-49.5 -51.5t-58.5 -28.5t-73.5 -9q-21 0 -41.5 2.5t-39.5 7.5l-4 77q17 -4 34.5 -5.5t32.5 -1.5q30 0 53 6t41 20t34.5 37.5t33.5 60.5l10 18l-291 532h112l231 -439zM469 763h93q0 -37 -14.5 -67t-42.5 -51.5t-66.5 -32.5
t-87.5 -11q-48 0 -87 11t-66.5 32.5t-42.5 51.5t-15 67h94q0 -42 32 -66t85 -24q36 0 62.5 11t41 31.5t14.5 47.5z" />
    <glyph glyph-name="afii10193" unicode="&#x45f;" horiz-adv-x="823" 
d="M107 0v544h101v-464h407v464h101v-544h-257v-158h-95v158h-257z" />
    <glyph glyph-name="afii10146" unicode="&#x462;" horiz-adv-x="853" 
d="M12 532v73h123v97h103v-97h280v-73h-280v-114h320q58 0 104.5 -14t79.5 -41.5t50.5 -66t17.5 -86.5q0 -64 -31 -111.5t-87 -73t-134 -25.5h-423v532h-123zM238 337v-257h309q48 0 83 15t54.5 43.5t19.5 70.5t-19.5 70.5t-54.5 43t-83 14.5h-309z" />
    <glyph glyph-name="afii10194" unicode="&#x463;" horiz-adv-x="730" 
d="M113 0v495h-105v73h105v182h101v-182h233v-73h-233v-137h260q51 0 91 -12.5t67.5 -36t42 -57t14.5 -75.5q0 -55 -25.5 -94.5t-73.5 -61t-116 -21.5h-361zM214 285v-213h245q43 0 72 12t44.5 35.5t15.5 58.5t-15.5 59t-44.5 36t-72 12h-245z" />
    <glyph glyph-name="afii10147" unicode="&#x472;" horiz-adv-x="995" 
d="M497 -10q-81 0 -149 16t-120 47t-88 75t-54.5 99.5t-18.5 121.5t18.5 122t54 100t88 75t120.5 47.5t149 16.5q83 0 150.5 -16.5t120 -47.5t88.5 -75t54.5 -100t18.5 -122q0 -65 -18.5 -120.5t-54.5 -100t-88.5 -75.5t-120 -47t-150.5 -16zM497 74q64 0 115.5 12.5
t90 35.5t65 57t39.5 76q8 27 11 57h-641q3 -30 12 -57q13 -43 39 -76.5t65 -57t90 -35.5t114 -12zM817 393q-3 26 -10 50q-13 43 -39.5 76.5t-65 57t-90 36t-115.5 12.5q-63 0 -114 -12.5t-90 -36t-65 -57t-39 -76.5q-7 -24 -11 -50h639z" />
    <glyph glyph-name="afii10195" unicode="&#x473;" horiz-adv-x="818" 
d="M409 -10q-67 0 -121 12.5t-96 36.5t-71 58.5t-44 78.5t-15 96q0 51 15 95t44 79t71 59t96.5 37t120.5 13t121 -13t96.5 -37t70.5 -59t44 -79t15 -95q0 -52 -15 -96t-43.5 -78.5t-70.5 -58.5t-97 -36.5t-121 -12.5zM650 307q-2 18 -7 35q-10 32 -30 56.5t-49 42
t-67.5 26.5t-87.5 9q-48 0 -87 -9t-68 -26.5t-49 -42.5t-29 -56q-5 -17 -8 -35h482zM409 68q49 0 87.5 9t67.5 26t49 42t30 57q5 16 7 34h-482q3 -18 8 -34q10 -32 29.5 -57t48.5 -42t68 -26t87 -9z" />
    <glyph glyph-name="afii10148" unicode="&#x474;" horiz-adv-x="893" 
d="M375 0l-356 700h119l293 -591l236 466q19 39 37.5 64.5t39.5 41t45.5 22.5t54.5 7q9 0 18.5 -1t17.5 -2l5 -92q-31 2 -53 -3.5t-39 -22t-33 -45.5l-276 -544h-109z" />
    <glyph glyph-name="afii10196" unicode="&#x475;" horiz-adv-x="713" 
d="M305 0l-294 544h113l226 -440l178 342q21 41 41 64.5t43.5 34t53.5 10.5q7 0 13.5 -0.5t13.5 -1t13 -2.5l4 -85q-26 3 -43 -1.5t-30 -18t-29 -40.5l-219 -406h-84z" />
    <glyph glyph-name="afii10050" unicode="&#x490;" horiz-adv-x="767" 
d="M126 0v700h512v133h101v-219h-506v-614h-107z" />
    <glyph glyph-name="afii10098" unicode="&#x491;" horiz-adv-x="623" 
d="M107 0v544h404v141h95v-220h-398v-465h-101z" />
    <glyph glyph-name="Wgrave" unicode="&#x1e80;" horiz-adv-x="1276" 
d="M294 0l-274 700h114l216 -576l234 576h109l234 -573l218 573h111l-275 -700h-107l-237 580l-238 -580h-105zM681 764h-87l-191 158h133z" />
    <glyph glyph-name="wgrave" unicode="&#x1e81;" horiz-adv-x="1052" 
d="M248 0l-231 544h105l176 -433l187 433h85l187 -431l178 431h100l-234 -544h-84l-190 444l-195 -444h-84zM569 609h-87l-191 158h133z" />
    <glyph glyph-name="Wacute" unicode="&#x1e82;" horiz-adv-x="1276" 
d="M294 0l-274 700h114l216 -576l234 576h109l234 -573l218 573h111l-275 -700h-107l-237 580l-238 -580h-105zM594 764l145 158h133l-191 -158h-87z" />
    <glyph glyph-name="wacute" unicode="&#x1e83;" horiz-adv-x="1052" 
d="M248 0l-231 544h105l176 -433l187 433h85l187 -431l178 431h100l-234 -544h-84l-190 444l-195 -444h-84zM482 609l145 158h133l-191 -158h-87z" />
    <glyph glyph-name="Wdieresis" unicode="&#x1e84;" horiz-adv-x="1276" 
d="M294 0l-274 700h114l216 -576l234 576h109l234 -573l218 573h111l-275 -700h-107l-237 580l-238 -580h-105zM701 783v104h111v-104h-111zM463 783v104h111v-104h-111z" />
    <glyph glyph-name="wdieresis" unicode="&#x1e85;" horiz-adv-x="1052" 
d="M248 0l-231 544h105l176 -433l187 433h85l187 -431l178 431h100l-234 -544h-84l-190 444l-195 -444h-84zM589 628v104h111v-104h-111zM351 628v104h111v-104h-111z" />
    <glyph glyph-name="uni1E9E" unicode="&#x1e9e;" horiz-adv-x="1036" 
d="M110 0v432q0 87 40 149.5t118.5 95.5t193.5 33q63 0 118.5 -2.5t110 -6t113.5 -8.5v-82l-202 -195l170 -18q83 -12 130.5 -39t67 -66t19.5 -86q0 -48 -22 -88.5t-67 -69t-112 -44t-156 -15.5q-54 0 -104 6.5t-97.5 20t-92.5 33.5l38 82q40 -21 83.5 -34t87.5 -18.5
t85 -5.5q52 0 92.5 5.5t70.5 16.5t50 27t29.5 35.5t9.5 43.5q0 22 -6 41t-23 34t-46.5 25.5t-76.5 17.5l-241 23v70l209 203q-24 2 -46 4q-45 3 -91 4t-99 1q-82 0 -137.5 -21.5t-83 -63t-27.5 -100.5v-440h-106z" />
    <glyph glyph-name="Ygrave" unicode="&#x1ef2;" horiz-adv-x="807" 
d="M349 0v284l-337 416h130l262 -327l266 327h125l-340 -419v-281h-106zM446 764h-87l-191 158h133z" />
    <glyph glyph-name="ygrave" unicode="&#x1ef3;" horiz-adv-x="692" 
d="M572 544h107l-300 -587q-24 -46 -47.5 -78t-49.5 -51.5t-58.5 -28.5t-73.5 -9q-21 0 -41.5 2.5t-39.5 7.5l-4 77q17 -4 34.5 -5.5t32.5 -1.5q30 0 53.5 6.5t42.5 21.5t36.5 39t37.5 59l5 11l-294 537h112l231 -439zM389 609h-87l-191 158h133z" />
    <glyph glyph-name="endash" unicode="&#x2013;" horiz-adv-x="666" 
d="M53 244v89h558v-89h-558z" />
    <glyph glyph-name="emdash" unicode="&#x2014;" horiz-adv-x="1331" 
d="M53 244v89h1224v-89h-1224z" />
    <glyph glyph-name="quoteleft" unicode="&#x2018;" horiz-adv-x="305" 
d="M194 421h-115v124q0 42 7.5 71t24.5 47.5t44.5 27t65.5 9.5l5 -60q-33 0 -51 -7.5t-25 -26t-7 -53.5v-21h51v-111z" />
    <glyph glyph-name="quoteright" unicode="&#x2019;" horiz-adv-x="305" 
d="M111 700h115v-124q0 -42 -7.5 -71.5t-24 -47t-44 -26.5t-66.5 -10l-5 59q34 0 51.5 7.5t24.5 26.5t7 54v22h-51v110z" />
    <glyph glyph-name="quotesinglbase" unicode="&#x201a;" horiz-adv-x="305" 
d="M93 109h115v-122q0 -42 -7.5 -71t-24 -47.5t-44 -27t-66.5 -8.5l-5 58q34 0 51.5 7.5t24.5 27t7 53.5v21h-51v109z" />
    <glyph glyph-name="quotedblleft" unicode="&#x201c;" horiz-adv-x="531" 
d="M79 421v124q0 42 7.5 71t24.5 47.5t44.5 27t65.5 9.5l5 -60q-33 0 -51 -7.5t-25 -26t-7 -53.5v-21h51v-111h-115zM305 421v124q0 42 7.5 71t24.5 47.5t44.5 27t65.5 9.5l5 -60q-33 0 -51 -7.5t-25 -26t-7 -53.5v-21h51v-111h-115z" />
    <glyph glyph-name="quotedblright" unicode="&#x201d;" horiz-adv-x="531" 
d="M337 700h115v-124q0 -42 -7.5 -71.5t-24 -47t-44 -26.5t-66.5 -10l-5 59q34 0 51.5 7.5t24.5 26.5t7 54v22h-51v110zM111 700h115v-124q0 -42 -7.5 -71.5t-24 -47t-44 -26.5t-66.5 -10l-5 59q34 0 51.5 7.5t24.5 26.5t7 54v22h-51v110z" />
    <glyph glyph-name="quotedblbase" unicode="&#x201e;" horiz-adv-x="531" 
d="M319 109h115v-122q0 -42 -7.5 -71t-24 -47.5t-44 -27t-66.5 -8.5l-5 58q34 0 51.5 7.5t24.5 27t7 53.5v21h-51v109zM93 109h115v-122q0 -42 -7.5 -71t-24 -47.5t-44 -27t-66.5 -8.5l-5 58q34 0 51.5 7.5t24.5 27t7 53.5v21h-51v109z" />
    <glyph glyph-name="dagger" unicode="&#x2020;" horiz-adv-x="659" 
d="M609 438h-230v-588h-99v588h-230v90h230v222h99v-222h230v-90z" />
    <glyph glyph-name="daggerdbl" unicode="&#x2021;" horiz-adv-x="685" 
d="M63 163h230v275h-230v90h230v222h99v-222h231v-90h-231v-275h231v-90h-231v-223h-99v223h-230v90z" />
    <glyph glyph-name="bullet" unicode="&#x2022;" horiz-adv-x="351" 
d="M99 242v169h153v-169h-153z" />
    <glyph glyph-name="ellipsis" unicode="&#x2026;" horiz-adv-x="971" 
d="M97 0v109h111v-109h-111zM430 0v109h111v-109h-111zM764 0v109h111v-109h-111z" />
    <glyph glyph-name="perthousand" unicode="&#x2030;" horiz-adv-x="1297" 
d="M739 -10q-58 0 -100.5 20t-65.5 55t-23 81t23 81t65.5 55.5t100.5 20.5q57 0 98 -20q31 -15 51 -40q20 25 51 40q41 20 98 20q58 0 100.5 -20.5t65 -55.5t22.5 -81t-22.5 -81t-65 -55t-100.5 -20q-57 0 -98 20q-31 15 -51 39q-20 -24 -51 -39q-41 -20 -98 -20zM244 396
q-58 0 -100.5 20.5t-65.5 55.5t-23 81t23 81.5t65.5 55.5t100.5 20t100.5 -20t65 -55.5t22.5 -81.5t-22.5 -81t-65 -55.5t-100.5 -20.5zM194 0h-112l706 700h112zM739 58q33 0 56.5 11t36 31t12.5 46q0 27 -12.5 46.5t-35.5 30.5t-56.5 11t-56.5 -11t-35.5 -30.5
t-12.5 -46.5q0 -26 12.5 -46t36 -31t55.5 -11zM244 465q33 0 56.5 11t35.5 31t12 46q0 27 -12 46.5t-35.5 30.5t-56.5 11q-34 0 -57 -11t-35.5 -30.5t-12.5 -46.5q0 -26 12.5 -46t35.5 -31t57 -11zM1037 58q33 0 56.5 11t35.5 31t12 46q0 27 -12 46.5t-35.5 30.5t-56.5 11
t-56.5 -11t-36 -30.5t-12.5 -46.5q0 -26 12.5 -46t35.5 -31t57 -11z" />
    <glyph glyph-name="guilsinglleft" unicode="&#x2039;" horiz-adv-x="431" 
d="M111 275l257 -133v-101l-321 181v105l321 181v-98z" />
    <glyph glyph-name="guilsinglright" unicode="&#x203a;" horiz-adv-x="431" 
d="M320 274l-257 133v101l321 -181v-105l-321 -181v98z" />
    <glyph glyph-name="fraction" unicode="&#x2044;" horiz-adv-x="770" 
d="M101 0h-101l669 700h101z" />
    <glyph glyph-name="zerosuperior" unicode="&#x2070;" horiz-adv-x="475" 
d="M238 452q-50 0 -88 12t-64.5 35.5t-40.5 57t-14 75.5t14 75t40.5 56.5t64.5 35.5t88 12q49 0 87.5 -12t65 -35.5t40 -56.5t13.5 -75t-13.5 -75.5t-40 -57t-65 -35.5t-87.5 -12zM238 508q31 0 55.5 8.5t41 24t25 38.5t8.5 53t-8.5 52.5t-25 38.5t-41 24t-55.5 8t-55.5 -8
t-41.5 -24t-25.5 -38.5t-8.5 -52.5t8.5 -53t25.5 -38.5t41.5 -24t55.5 -8.5z" />
    <glyph glyph-name="foursuperior" unicode="&#x2074;" horiz-adv-x="468" 
d="M370 457h-69v70h-276v46l281 236h64v-231h73v-51h-73v-70zM301 578v167l-196 -167h196z" />
    <glyph glyph-name="fivesuperior" unicode="&#x2075;" horiz-adv-x="429" 
d="M214 452q-51 0 -89.5 9.5t-63 30t-34.5 49.5l68 15q6 -18 21.5 -30t40 -18t57.5 -6q40 0 65.5 8.5t38 24t12.5 37.5q0 20 -12.5 35t-37.5 23t-64 8q-26 0 -46 -3t-37 -10t-32 -19l-58 9l20 192h315v-51h-257l-10 -99q18 11 39 18q36 11 83 11q54 0 91 -13t56.5 -38.5
t19.5 -62.5q0 -38 -21.5 -65t-63 -41t-101.5 -14z" />
    <glyph glyph-name="sixsuperior" unicode="&#x2076;" horiz-adv-x="445" 
d="M31 624q0 46 14 81t40.5 58.5t63.5 35.5t84 12q46 0 81.5 -9t60.5 -27t37 -44l-67 -22q-13 25 -41 38.5t-72 13.5q-43 0 -72 -15t-44 -46q-13 -26 -15 -62q10 10 25 18q22 12 52 18t67 6q59 0 97 -13.5t56.5 -38t18.5 -58.5q0 -33 -21.5 -60t-63 -42.5t-102.5 -15.5
q-49 0 -85.5 10.5t-62 32t-38.5 53.5t-13 76zM229 502q37 0 63 8.5t39.5 24t13.5 35.5t-13 34.5t-39 22.5t-63 8q-36 0 -62.5 -8t-41.5 -21.5t-15 -33.5q0 -21 14.5 -36.5t41 -24.5t62.5 -9z" />
    <glyph glyph-name="sevensuperior" unicode="&#x2077;" horiz-adv-x="405" 
d="M380 762l-199 -305h-80l199 295h-276v55h356v-45z" />
    <glyph glyph-name="eightsuperior" unicode="&#x2078;" horiz-adv-x="459" 
d="M230 452q-67 0 -111.5 12t-67 35t-22.5 54t24 53q23 21 67 33q-15 4 -27 10q-24 11 -36 28.5t-12 38.5q0 30 21 51t62.5 32.5t101.5 11.5t101.5 -11.5t62.5 -32.5t21 -51q0 -21 -12.5 -38.5t-36.5 -28.5q-11 -6 -26 -10q44 -12 67 -33q23 -22 23 -53t-22 -54t-66.5 -35
t-111.5 -12zM230 500q42 0 70 6.5t41.5 19t13.5 30.5t-13.5 31t-41.5 19.5t-70 6.5q-43 0 -71 -6.5t-41.5 -19t-13.5 -31.5q0 -18 14 -30.5t41.5 -19t70.5 -6.5zM230 763q-38 0 -62.5 -6t-37 -17t-12.5 -27.5t12.5 -28t37 -17t62.5 -5.5t62.5 5.5t36.5 17t12 28.5
q0 25 -27 37.5t-84 12.5z" />
    <glyph glyph-name="ninesuperior" unicode="&#x2079;" horiz-adv-x="445" 
d="M414 639q0 -46 -14 -81t-40 -58.5t-63.5 -35.5t-84.5 -12q-68 0 -114.5 20.5t-65.5 59.5l67 22q13 -24 41.5 -38t71.5 -14q44 0 73 15.5t44 45.5q13 26 15 62q-11 -10 -25 -18q-22 -12 -52 -18t-68 -6q-57 0 -95.5 13.5t-57 38.5t-18.5 58q0 34 21 60.5t63 42t103 15.5
q48 0 85.5 -10.5t63 -31.5t38 -53.5t12.5 -76.5zM216 761q-37 0 -63 -8.5t-39.5 -23.5t-13.5 -36q0 -20 13 -34.5t38.5 -22.5t63.5 -8q36 0 62.5 8t41.5 22t15 33q0 22 -14.5 37t-41 24t-62.5 9z" />
    <glyph glyph-name="zeroinferior" unicode="&#x2080;" horiz-adv-x="475" 
d="M238 -112q-50 0 -88 12t-64.5 35.5t-40.5 57t-14 75.5t14 75t40.5 56.5t64.5 35.5t88 12q49 0 87.5 -12t65 -35.5t40 -56.5t13.5 -75t-13.5 -75.5t-40 -57t-65 -35.5t-87.5 -12zM238 -56q31 0 55.5 8.5t41 24t25 38.5t8.5 53t-8.5 52.5t-25 38.5t-41 24t-55.5 8t-55.5 -8
t-41.5 -24t-25.5 -38.5t-8.5 -52.5t8.5 -53t25.5 -38.5t41.5 -24t55.5 -8.5z" />
    <glyph glyph-name="oneinferior" unicode="&#x2081;" horiz-adv-x="407" 
d="M34 -107v57h146v234l-141 -23v55l154 27h59v-293h130v-57h-348z" />
    <glyph glyph-name="twoinferior" unicode="&#x2082;" horiz-adv-x="437" 
d="M33 -53l212 101q34 18 50 31.5t21.5 26t5.5 26.5q0 19 -12 33t-35.5 21.5t-59.5 7.5q-35 0 -59.5 -8.5t-38.5 -24t-16 -39.5l-71 11q5 37 27.5 62t62.5 38.5t94 13.5q59 0 99.5 -13.5t61.5 -38.5t21 -60q0 -19 -5 -35t-19 -31.5t-39.5 -31.5t-66.5 -36l-115 -53h250v-55
h-368v54z" />
    <glyph glyph-name="threeinferior" unicode="&#x2083;" horiz-adv-x="438" 
d="M332 73q25 -7 42 -18q32 -23 32 -64q0 -32 -21 -55t-63 -35.5t-106 -12.5q-58 0 -98.5 10.5t-63.5 32.5t-30 54l71 11q4 -19 18 -31t39.5 -18.5t63.5 -6.5q41 0 66.5 6.5t37 19t11.5 30.5q0 24 -20 36.5t-57 12.5h-107v50h107q23 0 39 5.5t24.5 16.5t8.5 26
q0 17 -12 28.5t-35.5 18t-61.5 6.5q-36 0 -60.5 -6.5t-38.5 -18.5t-18 -31l-69 10q7 31 30 52.5t62 33t93 11.5q60 0 100.5 -11t61 -33t20.5 -52q0 -25 -13.5 -44t-39.5 -30q-6 -2 -13 -4z" />
    <glyph glyph-name="fourinferior" unicode="&#x2084;" horiz-adv-x="468" 
d="M370 -107h-69v70h-276v46l281 236h64v-231h73v-51h-73v-70zM301 14v167l-196 -167h196z" />
    <glyph glyph-name="fiveinferior" unicode="&#x2085;" horiz-adv-x="429" 
d="M214 -112q-51 0 -89.5 9.5t-63 30t-34.5 49.5l68 15q6 -18 21.5 -30t40 -18t57.5 -6q40 0 65.5 8.5t38 24t12.5 37.5q0 20 -12.5 35t-37.5 23t-64 8q-26 0 -46 -3t-37 -10t-32 -19l-58 9l20 192h315v-51h-257l-10 -99q18 11 39 18q36 11 83 11q54 0 91 -13t56.5 -38.5
t19.5 -62.5q0 -38 -21.5 -65t-63 -41t-101.5 -14z" />
    <glyph glyph-name="sixinferior" unicode="&#x2086;" horiz-adv-x="445" 
d="M31 60q0 46 14 81t40.5 58.5t63.5 35.5t84 12q46 0 81.5 -9t60.5 -27t37 -44l-67 -22q-13 25 -41 38.5t-72 13.5q-43 0 -72 -15t-44 -46q-13 -26 -15 -62q10 10 25 18q22 12 52 18t67 6q59 0 97 -13.5t56.5 -38t18.5 -58.5q0 -33 -21.5 -60t-63 -42.5t-102.5 -15.5
q-49 0 -85.5 10.5t-62 32t-38.5 53.5t-13 76zM229 -62q37 0 63 8.5t39.5 24t13.5 35.5t-13 34.5t-39 22.5t-63 8q-36 0 -62.5 -8t-41.5 -21.5t-15 -33.5q0 -21 14.5 -36.5t41 -24.5t62.5 -9z" />
    <glyph glyph-name="seveninferior" unicode="&#x2087;" horiz-adv-x="405" 
d="M380 198l-199 -305h-80l199 295h-276v55h356v-45z" />
    <glyph glyph-name="eightinferior" unicode="&#x2088;" horiz-adv-x="459" 
d="M230 -112q-67 0 -111.5 12t-67 35t-22.5 54t24 53q23 21 67 33q-15 4 -27 10q-24 11 -36 28.5t-12 38.5q0 30 21 51t62.5 32.5t101.5 11.5t101.5 -11.5t62.5 -32.5t21 -51q0 -21 -12.5 -38.5t-36.5 -28.5q-11 -6 -26 -10q44 -12 67 -33q23 -22 23 -53t-22 -54t-66.5 -35
t-111.5 -12zM230 -64q42 0 70 6.5t41.5 19t13.5 30.5t-13.5 31t-41.5 19.5t-70 6.5q-43 0 -71 -6.5t-41.5 -19t-13.5 -31.5q0 -18 14 -30.5t41.5 -19t70.5 -6.5zM230 199q-38 0 -62.5 -6t-37 -17t-12.5 -27.5t12.5 -28t37 -17t62.5 -5.5t62.5 5.5t36.5 17t12 28.5
q0 25 -27 37.5t-84 12.5z" />
    <glyph glyph-name="nineinferior" unicode="&#x2089;" horiz-adv-x="445" 
d="M414 75q0 -46 -14 -81t-40 -58.5t-63.5 -35.5t-84.5 -12q-68 0 -114.5 20.5t-65.5 59.5l67 22q13 -24 41.5 -38t71.5 -14q44 0 73 15.5t44 45.5q13 26 15 62q-11 -10 -25 -18q-22 -12 -52 -18t-68 -6q-57 0 -95.5 13.5t-57 38.5t-18.5 58q0 34 21 60.5t63 42t103 15.5
q48 0 85.5 -10.5t63 -31.5t38 -53.5t12.5 -76.5zM216 197q-37 0 -63 -8.5t-39.5 -23.5t-13.5 -36q0 -20 13 -34.5t38.5 -22.5t63.5 -8q36 0 62.5 8t41.5 22t15 33q0 22 -14.5 37t-41 24t-62.5 9z" />
    <glyph glyph-name="colonmonetary" unicode="&#x20a1;" horiz-adv-x="945" 
d="M265 -80l23 103q-14 5 -27 11q-47 22 -83 53.5t-60.5 71.5t-37.5 88t-13 102q0 66 19 122t55 100t87.5 75t117.5 48q45 11 95 15l16 71h70l-15 -70q49 -1 92 -8l17 78h71l-21 -93q7 -2 13 -4q83 -28 135 -80.5t72 -129.5l-111 -21q-14 55 -51 94q-31 33 -78 52l-117 -523
q57 4 102 19q61 21 98.5 61t49.5 99l108 -22q-17 -79 -69 -133t-136 -82q-74 -24 -172 -27l-16 -70h-70l16 71q-41 3 -79 10l-12 2l-19 -83h-70zM308 113l114 508q-22 -3 -41 -8q-50 -12 -88.5 -35.5t-64.5 -57t-39 -76.5t-13 -94.5t13 -94.5t39 -76.5t64 -57.5zM493 625
l-121 -537l8 -2q39 -9 83 -11l122 542q-42 8 -92 8z" />
    <glyph glyph-name="uni20A9" unicode="&#x20a9;" horiz-adv-x="1283" 
d="M297 0l-107 275h-133v68h106l-40 102h-90v67h64l-73 188h113l71 -188h307l76 188h102l76 -188h308l71 188h111l-73 -188h64v-67h-91l-40 -102h108v-68h-134l-109 -275h-105l-239 584l-239 -584h-104zM796 445l42 -102h175l39 102h-256zM272 343h175l41 102h-255zM865 275
l64 -157l59 157h-123zM420 275h-123l59 -157z" />
    <glyph glyph-name="uni20AA" unicode="&#x20aa;" horiz-adv-x="1093" 
d="M987 236q0 -65 -13.5 -110.5t-43 -73t-77.5 -40t-118 -12.5h-325v383h71v-295h247q58 0 92 14.5t49 47t15 86.5v378h103v-378zM621 400q0 50 -11.5 79.5t-38.5 42.5t-73 13h-279v-535h-103v624h373q74 0 118.5 -19t65 -61.5t20.5 -113.5v-199h-72v169z" />
    <glyph glyph-name="dong" unicode="&#x20ab;" horiz-adv-x="863" 
d="M433 610v67h215v73h101v-73h99v-67h-99v-610h-91l-7 113q-18 -25 -41 -45q-43 -37 -103.5 -57.5t-134.5 -20.5q-58 0 -106.5 13t-86.5 37t-64 58.5t-39.5 77t-13.5 91.5q0 50 13.5 92.5t40 77t64 59t86.5 37.5t106 13q60 0 110.5 -13.5t90 -38.5t68.5 -60q3 -4 7 -9v185
h-215zM402 69q57 0 102.5 14.5t77.5 40.5t49 62.5t17 80.5q0 43 -17 79.5t-49 63t-77.5 41.5t-102.5 15q-46 0 -84 -9.5t-66 -27t-47.5 -42t-29 -55t-9.5 -65.5t9.5 -65.5t29 -55t47.5 -41.5t66 -26.5t84 -9.5zM91 -147v67h654v-67h-654z" />
    <glyph glyph-name="Euro" unicode="&#x20ac;" horiz-adv-x="1016" 
d="M21 400v67h134q1 2 1 4q19 56 55 100t88 75t118 47.5t145 16.5q111 0 193 -27.5t134 -80t72 -129.5l-110 -21q-14 55 -51.5 94t-96.5 59t-141 20q-61 0 -111 -12t-88 -35.5t-64 -56.5q-19 -25 -31 -54h345l-6 -67h-357q-4 -24 -4 -51q0 -26 4 -50h347l-6 -69h-323
q12 -28 31 -52q26 -33 64 -56.5t88 -35.5t111 -12q84 0 145 20.5t98.5 60.5t48.5 99l109 -22q-17 -79 -69.5 -133t-135.5 -81.5t-196 -27.5q-81 0 -148 16t-118.5 47t-86.5 75t-53 100q-1 1 -1 2h-134v69h119q-2 24 -2 50t3 51h-120z" />
    <glyph glyph-name="uni20AD" unicode="&#x20ad;" horiz-adv-x="894" 
d="M22 338v71h117v291h105v-347l473 347h145l-397 -291h287v-71h-277l415 -338h-154l-396 317l-96 -71v-246h-105v338h-117z" />
    <glyph glyph-name="uni20AE" unicode="&#x20ae;" horiz-adv-x="821" 
d="M157 338v68l202 29v179h-332v86h772v-86h-334v-163l207 30v-68l-207 -30v-102l207 30v-68l-207 -30v-213h-106v197l-202 -29v68l202 29v102z" />
    <glyph glyph-name="uni20B1" unicode="&#x20b1;" horiz-adv-x="946" 
d="M135 0v310h-124v68h124v95h-124v68h124v159h395q70 0 125.5 -19t94.5 -54t59 -86h137v-68h-120q3 -21 3 -45q0 -26 -3 -50h120v-68h-139q-20 -48 -58 -82q-39 -36 -95 -54.5t-128 -18.5h-286v-155h-105zM240 378h476q5 23 5 50q0 24 -4 45h-477v-95zM691 541
q-24 36 -65 56q-47 22 -115 22h-271v-78h451zM688 310h-448v-74h271q68 0 114 22q40 19 63 52z" />
    <glyph glyph-name="uni20B4" unicode="&#x20b4;" horiz-adv-x="964" 
d="M863 173q-12 -46 -42.5 -80.5t-78.5 -57.5t-114 -34t-150 -11q-91 0 -160.5 13.5t-116.5 40.5t-70 66.5t-23 92.5q0 18 3 34h-79v68h123q5 4 10 9q22 17 53 29.5t71 20.5t90 13l182 12q57 6 97 18h-626v67h707q4 15 4 32q0 28 -14.5 51.5t-44.5 39.5t-75 25t-105 9
t-105.5 -7t-78 -20.5t-52.5 -33t-29 -43.5l-104 16q16 54 61 91t121.5 56.5t186.5 19.5q85 0 149 -14t107.5 -41t65.5 -65t22 -86q0 -12 -1 -22q-1 -4 -1 -8h84v-67h-129q-11 -11 -25 -20q-32 -21 -81 -33.5t-118 -19.5l-180 -13q-48 -4 -83 -13q-7 -1 -13 -3h629v-68h-713
q-5 -15 -5 -35q0 -31 16.5 -56t49.5 -42.5t83 -26.5t117 -9q61 0 108.5 8t82.5 23.5t57.5 38t32.5 51.5z" />
    <glyph glyph-name="uni20B5" unicode="&#x20b5;" horiz-adv-x="945" 
d="M530 -80h-74v70q-47 3 -90 11q-57 11 -104.5 33t-83.5 53.5t-60.5 71.5t-37.5 88t-13 102q0 66 19 122t55 100t87.5 75t117.5 48q51 13 110 15v71h74v-71q87 -4 154 -26q83 -28 135 -80.5t72 -129.5l-111 -21q-14 55 -51 94t-96 59q-45 15 -103 19v-549q60 4 106 19
q61 21 98.5 61t49.5 99l108 -22q-17 -79 -69 -133t-136 -82q-68 -22 -157 -26v-71zM456 75v549q-40 -3 -75 -11q-50 -12 -88.5 -35.5t-64.5 -57t-39 -76.5t-13 -94.5t13 -94.5t39 -76.5t64.5 -57t87.5 -35.5q35 -8 76 -11z" />
    <glyph glyph-name="uni20B8" unicode="&#x20b8;" horiz-adv-x="841" 
d="M366 0v436h-332v86h773v-86h-335v-436h-106zM34 632v68h773v-68h-773z" />
    <glyph glyph-name="uni20B9" unicode="&#x20b9;" horiz-adv-x="804" 
d="M90 700h689v-68h-185q18 -16 31 -36q22 -34 28 -78h126v-68h-127q-6 -45 -28 -81q-31 -49 -90.5 -76t-145.5 -27h-140l406 -266h-161l-403 266v79h290q41 0 72.5 9t52.5 26.5t32 43.5q5 12 8 26h-455v68h455q-5 23 -16 40q-19 31 -56.5 46.5t-92.5 15.5h-290v80z" />
    <glyph glyph-name="uni20BA" unicode="&#x20ba;" horiz-adv-x="841" 
d="M138 0v257l-139 -24v68l139 23v105l-139 -23v68l139 23v203h106v-184l234 39v-68l-234 -39v-105l234 39v-67l-234 -40v-190h272q63 0 104.5 16.5t66 54t33.5 102.5l99 -20q-9 -65 -32 -110.5t-60 -73.5t-89.5 -41t-121.5 -13h-378z" />
    <glyph glyph-name="uni20BC" unicode="&#x20bc;" horiz-adv-x="972" 
d="M535 100h-99v368q-40 -4 -73 -13q-53 -14 -88 -41.5t-53 -67.5t-18 -91v-255h-107v253q0 71 25 127t74.5 95t122.5 60q53 14 117 18v147h99v-147q47 -3 88 -11q62 -14 109 -39t78.5 -61.5t48 -84t16.5 -104.5v-253h-106v255q0 51 -18 91t-53 67.5t-88 41.5q-34 10 -75 13
v-368z" />
    <glyph glyph-name="uni20BD" unicode="&#x20bd;" horiz-adv-x="905" 
d="M154 0v83h-121v68h121v100h-121v84h121v365h434q63 0 112.5 -15.5t84 -45t53.5 -71.5t19 -93t-19 -92.5t-54.5 -70.5t-86 -45t-113.5 -16h-323v-100h335v-68h-335v-83h-107zM261 335h310q56 0 95.5 16.5t60.5 48t21 74.5q0 45 -21 76.5t-60 48.5t-96 17h-310v-281z" />
    <glyph glyph-name="uni2113" unicode="&#x2113;" horiz-adv-x="713" 
d="M9 211l120 37v237q0 71 31.5 121t90 77.5t139.5 27.5q62 0 109.5 -14t80 -39.5t49 -61.5t16.5 -81q0 -40 -9 -73t-30 -61.5t-56 -54.5t-87 -50.5t-123 -48.5q-50 -16 -110 -34q1 -44 16 -71q16 -28 52 -41t98 -13q43 0 91 7t97 21l-2 -81q-38 -8 -74 -14t-68.5 -9
t-61.5 -3q-87 0 -142 22t-81 67q-21 36 -25 88l-121 -37v82zM230 274q53 16 96 32q63 23 105.5 46t67.5 48t36 53t11 61q0 28 -9.5 50.5t-29 37.5t-48.5 23t-67 8q-52 0 -88 -16t-55 -47.5t-19 -78.5v-217z" />
    <glyph glyph-name="uni2116" unicode="&#x2116;" horiz-adv-x="1386" 
d="M124 0v700h106l554 -584v584h98v-700h-105l-555 583v-583h-98zM1168 449q-50 0 -86.5 16.5t-56 46.5t-19.5 68.5t19.5 67.5t56 45.5t86 16.5t85.5 -16.5t56 -45.5t20 -68t-20 -68.5t-56 -46t-85 -16.5zM1167 656q-27 0 -47.5 -9t-32 -25.5t-11.5 -40.5t11.5 -41.5t32 -27
t47.5 -9.5q29 0 49 9t31 26.5t11 41.5t-11 40.5t-31 26t-49 9.5zM1019 329v54h296v-54h-296z" />
    <glyph glyph-name="trademark" unicode="&#x2122;" horiz-adv-x="912" 
d="M421 350v350h70l139 -212l138 212h69v-350h-60v272l-125 -195h-47l-125 195v-272h-59zM149 350v295h-136v55h337v-55h-137v-295h-64z" />
    <glyph glyph-name="ohm" unicode="&#x2126;" horiz-adv-x="929" 
d="M620 139v-64h198v-75h-289v190q54 10 95 29.5t68.5 46.5t41.5 63t14 80q0 41 -12.5 75t-36.5 60.5t-59 44.5t-79 27.5t-97 9.5q-52 0 -96.5 -9.5t-79 -27.5t-58.5 -45t-36.5 -61t-12.5 -75q0 -43 13.5 -79t40.5 -63t68.5 -46.5t96.5 -29.5v-190h-290v75h198v65
q-58 16 -102 40.5t-73.5 59t-44 77.5t-14.5 94q0 55 17.5 101.5t50.5 83t81 62t108.5 39t132.5 13.5q73 0 134 -13.5t108.5 -39t80.5 -62t50.5 -83t17.5 -101.5q0 -67 -26 -121t-78 -92t-131 -59z" />
    <glyph glyph-name="estimated" unicode="&#x212e;" horiz-adv-x="780" 
d="M721 279h-537q-4 0 -4 -3v-163q0 -10 7 -19q38 -40 91 -63.5t113 -23.5q65 0 119.5 26.5t93.5 71.5h48q-45 -52 -113.5 -83.5t-148.5 -31.5q-69 0 -129 23t-105.5 63.5t-71.5 94.5t-26 116t26 116t71.5 95.5t105.5 64.5t129 23t129 -23t105.5 -64.5t71 -95.5t25.5 -116
v-8zM600 300v164q0 11 -9 20q-38 38 -89.5 61t-110.5 23t-112 -23.5t-91 -63.5q-8 -8 -8 -21v-160q0 -5 4 -5h412q4 0 4 5z" />
    <glyph glyph-name="onethird" unicode="&#x2153;" horiz-adv-x="1140" 
d="M34 350v57h146v234l-141 -23v55l154 27h59v-293h130v-57h-348zM294 0h-101l669 700h101zM1033 180q25 -7 42 -18q32 -23 32 -64q0 -32 -21 -55t-63 -35.5t-106 -12.5q-58 0 -98.5 10.5t-63.5 32.5t-30 54l71 11q4 -19 18 -31t39.5 -18.5t63.5 -6.5q41 0 66.5 6.5t37 19
t11.5 30.5q0 24 -20 36.5t-57 12.5h-107v50h107q23 0 39 5.5t24.5 16.5t8.5 26q0 17 -12 28.5t-35.5 18t-61.5 6.5q-36 0 -60.5 -6.5t-38.5 -18.5t-18 -31l-69 10q7 31 30 52.5t62 33t93 11.5q60 0 100.5 -11t61 -33t20.5 -52q0 -25 -13.5 -44t-39.5 -30q-6 -2 -13 -4z" />
    <glyph glyph-name="twothirds" unicode="&#x2154;" horiz-adv-x="1162" 
d="M33 404l212 101q34 18 50 31.5t21.5 26t5.5 26.5q0 19 -12 33t-35.5 21.5t-59.5 7.5q-35 0 -59.5 -8.5t-38.5 -24t-16 -39.5l-71 11q5 37 27.5 62t62.5 38.5t94 13.5q59 0 99.5 -13.5t61.5 -38.5t21 -60q0 -19 -5 -35t-19 -31.5t-39.5 -31.5t-66.5 -36l-115 -53h250v-55
h-368v54zM316 0h-101l669 700h101zM1055 180q25 -7 42 -18q32 -23 32 -64q0 -32 -21 -55t-63 -35.5t-106 -12.5q-58 0 -98.5 10.5t-63.5 32.5t-30 54l71 11q4 -19 18 -31t39.5 -18.5t63.5 -6.5q41 0 66.5 6.5t37 19t11.5 30.5q0 24 -20 36.5t-57 12.5h-107v50h107
q23 0 39 5.5t24.5 16.5t8.5 26q0 17 -12 28.5t-35.5 18t-61.5 6.5q-36 0 -60.5 -6.5t-38.5 -18.5t-18 -31l-69 10q7 31 30 52.5t62 33t93 11.5q60 0 100.5 -11t61 -33t20.5 -52q0 -25 -13.5 -44t-39.5 -30q-6 -2 -13 -4z" />
    <glyph glyph-name="oneeighth" unicode="&#x215b;" horiz-adv-x="1165" 
d="M34 350v57h146v234l-141 -23v55l154 27h59v-293h130v-57h-348zM294 0h-101l669 700h101zM935 -5q-67 0 -111.5 12t-67 35t-22.5 54t24 53q23 21 67 33q-15 4 -27 10q-24 11 -36 28.5t-12 38.5q0 30 21 51t62.5 32.5t101.5 11.5t101.5 -11.5t62.5 -32.5t21 -51
q0 -21 -12.5 -38.5t-36.5 -28.5q-11 -6 -26 -10q44 -12 67 -33q23 -22 23 -53t-22 -54t-66.5 -35t-111.5 -12zM935 43q42 0 70 6.5t41.5 19t13.5 30.5t-13.5 31t-41.5 19.5t-70 6.5q-43 0 -71 -6.5t-41.5 -19t-13.5 -31.5q0 -18 14 -30.5t41.5 -19t70.5 -6.5zM935 306
q-38 0 -62.5 -6t-37 -17t-12.5 -27.5t12.5 -28t37 -17t62.5 -5.5t62.5 5.5t36.5 17t12 28.5q0 25 -27 37.5t-84 12.5z" />
    <glyph glyph-name="threeeighths" unicode="&#x215c;" horiz-adv-x="1159" 
d="M332 530q25 -7 42 -18q32 -23 32 -64q0 -32 -21 -55t-63 -35.5t-106 -12.5q-58 0 -98.5 10.5t-63.5 32.5t-30 54l71 11q4 -19 18 -31t39.5 -18.5t63.5 -6.5q41 0 66.5 6.5t37 19t11.5 30.5q0 24 -20 36.5t-57 12.5h-107v50h107q23 0 39 5.5t24.5 16.5t8.5 26
q0 17 -12 28.5t-35.5 18t-61.5 6.5q-36 0 -60.5 -6.5t-38.5 -18.5t-18 -31l-69 10q7 31 30 52.5t62 33t93 11.5q60 0 100.5 -11t61 -33t20.5 -52q0 -25 -13.5 -44t-39.5 -30q-6 -2 -13 -4zM288 0h-101l669 700h101zM929 -5q-67 0 -111.5 12t-67 35t-22.5 54t24 53
q23 21 67 33q-15 4 -27 10q-24 11 -36 28.5t-12 38.5q0 30 21 51t62.5 32.5t101.5 11.5t101.5 -11.5t62.5 -32.5t21 -51q0 -21 -12.5 -38.5t-36.5 -28.5q-11 -6 -26 -10q44 -12 67 -33q23 -22 23 -53t-22 -54t-66.5 -35t-111.5 -12zM929 43q42 0 70 6.5t41.5 19t13.5 30.5
t-13.5 31t-41.5 19.5t-70 6.5q-43 0 -71 -6.5t-41.5 -19t-13.5 -31.5q0 -18 14 -30.5t41.5 -19t70.5 -6.5zM929 306q-38 0 -62.5 -6t-37 -17t-12.5 -27.5t12.5 -28t37 -17t62.5 -5.5t62.5 5.5t36.5 17t12 28.5q0 25 -27 37.5t-84 12.5z" />
    <glyph glyph-name="fiveeighths" unicode="&#x215d;" horiz-adv-x="1145" 
d="M214 345q-51 0 -89.5 9.5t-63 30t-34.5 49.5l68 15q6 -18 21.5 -30t40 -18t57.5 -6q40 0 65.5 8.5t38 24t12.5 37.5q0 20 -12.5 35t-37.5 23t-64 8q-26 0 -46 -3t-37 -10t-32 -19l-58 9l20 192h315v-51h-257l-10 -99q18 11 39 18q36 11 83 11q54 0 91 -13t56.5 -38.5
t19.5 -62.5q0 -38 -21.5 -65t-63 -41t-101.5 -14zM273 0h-101l669 700h101zM915 -5q-67 0 -111.5 12t-67 35t-22.5 54t24 53q23 21 67 33q-15 4 -27 10q-24 11 -36 28.5t-12 38.5q0 30 21 51t62.5 32.5t101.5 11.5t101.5 -11.5t62.5 -32.5t21 -51q0 -21 -12.5 -38.5
t-36.5 -28.5q-11 -6 -26 -10q44 -12 67 -33q23 -22 23 -53t-22 -54t-66.5 -35t-111.5 -12zM915 43q42 0 70 6.5t41.5 19t13.5 30.5t-13.5 31t-41.5 19.5t-70 6.5q-43 0 -71 -6.5t-41.5 -19t-13.5 -31.5q0 -18 14 -30.5t41.5 -19t70.5 -6.5zM915 306q-38 0 -62.5 -6t-37 -17
t-12.5 -27.5t12.5 -28t37 -17t62.5 -5.5t62.5 5.5t36.5 17t12 28.5q0 25 -27 37.5t-84 12.5z" />
    <glyph glyph-name="seveneighths" unicode="&#x215e;" horiz-adv-x="1078" 
d="M380 655l-199 -305h-80l199 295h-276v55h356v-45zM207 0h-101l669 700h101zM848 -5q-67 0 -111.5 12t-67 35t-22.5 54t24 53q23 21 67 33q-15 4 -27 10q-24 11 -36 28.5t-12 38.5q0 30 21 51t62.5 32.5t101.5 11.5t101.5 -11.5t62.5 -32.5t21 -51q0 -21 -12.5 -38.5
t-36.5 -28.5q-11 -6 -26 -10q44 -12 67 -33q23 -22 23 -53t-22 -54t-66.5 -35t-111.5 -12zM848 43q42 0 70 6.5t41.5 19t13.5 30.5t-13.5 31t-41.5 19.5t-70 6.5q-43 0 -71 -6.5t-41.5 -19t-13.5 -31.5q0 -18 14 -30.5t41.5 -19t70.5 -6.5zM848 306q-38 0 -62.5 -6t-37 -17
t-12.5 -27.5t12.5 -28t37 -17t62.5 -5.5t62.5 5.5t36.5 17t12 28.5q0 25 -27 37.5t-84 12.5z" />
    <glyph glyph-name="arrowleft" unicode="&#x2190;" horiz-adv-x="737" 
d="M318 495l-145 -142h515v-84h-515l146 -142l-54 -57l-240 242l239 239z" />
    <glyph glyph-name="arrowup" unicode="&#x2191;" horiz-adv-x="736" 
d="M552 393l-143 146v-516h-83v515l-143 -145l-55 54l240 241l240 -241z" />
    <glyph glyph-name="arrowright" unicode="&#x2192;" horiz-adv-x="736" 
d="M417 495l54 56l240 -239l-240 -242l-54 57l145 142h-515v84h515z" />
    <glyph glyph-name="arrowdown" unicode="&#x2193;" horiz-adv-x="736" 
d="M183 314l143 -146v516h83v-516l143 145l55 -53l-239 -240l-241 240z" />
    <glyph glyph-name="uni2194" unicode="&#x2194;" horiz-adv-x="891" 
d="M318 495l-145 -142h544l-145 142l54 56l240 -239l-241 -242l-54 57l146 142h-544l146 -142l-54 -57l-240 242l239 239z" />
    <glyph glyph-name="uni2195" unicode="&#x2195;" horiz-adv-x="720" 
d="M174 457l-56 54l241 240l239 -240l-56 -53l-142 145v-503l142 145l56 -54l-239 -239l-241 240l56 54l143 -146v502z" />
    <glyph glyph-name="uni2196" unicode="&#x2196;" horiz-adv-x="736" 
d="M474 489h-205l365 -365l-59 -60l-366 366v-206h-74v339h339v-74z" />
    <glyph glyph-name="uni2197" unicode="&#x2197;" horiz-adv-x="736" 
d="M261 489v74h340v-339h-75v206l-365 -366l-59 60l365 365h-206z" />
    <glyph glyph-name="uni2198" unicode="&#x2198;" horiz-adv-x="736" 
d="M261 139h206l-365 366l59 59l365 -366v207h75v-340h-340v74z" />
    <glyph glyph-name="uni2199" unicode="&#x2199;" horiz-adv-x="736" 
d="M474 139v-74h-339v340h74v-207l366 366l59 -59l-365 -366h205z" />
    <glyph glyph-name="partialdiff" unicode="&#x2202;" horiz-adv-x="845" 
d="M404 -10q-81 0 -145.5 15.5t-108 45.5t-67 73t-23.5 98q0 53 22 93.5t63.5 68.5t101.5 43t137 15q72 0 129 -13.5t98 -37.5q38 -22 61 -52q0 55 -11 100q-11 48 -33.5 83.5t-55 59t-74.5 35t-94 11.5q-53 0 -92.5 -7.5t-66.5 -22t-44 -37.5l-98 27q16 30 43 53t65 38.5
t86 23t106 7.5q71 0 130.5 -15.5t104.5 -46t76.5 -76.5t47.5 -107t16 -136q0 -65 -15.5 -118.5t-46 -95t-75.5 -69.5t-104 -42t-133 -14zM405 71q57 0 102 11t76.5 32t48.5 50t17 65q0 29 -16.5 54t-48 43.5t-76 29t-99.5 10.5q-58 0 -102.5 -10t-75.5 -28.5t-47 -45.5
t-16 -61q0 -35 15.5 -62.5t46 -47t74.5 -30t101 -10.5z" />
    <glyph glyph-name="increment" unicode="&#x2206;" horiz-adv-x="893" 
d="M766 0h-755l380 700h108l383 -700h-116zM722 81l-279 518l-277 -518h556z" />
    <glyph glyph-name="product" unicode="&#x220f;" horiz-adv-x="1000" 
d="M126 -122v822h747v-822h-106v736h-534v-736h-107z" />
    <glyph glyph-name="summation" unicode="&#x2211;" horiz-adv-x="751" 
d="M48 -150v80l297 346l-296 344v80h660v-86h-524l287 -335l-287 -343h537v-86h-674z" />
    <glyph glyph-name="minus" unicode="&#x2212;" horiz-adv-x="589" 
d="M531 315h-474v75h474v-75z" />
    <glyph glyph-name="uni2215" unicode="&#x2215;" horiz-adv-x="770" 
d="M101 0h-101l669 700h101z" />
    <glyph glyph-name="radical" unicode="&#x221a;" horiz-adv-x="804" 
d="M352 0l-224 398l-105 -48l-26 60l188 84l213 -393l294 599h104l-353 -700h-91z" />
    <glyph glyph-name="infinity" unicode="&#x221e;" horiz-adv-x="901" 
d="M653 127q-33 0 -63.5 8.5t-60 28.5t-57.5 55q-12 16 -25 35l-2 -4q-23 -33 -50.5 -61t-63 -45t-84.5 -17q-43 0 -78 13.5t-59.5 38.5t-37.5 60.5t-13 80.5q0 44 13.5 79.5t39 61.5t59.5 40.5t76 14.5q33 0 62 -8t57.5 -28t56.5 -55q12 -16 25 -34l2 2q22 33 50 61t65 45
t87 17q45 0 79.5 -13.5t59 -38.5t37.5 -60.5t13 -79.5t-13.5 -80t-38.5 -62t-59.5 -40.5t-76.5 -14.5zM491 323q25 -43 48 -68q26 -29 52.5 -40.5t56.5 -11.5t54 14t38.5 41t14.5 66q0 28 -8.5 49.5t-23 36.5t-34 22.5t-41.5 7.5q-38 0 -66 -17t-51 -45q-21 -25 -40 -55z
M405 323q-26 42 -48 66q-26 28 -50.5 39.5t-54.5 11.5q-23 0 -42 -8t-34 -23.5t-23 -37t-8 -51.5q0 -37 14 -63.5t38.5 -40t54.5 -13.5q36 0 63 17t49 45q21 26 41 58z" />
    <glyph glyph-name="integral" unicode="&#x222b;" horiz-adv-x="451" 
d="M162 546q0 64 20.5 105.5t61.5 62t102 20.5q24 0 50 -3t45 -8l-2 -75q-19 4 -41 6t-40 2q-48 0 -71.5 -23.5t-23.5 -81.5v-571q0 -65 -20.5 -107.5t-61.5 -62.5t-103 -20q-22 0 -45 3t-40 7l-3 76q18 -4 38 -6.5t37 -2.5q50 0 73.5 24.5t23.5 82.5v572z" />
    <glyph glyph-name="approxequal" unicode="&#x2248;" horiz-adv-x="589" 
d="M181 456q-28 0 -57.5 -10.5t-66.5 -33.5v78q40 24 70.5 33t59.5 9q34 0 63 -9.5t54.5 -22.5t50.5 -22.5t53 -9.5t57.5 10.5t65.5 33.5v-78q-40 -24 -70 -33t-59 -9q-33 0 -61.5 9.5t-54 22.5t-51.5 22.5t-54 9.5zM181 237q-28 0 -57.5 -10.5t-66.5 -33.5v78
q40 24 70.5 33t59.5 9q34 0 63 -9.5t54.5 -22.5t50.5 -22.5t53 -9.5t57.5 10.5t65.5 33.5v-78q-40 -24 -70 -33t-59 -9q-33 0 -61.5 9.5t-54 22.5t-51.5 22.5t-54 9.5z" />
    <glyph glyph-name="notequal" unicode="&#x2260;" horiz-adv-x="589" 
d="M215 105h-85l49 99h-122v75h159l71 146h-230v75h267l49 100h85l-49 -100h122v-75h-159l-72 -146h231v-75h-268z" />
    <glyph glyph-name="lessequal" unicode="&#x2264;" horiz-adv-x="586" 
d="M57 344v76l474 199v-90l-364 -144l364 -144v-96zM530 12h-474v75h474v-75z" />
    <glyph glyph-name="greaterequal" unicode="&#x2265;" horiz-adv-x="586" 
d="M532 420v-76l-474 -199v90l364 144l-364 144v96zM532 12h-474v75h474v-75z" />
    <glyph glyph-name="wave" unicode="&#x2307;" horiz-adv-x="1025" 
d="M1025 0q-55 0 -98.5 26.5t-76.5 71.5t-60.5 101t-51 115.5t-47 115.5t-49.5 101t-57.5 71.5t-72.5 26.5t-72.5 -26.5t-57.5 -71.5t-49.5 -101t-47 -115.5t-50.5 -115.5t-60 -101t-76 -71.5t-99 -26.5v81q39 0 70 26.5t56 71.5t48 101t46.5 115.5t50.5 115.5t61 101
t78 71.5t102 26.5t102 -26.5t78 -71.5t61 -101t50.5 -115.5t47 -115.5t48.5 -101t56 -71.5t70 -26.5q2 0 3.5 -12.5t1.5 -27.5t-1.5 -28t-3.5 -13z" />
    <glyph glyph-name="lozenge" unicode="&#x25ca;" horiz-adv-x="787" 
d="M449 0h-112l-303 350l303 350h112l303 -350zM156 351l240 -275l235 276l-240 269z" />
    <glyph glyph-name="commaaccent" unicode="&#xf6c3;" 
d="M98 -213l99 149h121l-138 -149h-82z" />
    <glyph glyph-name="kgreenlandic.case" horiz-adv-x="1057" 
d="M126 0v700h105v-343l473 343h146l-437 -320l465 -380h-155l-395 317l-97 -71v-246h-105zM1067 700l-119 -155h-124l161 155h82z" />
    <glyph glyph-name="napostrophe.case" horiz-adv-x="1184" 
d="M298 0v700h106l555 -582v582h98v-700h-106l-555 581v-581h-98zM4 551l99 149h121l-138 -149h-82z" />
    <glyph glyph-name="i.dot" horiz-adv-x="315" 
d="M107 0v544h101v-544h-101zM103 628v101h109v-101h-109z" />
    <glyph glyph-name="caron.alt" 
d="M291 535v215h101l-33 -215h-68z" />
    <glyph glyph-name="revcommaaccent" 
d="M426 764l-119 -155h-124l161 155h82z" />
    <glyph glyph-name="zero.tlf" horiz-adv-x="863" 
d="M432 -10q-73 0 -133.5 15.5t-107 45.5t-79 73.5t-49.5 100t-17 125.5q0 68 17 124.5t49.5 100.5t79 74t107 45.5t133.5 15.5q72 0 132 -15.5t107 -45.5t79.5 -74t49 -100.5t16.5 -124.5q0 -69 -16.5 -125.5t-49 -100t-79.5 -73.5t-107 -45.5t-132 -15.5zM432 74
q52 0 95.5 11.5t77 34t56.5 56t34.5 77.5t11.5 97t-11.5 96.5t-34.5 77t-56.5 56t-77 34t-95.5 11.5q-54 0 -97 -11.5t-77 -34t-57 -56t-34.5 -77t-11.5 -96.5t11.5 -97t34.5 -77.5t57 -56t77 -34t97 -11.5z" />
    <glyph glyph-name="one.tlf" horiz-adv-x="863" 
d="M90 0v85h318v524l-306 -52v88l319 55h93v-615h293v-85h-717z" />
    <glyph glyph-name="two.tlf" horiz-adv-x="863" 
d="M98 83l384 225q40 24 68.5 44.5t47.5 38.5t30 35.5t15.5 34.5t4.5 37q0 40 -25 69t-73.5 44t-121.5 15q-72 0 -122.5 -17.5t-78.5 -51.5t-33 -83l-105 18q10 69 52.5 118t115 74.5t172.5 25.5q106 0 179 -25.5t112 -72.5t39 -111q0 -29 -6.5 -54.5t-21 -50t-41 -49
t-66 -51t-94.5 -57.5l-260 -154h507v-85h-679v83z" />
    <glyph glyph-name="three.tlf" horiz-adv-x="863" 
d="M630 358q7 -1 15 -3q45 -12 76 -34.5t47 -55t16 -74.5q0 -48 -22 -86t-65.5 -63.5t-109 -38.5t-153.5 -13q-82 0 -145.5 12t-107.5 36.5t-71 62t-38 87.5l107 21q7 -34 25 -60t49 -43.5t76.5 -26.5t105.5 -9t105 8t74 24.5t43 40t14 54.5q0 37 -20 62.5t-59.5 39.5
t-97.5 14h-193v81h192q40 0 71 8t52.5 23t32 36t10.5 49t-14.5 50.5t-43 37.5t-70.5 23t-99 8q-55 0 -97.5 -8.5t-72.5 -26t-48 -42.5t-25 -58l-102 23q11 46 38 82t70.5 61t103 37.5t135.5 12.5q81 0 143 -12.5t105 -36t65 -58.5t22 -80q0 -39 -14.5 -70t-42 -53.5
t-68.5 -36.5q-7 -2 -14 -5z" />
    <glyph glyph-name="four.tlf" horiz-adv-x="863" 
d="M683 0h-103v147h-541v78l538 475h106v-472h147v-81h-147v-147zM580 228v368l-419 -368h419z" />
    <glyph glyph-name="five.tlf" horiz-adv-x="863" 
d="M421 -10q-73 0 -131.5 10.5t-102 32t-73 55t-43.5 77.5l106 23q12 -38 43 -63.5t82 -38.5t119 -13q60 0 105 10t75.5 29t45.5 48t15 65q0 37 -15.5 66t-45 49t-74 30.5t-103.5 10.5q-39 0 -74 -4.5t-64 -13t-51.5 -21t-39.5 -29.5l-93 11l40 376h583v-81h-494l-25 -222
q6 4 13 8q30 16 66.5 27.5t77 17.5t84.5 6q76 0 135.5 -15t101.5 -44.5t64 -72.5t22 -99t-22.5 -99.5t-67 -74t-109.5 -46t-150 -15.5z" />
    <glyph glyph-name="six.tlf" horiz-adv-x="863" 
d="M71 338q0 60 11.5 110t33.5 92t54.5 73.5t75 53t94.5 32.5t113 11q91 0 160.5 -20t115 -58.5t62.5 -95.5l-104 -22q-13 37 -44 62.5t-79 38.5t-111 13q-54 0 -98 -12t-77 -35.5t-55.5 -58.5t-33.5 -82t-11 -104q7 9 16 18q43 40 115 62.5t167 22.5q77 0 137 -14.5
t102.5 -42.5t64 -69.5t21.5 -93.5q0 -53 -23 -95.5t-68.5 -72.5t-110.5 -45.5t-150 -15.5q-74 0 -134 14.5t-105.5 43t-76.5 71t-46.5 97.5t-15.5 122zM450 71q59 0 104.5 10.5t76.5 30t47 46.5t16 60q0 34 -16 60.5t-47.5 45t-76.5 28.5t-104 10t-105 -9.5t-79 -27t-50 -41
t-17 -52.5q0 -36 17.5 -66t50 -51t79 -32.5t104.5 -11.5z" />
    <glyph glyph-name="seven.tlf" horiz-adv-x="863" 
d="M764 616l-407 -616h-125l414 614h-548v86h666v-84z" />
    <glyph glyph-name="eight.tlf" horiz-adv-x="863" 
d="M433 -10q-90 0 -159.5 13.5t-116.5 39.5t-71 63t-24 84q0 46 24.5 81t72.5 59q37 19 87 31q-36 11 -64 27q-43 24 -66 58t-23 77t22.5 78t66 59t107 37t144.5 13t143.5 -13t106.5 -37t66 -59t22 -78q0 -35 -14.5 -64t-42.5 -51t-69 -38q-12 -5 -26 -9q50 -12 87 -31
q47 -24 72 -59t25 -81q0 -47 -24 -84t-71 -63t-116 -39.5t-159 -13.5zM433 67q65 0 113.5 8.5t80.5 24.5t48.5 39.5t16.5 53.5t-16 53.5t-48.5 39.5t-81 24.5t-113.5 8.5t-114 -8.5t-81 -24.5t-48.5 -39.5t-16.5 -53.5t16.5 -53.5t48.5 -39.5t81 -24.5t114 -8.5zM664 515
q0 28 -14.5 49.5t-43 36.5t-72 23t-101.5 8t-101.5 -8t-73 -23t-43.5 -36.5t-14 -49.5t14 -49t43.5 -36t73 -22.5t101.5 -7.5t101.5 7.5t72 22.5t43 36t14.5 49z" />
    <glyph glyph-name="nine.tlf" horiz-adv-x="863" 
d="M791 362q0 -59 -11.5 -109.5t-33.5 -92.5t-54.5 -73.5t-75 -53t-94.5 -32.5t-114 -11q-90 0 -159.5 20t-114.5 59t-63 95l104 22q14 -36 44.5 -62t78.5 -39t111 -13q54 0 97.5 12t77 35.5t56 58.5t33.5 82t11 104q-25 -31 -66 -53q-43 -24 -101.5 -37t-130.5 -13
q-77 0 -137.5 14.5t-102.5 42.5t-63.5 69.5t-21.5 93.5q0 53 23 95.5t68.5 72.5t111 45.5t149.5 15.5q74 0 134 -14.5t105.5 -43t76.5 -71t46.5 -97.5t15.5 -122zM412 629q-59 0 -104.5 -10.5t-76.5 -30t-47 -46.5t-16 -60q0 -34 16 -60.5t47 -45t76.5 -28.5t104.5 -10
t105 9.5t79 27t50 41t17 52.5q0 36 -17.5 66t-50.5 51t-79 32.5t-104 11.5z" />
    <glyph glyph-name="zero.posf" horiz-adv-x="904" 
d="M452 -10q-73 0 -133.5 13.5t-107.5 39.5t-79.5 63.5t-49.5 86.5t-17 107t17 106.5t49 86.5t79.5 64t108 39.5t133.5 13.5t133.5 -13.5t107.5 -39.5t79.5 -64t49.5 -86.5t17 -106.5t-17 -107t-49.5 -86.5t-79.5 -63.5t-107.5 -39.5t-133.5 -13.5zM452 74q53 0 97 9.5
t77.5 28.5t56.5 46.5t34.5 63t11.5 78.5t-11.5 78t-34.5 62.5t-56.5 46.5t-77.5 28.5t-97 9.5t-97 -9.5t-77.5 -28.5t-56.5 -46.5t-35 -62.5t-12 -78t12 -78.5t35 -63t56.5 -46.5t77.5 -28.5t97 -9.5z" />
    <glyph glyph-name="one.posf" horiz-adv-x="753" 
d="M54 0v85h299v424l-287 -52v88l299 55h94v-515h264v-85h-669z" />
    <glyph glyph-name="two.posf" horiz-adv-x="788" 
d="M64 84l371 158q56 25 91 46t53.5 39.5t25.5 38t7 41.5q0 27 -13.5 49t-40.5 38t-68 25t-96 9q-54 0 -96.5 -10.5t-72 -29.5t-46 -48t-19.5 -66l-105 18q7 52 33 92.5t69 68.5t103 42.5t135 14.5q106 0 179 -24.5t111 -70t38 -106.5q0 -28 -7 -52.5t-23.5 -47.5t-45 -44.5
t-72.5 -43.5t-106 -44l-241 -95h513v-82h-677v84z" />
    <glyph glyph-name="three.posf" horiz-adv-x="828" 
d="M607 249q9 -2 17 -5q45 -12 76 -35t47 -56.5t16 -76.5q0 -50 -22 -88.5t-65.5 -64.5t-109 -39.5t-153.5 -13.5q-82 0 -145.5 12.5t-107.5 36.5t-71 61.5t-38 87.5l107 21q7 -34 25 -59.5t49 -43.5t76.5 -27t105.5 -9t105 8.5t74 25t43 41.5t14 57q0 28 -11 51t-33.5 38.5
t-55.5 23.5t-77 8h-193v81h192q40 0 71 8t52.5 24t32 38t10.5 51t-14.5 52.5t-43 39.5t-70.5 24t-99 8q-55 0 -97.5 -8.5t-72.5 -26t-48 -42.5t-25 -58l-102 23q11 46 38 82t70.5 61t103 37.5t135.5 12.5q81 0 143 -12.5t105 -37t65 -60.5t22 -82q0 -40 -14.5 -72t-42 -55.5
t-68.5 -37.5z" />
    <glyph glyph-name="four.posf" horiz-adv-x="850" 
d="M679 -120h-103v120h-541v78l536 522h108v-519h147v-81h-147v-120zM576 81v410l-423 -410h423z" />
    <glyph glyph-name="five.posf" horiz-adv-x="819" 
d="M411 -130q-73 0 -131.5 11t-102 32.5t-73 54.5t-43.5 78l106 23q12 -38 43 -64t82 -39t119 -13q60 0 105 11t75.5 32t45.5 52.5t15 71.5q0 36 -15.5 64t-45 47.5t-74 29.5t-103.5 10q-39 0 -74 -4.5t-64 -13t-51.5 -21t-39.5 -29.5l-93 11l40 386h583v-81h-494l-25 -232
q6 4 13 8q30 16 66.5 27.5t77 17.5t84.5 6q76 0 135.5 -15t101.5 -43.5t64 -70.5t22 -97q0 -60 -22.5 -106t-67 -78.5t-109.5 -49t-150 -16.5z" />
    <glyph glyph-name="six.posf" horiz-adv-x="856" 
d="M67 338q0 60 11.5 110t33.5 92t54.5 73.5t75 53t94.5 32.5t113 11q91 0 160.5 -20t115 -58.5t62.5 -95.5l-104 -22q-13 37 -44 62.5t-79 38.5t-111 13q-54 0 -98 -12t-77 -35.5t-55.5 -58.5t-33.5 -82t-11 -104q7 9 16 18q43 40 115 62.5t167 22.5q77 0 137 -14.5
t102.5 -42.5t64 -69.5t21.5 -93.5q0 -53 -23 -95.5t-68.5 -72.5t-110.5 -45.5t-150 -15.5q-74 0 -134 14.5t-105.5 43t-76.5 71t-46.5 97.5t-15.5 122zM446 71q59 0 104.5 10.5t76.5 30t47 46.5t16 60q0 34 -16 60.5t-47.5 45t-76.5 28.5t-104 10t-105 -9.5t-79 -27t-50 -41
t-17 -52.5q0 -36 17.5 -66t50 -51t79 -32.5t104.5 -11.5z" />
    <glyph glyph-name="seven.posf" horiz-adv-x="720" 
d="M689 516l-420 -636h-125l428 634h-547v86h664v-84z" />
    <glyph glyph-name="eight.posf" horiz-adv-x="859" 
d="M431 -10q-90 0 -159.5 13.5t-116.5 39.5t-71 63t-24 84q0 46 24.5 81t72.5 59q37 19 87 31q-36 11 -64 27q-43 24 -66 58t-23 77t22.5 78t66 59t107 37t144.5 13t143.5 -13t106.5 -37t66 -59t22 -78q0 -35 -14.5 -64t-42.5 -51t-69 -38q-12 -5 -26 -9q50 -12 87 -31
q47 -24 72 -59t25 -81q0 -47 -24 -84t-71 -63t-116 -39.5t-159 -13.5zM431 67q65 0 113.5 8.5t80.5 24.5t48.5 39.5t16.5 53.5t-16 53.5t-48.5 39.5t-81 24.5t-113.5 8.5t-114 -8.5t-81 -24.5t-48.5 -39.5t-16.5 -53.5t16.5 -53.5t48.5 -39.5t81 -24.5t114 -8.5zM662 515
q0 28 -14.5 49.5t-43 36.5t-72 23t-101.5 8t-101.5 -8t-73 -23t-43.5 -36.5t-14 -49.5t14 -49t43.5 -36t73 -22.5t101.5 -7.5t101.5 7.5t72 22.5t43 36t14.5 49z" />
    <glyph glyph-name="nine.posf" horiz-adv-x="857" 
d="M789 251q0 -60 -11 -112.5t-33.5 -95t-55 -75t-75 -54.5t-94 -33.5t-113.5 -11.5q-91 0 -160.5 20t-114 59t-63.5 96l105 21q13 -36 43.5 -61.5t78.5 -38.5t111 -13q54 0 98 12t77 36t55.5 61t33.5 85t12 108q-8 -10 -17 -18q-43 -41 -114.5 -63t-167.5 -22
q-76 0 -136.5 14.5t-102.5 42.5t-64 69t-22 93q0 55 23 99.5t68.5 76t111 48t149.5 16.5q74 0 134 -15.5t105.5 -45t76.5 -72.5t46.5 -99.5t15.5 -126.5zM410 528q-59 0 -104.5 -11.5t-76.5 -32t-46.5 -49.5t-15.5 -63q0 -35 16 -61.5t47 -45t76.5 -28t103.5 -9.5
q59 0 105 9.5t79 26.5t50 41t17 52q0 39 -17.5 70.5t-50 54t-79 34.5t-104.5 12z" />
    <glyph glyph-name="zero.numerator" horiz-adv-x="475" 
d="M238 345q-50 0 -88 12t-64.5 35.5t-40.5 57t-14 75.5t14 75t40.5 56.5t64.5 35.5t88 12q49 0 87.5 -12t65 -35.5t40 -56.5t13.5 -75t-13.5 -75.5t-40 -57t-65 -35.5t-87.5 -12zM238 401q31 0 55.5 8.5t41 24t25 38.5t8.5 53t-8.5 52.5t-25 38.5t-41 24t-55.5 8t-55.5 -8
t-41.5 -24t-25.5 -38.5t-8.5 -52.5t8.5 -53t25.5 -38.5t41.5 -24t55.5 -8.5z" />
    <glyph glyph-name="one.numerator" horiz-adv-x="407" 
d="M34 350v57h146v234l-141 -23v55l154 27h59v-293h130v-57h-348z" />
    <glyph glyph-name="two.numerator" horiz-adv-x="437" 
d="M33 404l212 101q34 18 50 31.5t21.5 26t5.5 26.5q0 19 -12 33t-35.5 21.5t-59.5 7.5q-35 0 -59.5 -8.5t-38.5 -24t-16 -39.5l-71 11q5 37 27.5 62t62.5 38.5t94 13.5q59 0 99.5 -13.5t61.5 -38.5t21 -60q0 -19 -5 -35t-19 -31.5t-39.5 -31.5t-66.5 -36l-115 -53h250v-55
h-368v54z" />
    <glyph glyph-name="three.numerator" horiz-adv-x="438" 
d="M332 530q25 -7 42 -18q32 -23 32 -64q0 -32 -21 -55t-63 -35.5t-106 -12.5q-58 0 -98.5 10.5t-63.5 32.5t-30 54l71 11q4 -19 18 -31t39.5 -18.5t63.5 -6.5q41 0 66.5 6.5t37 19t11.5 30.5q0 24 -20 36.5t-57 12.5h-107v50h107q23 0 39 5.5t24.5 16.5t8.5 26
q0 17 -12 28.5t-35.5 18t-61.5 6.5q-36 0 -60.5 -6.5t-38.5 -18.5t-18 -31l-69 10q7 31 30 52.5t62 33t93 11.5q60 0 100.5 -11t61 -33t20.5 -52q0 -25 -13.5 -44t-39.5 -30q-6 -2 -13 -4z" />
    <glyph glyph-name="four.numerator" horiz-adv-x="468" 
d="M370 350h-69v70h-276v46l281 236h64v-231h73v-51h-73v-70zM301 471v167l-196 -167h196z" />
    <glyph glyph-name="five.numerator" horiz-adv-x="429" 
d="M214 345q-51 0 -89.5 9.5t-63 30t-34.5 49.5l68 15q6 -18 21.5 -30t40 -18t57.5 -6q40 0 65.5 8.5t38 24t12.5 37.5q0 20 -12.5 35t-37.5 23t-64 8q-26 0 -46 -3t-37 -10t-32 -19l-58 9l20 192h315v-51h-257l-10 -99q18 11 39 18q36 11 83 11q54 0 91 -13t56.5 -38.5
t19.5 -62.5q0 -38 -21.5 -65t-63 -41t-101.5 -14z" />
    <glyph glyph-name="six.numerator" horiz-adv-x="445" 
d="M31 517q0 46 14 81t40.5 58.5t63.5 35.5t84 12q46 0 81.5 -9t60.5 -27t37 -44l-67 -22q-13 25 -41 38.5t-72 13.5q-43 0 -72 -15t-44 -46q-13 -26 -15 -62q10 10 25 18q22 12 52 18t67 6q59 0 97 -13.5t56.5 -38t18.5 -58.5q0 -33 -21.5 -60t-63 -42.5t-102.5 -15.5
q-49 0 -85.5 10.5t-62 32t-38.5 53.5t-13 76zM229 395q37 0 63 8.5t39.5 24t13.5 35.5t-13 34.5t-39 22.5t-63 8q-36 0 -62.5 -8t-41.5 -21.5t-15 -33.5q0 -21 14.5 -36.5t41 -24.5t62.5 -9z" />
    <glyph glyph-name="seven.numerator" horiz-adv-x="405" 
d="M380 655l-199 -305h-80l199 295h-276v55h356v-45z" />
    <glyph glyph-name="eight.numerator" horiz-adv-x="459" 
d="M230 345q-67 0 -111.5 12t-67 35t-22.5 54t24 53q23 21 67 33q-15 4 -27 10q-24 11 -36 28.5t-12 38.5q0 30 21 51t62.5 32.5t101.5 11.5t101.5 -11.5t62.5 -32.5t21 -51q0 -21 -12.5 -38.5t-36.5 -28.5q-11 -6 -26 -10q44 -12 67 -33q23 -22 23 -53t-22 -54t-66.5 -35
t-111.5 -12zM230 393q42 0 70 6.5t41.5 19t13.5 30.5t-13.5 31t-41.5 19.5t-70 6.5q-43 0 -71 -6.5t-41.5 -19t-13.5 -31.5q0 -18 14 -30.5t41.5 -19t70.5 -6.5zM230 656q-38 0 -62.5 -6t-37 -17t-12.5 -27.5t12.5 -28t37 -17t62.5 -5.5t62.5 5.5t36.5 17t12 28.5
q0 25 -27 37.5t-84 12.5z" />
    <glyph glyph-name="nine.numerator" horiz-adv-x="445" 
d="M414 532q0 -46 -14 -81t-40 -58.5t-63.5 -35.5t-84.5 -12q-68 0 -114.5 20.5t-65.5 59.5l67 22q13 -24 41.5 -38t71.5 -14q44 0 73 15.5t44 45.5q13 26 15 62q-11 -10 -25 -18q-22 -12 -52 -18t-68 -6q-57 0 -95.5 13.5t-57 38.5t-18.5 58q0 34 21 60.5t63 42t103 15.5
q48 0 85.5 -10.5t63 -31.5t38 -53.5t12.5 -76.5zM216 654q-37 0 -63 -8.5t-39.5 -23.5t-13.5 -36q0 -20 13 -34.5t38.5 -22.5t63.5 -8q36 0 62.5 8t41.5 22t15 33q0 22 -14.5 37t-41 24t-62.5 9z" />
    <glyph glyph-name="zero.denominator" horiz-adv-x="475" 
d="M238 -5q-50 0 -88 12t-64.5 35.5t-40.5 57t-14 75.5t14 75t40.5 56.5t64.5 35.5t88 12q49 0 87.5 -12t65 -35.5t40 -56.5t13.5 -75t-13.5 -75.5t-40 -57t-65 -35.5t-87.5 -12zM238 51q31 0 55.5 8.5t41 24t25 38.5t8.5 53t-8.5 52.5t-25 38.5t-41 24t-55.5 8t-55.5 -8
t-41.5 -24t-25.5 -38.5t-8.5 -52.5t8.5 -53t25.5 -38.5t41.5 -24t55.5 -8.5z" />
    <glyph glyph-name="one.denominator" horiz-adv-x="407" 
d="M34 0v57h146v234l-141 -23v55l154 27h59v-293h130v-57h-348z" />
    <glyph glyph-name="two.denominator" horiz-adv-x="437" 
d="M33 54l212 101q34 18 50 31.5t21.5 26t5.5 26.5q0 19 -12 33t-35.5 21.5t-59.5 7.5q-35 0 -59.5 -8.5t-38.5 -24t-16 -39.5l-71 11q5 37 27.5 62t62.5 38.5t94 13.5q59 0 99.5 -13.5t61.5 -38.5t21 -60q0 -19 -5 -35t-19 -31.5t-39.5 -31.5t-66.5 -36l-115 -53h250v-55
h-368v54z" />
    <glyph glyph-name="three.denominator" horiz-adv-x="438" 
d="M332 180q25 -7 42 -18q32 -23 32 -64q0 -32 -21 -55t-63 -35.5t-106 -12.5q-58 0 -98.5 10.5t-63.5 32.5t-30 54l71 11q4 -19 18 -31t39.5 -18.5t63.5 -6.5q41 0 66.5 6.5t37 19t11.5 30.5q0 24 -20 36.5t-57 12.5h-107v50h107q23 0 39 5.5t24.5 16.5t8.5 26
q0 17 -12 28.5t-35.5 18t-61.5 6.5q-36 0 -60.5 -6.5t-38.5 -18.5t-18 -31l-69 10q7 31 30 52.5t62 33t93 11.5q60 0 100.5 -11t61 -33t20.5 -52q0 -25 -13.5 -44t-39.5 -30q-6 -2 -13 -4z" />
    <glyph glyph-name="four.denominator" horiz-adv-x="468" 
d="M370 0h-69v70h-276v46l281 236h64v-231h73v-51h-73v-70zM301 121v167l-196 -167h196z" />
    <glyph glyph-name="five.denominator" horiz-adv-x="429" 
d="M214 -5q-51 0 -89.5 9.5t-63 30t-34.5 49.5l68 15q6 -18 21.5 -30t40 -18t57.5 -6q40 0 65.5 8.5t38 24t12.5 37.5q0 20 -12.5 35t-37.5 23t-64 8q-26 0 -46 -3t-37 -10t-32 -19l-58 9l20 192h315v-51h-257l-10 -99q18 11 39 18q36 11 83 11q54 0 91 -13t56.5 -38.5
t19.5 -62.5q0 -38 -21.5 -65t-63 -41t-101.5 -14z" />
    <glyph glyph-name="six.denominator" horiz-adv-x="445" 
d="M31 167q0 46 14 81t40.5 58.5t63.5 35.5t84 12q46 0 81.5 -9t60.5 -27t37 -44l-67 -22q-13 25 -41 38.5t-72 13.5q-43 0 -72 -15t-44 -46q-13 -26 -15 -62q10 10 25 18q22 12 52 18t67 6q59 0 97 -13.5t56.5 -38t18.5 -58.5q0 -33 -21.5 -60t-63 -42.5t-102.5 -15.5
q-49 0 -85.5 10.5t-62 32t-38.5 53.5t-13 76zM229 45q37 0 63 8.5t39.5 24t13.5 35.5t-13 34.5t-39 22.5t-63 8q-36 0 -62.5 -8t-41.5 -21.5t-15 -33.5q0 -21 14.5 -36.5t41 -24.5t62.5 -9z" />
    <glyph glyph-name="seven.denominator" horiz-adv-x="405" 
d="M380 305l-199 -305h-80l199 295h-276v55h356v-45z" />
    <glyph glyph-name="eight.denominator" horiz-adv-x="459" 
d="M230 -5q-67 0 -111.5 12t-67 35t-22.5 54t24 53q23 21 67 33q-15 4 -27 10q-24 11 -36 28.5t-12 38.5q0 30 21 51t62.5 32.5t101.5 11.5t101.5 -11.5t62.5 -32.5t21 -51q0 -21 -12.5 -38.5t-36.5 -28.5q-11 -6 -26 -10q44 -12 67 -33q23 -22 23 -53t-22 -54t-66.5 -35
t-111.5 -12zM230 43q42 0 70 6.5t41.5 19t13.5 30.5t-13.5 31t-41.5 19.5t-70 6.5q-43 0 -71 -6.5t-41.5 -19t-13.5 -31.5q0 -18 14 -30.5t41.5 -19t70.5 -6.5zM230 306q-38 0 -62.5 -6t-37 -17t-12.5 -27.5t12.5 -28t37 -17t62.5 -5.5t62.5 5.5t36.5 17t12 28.5
q0 25 -27 37.5t-84 12.5z" />
    <glyph glyph-name="nine.denominator" horiz-adv-x="445" 
d="M414 182q0 -46 -14 -81t-40 -58.5t-63.5 -35.5t-84.5 -12q-68 0 -114.5 20.5t-65.5 59.5l67 22q13 -24 41.5 -38t71.5 -14q44 0 73 15.5t44 45.5q13 26 15 62q-11 -10 -25 -18q-22 -12 -52 -18t-68 -6q-57 0 -95.5 13.5t-57 38.5t-18.5 58q0 34 21 60.5t63 42t103 15.5
q48 0 85.5 -10.5t63 -31.5t38 -53.5t12.5 -76.5zM216 304q-37 0 -63 -8.5t-39.5 -23.5t-13.5 -36q0 -20 13 -34.5t38.5 -22.5t63.5 -8q36 0 62.5 8t41.5 22t15 33q0 22 -14.5 37t-41 24t-62.5 9z" />
    <glyph glyph-name="onefifth" horiz-adv-x="1151" 
d="M34 350v57h146v234l-141 -23v55l154 27h59v-293h130v-57h-348zM294 0h-101l669 700h101zM935 -5q-51 0 -89.5 9.5t-63 30t-34.5 49.5l68 15q6 -18 21.5 -30t40 -18t57.5 -6q40 0 65.5 8.5t38 24t12.5 37.5q0 20 -12.5 35t-37.5 23t-64 8q-26 0 -46 -3t-37 -10t-32 -19
l-58 9l20 192h315v-51h-257l-10 -99q18 11 39 18q36 11 83 11q54 0 91 -13t56.5 -38.5t19.5 -62.5q0 -38 -21.5 -65t-63 -41t-101.5 -14z" />
    <glyph glyph-name="onesixth" horiz-adv-x="1141" 
d="M34 350v57h146v234l-141 -23v55l154 27h59v-293h130v-57h-348zM294 0h-101l669 700h101zM726 167q0 46 14 81t40.5 58.5t63.5 35.5t84 12q46 0 81.5 -9t60.5 -27t37 -44l-67 -22q-13 25 -41 38.5t-72 13.5q-43 0 -72 -15t-44 -46q-13 -26 -15 -62q10 10 25 18
q22 12 52 18t67 6q59 0 97 -13.5t56.5 -38t18.5 -58.5q0 -33 -21.5 -60t-63 -42.5t-102.5 -15.5q-49 0 -85.5 10.5t-62 32t-38.5 53.5t-13 76zM924 45q37 0 63 8.5t39.5 24t13.5 35.5t-13 34.5t-39 22.5t-63 8q-36 0 -62.5 -8t-41.5 -21.5t-15 -33.5q0 -21 14.5 -36.5
t41 -24.5t62.5 -9z" />
    <glyph glyph-name="oneseventh" horiz-adv-x="1168" 
d="M34 350v57h146v234l-141 -23v55l154 27h59v-293h130v-57h-348zM294 0h-101l669 700h101zM1143 305l-199 -305h-80l199 295h-276v55h356v-45z" />
    <glyph glyph-name="oneninth" horiz-adv-x="1151" 
d="M34 350v57h146v234l-141 -23v55l154 27h59v-293h130v-57h-348zM294 0h-101l669 700h101zM1119 182q0 -46 -14 -81t-40 -58.5t-63.5 -35.5t-84.5 -12q-68 0 -114.5 20.5t-65.5 59.5l67 22q13 -24 41.5 -38t71.5 -14q44 0 73 15.5t44 45.5q13 26 15 62q-11 -10 -25 -18
q-22 -12 -52 -18t-68 -6q-57 0 -95.5 13.5t-57 38.5t-18.5 58q0 34 21 60.5t63 42t103 15.5q48 0 85.5 -10.5t63 -31.5t38 -53.5t12.5 -76.5zM921 304q-37 0 -63 -8.5t-39.5 -23.5t-13.5 -36q0 -20 13 -34.5t38.5 -22.5t63.5 -8q36 0 62.5 8t41.5 22t15 33q0 22 -14.5 37
t-41 24t-62.5 9z" />
    <glyph glyph-name="twofifths" horiz-adv-x="1173" 
d="M33 404l212 101q34 18 50 31.5t21.5 26t5.5 26.5q0 19 -12 33t-35.5 21.5t-59.5 7.5q-35 0 -59.5 -8.5t-38.5 -24t-16 -39.5l-71 11q5 37 27.5 62t62.5 38.5t94 13.5q59 0 99.5 -13.5t61.5 -38.5t21 -60q0 -19 -5 -35t-19 -31.5t-39.5 -31.5t-66.5 -36l-115 -53h250v-55
h-368v54zM316 0h-101l669 700h101zM958 -5q-51 0 -89.5 9.5t-63 30t-34.5 49.5l68 15q6 -18 21.5 -30t40 -18t57.5 -6q40 0 65.5 8.5t38 24t12.5 37.5q0 20 -12.5 35t-37.5 23t-64 8q-26 0 -46 -3t-37 -10t-32 -19l-58 9l20 192h315v-51h-257l-10 -99q18 11 39 18
q36 11 83 11q54 0 91 -13t56.5 -38.5t19.5 -62.5q0 -38 -21.5 -65t-63 -41t-101.5 -14z" />
    <glyph glyph-name="twosevenths" horiz-adv-x="1191" 
d="M33 404l212 101q34 18 50 31.5t21.5 26t5.5 26.5q0 19 -12 33t-35.5 21.5t-59.5 7.5q-35 0 -59.5 -8.5t-38.5 -24t-16 -39.5l-71 11q5 37 27.5 62t62.5 38.5t94 13.5q59 0 99.5 -13.5t61.5 -38.5t21 -60q0 -19 -5 -35t-19 -31.5t-39.5 -31.5t-66.5 -36l-115 -53h250v-55
h-368v54zM316 0h-101l669 700h101zM1165 305l-199 -305h-80l199 295h-276v55h356v-45z" />
    <glyph glyph-name="twoninths" horiz-adv-x="1173" 
d="M33 404l212 101q34 18 50 31.5t21.5 26t5.5 26.5q0 19 -12 33t-35.5 21.5t-59.5 7.5q-35 0 -59.5 -8.5t-38.5 -24t-16 -39.5l-71 11q5 37 27.5 62t62.5 38.5t94 13.5q59 0 99.5 -13.5t61.5 -38.5t21 -60q0 -19 -5 -35t-19 -31.5t-39.5 -31.5t-66.5 -36l-115 -53h250v-55
h-368v54zM316 0h-101l669 700h101zM1142 182q0 -46 -14 -81t-40 -58.5t-63.5 -35.5t-84.5 -12q-68 0 -114.5 20.5t-65.5 59.5l67 22q13 -24 41.5 -38t71.5 -14q44 0 73 15.5t44 45.5q13 26 15 62q-11 -10 -25 -18q-22 -12 -52 -18t-68 -6q-57 0 -95.5 13.5t-57 38.5
t-18.5 58q0 34 21 60.5t63 42t103 15.5q48 0 85.5 -10.5t63 -31.5t38 -53.5t12.5 -76.5zM944 304q-37 0 -63 -8.5t-39.5 -23.5t-13.5 -36q0 -20 13 -34.5t38.5 -22.5t63.5 -8q36 0 62.5 8t41.5 22t15 33q0 22 -14.5 37t-41 24t-62.5 9z" />
    <glyph glyph-name="threefifths" horiz-adv-x="1144" 
d="M332 530q25 -7 42 -18q32 -23 32 -64q0 -32 -21 -55t-63 -35.5t-106 -12.5q-58 0 -98.5 10.5t-63.5 32.5t-30 54l71 11q4 -19 18 -31t39.5 -18.5t63.5 -6.5q41 0 66.5 6.5t37 19t11.5 30.5q0 24 -20 36.5t-57 12.5h-107v50h107q23 0 39 5.5t24.5 16.5t8.5 26
q0 17 -12 28.5t-35.5 18t-61.5 6.5q-36 0 -60.5 -6.5t-38.5 -18.5t-18 -31l-69 10q7 31 30 52.5t62 33t93 11.5q60 0 100.5 -11t61 -33t20.5 -52q0 -25 -13.5 -44t-39.5 -30q-6 -2 -13 -4zM288 0h-101l669 700h101zM929 -5q-51 0 -89.5 9.5t-63 30t-34.5 49.5l68 15
q6 -18 21.5 -30t40 -18t57.5 -6q40 0 65.5 8.5t38 24t12.5 37.5q0 20 -12.5 35t-37.5 23t-64 8q-26 0 -46 -3t-37 -10t-32 -19l-58 9l20 192h315v-51h-257l-10 -99q18 11 39 18q36 11 83 11q54 0 91 -13t56.5 -38.5t19.5 -62.5q0 -38 -21.5 -65t-63 -41t-101.5 -14z" />
    <glyph glyph-name="threesevenths" horiz-adv-x="1162" 
d="M332 530q25 -7 42 -18q32 -23 32 -64q0 -32 -21 -55t-63 -35.5t-106 -12.5q-58 0 -98.5 10.5t-63.5 32.5t-30 54l71 11q4 -19 18 -31t39.5 -18.5t63.5 -6.5q41 0 66.5 6.5t37 19t11.5 30.5q0 24 -20 36.5t-57 12.5h-107v50h107q23 0 39 5.5t24.5 16.5t8.5 26
q0 17 -12 28.5t-35.5 18t-61.5 6.5q-36 0 -60.5 -6.5t-38.5 -18.5t-18 -31l-69 10q7 31 30 52.5t62 33t93 11.5q60 0 100.5 -11t61 -33t20.5 -52q0 -25 -13.5 -44t-39.5 -30q-6 -2 -13 -4zM288 0h-101l669 700h101zM1137 305l-199 -305h-80l199 295h-276v55h356v-45z" />
    <glyph glyph-name="fourfifths" horiz-adv-x="1170" 
d="M370 350h-69v70h-276v46l281 236h64v-231h73v-51h-73v-70zM301 471v167l-196 -167h196zM313 0h-101l669 700h101zM954 -5q-51 0 -89.5 9.5t-63 30t-34.5 49.5l68 15q6 -18 21.5 -30t40 -18t57.5 -6q40 0 65.5 8.5t38 24t12.5 37.5q0 20 -12.5 35t-37.5 23t-64 8
q-26 0 -46 -3t-37 -10t-32 -19l-58 9l20 192h315v-51h-257l-10 -99q18 11 39 18q36 11 83 11q54 0 91 -13t56.5 -38.5t19.5 -62.5q0 -38 -21.5 -65t-63 -41t-101.5 -14z" />
    <glyph glyph-name="foursevenths" horiz-adv-x="1187" 
d="M370 350h-69v70h-276v46l281 236h64v-231h73v-51h-73v-70zM301 471v167l-196 -167h196zM313 0h-101l669 700h101zM1162 305l-199 -305h-80l199 295h-276v55h356v-45z" />
    </font>
</defs>
</svg>
